<?xml version="1.0" encoding="utf-8"?>
<!-- Generator: Adobe Illustrator 23.0.2, SVG Export Plug-In . SVG Version: 6.00 Build 0)  -->
<svg version="1.1" id="Layer_1" xmlns="http://www.w3.org/2000/svg" xmlns:xlink="http://www.w3.org/1999/xlink" x="0px" y="0px"
	 viewBox="0 0 512 512" style="enable-background:new 0 0 512 512;" xml:space="preserve">
<style type="text/css">
	.st0{fill:#BC1B09;}
	.st1{fill:#F35F4F;}
	.st2{fill:#FF3000;}
	.st3{fill:#FF2800;}
</style>
<path class="st0" d="M256,0c58.5,0,114.7,23.3,156.1,64.6c41.4,41.4,64.6,97.5,64.6,156.1v114.8H35.3V220.7C35.3,98.8,134.1,0,256,0
	z"/>
<path class="st1" d="M256,0c112.1,0,203,90.9,203,203v132.4H53V203C53,90.9,143.9,0,256,0z"/>
<path class="st0" d="M256,0c-82.9,0-150.1,98.8-150.1,220.7v114.8h300.1V220.7C406.1,98.8,338.9,0,256,0z"/>
<path class="st1" d="M256,0c-43.9,0-79.4,98.8-79.4,220.7v114.8h158.9V220.7C335.4,98.8,299.9,0,256,0z"/>
<path class="st0" d="M256,344.3c-4.9,0-8.8-4-8.8-8.8V61.8c0-4.9,4-8.8,8.8-8.8s8.8,4,8.8,8.8v273.7
	C264.8,340.3,260.9,344.3,256,344.3z"/>
<path class="st2" d="M35.3,335.4h441.4c19.5,0,35.3,15.8,35.3,35.3v105.9c0,19.5-15.8,35.3-35.3,35.3H35.3C15.8,512,0,496.2,0,476.7
	V370.8C0,351.3,15.8,335.4,35.3,335.4z"/>
<path class="st3" d="M494.3,370.8v105.9c0.7,18.8-14.1,34.6-32.9,35.3H50.5c-18.8-0.7-33.5-16.5-32.9-35.3V370.8
	c-0.7-18.8,14.1-34.6,32.9-35.3h410.9C480.3,336.1,495,351.9,494.3,370.8z"/>
</svg>
