<svg height="512pt" viewBox="0 -34 512 512" width="512pt" xmlns="http://www.w3.org/2000/svg"><path d="m373.109375 266.03125c-16.175781 24.492188-43.3125 40.121094-72.617187 41.816406l-4.765626.855469-11.453124-36.648437h-56.546876l-11.160156 35.714843-.816406.273438c-32.808594.847656-64.0625-15.933594-81.53125-43.738281l-50.007812-78.863282c-24.472657-2.453125-45.265626-5.070312-53.957032-6.203125l37.53125 116.683594c18.171875 61.371094 65.507813 109.300781 126.660156 128.230469l61.554688 19.058594 61.554688-19.054688c61.148437-18.933594 108.484374-66.863281 126.660156-128.234375l37.53125-116.683594c-8.761719 1.144531-29.667969 3.777344-54.257813 6.234375zm0 0"/><path d="m490.894531 124.367188c-.261719-.265626-26.296875-26.726563-56.210937-54.265626-62.308594-57.363281-80.738282-63.65625-86.796875-65.722656-20.4375-6.980468-42.371094-5.578125-61.757813 3.941406-12.191406 5.984376-22.453125 14.730469-30.128906 25.480469-7.675781-10.75-17.9375-19.496093-30.128906-25.480469-19.386719-9.519531-41.316406-10.917968-61.757813-3.941406-6.054687 2.066406-24.488281 8.359375-86.792969 65.722656-29.914062 27.542969-55.953124 54-56.214843 54.265626l-21.105469 21.476562 29.832031 4.085938c.367188.050781 37.152344 5.0625 77.660157 8.5625 29.320312 2.53125 50.671874 3.425781 66.3125 3.425781 29.375 0 38.601562-3.148438 42.554687-4.5 16.195313-5.53125 29.90625-15.808594 39.640625-29.480469 9.734375 13.671875 23.441406 23.949219 39.640625 29.480469 3.953125 1.351562 13.171875 4.5 42.550781 4.5 15.644532 0 37-.894531 66.3125-3.425781 40.511719-3.496094 77.292969-8.511719 77.660156-8.5625l29.835938-4.085938zm0 0"/></svg>