<?xml version="1.0" encoding="utf-8"?>
<!-- Generator: Adobe Illustrator 23.0.2, SVG Export Plug-In . SVG Version: 6.00 Build 0)  -->
<svg version="1.1" id="Layer_1" xmlns="http://www.w3.org/2000/svg" xmlns:xlink="http://www.w3.org/1999/xlink" x="0px" y="0px"
	 viewBox="0 0 512 512" style="enable-background:new 0 0 512 512;" xml:space="preserve">
<style type="text/css">
	.st0{fill:#FF0000;}
	.st1{fill:#0569E2;}
	.st2{fill:#E8D99A;}
</style>
<g>
	<path d="M256,0c-58.6,0-108.1,39.7-126.7,92H91v60h330V92h-38.3C364.1,39.7,314.6,0,256,0z"/>
	<path class="st0" d="M211,405.3v1.7c0,24.9,20.1,45,45,45s45-20.1,45-45v-1.9c-22.4,12.6-38.3,17-45,19.9
		C248,421.5,233.3,418,211,405.3z"/>
	<path d="M91,393.5C40.3,400.9,0,444.2,0,497v15h91V393.5z"/>
	<path class="st1" d="M121,512h270V392h-60v15c0,41.4-33.6,75-75,75s-75-33.6-75-75v-15h-60V512z"/>
	<path d="M421,393.5V512h91v-15C512,444.2,471.8,400.9,421,393.5z"/>
	<path class="st2" d="M421,203.8c0,12.9-1.3,25.7-3.4,38.2H436c16.6,0,30-13.4,30-30s-13.4-30-30-30h-15V203.8z"/>
	<path class="st2" d="M76,182c-16.6,0-30,13.4-30,30s13.4,30,30,30h18.4c-2.1-12.5-3.4-25.2-3.4-38.2V182H76z"/>
	<path class="st2" d="M391,203.8V182H121v21.8c0,146.5,132,186.7,135,189.2C259,390.7,391,348.8,391,203.8z"/>
	<path d="M270.1,377.8c-2.1,2-5.6,3.2-9.3,3.4l-0.6,0.1l-1.5-2.9h-7.2l-1.4,2.9l-0.1,0c-4.2,0.1-8.2-1.3-10.5-3.5l-6.4-6.3
		c-3.1-0.2-5.8-0.4-6.9-0.5l4.8,9.4c2.3,4.9,8.4,8.8,16.2,10.3l7.9,1.5l7.9-1.5c7.8-1.5,13.9-5.4,16.2-10.3l4.8-9.4
		c-1.1,0.1-3.8,0.3-7,0.5L270.1,377.8z"/>
	<path d="M280,331.9c0,0-2.9-1.6-6.2-3.2c-6.8-3.3-8.9-3.7-9.5-3.8c-2.2-0.4-4.6-0.3-6.8,0.2c-1.3,0.3-2.5,0.9-3.3,1.5
		c-0.8-0.6-2-1.1-3.3-1.5c-2.1-0.6-4.5-0.6-6.8-0.2c-0.7,0.1-2.7,0.5-9.5,3.8c-3.3,1.6-6.1,3.1-6.2,3.2l-2.3,1.3l3.3,0.2
		c0,0,4.1,0.3,8.5,0.5c3.2,0.1,5.6,0.2,7.3,0.2c3.2,0,4.2-0.2,4.7-0.3c1.8-0.3,3.3-0.9,4.3-1.7c1.1,0.8,2.6,1.4,4.3,1.7
		c0.4,0.1,1.4,0.3,4.7,0.3c1.7,0,4.1-0.1,7.3-0.2c4.4-0.2,8.5-0.5,8.5-0.5l3.3-0.2L280,331.9z"/>
</g>
</svg>
