<?xml version="1.0" encoding="utf-8"?>
<!-- Generator: Adobe Illustrator 23.0.2, SVG Export Plug-In . SVG Version: 6.00 Build 0)  -->
<svg version="1.1" id="Capa_1" xmlns="http://www.w3.org/2000/svg" xmlns:xlink="http://www.w3.org/1999/xlink" x="0px" y="0px"
	 viewBox="0 0 57.5 57.5" style="enable-background:new 0 0 57.5 57.5;" xml:space="preserve">
<style type="text/css">
	.st0{fill:#EEAF4B;}
	.st1{fill:#7A3726;}
	.st2{fill:#C56458;}
	.st3{fill:#FBD490;}
	.st4{fill:#88C057;}
	.st5{fill:#BC1B09;}
	.st6{fill:#F35F4F;}
	.st7{fill:#FF3000;}
	.st8{fill:#FF2800;}
</style>
<g>
	<g>
		<path class="st0" d="M52.5,43c-0.6,0.1-1.3,0.1-2,0.1c-1.8,0-3.5-0.4-4.7-0.9c-1.2,0.6-2.9,0.9-4.8,0.9c-2.2,0-4.2-0.5-5.5-1.3
			c-1.3,0.8-3.3,1.3-5.5,1.3c-2.6,0-4.8-0.7-6-1.7c-1.2,1-3.4,1.7-6,1.7c-2.2,0-4.2-0.5-5.5-1.3c-1.3,0.8-3.3,1.3-5.5,1.3
			c-0.9,0-1.7-0.1-2.5-0.2c0,0.3,0,0.7,0,0.7c0,4.1,3.4,7.5,7.5,7.5h33c4.1,0,7.5-3.4,7.5-7.5c0-0.1,0-0.2,0-0.3
			C52.5,43.3,52.5,43.2,52.5,43z"/>
	</g>
	<path class="st1" d="M52.5,36.3c-0.1,1-0.9,1.9-2,1.9h-3.2c0.4,0.5,0.7,1,0.7,1.5c0,1-0.9,1.9-2.2,2.6c1.2,0.6,2.9,0.9,4.7,0.9
		c3.9,0,7-1.6,7-3.5C57.5,38.1,55.4,36.8,52.5,36.3z"/>
	<path class="st2" d="M36.3,38.2c0.4,0.5,0.7,1,0.7,1.5c0,0.8-0.6,1.6-1.5,2.2c1.3,0.8,3.3,1.3,5.5,1.3c3.9,0,7-1.6,7-3.5
		c0-0.5-0.3-1-0.7-1.5H36.3z"/>
	<path class="st0" d="M52.5,31.7c0-4.1-3.4-7.5-7.5-7.5c-2.2,0-4.1,0.9-5.5,2.4c-1.4-1.5-3.3-2.4-5.5-2.4s-4.1,0.9-5.5,2.4
		c-1.4-1.5-3.3-2.4-5.5-2.4s-4.1,0.9-5.5,2.4c-1.4-1.5-3.3-2.4-5.5-2.4c-4.1,0-7.5,3.4-7.5,7.5c0,0.1,0,0.2,0,0.3c0,0.1,0,0.1,0,0.2
		v4c0,1.1,0.9,2,2,2h44c1.1,0,2-0.9,2-2v-4c0-0.1,0-0.1,0-0.2C52.5,31.9,52.5,31.8,52.5,31.7z"/>
	<path class="st1" d="M6.5,38.2c-1,0-1.9-0.8-2-1.8C1.9,36.9,0,38.2,0,39.7c0,1.9,3.1,3.5,7,3.5s7-1.6,7-3.5c0-0.5-0.3-1-0.7-1.5
		H6.5z"/>
	<path class="st2" d="M13.3,38.2c0.4,0.5,0.7,1,0.7,1.5c0,0.8-0.6,1.6-1.5,2.2c1.3,0.8,3.3,1.3,5.5,1.3c3.9,0,7-1.6,7-3.5
		c0-0.5-0.3-1-0.7-1.5H13.3z"/>
	<path class="st1" d="M24.3,38.2c0.4,0.5,0.7,1,0.7,1.5c0,0.7-0.4,1.3-1,1.8c1.2,1,3.4,1.7,6,1.7c3.9,0,7-1.6,7-3.5
		c0-0.5-0.3-1-0.7-1.5H24.3z"/>
	<path class="st3" d="M15.9,33.6c-0.6,0-1-0.4-1-1c0-4.7,3.8-8.5,8.5-8.5c0.6,0,1,0.4,1,1s-0.4,1-1,1c-3.6,0-6.5,2.9-6.5,6.5
		C16.9,33.1,16.5,33.6,15.9,33.6z"/>
	<path class="st3" d="M26.5,33.7c-0.6,0-1-0.4-1-1c0-4.7,3.8-8.5,8.5-8.5c0.6,0,1,0.4,1,1s-0.4,1-1,1c-3.6,0-6.5,2.9-6.5,6.5
		C27.5,33.2,27.1,33.7,26.5,33.7z"/>
	<g>
		<path class="st0" d="M37.5,32.7c0-4.1,3.4-7.5,7.5-7.5"/>
		<path class="st3" d="M37.5,33.7c-0.6,0-1-0.4-1-1c0-4.7,3.8-8.5,8.5-8.5c0.6,0,1,0.4,1,1s-0.4,1-1,1c-3.6,0-6.5,2.9-6.5,6.5
			C38.5,33.2,38.1,33.7,37.5,33.7z"/>
	</g>
	<path class="st4" d="M14.5,36.2c-0.2,0-0.4,0-0.6,0c-0.2-0.6-0.8-1-1.4-1c-0.2,0-0.4,0-0.6,0.1c-0.2-0.6-0.8-1.1-1.4-1.1
		c-0.7,0-1.2,0.5-1.4,1.1c-0.2,0-0.4-0.1-0.6-0.1c-0.5,0-1,0.2-1.4,0.5c-0.4-0.3-1-0.5-1.6-0.5c-1.4,0-2.5,0.9-2.5,2
		c0,1.1,1.1,2,2.5,2c0.3,0,0.6-0.1,0.9-0.1c0.4,0.7,1.2,1.1,2.1,1.1c0.5,0,0.9-0.1,1.3-0.4c0.3,0.2,0.7,0.4,1.2,0.4
		c0.9,0,1.6-0.6,1.9-1.4c0.4,0.2,1,0.4,1.6,0.4c1.4,0,2.5-0.7,2.5-1.5S15.9,36.2,14.5,36.2z"/>
	<path class="st4" d="M26.5,36.2c-0.2,0-0.4,0-0.6,0c-0.2-0.6-0.8-1-1.4-1c-0.2,0-0.4,0-0.6,0.1c-0.2-0.6-0.8-1.1-1.4-1.1
		c-0.7,0-1.2,0.5-1.4,1.1c-0.2,0-0.4-0.1-0.6-0.1c-0.5,0-1,0.2-1.4,0.5c-0.4-0.3-1-0.5-1.6-0.5c-1.4,0-2.5,0.9-2.5,2
		c0,1.1,1.1,2,2.5,2c0.3,0,0.6-0.1,0.9-0.1c0.4,0.7,1.2,1.1,2.1,1.1c0.5,0,0.9-0.1,1.3-0.4c0.3,0.2,0.7,0.4,1.2,0.4
		c0.9,0,1.6-0.6,1.9-1.4c0.4,0.2,1,0.4,1.6,0.4c1.4,0,2.5-0.7,2.5-1.5S27.9,36.2,26.5,36.2z"/>
	<path class="st4" d="M39.5,36.2c-0.2,0-0.4,0-0.6,0c-0.2-0.6-0.8-1-1.4-1c-0.2,0-0.4,0-0.6,0.1c-0.2-0.6-0.8-1.1-1.4-1.1
		c-0.7,0-1.2,0.5-1.4,1.1c-0.2,0-0.4-0.1-0.6-0.1c-0.5,0-1,0.2-1.4,0.5c-0.4-0.3-1-0.5-1.6-0.5c-1.4,0-2.5,0.9-2.5,2
		c0,1.1,1.1,2,2.5,2c0.3,0,0.6-0.1,0.9-0.1c0.4,0.7,1.2,1.1,2.1,1.1c0.5,0,0.9-0.1,1.3-0.4c0.3,0.2,0.7,0.4,1.2,0.4
		c0.9,0,1.6-0.6,1.9-1.4c0.4,0.2,1,0.4,1.6,0.4c1.4,0,2.5-0.7,2.5-1.5S40.9,36.2,39.5,36.2z"/>
	<path class="st4" d="M52.5,36.2c-0.2,0-0.4,0-0.6,0c-0.2-0.6-0.8-1-1.4-1c-0.2,0-0.4,0-0.6,0.1c-0.2-0.6-0.8-1.1-1.4-1.1
		c-0.7,0-1.2,0.5-1.4,1.1c-0.2,0-0.4-0.1-0.6-0.1c-0.5,0-1,0.2-1.4,0.5c-0.4-0.3-1-0.5-1.6-0.5c-1.4,0-2.5,0.9-2.5,2
		c0,1.1,1.1,2,2.5,2c0.3,0,0.6-0.1,0.9-0.1c0.4,0.7,1.2,1.1,2.1,1.1c0.5,0,0.9-0.1,1.3-0.4c0.3,0.2,0.7,0.4,1.2,0.4
		c0.9,0,1.6-0.6,1.9-1.4c0.4,0.2,1,0.4,1.6,0.4c1.4,0,2.5-0.7,2.5-1.5S53.9,36.2,52.5,36.2z"/>
	<g>
		<path class="st5" d="M28.7,8.6c4.6,0,9,0.9,12.2,2.6c3.2,1.6,5.1,3.9,5.1,6.2v4.5H11.4v-4.5C11.4,12.5,19.2,8.6,28.7,8.6z"/>
		<path class="st6" d="M28.7,8.6c8.8,0,15.9,3.6,15.9,8v5.2H12.8v-5.2C12.8,12.2,19.9,8.6,28.7,8.6z"/>
		<path class="st5" d="M28.7,8.6c-6.5,0-11.7,3.9-11.7,8.7v4.5h23.5v-4.5C40.4,12.5,35.2,8.6,28.7,8.6z"/>
		<path class="st6" d="M28.7,8.6c-3.4,0-6.2,3.9-6.2,8.7v4.5h12.4v-4.5C34.9,12.5,32.1,8.6,28.7,8.6z"/>
		<path class="st5" d="M28.7,22.2c-0.4,0-0.7-0.2-0.7-0.3V11c0-0.2,0.3-0.3,0.7-0.3c0.4,0,0.7,0.2,0.7,0.3v10.8
			C29.4,22.1,29.1,22.2,28.7,22.2z"/>
		<path class="st7" d="M11.4,21.9H46c1.5,0,2.8,0.6,2.8,1.4v4.2c0,0.8-1.2,1.4-2.8,1.4H11.4c-1.5,0-2.8-0.6-2.8-1.4v-4.2
			C8.7,22.5,9.9,21.9,11.4,21.9z"/>
		<path class="st8" d="M47.3,23.3v4.2c0.1,0.7-1.1,1.4-2.6,1.4H12.6c-1.5,0-2.6-0.7-2.6-1.4v-4.2c-0.1-0.7,1.1-1.4,2.6-1.4h32.2
			C46.2,21.9,47.4,22.5,47.3,23.3z"/>
	</g>
</g>
</svg>
