<?xml version="1.0" encoding="utf-8"?>
<!-- Generator: Adobe Illustrator 23.0.2, SVG Export Plug-In . SVG Version: 6.00 Build 0)  -->
<svg version="1.1" id="Layer_1" xmlns="http://www.w3.org/2000/svg" xmlns:xlink="http://www.w3.org/1999/xlink" x="0px" y="0px"
	 viewBox="0 0 512 318" style="enable-background:new 0 0 512 318;" xml:space="preserve">
<style type="text/css">
	.st0{fill:#2AAEFF;}
	.st1{fill:#0009AA;}
	.st2{fill:#694949;}
	.st3{fill:#FBB03B;}
</style>
<g>
	<g>
		<path class="st0" d="M0,318h512V0H0V318z"/>
		<path class="st1" d="M398.3,20.3c8.1,0,5.3,3,9.4,4.3c3.3,1.1,1.1-0.7,4.9-0.9c1.2-0.1,2.3,0.3,3.5,0.1c3.3-0.3,1.6-0.5,2.8-1.1
			c2.4-1.2,11.1-1,13.2-0.2c2.1,0.8,1.8,1.2,5.1,2c4.3,0.9,9-1,12.8,1.1c2.4,1.4,1.3,1.8,5.1,1.8c3.1,0,6-0.8,8.9,0
			c3.3,0.8,1.2-0.1,5.1-0.8c1.3-0.2,2,0,3.2,0.4c2.8,1,2.2,1.6,5.9,1.4c6.5-0.4,10.5,2.8,16.4,3.7c4.1,0.6,8.2-0.3,7.9,4.8
			c-4.2,0.5-7.6-3.4-11.5-0.9c0.2,3.8,2.3,1.4,4.3,4.5c-0.2,0-0.4,0.1-0.5,0.1c-3.1,0.8-4.5,1.7-6.7,4.8c-3.1,0-5.3-0.7-8.5,1
			c-0.6,5.3,6,3.9,5.2,11.7c-0.1,1.4-0.1,3.8-0.3,5.9c-2.8-0.3-9.4-7.6-10.7-9.8c-2.3-4,4.4-12.8,0.4-12.6c-1.4,0.1-0.5,1-2,2.5
			c-3.9-0.2-2.1-3.3-6.9-1.4c-1.1,4.4,1.6,3.9-0.5,5.1c-2.2,1.2-3.8-0.5-5.4-0.8c-0.3-0.1-10.8,0.5-11.3,0.7c-1.2,1.5-3.3,7-3.8,8.4
			c3.4,2.1,5.8,1.6,7,1.7c1.7,0,2.2,1.1,3.6,1.4c3.9,1,0.1-1.3,3.3,0c2.4,2.7,4.8,5.4,7.2,8.1c-0.4,1-0.8,2-1.2,3
			c-2.6-2-2.9-6.2-6.1-7.4c-0.5,4.3,3.7,2.3,1.4,12.5c-2,8.9-3.5,5.5-7.1,6.5c-0.8,0.5-3.1,6.5-3.3,7.5c2.7,2.6,5.9,3.9,5.8,9.3
			c-1.6,0.8-2.6,1.6-4.7,1c-2.2-9.1-1.5-4.6-4.2-7.3c-2.8-2.9,0.7-5.6-7-2.4c-1.2-1.8-0.4-1.6-1.1-3.5c-1.9,0.3-4.6,2.9-5.2,4.9
			c1.7,0.9,3,2.1,3.8,2.2c1.6,0.2,2.4-1,4.6,0.4c-1.2,2.5-2.1,2-3.1,4.6c1.8,3,4.8,5.2,5.9,9.2c0.1,0.1,0.1,0.3,0.2,0.5
			c0.6,2.1,1.1,0.5,1.2,3.4c0.1,2.1-0.9,3.3-1.7,5.4c-3.6,9.8-8.9,8.5-16,12.1c0.1,2.7,2.4,7.1-2.8,6.1c-0.4-4.4,1.8-2.1,1.4-6.3
			c-3.4-1.2-5.3,0.4-6.8,4.2c1.3,6.5,8.9,7,6.9,17c-2.3,2-4.7,4-6.9,6c-2.1-1.4,0.2-0.4-1.8-2.9c-2.1-2.6-4.6-4.5-6.9-6.7
			c-0.2,0.4-0.3,0.7-0.5,1.1c-0.8,2.1-1.8,4.5-1.3,6.7c0.2,1.1,2,5.1,2.9,5.9c1.7,1.7,3.4,2,3.9,4.7c0.2,0.9,1.1,7.7,1.1,8.1
			c-6.9-2.6-4.8-7.4-7.3-12c-1.1-2.1-1.3-1.6-2.7-3.6c-0.1-3.7,0.9-6.7,0.1-10.6c-0.6-2.3-1.6-5.6-2.2-7.9c-2.5,0.5-4.7,4.2-5.3,0.6
			c-0.1-0.6-0.2-1.2-0.3-1.8c-1.4-6.5-3.5-4.8-5.6-11c-3.4,1.1-3.5,1.2-7.5,1.9l-0.1,0.1l0,0.2c-1.6,2.3,0.1,1.3-2.7,3.7
			c-3.3,2.9-5.5,6.7-9.2,9.1c-0.4,4,0.3,4.9-0.7,9.7c-0.4,1.8-2.3,6.5-4.6,6.2c-0.7-0.1-3.8-7.8-4.5-10c-1.2-3.6-2.6-6.3-3.5-10.5
			c-0.5-2.2-0.8-6.5-1.3-8c-2.4,0.4-2.3,1.9-4.5,0.3c-1.6-1.2-0.9-1.9-1.8-3.7c-1.9-1.8-3.8-3.6-5.8-5.4c-1.5-0.5-7.3,0.4-9.7,0.1
			c-4.4-0.4-4.8-0.1-7.4-3.7c-4.6,0.2-4.2,2-8.7-2c-2.9-2.5-2.4-6.6-6.7-4.3c-0.2,3.7,1.6,4.5,3.2,6.3c1.2,1.3,2.6,2.2,3.2,4
			c0.1,0,0.3,1.7,0.4,1.9c4.2,0.3,5.2-1.8,7.4-3.5c2.2,2.1,0.1,2.5,3.3,4.2c2.6,1.3,2.1,0.5,3.7,2.7c0.8,2.9-5.7,10.6-7.9,12
			c-1.7,1.1-2.6,0.4-4,1.7c-2.2,1.9,0.3,1.6-3.6,3.1c-4.2,1.5-8.3,4.8-12.6,5.1c-0.9-2.6-1.9-5.3-2.8-8c-2.8-9.1-2.7-5.6-5.5-10.3
			c-1.3-2-0.8-3.4-1.7-5.2c-0.6-1.4-1.6-1.9-2.4-3.6c-1.3-2.6-2.8-6.6-5.7-6.2l-1.4-7.4c0.4,0,0.8,0,1.4-0.1
			c0.6-1.3,5.1-12.8-0.7-11.3c-1.7,0.4-0.6,1.1-3,0.4c-2.6-0.7-0.1-1.2-2.9-0.8c-2.8,0.4-6.1,2.9-8.3-5.7c-0.8-3.1-2.3-5.8-5.8-1.1
			c0.9,1.6,1.5,1.7,2.5,3.3c-0.3,0.4-1.2,1.6-1.6,1.9c-1.9,1.9,0.8,1-2.3,1.4c-1.7-1.3-1.3-2.9-2.9-5.2c-2.8-4.2-1-2.3-2.4-6.3
			c-1.1-1-3-1.8-4.6-2.8v0l-0.1-0.1c-0.4-0.3-0.8-0.5-1.1-0.9c-2.4-2.2-2.9-4.2-5.7-3.7c-0.1,2.1,0.2,2.2,1.2,3.5
			c3.8,4.8,2.6,3.2,5.5,4.9l0.1,0.1v0c0.7,0.4,1.5,1,2.6,1.8c-3.8,3.4-0.3,3.7-2.6,4.9v0l0,0l-0.1,0c-0.2,0.1-0.4,0.2-0.6,0.3
			c-0.8-2,0.9-1-1.1-3.9c-1.1-1.5-2.2-1.9-3.9-2.8c-4.3-2.1-3.8-3.7-6.4-6.4c-3,0.1-2.3,1-4.4,2.1c-2.5,1.3-2.2-0.2-5.2,0
			c-2.4,4.4,1.1,0.7-3.4,4.4c-5.3,4.2-0.9,8.6-9.5,9.9c-0.6,0.1-0.8,0-1.4,0.2c-1.6,0.6-0.7,0.1-1.5,1l-1.4,0.1l0,0
			c-0.2-1.9-2.2-2.2-4.3-2.2c-1.2-4-1.2-3-0.3-6.7c0.5-2.1,0.1-3.1,0.5-5.2c1.1-5.2,9.8,0,12.3-2.2c1.2-2.2,1.3-4.4,0-6.5
			c-1.4-2.1-3.2-1.9-4.2-3.9c2.1-1.4,0.6-0.2,2.4-0.6c2.2-0.5,1.9-1.1,4.4-1.6c2.3-0.5,3.7-2.6,5.9-4c3.2-2.1,1.7-3.9,5.5-4.6
			c6.2-1.1,2.2-0.9,2.8-6.8c0.9-0.4,1.8-0.8,2.7-1.2c1.9,2.6-0.5,1.5,1.8,3.3c0.6-0.4,1.3-0.7,2-1.1c-0.3-2.8-1.6-2.3-2.4-5.7
			c-3.1,0.5-4.2,3.1-6.6,2.2c-2.4-0.9-2.5-4.4-2.4-7.3c0.9-2.2,5.3-3.3,7-3.9c2.8-1,2.4-2.9,4.9-5.4c3.3-3.4,0.9,0,2.5-4.3
			c3.7-0.1,1.9-0.3,4.1-1.4l0.1,0l0,0l0.2-0.1c1.3-0.6,2.9-0.7,4.6-1.3c6.1-2.1,8.6-1,13,0.8c3.4,1.4,13.8,1.5,14.6,5.9
			c-2.5,2.7-4.9,0.7-8.5,1c0.7,3.4,0.9,3.4,4,4.4c0.5-1.6-0.2-1,0.6-2c1,0.2,2,0.4,3,0.6c1-3.5,2.2-3,5.5-3.4
			c-0.6-2.4-1.2-1.7,0.1-3.6c3.5,0.4,0.7,0,2.4,2.9c2.4-0.3,4.8-3.1,8.2-3.4c2.1-0.2,2,0.6,5,0.3c2.4-0.3,2.3-1.2,4.8-0.1
			c0.9-1.7,0-1.6,2.2-2c3.3-0.6,6.2,1.5,9.4,2c-2.4-3-4.7-2.4-1.7-7.4c3.7-0.8,4.1-0.2,5.7,2.6c1.1-0.6,1.4-1.3,2.1-1.4
			c1.7-0.4,2.2,1,5.8-1.1c2.3-1.3-1.4-0.5,2.7-1.6c1.6-0.4,1.6,0.3,3.1-0.9c3.3-1.2,6.5-2.5,9.8-3.8c3.5,0,1.7,1,5.7-0.5
			c5.4-2,7,0.1,11.1,0.3c9.6,0.4,6.2,6,21.2,6c2.4,0,2.2-1,5.6-1C397.9,20.3,398.1,20.3,398.3,20.3L398.3,20.3z M457,102.6
			L457,102.6c0.3,2.2,1.3,3.8,3.2,4.7c1.9-3.1-0.4-3.3,6.4-5.5c0.4-0.1,0.9-0.3,1.3-0.5c5.9-3.4,1.8-1,6.3-2.8
			c0.1-2.8-0.6-4.7-0.8-7.7c-0.1-3.4-1.2-4.7-4.2-5.3c-0.3,6.3,3.9,4.3-2.9,10.8C462.7,99.9,460.3,95.8,457,102.6L457,102.6
			L457,102.6z M418.3,188.3L418.3,188.3c0.4-1.9,0.7-4.3,1.5-5.7c2.6,0,0.2,2.2,4.2,1.7c0.7-1.6,0.7-2.4,0.4-4
			c-1.8-0.4-2.3,0-3.6,1.1c-0.4-0.4-0.8-0.9-1.2-1.4c-1.8-1.4-1.6,1.8-3.3-1.8c-1.8-3.7,0.2-3.7-3.8-6.2c-2.4-1.5-3.3-2.4-5.3-4.5
			c-3.4-3.8-0.4-2.1-6.1-3.9c-0.1,4.1,0.8,1.7,3.8,6.5c1.3,2.3,2.5,4.5,3.8,6.8C410.6,180,412.5,188.5,418.3,188.3z M427.2,182.3
			L427.2,182.3c4.9,0.8,8.5,2.6,9.9,1.6c1.5-1.8,1-2.9,2.5-5.5c2-3.3,0.6-2.3,3.2-5.3c-1.4-5.4-2.1-3,0.7-8.5
			c-0.4-1.7-1.7-3.7-3.1-4.8c-1.6,1-0.2-0.1-1.3,1.4c-1.9,2.2-3.9,4.4-5.8,6.7c-1.7,1.7-1,0.4-3.6,2.5c-0.7,0.4-1.4,0.8-2.2,1.2
			c-1.2,0.4-2-1-2.3,2.8C424.9,176.2,426.7,180,427.2,182.3L427.2,182.3L427.2,182.3z M308.9,76.9L308.9,76.9
			c0.4,5.5,3.6,7.7,5.9,10.2c-0.3,2.6-0.9,1.9-0.8,5.6c2.7,2,4.7,3.2,8.3,2.2c0.5-4.4-0.9-4.2-2.2-7.2c0.2-0.4,0.8-0.8,0.9-0.9
			c1-1.4,0.5,0.5,1-1.8c-2.6-0.9-6.8-3.6-7.2-7.2c1.3-1,0.9-0.4,1.8-1c2.1-1.4,0.5,0.7,1.7-1.6c-1.1-2.1-2.2-2.4-4.8-1.4
			C312.4,74.3,309.5,76.4,308.9,76.9L308.9,76.9z M286.2,78.4L286.2,78.4c-1.7-2.4-1.6-3.7-4.9-3.8c-1.3,1.5-2.9,3.6-3.6,5.8
			c-1.1,3.4-0.3,1-0.2,4.7c-0.1,0.1,0,0.3,0,0.5c-0.1,2.2-0.6-0.4-0.2,1.6c2.6-0.5,0.6-0.5,2.6-1.1c1.8-0.6,7.4-2.3,9-1.9
			c3.8,0.9,7,4,11.4,0.9c-0.2-3.9-4.9-5.4-8.1-7.2c0.2-3.6,1.1-0.8,0.9-4.3c-1.1,0-1.8-0.2-2.8,0.2c-2.5,1.1-1.1,1.5-1.1,1.9
			c0.1,1.9,2.5-0.4-0.1,2C288.2,78.3,287.1,78.3,286.2,78.4L286.2,78.4L286.2,78.4z M221.4,50.9L221.4,50.9
			c-0.1,6.3,2.1,4.2,4.1,7.3c-0.9,2.7-1.1,0.6-2.2,3.3c-0.9,2.3,0.2,0.2-0.4,4.3c1.6,0.1,4-0.5,6.1-0.7c3-0.3,2.9-0.5,4-3.7
			c-1.7-2.1-3.3-4.2-5-6.2c-2.2-3.4,0-1-0.7-3.9c-0.5-1-0.9-2-1.4-3C223.1,49.4,223.4,49.1,221.4,50.9L221.4,50.9L221.4,50.9z"/>
		<path class="st1" d="M474.5,194c2.4,0.8,1.7-0.3,3.5,0.1c4.1,0.8,2.8,5.6,8.2-1.2c7.2,0-0.1,5.2,10.3,6.3
			c-0.1-2.4-3.3-5.8-4.6-7.1c0.8-1.9,0.8-0.9,1.1-3.1c-0.7-0.4-1.7-0.9-2.3-1.6c-4.2-4.9,1.5-1.1-7.6-5.4c-1.1-0.5-5.2-2.4-5.8-2.5
			c-3.4-0.6-3.2,2.5-6.1,2.9c-1.8-2.3-0.6-6.4-3.9-6c-4.2,0.5,0.1,7.2,0.1,7.2c1.7,1.9,2.1-0.3,6.7,3.4
			C479,190.7,475.3,191.1,474.5,194L474.5,194z M468.6,208.5L468.6,208.5c0.8,1.5,2.6,2.8,4,4.2c5.7,5.5,5.4-5.8,8-10.7
			c1.3-2.6-0.2-1,2-2c0.7,2.3,0.7,3.3,0.6,6.5c2.5,2.3,1.7-0.4,1.9,4c0.4,11.8,0.9,5.7,2.9,10c1,2.9,2.2,5.8,3.3,8.7
			c2.1,4.4-1.4,10.6-3.6,14c-2.2,3.5-3.6,4.1-6.2,6.9c-9.4,10.3-3.9,6.9-10.4,9.1c-2.5,0.9-1.6,1.7-3.9,1.6c-2.3,0-6.2-0.4-8.3-2
			c0-3.6,0.3-6.4-1.1-8.9c-2.1,1.4-1,1.5-3.3,1.9c-0.8-4.3-1.3-6.8-5.9-6.7c-0.5,0-9.5,2.4-9.9,2.5c-1.7,0.9-2.4,2.2-3.9,2.5
			c-1.8,0.5-3.7-0.2-5.6,0.4c-3.2,1-5.4,4.7-8,0.6c1-4,2.3-0.9,2.7-8.5c0.4-6.2-0.7-5.8,0.4-9.9c0.6-2.3,0.5-5.5,2.2-7.7
			c0.8-0.9,5-3.6,6.2-3.9c14.3-4.1,7.9-5.6,12-8.5c1.6-1.1,1.5,0.1,3.3-2.1c1.4-1.8,0.1-1.1,2.2-2.8c3.2-2.6,4-0.3,6.1,0.6
			c2.4-1.5,2-3.3,3.8-4.7c1.6-1.4,1.2-0.4,2.8-1.3c1.9-1.1,0.7-1.1,2.4-1.7c2.1,2.5,3.2,1.5,5.9,1.5c-0.2,1.7-0.2,2-1,3.5
			c-0.7,1.5-0.2,0.3-1.1,1.5C469.1,207.6,469,207.4,468.6,208.5L468.6,208.5z"/>
		<path class="st1" d="M289.6,114.9c-0.6,2,2.7,8.9,3.5,10.6c0.8,1.7,2.2,2.4,2.6,4.8c0.6,3.3-0.1,2.9,1.7,5.1
			c3.7,4.6-0.2,3.8,5.6,8.2c4.3,3.4,3.2,4.4,5.1,8.8c2.8,0.8,11.3-3,12.7-1.9c1.7,3.1-2,8.1-2.9,10.8c-3.1,9.1-8.5,9-12.7,15.9
			c-2.3,3.8-3.3,4.3-5.4,8.8c-2.4,5.1,4.8,19.3,0.5,25.2c-0.9,1.4-4,2.2-7.8,6.3c-4,4.5,0.1,3.7-1.4,11.2c-1.2,1.7-2.7,1.8-4.2,3
			c-0.6,1.8-0.1,3.2-1.1,5.3c-1,2.6-1.2,1.2-2.6,3.4c-1.1,1.7-0.9,2.4-2.2,3.9c-1,1.4-1.6,1.8-2.6,2.7c-4.8,4.5-15.2,4.7-16.1,4
			c-2.4-2.1-0.8-2.7-1.4-5.7c-0.6-2.6-2-4.8-3.1-6.9v-0.1l-0.1-0.2c-0.6-1-1.1-2-1.3-2.9c-2-6.4-1.3-11.3-4.8-17.8
			c-4.4-8.4,2.4-12.8,2.2-17.6c-0.1-1.3-0.6-2-0.7-3c-0.8-5.3-1.3-10-4.8-14.1c-3.8-4.5-3.3-2.9-2.1-10.3c1.5-8.5-2-6.3-7-6.5
			c-2.4-7.7-7.2-3.9-12-1.7c-3,1.4-4.1-0.4-7.5,0.1c-7.6,1-1.6,4.4-11.7-3.8c-4.2-3.4-1.4-1.7-3.9-5.9c-0.8-1.5-3.4-3.6-4.6-5.1
			c-3.8-4.9,0.7-9.8,0.1-15.4c-1.2-10.4-2.8-1.4,2.9-13.9c3-6.7,7.5-6.7,8.7-9.7c1-2.7,0.3-4.6,2.2-7c1.7-2,4-1.6,5-4.7
			c0.3-0.9,0.4-1.6,0.3-2.2l0,0l1.4-0.1l-0.1,0.1c0.7,1.7-0.3,1.4,2.6,1.9c5.3,0.7,5.9-2.6,9.8-3.4c1.9-0.4,13.7-0.9,14.5-0.7
			c2.5,2.9,0.4,4.9,0.4,7.4c2.8,1.5,6.7,1.9,8.3,3.4c1.8,1.8,0.9,1.5,1.8,1.8l0.1,0v0c0.3,0.1,0.8,0.3,1.6,0.6
			c2.2,0.8,2.1,1.2,4.5,1.4c2.2-7.4-0.1-6.6,10.4-3.2c10.9,3.6,6,0.3,10.6,0.8c1.8,0.2,1.8,0.7,3.4,0.7L289.6,114.9L289.6,114.9
			L289.6,114.9z M316.9,203.3L316.9,203.3c-2.4,1.3-2.8,4.2-4.6,5.8c-2,1.9-4.7,1-5.4,4.4c-1,4.3,1.7,3-1.3,8.6
			c-1.1,2.1-1.1,7.3,0.5,8.8c4.8,4.8,7.4-7.2,8.5-11c0.8-2.7,1.6-5.7,2.5-8.2C318,209.1,319.3,206.7,316.9,203.3L316.9,203.3
			L316.9,203.3z"/>
		<path class="st1" d="M124.3,216.1c-1.5-2.5-5.2-3.7-8.1-5.7c-0.2,0-0.3-0.1-0.3-0.2c-4-2.9-7.9-14.3-11.1-18.5
			c-1.5-2-2.4-1.1-3.1-4.3c-0.7-2.9,0.4-2.4,1.3-4.9c-4.9-9.2,6.4-9.1,4-20.2c-0.5-2-1.9-4.9-3.2-5.8c-2.3,1-1.2,1.6-2.4,3.6
			c-1.9-1.1-3.8-2.2-5.6-3.3c-5.7-5.6-2.7-1.5-4.3-5.2c-3.4-7.7-6.7-3.4-10.8-7.2c-1.8-1.6-2.2-4.1-5.2-3.6
			c-4.6,0.6-2.1,1.4-6.8-0.9c-4.1-1.9-8.3-4.2-11.1-6.8c-0.1-4.1,1.3-4.3-1.2-8.1c-1.2-2-2.9-3.5-3.9-5.1c-1.8-2.9,0.8-0.3-3.6-6.1
			c-2.9-3.8,0.5-4.2-2.8-6.9c-4.4,2.1,2.5,8.1,4.7,17.9c-1.9-0.3-3.2-1.8-3.9-4c-1.1-3.6,0.1-2.7-3.4-4.2c0.2-6.2,1.3-0.7-1.1-6.8
			c-0.8-2.3-0.3-3.3-1.2-5.6c-0.7-2,0.3-0.2-0.8-1.3c-0.4-1.4,0.3-0.1-0.7-1.1c-1-1.1-0.1-0.1-0.9-0.8c-2.2-1.6-2.7-3.6-3.1-6.7
			c-1.1-10.3,2.2-11.2,6-18.6c2.9-5.3,2.4-4.5,0.1-8.9c0.6-2.2,1.3-2.2,1.1-5.2c-0.2-3.5-0.4-1.9,0.4-4.6c-0.1-0.1-0.3-0.2-0.4-0.3
			c-0.1,0-0.3-0.1-0.4-0.2c-0.1,0-0.3-0.1-0.4-0.2c-0.6-0.2-1.2-0.4-1.8-0.6c0.3-5.5,1.1-8.8-5-9.4c-2.7-0.3-4.4-1.4-5.3-1.4
			c-0.5,0-3.1,1.3-5,1.8c-3.4,1-1.6,0.9-4.8,0.3c-1.7-0.3-6.5,0.2-10.6-1l0.6-6c2.3-0.3,4.7-0.5,6.4-2c-1.6-1.4-3.3-0.4-5.7-1.3
			c0.4-4.4,7-2.9,9.9-2.9c0.4-3.3-1.3-3.2,0.2-4.5c0.9-0.7,18.1-5.3,22.4-4.4c6.4,1.2,12.9,2.4,19.3,3.6c3.9,0.4,10.2-2.4,14.3-2.2
			c3.1,0.2,0.3,0.8,4,1.1c2.6,0.2,2.7-0.6,5.6,0.3c2.7,0.8,1.4,1,4.6,1c0.5-1.8,1-3.6,1.6-5.4c-2.8,0.5-4.4,1.5-7.2,0.9
			c0.1-2.7,3.4-3.8,5.2-4.7c6-3.2,10.2,2,16.8,2.5c2.4,0.2,4.2-1.6,7-1.7c-0.9,1.9-1.6,1.5-2.9,3.9c1.2,3.4-0.5-1.1,0.9,1.9
			c0.2,0.4,0.4,0.4,0.6,1.3c-4.6,1.1-1.7,1.7-8,1.2c0.8,1.1-0.7,0.5,1.8,1.7c2.1,1,5,0.4,7.2,0.4c0.7-1.4,1.2-2.5,2.4-3
			c0.5-0.2,1.1-0.2,1.9-0.2c0.1,0.7,0.3,1.4,0.4,2c0,0,0.1,0.5,0.1,0.4c0.1-0.1,0.1,0.3,0.2,0.4c3.5-2.1,0.6-2.1,2.4-5.9
			c-2.9-0.6-2.5-0.2-4.4-2.1c1.8-2,5.2-2.7,7.8-2.5c-0.2,1.8-1,1.8-0.3,3.3c2-1.3,3.4-4.7,6.6-4c0.6,0.4,1.3,0.9,2,1.3
			c-1.7,1.6-4.2,1.7-6.3,2.6c-0.9,9.8,3.1,1.6,1.7,8.3c2.4-0.2,4.7-1.9,5.6-3.8c-0.9-1.2-2.2-1.2-2.9-2.6c0.6-1.8,1.8-3.2,3.4-4
			c1.1-0.6,2.5-0.8,4.1-0.8c17.6,0.1,9.3,0.9,14.7,3.5c1.2,0.5,3.4,0.8,4.1,1.9c1.1,1.7,0.1,3.3,1.8,4.7c1.6,1.2,1.8,0,3.8,2.6
			c-0.4,1.5-1.5,3-3.7,3.1c-3,0-1.2-2-4.4-1.7c0.1,3.1,3.1,4.3,0.3,5.9c-2.4,1.5-0.9-0.5-2.7,0.5c-0.1,0-0.2,0.1-0.3,0.2
			c-0.1,0.1-0.2,0.2-0.3,0.3c-0.3,0.4-0.6,0.7-0.9,1c-4.4-1.2-3.6-0.7-6.3-3.7c-1-1.1-1.2-1.4-2.9-1.3c-1.1,0-2.5,0.5-3.6-0.5
			c2.2-2.8,3.2-0.1,6.4-1.7c0.6-0.3,4-3,4.6-3.7c-0.9-2.2-0.1-0.4-1.5-1.8c-3.1-3.2-4-2.4-8.2-2.4c-2,2.3-3.5,5.2-5.6,6.4v0
			c-1.3,0.8-2.8,0.9-4.9,0c0.9,3.9,3.4,0.9,3.6,5.6c-1.6-0.3-2.4-1.1-4.1-0.5c-3.6,1.4-0.4,1.2-0.1,1.9c0,0,1.7,0.2,0,0.9
			c-1.8,0.7-0.3-0.4-3.8-2.5c0.5-0.9,1-1.9,1.5-2.8c-2.9,0.9-6.5,2.4-9.9,4c-3.8,1.9-7.4,4.2-9.6,6.2c-0.1,3.4,0.6,1.1,0.9,5.2
			c5.2,0.3,3.5,1.9,8.7,3.4c1,0.3,2.3,0.5,3.8,0.8c0,2.5-2.2,4.4-0.7,7.1c3.6,2.6,3.7-2.4,4.6-5.7c12.2-2.6,6.3-6.3,9.5-13.1v0
			c0.5-1,1.1-2.1,2.1-3.3c0.9,0,4.8,0.5,5.6,0.6c2.8,0.5,1.3,1.2,4.3,2.5c-0.1,2.4-1.3,5.6,2.3,5c2.7-0.5,2.1-2.7,5.4-3.2
			c1.5,3.6,1.1,5.1,1.8,9.4c8,3.2,4.4,5.8,2.9,11.7c1,0.5,2.1,1,3.1,1.4c-0.1,1.7-0.1,3.4-0.2,5.1c-0.2,0-8.5-1.9-9.1-2
			c1.3-3.7,3.6-3.8,5.1-7.6c-3,0.5-2.8,1.5-4.9,2.2c-1.9,0.6-3.4,0.2-5.5,0.5c-0.7,2.4-0.1-2.1,0.2,1c0.1,1.2,0.7,0-0.1,1.3
			c-2.8-1.3-1.8-4.4-7-1.5c1.2,0.5,2.3,1,3.5,1.5c-0.2,3.5-0.4,0.9-1.2,3.2c-1.8,5.9,4.8,2.3,6.5,2c-0.4,3.1-2.3,3.1-5,4
			c-2.9,0.9-3.8,2.1-6.2,2.7c0-3.7-0.6-0.6,1.1-3.2c-2.3,0.2-4.1,1.3-6.3,2.3l-0.2,0.1l0,0c-2.9,1.2-3.3,1.4-3.6,5.1
			c-2.4,0.8-5.3,1.6-7,3.4c-1.7,1.7-3.4,3.3-5.1,5c-0.2,0.1-0.3,0.3-0.4,0.4c0.6,4.7,0,4.8-2.8,6.6c-2.3,1.5-3.1,1.5-5.3,3.4
			c-6.9,6.3-3.6,3.4-3.2,14.3c-1.4-0.5-2.8-1-4.2-1.5c-1.1-7.2,0.4-4.8-5.3-6.5c-6.2-1.8-5.3,1.3-7.9,1.8c-2.8,0.6-4.2-2.6-8.3,0.1
			c-2.3,1.6-4.4,2.6-5,5.4c-0.7,3.4-2.2,5.9-1.9,9.6c0.4,10.2,9.5,10.8,11.8,6c1.6-3.2,1.2-4.9,6.2-4.1c0.5,2.7-0.3,4.7-0.9,6.8
			c-0.4,1.2-1.7,3.4-1.1,5.1c3.6,1.5,3.7-1.3,8.5,1.6c0.3,4.8-2.2,10.3,1.5,13.1c2.8,2.1,3,0.2,5.5-0.2c2.8-0.5,2.3,1.3,4.8,1.7
			c1.4-1.8,0.8-0.7,1.8-2.9c1.7-3.8,2.1-2,6.1-4.4c0.4-0.2,0.7-0.4,1.1-0.7c0.4,1,0.9,1.9,1.4,2.8c2.9-3.5,3.2-0.1,6.5,0.9
			c1.4,0.4,2.5,0.5,3.2,0.6l0,0c2.4,0,2.7-1.2,6,0c0.4,0.2,0.9,0.3,1.3,0.5c0.1,0,0.2,0.1,0.2,0.2c0.1,0,0.2,0.2,0.3,0.2
			c0.5,0.6,0.6,1.3,1.1,2c2.3,2.2,4.6,4.4,6.8,6.6c4.4,1.8,4.4-1.5,9.4,3.4c2.1,2,1.2,2,2.3,4.6c0.2,0.4,0.5,0.8,0.7,1.3
			c0.4,1.2,0.9,2.4,1.4,3.6c2.3,3,5.4,1.1,8.5,4.3c1.8,1.8,0.4,1.3,4.5,2c6.3,1,3.8,0.5,8.6,4.1c1.8,1.4,2.3,0.6,4,1.8
			c2.4,3.4,1.8,7.1-0.2,10.1c-6.2,9.1-4,7.7-4.3,14.9c-0.2,4.2-1.4,12.8-5.2,13.8c-13.9,4-5.8,6.7-9.5,13.8c-1.1,2-1.8,2.5-2.5,4.1
			c-2.8,6.6-0.8,8.8-9,7.3c0.8,1.4,0.3,0.4,1.1,1.7c2.4,3.9,2.8,6.8-2.2,7.7c-4.2,0.8-2.4,0-2.8,4.7c-1.6,0.7-2.3,0-3.4,1.1
			c1.4,2.7,0.1,0.5,2.6,2c-0.4,1.5-0.8,2.9-1.2,4.4c-0.9,3.5-1.2,0.3-1.6,4.4c1.4,0.7,2.4,0.5,3.7,2.3c-0.2,1.4-1.5,5.1-1.9,7.2
			c2.1,3.1,3.7,6.5,8.1,6.8c-0.1,2.6,0.6,2.3-1.7,2.9c-1.9,0.5-5.9-1.4-7.6-2.3c-2.9-1.6-5.5-3.7-7.5-6.7c-1.1-1.7-0.7-0.9-1.8-2.4
			c-2.1-2.8-1.3-4-1.9-5.9c-0.3-1.1-2.1-2.3-1.3-5.8c0.2-1,1.7-5.7-0.2-4.9c-1.9,0.8,1.4,0.4-1.2,1.7c-0.6-1.7-1.1-4.3-1.4-6.4
			c-0.7-3.6-1.5-3.7-1.9-5.9c-0.8-5,1.3-5.6-1.1-13.9c-1.5-5.5-0.9-18.7-2.5-25.4C125,217.8,124.8,216.9,124.3,216.1L124.3,216.1z"
			/>
	</g>
	<path class="st2" d="M450.4,270H61.6C31.9,270,6.8,290.6,0,318.3h512C505.2,290.6,480.1,270,450.4,270z"/>
	<path class="st3" d="M501,302H11c-1.1,0-2-0.9-2-2l0,0c0-1.1,0.9-2,2-2h490c1.1,0,2,0.9,2,2l0,0C503,301.1,502.1,302,501,302z"/>
</g>
</svg>
