<?xml version="1.0" encoding="utf-8"?>
<!-- Generator: Adobe Illustrator 23.0.2, SVG Export Plug-In . SVG Version: 6.00 Build 0)  -->
<svg version="1.1" id="Capa_1" xmlns="http://www.w3.org/2000/svg" xmlns:xlink="http://www.w3.org/1999/xlink" x="0px" y="0px"
	 viewBox="0 0 60 60" style="enable-background:new 0 0 60 60;" xml:space="preserve">
<style type="text/css">
	.st0{fill:#D6BDA5;}
	.st1{opacity:0.97;fill:#8E1A1A;enable-background:new    ;}
</style>
<g>
	<g>
		<g>
			<path d="M54.3,46.8c0,0-3.7-1.8-2.3-6.5c0,0,2.3-1.8-0.9-4c0,0-0.6-0.9,0.5-1.9c0,0,3.9-3.3-2.7-10.5l-0.3-6.6
				c0,0-1.8-9.9-13.8-14.6c0,0-8.6-1.6-9.4,1.4c0,0-10.6,0.5-11.9,13.2c0,0-0.1,3.4-2.4,4.8c0,0-3.5,2.3-1.8,8.4
				c0,0,0.8,3.8-2.5,5.9c0,0-2.8,2.4-1,5.8c0,0,1.1,1.1-0.9,3.2c0,0-1.8,3.2,1.3,7.5c0,0-0.4-3.2,0.4-3.9c0,0,2.7,3.2,2,5.3
				c0,0,4.3-2.4,10.5-2.9c0,0,7.5-1.4,6.7-10.9c0,0-7-5.4-6.7-10.3l0.9-7.1c0,0,2.9-3.5,3.2-4.9c0,0,0.1,0.1,0.1,0.3
				c0-0.1,0.1-0.1,0.1-0.2c0.3-1,1-1.8,2.1-2.1l0,0c0,0,1-2.3,1.6-2.1c0,0,2.2,5.6,8.5,5.9c0,0,1,6.3,4.9,7c0,0,0.1,9.5-5.4,13.4
				c0,0-1.3,11.1,9.9,11.6c0,0-2,5.1,2.4,6.1c0,0-0.8-4.9,2.9-4.9l1.6,2C52.2,55.2,56.1,50.2,54.3,46.8z"/>
		</g>
	</g>
	<path class="st0" d="M35.1,40.4c5.6-3.9,5.4-13.4,5.4-13.4c-3.9-0.6-4.9-7-4.9-7c-6.3-0.4-8.5-5.9-8.5-5.9
		c-0.6-0.1-1.6,2.1-1.6,2.1l0,0c-1.1,0.3-1.8,1.1-2.1,2.1c0,0.1-0.1,0.1-0.1,0.2c-0.1-0.2-0.1-0.3-0.1-0.3c-0.3,1.4-3.2,4.9-3.2,4.9
		l-1,7.1c-0.3,4.8,6.7,10.3,6.7,10.3c0.3,4.2-0.9,6.8-2.5,8.4c2.2,0.9,4.5,1.3,7,1.3c2.6,0,5-0.5,7.3-1.5
		C34.5,45.3,35.1,40.4,35.1,40.4z"/>
	<path class="st1" d="M45.3,23.9h-0.5c-0.2-0.9-0.8-1.6-1.9-2.1c-0.8-0.4-1.7-0.6-2.6-0.6h-6.2h-8.6h-6.1c-1,0-1.9,0.2-2.6,0.6
		c-1,0.5-1.6,1.2-1.9,2.1h-0.6c-0.3,0-0.5,0.2-0.5,0.5s0.2,0.5,0.5,0.5h0.5v4.3c0.1,1,0.8,3.2,3.3,4c0.5,0.2,1,0.2,1.5,0.2
		c0.6,0,1.3-0.1,1.9-0.3c2.7-0.9,7.2-3,7.2-6.6c0-0.1,0.1-0.7,0-1.4c0.6-0.4,1.6-0.4,2.1,0c-0.1,0.8,0,1.3,0,1.3
		c0,3.6,4.6,5.7,7.2,6.6c0.6,0.2,1.3,0.3,1.9,0.3c0.5,0,1-0.1,1.5-0.2c2.5-0.8,3.3-2.9,3.3-4v-4.3h0.5c0.3,0,0.5-0.2,0.5-0.5
		C45.8,24.1,45.6,23.9,45.3,23.9z M27.7,26.6c0,3.1-4.6,4.9-6.5,5.6c-0.9,0.3-1.9,0.3-2.7,0.1c-2.4-0.7-2.6-2.9-2.6-3v-4.8
		c0-0.7,0.4-1.2,1.3-1.6c0.7-0.4,1.4-0.5,2.2-0.5h6.1c0.5,0,1,0.2,1.3,0.5C27.9,24,27.7,26.5,27.7,26.6z M31.1,24.1
		c-0.8-0.4-1.7-0.4-2.5,0c-0.1-0.3-0.1-0.5-0.2-0.8h3C31.2,23.6,31.1,23.8,31.1,24.1z M31.6,22.7H28c-0.1-0.1-0.2-0.3-0.3-0.4h4.1
		C31.8,22.4,31.7,22.5,31.6,22.7z M41.2,32.2c-0.8,0.2-1.8,0.2-2.7-0.1c-2-0.7-6.5-2.5-6.5-5.7c0,0-0.2-2.5,0.8-3.7
		c0.3-0.4,0.8-0.5,1.3-0.5h6.1c0.8,0,1.5,0.2,2.1,0.5c0.8,0.4,1.3,0.9,1.3,1.6c0,0.1,0,0.1,0,0.1c0,0.1,0,0.1,0,0.1v4.7
		C43.7,29.3,43.6,31.5,41.2,32.2z"/>
</g>
</svg>
