<?xml version="1.0" encoding="utf-8"?>
<!-- Generator: Adobe Illustrator 23.0.2, SVG Export Plug-In . SVG Version: 6.00 Build 0)  -->
<svg version="1.1" id="Layer_1" xmlns="http://www.w3.org/2000/svg" xmlns:xlink="http://www.w3.org/1999/xlink" x="0px" y="0px"
	 viewBox="0 0 1366 768" style="enable-background:new 0 0 1366 768;" xml:space="preserve">
<style type="text/css">
	.st0{fill:#FFFFFF;stroke:#000000;stroke-width:2;stroke-miterlimit:10;}
</style>
<g>
	<path class="st0" d="M165.3,345.8c-6.8-97.6-6.8-97.6-6.8-97.6c-8.6-5.1-17-5.1-17-5.1l-12.1,1.7l-10.3,3.4l-17.1,17.1l-5.1,10.3
		L57.4,428L54,441.7v22.3l5.1,13.7l8.6,3.4l8.6-3.4l5.1-12l5.1-1.7l15.4-1.7l12-17.1l6.8-18.8v-18.8l6.8-22.3l3.4,78.7l3.4,10.3
		l3.4,13.7l3.4,17.1l3.4,6.8L155,517h3.4l5.1-5.1v-22.3v-13.7l10.3-15.4l-3.4-59.9L165.3,345.8z M132.7,356.1l-20.5-3.4l3.4-30.8
		l12-25.7l5.1,29.1V356.1z"/>
	<polygon class="st0" points="324.4,267.1 295.3,327 290.2,330.4 288.5,303 281.6,273.9 259.4,272.2 249.1,284.2 235.4,333.8 
		226.9,309.9 221.7,282.5 211.5,255.1 192.6,258.5 178.9,270.5 178.9,282.5 196.1,320.2 199.5,337.3 202.9,352.7 221.7,402.3 
		221.7,426.3 225.2,434.8 232,434.8 252.5,417.7 271.4,380.1 283.3,414.3 298.8,424.6 314.2,422.8 324.4,400.6 353.5,296.2 
		356.9,263.7 341.5,260.2 	"/>
	<polygon class="st0" points="511,362.9 468.2,316.7 468.2,309.9 507.6,270.5 511,260.2 493.9,217.5 487,217.5 463.1,238 
		425.4,277.4 432.3,241.4 430.5,220.9 418.6,217.5 380.9,226 375.8,232.9 370.6,268.8 370.6,306.5 370.6,345.8 365.5,397.2 
		365.5,409.2 370.6,421.1 380.9,426.3 391.2,429.7 394.6,451.9 401.4,462.2 408.3,465.6 420.3,451.9 425.4,433.1 432.3,428 
		440.8,422.8 440.8,381.8 440.8,357.8 452.8,373.2 459.6,395.5 469.9,410.9 480.2,421.1 511,429.7 516.1,433.1 516.1,446.8 
		523,457.1 528.1,455.4 540.1,438.2 540.1,422.8 524.7,405.7 	"/>
	<polygon class="st0" points="654.8,256.8 646.2,251.7 641.1,256.8 632.5,279.1 618.8,303 615.4,285.9 608.5,279.1 596.6,275.7 
		582.9,279.1 582.9,294.5 577.7,306.5 570.9,291.1 560.6,268.8 555.5,255.1 546.9,251.7 531.5,255.1 524.7,267.1 528.1,280.8 
		541.8,325.3 548.6,356.1 560.6,404 570.9,405.7 579.5,402.3 594.9,373.2 601.7,357.8 601.7,349.2 610.3,351 637.6,428 647.9,428 
		656.5,421.1 658.2,393.7 659.9,344.1 665,335.6 668.5,313.3 671.9,287.6 671.9,265.4 663.3,262 	"/>
	<path class="st0" d="M790,321.9l-12-61.6l-8.6-27.4h-29.1h-18.8l-10.3,5.1l-8.6,20.5l-5.1,29.1v18.8l-3.4,37.7l-3.4,41.1v17.1
		l6.8,5.1l3.4,22.3l5.1,6.8h13.7l6.8-6.8v-17.1L742,404v-34.2v-17.1v-15.4l5.1,5.1l6.8,35.9v22.3l13.7,20.5l3.4,34.2l6.8,8.6h8.6
		l6.8-8.6l3.4-29.1l13.7-20.5l-6.8-46.2L790,321.9z M747.2,313.3h-10.3l-6.8-5.1l6.8-34.2l5.1-3.4l5.1,20.5V313.3z"/>
	<polygon class="st0" points="831.1,239.7 827.6,239.7 822.5,250 825.9,294.5 827.6,325.3 834.5,373.2 834.5,404 841.3,417.7 
		846.5,428 849.9,441.7 855,448.5 861.9,448.5 865.3,422.8 882.4,409.2 882.4,390.3 882.4,344.1 882.4,340.7 909.8,333.8 
		913.2,323.6 913.2,297.9 897.8,301.3 873.8,306.5 868.7,277.4 913.2,270.5 925.2,263.7 925.2,232.9 914.9,229.4 	"/>
	<polygon class="st0" points="990.2,292.8 988.5,275.7 973.1,272.2 952.6,275.7 947.4,285.9 947.4,364.7 947.4,409.2 952.6,428 
		969.7,441.7 973.1,457.1 976.5,467.3 981.7,470.8 991.9,462.2 997.1,419.4 993.6,368.1 997.1,323.6 	"/>
	<polygon class="st0" points="1137.4,236.3 1127.2,239.7 1120.3,263.7 1113.5,289.3 1108.3,328.7 1087.8,287.6 1065.5,244.8 
		1057,229.4 1050.1,224.3 1043.3,229.4 1034.7,236.3 1031.3,253.4 1031.3,308.2 1031.3,347.5 1027.9,393.7 1031.3,409.2 1036.4,416 
		1033,424.6 1033,434.8 1036.4,443.4 1053.6,443.4 1075.8,429.7 1080.9,393.7 1077.5,364.7 1089.5,380.1 1104.9,412.6 1118.6,422.8 
		1123.7,443.4 1127.2,453.7 1140.8,453.7 1152.8,438.2 1163.1,393.7 1163.1,340.7 1163.1,318.4 1169.9,262 1169.9,236.3 
		1159.7,232.9 	"/>
	<path class="st0" d="M1303.4,351l-5.1-13.7l-3.4-53.1l-10.3-27.4l-10.3-27.4l-6.8-20.5l-17.1-3.4l-27.4,13.7l-12,29.1l-5.1,41.1
		l-5.1,37.7l-12,47.9l-8.6,34.2l-3.4,32.5l3.4,24l8.6,12h12l10.3-13.7l6.8-12l13.7-8.6l8.6-42.8v-27.4l5.1-15.4l3.4,34.2v29.1
		l12,20.5l3.4,22.3l8.6,13.7h8.6l8.6-20.5v-15.4l3.4-8.6l13.7-1.7l5.1-22.3L1303.4,351z M1253.8,320.2h-25.7v-8.6l6.8-13.7
		l10.3-32.5h6.8l3.4,32.5l3.4,17.1L1253.8,320.2z"/>
</g>
</svg>
