<?xml version="1.0" encoding="utf-8"?>
<!-- Generator: Adobe Illustrator 23.0.2, SVG Export Plug-In . SVG Version: 6.00 Build 0)  -->
<svg version="1.1" id="Layer_1" xmlns="http://www.w3.org/2000/svg" xmlns:xlink="http://www.w3.org/1999/xlink" x="0px" y="0px"
	 viewBox="0 0 1366 338.2" style="enable-background:new 0 0 1366 338.2;" xml:space="preserve">
<style type="text/css">
	.st0{fill:#FFB0CD;stroke:#000000;stroke-width:2;stroke-miterlimit:10;}
</style>
<path class="st0" d="M132.6,153.6c-7.3-104-7.3-104-7.3-104c-9.1-5.5-18.1-5.5-18.1-5.5l-12.9,1.8l-10.9,3.6L65.1,67.8l-5.5,10.9
	l-42,162.4L14,255.7v23.7l5.5,14.6l9.1,3.6l9.1-3.6l5.5-12.8l5.5-1.8l16.4-1.8l12.8-18.2l7.3-20.1v-20.1l7.3-23.7l3.6,83.9l3.6,10.9
	l3.6,14.6l3.6,18.2l3.6,7.3l10.9,5.5h3.6l5.5-5.5v-23.7v-14.6l10.9-16.4l-3.6-63.9L132.6,153.6z M97.9,164.5L76,160.9l3.6-32.8
	l12.8-27.4l5.5,31V164.5z"/>
<polygon class="st0" points="302.3,69.6 271.2,133.5 265.8,137.1 263.9,108 256.6,76.9 232.9,75.1 222,87.9 207.4,140.8 
	198.3,115.2 192.8,86.1 181.8,56.9 161.8,60.5 147.2,73.3 147.2,86.1 165.4,126.2 169.1,144.4 172.7,160.9 192.8,213.8 192.8,239.3 
	196.4,248.4 203.7,248.4 225.6,230.2 245.7,190 258.5,226.5 274.9,237.5 291.3,235.7 302.3,211.9 333.3,100.7 336.9,66 320.5,62.3 
	"/>
<polygon class="st0" points="501.1,171.8 455.5,122.5 455.5,115.2 497.5,73.3 501.1,62.3 482.9,16.7 475.6,16.7 450,38.6 
	409.9,80.6 417.2,42.3 415.4,20.4 402.6,16.7 362.5,25.9 357,33.2 351.5,71.5 351.5,111.6 351.5,153.6 346,208.3 346,221.1 
	351.5,233.8 362.5,239.3 373.4,243 377.1,266.7 384.3,277.6 391.6,281.3 404.4,266.7 409.9,246.6 417.2,241.1 426.3,235.7 
	426.3,191.9 426.3,166.3 439.1,182.8 446.4,206.5 457.3,222.9 468.3,233.8 501.1,243 506.6,246.6 506.6,261.2 513.9,272.1 
	519.4,270.3 532.1,252.1 532.1,235.7 515.7,217.4 "/>
<polygon class="st0" points="654.4,58.7 645.2,53.2 639.8,58.7 630.6,82.4 616,108 612.4,89.7 605.1,82.4 592.3,78.8 577.7,82.4 
	577.7,98.8 572.3,111.6 565,95.2 554,71.5 548.5,56.9 539.4,53.2 523,56.9 515.7,69.6 519.4,84.2 533.9,131.7 541.2,164.5 
	554,215.6 565,217.4 574.1,213.8 590.5,182.8 597.8,166.3 597.8,157.2 606.9,159 636.1,241.1 647.1,241.1 656.2,233.8 658,204.6 
	659.8,151.7 665.3,142.6 669,118.9 672.6,91.5 672.6,67.8 663.5,64.2 "/>
<path class="st0" d="M798.5,128l-12.8-65.7l-9.1-29.2h-31h-20.1l-10.9,5.5l-9.1,21.9l-5.5,31v20.1l-3.6,40.1l-3.6,43.8v18.2l7.3,5.5
	l3.6,23.7l5.5,7.3h14.6l7.3-7.3v-18.2l16.4-9.1v-36.5v-18.2v-16.4l5.5,5.5l7.3,38.3v23.7l14.6,21.9l3.6,36.5l7.3,9.1h9.1l7.3-9.1
	l3.6-31l14.6-21.9l-7.3-49.3L798.5,128z M752.9,118.9h-10.9l-7.3-5.5l7.3-36.5l5.5-3.6l5.5,21.9V118.9z"/>
<polygon class="st0" points="842.3,40.5 838.6,40.5 833.1,51.4 836.8,98.8 838.6,131.7 845.9,182.8 845.9,215.6 853.2,230.2 
	858.7,241.1 862.3,255.7 867.8,263 875.1,263 878.8,235.7 897,221.1 897,201 897,151.7 897,148.1 926.2,140.8 929.8,129.8 
	929.8,102.5 913.4,106.1 887.9,111.6 882.4,80.6 929.8,73.3 942.6,66 942.6,33.2 931.7,29.5 "/>
<polygon class="st0" points="1011.9,97 1010.1,78.8 993.7,75.1 971.8,78.8 966.3,89.7 966.3,173.6 966.3,221.1 971.8,241.1 
	990,255.7 993.7,272.1 997.3,283.1 1002.8,286.7 1013.8,277.6 1019.2,232 1015.6,177.3 1019.2,129.8 "/>
<polygon class="st0" points="1168.8,36.8 1157.9,40.5 1150.6,66 1143.3,93.4 1137.8,135.3 1115.9,91.5 1092.2,45.9 1083.1,29.5 
	1075.8,24 1068.5,29.5 1059.4,36.8 1055.7,55 1055.7,113.4 1055.7,155.4 1052.1,204.6 1055.7,221.1 1061.2,228.4 1057.5,237.5 
	1057.5,248.4 1061.2,257.6 1079.4,257.6 1103.2,243 1108.6,204.6 1105,173.6 1117.8,190 1134.2,224.7 1148.8,235.7 1154.2,257.6 
	1157.9,268.5 1172.5,268.5 1185.3,252.1 1196.2,204.6 1196.2,148.1 1196.2,124.4 1203.5,64.2 1203.5,36.8 1192.6,33.2 "/>
<path class="st0" d="M1345.8,159l-5.5-14.6l-3.6-56.6l-10.9-29.2l-10.9-29.2l-7.3-21.9L1289.2,4l-29.2,14.6l-12.8,31l-5.5,43.8
	l-5.5,40.1l-12.8,51.1l-9.1,36.5l-3.6,34.7l3.6,25.5l9.1,12.8h12.8l10.9-14.6l7.3-12.8l14.6-9.1l9.1-45.6v-29.2l5.5-16.4l3.6,36.5
	v31l12.8,21.9l3.6,23.7l9.1,14.6h9.1l9.1-21.9v-16.4l3.6-9.1l14.6-1.8l5.5-23.7L1345.8,159z M1292.9,126.2h-27.4v-9.1l7.3-14.6
	l10.9-34.7h7.3l3.6,34.7l3.6,18.2L1292.9,126.2z"/>
</svg>
