<svg xmlns="http://www.w3.org/2000/svg">

	<symbol version="1.1" id="bell" xmlns="http://www.w3.org/2000/svg" xmlns:xlink="http://www.w3.org/1999/xlink" x="0px" y="0px"
		 viewBox="0 0 60 60" style="enable-background:new 0 0 60 60;" xml:space="preserve">
		<path class="bell1" d="M34,12V8c0-2.2-1.8-4-4-4s-4,1.8-4,4v4.1"/>
		<path class="bell2" d="M16.5,50.6c10.7,1.8,16.7,1.8,27.4,0l9.5-1.6l0,0C48.7,44.3,46,38.6,46,32v-9c0-6-4-10.5-7.9-12.3
			c-5-2.3-10.8-2.3-15.8,0C18.3,12.5,14,17,14,23v9c0,6.6-2.3,12.3-7,17l0,0L16.5,50.6z"/>
		<path class="bell3" d="M19,26C19,26,19,26,19,26c-0.6,0-1-0.5-1-1c0-4.7,3.8-7.6,5.9-8.7c3.8-1.8,8.6-1.8,12.5,0
			c0.5,0.2,0.7,0.8,0.5,1.3c-0.2,0.5-0.8,0.7-1.3,0.5c-3.4-1.5-7.5-1.5-10.8,0C23,19,20,21.3,20,25C20,25.5,19.5,26,19,26z"/>
		<path class="bell4" d="M21.9,51.5c1.4,3.3,4.6,5.5,8.3,5.5c3.7,0,6.8-2.3,8.3-5.5C32.5,52.2,27.8,52.2,21.9,51.5z"/>
	</symbol>

	<symbol version="1.1" id="can" xmlns="http://www.w3.org/2000/svg" xmlns:xlink="http://www.w3.org/1999/xlink" x="0px" y="0px"
		 viewBox="0 0 512 512" style="enable-background:new 0 0 512 512;" xml:space="preserve">
	<style type="text/css">
		
	</style>
	<g>
		<g>
			<path class="can1" d="M99.3,282.1V61.8c0-14.2,8.7-27,21.9-32.3l0,0c11-4.4,19.9-17.6,19.9-29.4V0l0,0H256h114.9l0,0v0.1
				c0,11.8,9,25,19.9,29.4l0,0c13.2,5.3,21.9,18.1,21.9,32.3v220.3v-52.2v220.3c0,14.2-8.7,27-21.9,32.3l0,0
				c-11,4.4-19.9,17.6-19.9,29.4v0.1l0,0H256H141.1l0,0v-0.1c0-11.8-9-25-19.9-29.4l0,0c-13.2-5.3-21.9-18.1-21.9-32.3V229.9"/>
			<path class="can2" d="M193.3,73.1h-52.2c-5.8,0-10.4-4.7-10.4-10.4s4.7-10.4,10.4-10.4h52.2c5.8,0,10.4,4.7,10.4,10.4
				S199.1,73.1,193.3,73.1z"/>
			<path class="can2" d="M370.9,73.1H235.1c-5.8,0-10.4-4.7-10.4-10.4s4.7-10.4,10.4-10.4h135.8c5.8,0,10.4,4.7,10.4,10.4
				S376.7,73.1,370.9,73.1z"/>
			<path class="can3" d="M193.3,470.2h-52.2c-5.8,0-10.4-4.7-10.4-10.4s4.7-10.4,10.4-10.4h52.2c5.8,0,10.4,4.7,10.4,10.4
				S199.1,470.2,193.3,470.2z"/>
			<path class="can3" d="M370.9,470.2H235.1c-5.8,0-10.4-4.7-10.4-10.4s4.7-10.4,10.4-10.4h135.8c5.8,0,10.4,4.7,10.4,10.4
				S376.7,470.2,370.9,470.2z"/>
			<polygon class="can4" points="412.7,334.4 99.3,438.9 99.3,209 412.7,104.5 		"/>
			<polygon class="can5" points="412.7,292.6 99.3,397.1 99.3,250.8 412.7,146.3 		"/>
		</g>
	</g>
	</symbol>

</svg>