<svg xmlns="http://www.w3.org/2000/svg">

	<symbol version="1.1" id="bell" xmlns="http://www.w3.org/2000/svg" xmlns:xlink="http://www.w3.org/1999/xlink" x="0px" y="0px"
		 viewBox="0 0 60 60" style="enable-background:new 0 0 60 60;" xml:space="preserve">
		<path class="bell1" d="M34,12V8c0-2.2-1.8-4-4-4s-4,1.8-4,4v4.1"/>
		<path class="bell2" d="M16.5,50.6c10.7,1.8,16.7,1.8,27.4,0l9.5-1.6l0,0C48.7,44.3,46,38.6,46,32v-9c0-6-4-10.5-7.9-12.3
			c-5-2.3-10.8-2.3-15.8,0C18.3,12.5,14,17,14,23v9c0,6.6-2.3,12.3-7,17l0,0L16.5,50.6z"/>
		<path class="bell3" d="M19,26C19,26,19,26,19,26c-0.6,0-1-0.5-1-1c0-4.7,3.8-7.6,5.9-8.7c3.8-1.8,8.6-1.8,12.5,0
			c0.5,0.2,0.7,0.8,0.5,1.3c-0.2,0.5-0.8,0.7-1.3,0.5c-3.4-1.5-7.5-1.5-10.8,0C23,19,20,21.3,20,25C20,25.5,19.5,26,19,26z"/>
		<path class="bell4" d="M21.9,51.5c1.4,3.3,4.6,5.5,8.3,5.5c3.7,0,6.8-2.3,8.3-5.5C32.5,52.2,27.8,52.2,21.9,51.5z"/>
	</symbol>

	<symbol version="1.1" id="can" xmlns="http://www.w3.org/2000/svg" xmlns:xlink="http://www.w3.org/1999/xlink" x="0px" y="0px"
		 viewBox="0 0 512 512" style="enable-background:new 0 0 512 512;" xml:space="preserve">
	<style type="text/css">
		
	</style>
	<g>
		<g>
			<path class="can1" d="M99.3,282.1V61.8c0-14.2,8.7-27,21.9-32.3l0,0c11-4.4,19.9-17.6,19.9-29.4V0l0,0H256h114.9l0,0v0.1
				c0,11.8,9,25,19.9,29.4l0,0c13.2,5.3,21.9,18.1,21.9,32.3v220.3v-52.2v220.3c0,14.2-8.7,27-21.9,32.3l0,0
				c-11,4.4-19.9,17.6-19.9,29.4v0.1l0,0H256H141.1l0,0v-0.1c0-11.8-9-25-19.9-29.4l0,0c-13.2-5.3-21.9-18.1-21.9-32.3V229.9"/>
			<path class="can2" d="M193.3,73.1h-52.2c-5.8,0-10.4-4.7-10.4-10.4s4.7-10.4,10.4-10.4h52.2c5.8,0,10.4,4.7,10.4,10.4
				S199.1,73.1,193.3,73.1z"/>
			<path class="can2" d="M370.9,73.1H235.1c-5.8,0-10.4-4.7-10.4-10.4s4.7-10.4,10.4-10.4h135.8c5.8,0,10.4,4.7,10.4,10.4
				S376.7,73.1,370.9,73.1z"/>
			<path class="can3" d="M193.3,470.2h-52.2c-5.8,0-10.4-4.7-10.4-10.4s4.7-10.4,10.4-10.4h52.2c5.8,0,10.4,4.7,10.4,10.4
				S199.1,470.2,193.3,470.2z"/>
			<path class="can3" d="M370.9,470.2H235.1c-5.8,0-10.4-4.7-10.4-10.4s4.7-10.4,10.4-10.4h135.8c5.8,0,10.4,4.7,10.4,10.4
				S376.7,470.2,370.9,470.2z"/>
			<polygon class="can4" points="412.7,334.4 99.3,438.9 99.3,209 412.7,104.5 		"/>
			<polygon class="can5" points="412.7,292.6 99.3,397.1 99.3,250.8 412.7,146.3 		"/>
		</g>
	</g>
	</symbol>

	<symbol version="1.1" id="crown" xmlns="http://www.w3.org/2000/svg" xmlns:xlink="http://www.w3.org/1999/xlink" x="0px" y="0px"
		 viewBox="0 0 512 512" style="enable-background:new 0 0 512 512;" xml:space="preserve">
		<style type="text/css">
			
		</style>
		<path class="crown1" d="M91,361v90h330v-90H91z"/>
		<path class="crown2" d="M256,361h165v90H256V361z"/>
		<path class="crown3" d="M422.5,230.2l-24.3,47.4H113.8l-24.3-47.4C125.2,180.7,187.3,151,256,151S386.8,180.7,422.5,230.2z"/>
		<path class="crown4" d="M422.5,230.2l-24.3,47.4H256V151C324.7,151,386.8,180.7,422.5,230.2z"/>
		<path class="crown5" d="M477.1,200.2L421,391H91L34.9,200.2l37.8-14.4c17.1,32.7,49.8,51.9,76.5,55.2h15.6
			c34.5-5.4,60.3-58.2,70.8-108.6h40.8c10.5,50.4,36.3,103.2,70.8,108.6h15.6c26.7-3.3,59.4-22.5,76.5-55.2L477.1,200.2z"/>
		<path class="crown1" d="M477.1,200.2L421,391H256V132.4h20.4c10.5,50.4,36.3,103.2,70.8,108.6h15.6c26.7-3.3,59.4-22.5,76.5-55.2
			L477.1,200.2z"/>
		<path class="crown1" d="M46,211c-24.8,0-46-20.2-46-45s21.2-45,46-45s45,20.2,45,45S70.8,211,46,211z"/>
		<path class="crown2" d="M466,211c-24.8,0-45-20.2-45-45s20.2-45,45-45s46,20.2,46,45S490.8,211,466,211z"/>
		<path class="crown1" d="M256,61c-24.9,0-45,20.1-45,45c0,24.9,20.1,45,45,45s45-20.1,45-45C301,81.1,280.9,61,256,61z"/>
		<path class="crown3" d="M256,234.7L204.7,286l51.3,51.3l51.3-51.3L256,234.7z"/>
		<path class="crown4" d="M346,294.8l21.2,21.2L346,337.2L324.8,316L346,294.8z"/>
		<path class="crown3" d="M166,294.8l21.2,21.2L166,337.2L144.8,316L166,294.8z"/>
		<path class="crown2" d="M256,151V61c24.9,0,45,20.1,45,45C301,130.9,280.9,151,256,151z"/>
		<path class="crown4" d="M307.3,286L256,337.3V234.7L307.3,286z"/>
	</symbol>

	<symbol version="1.1" id="mountain" xmlns="http://www.w3.org/2000/svg" xmlns:xlink="http://www.w3.org/1999/xlink" x="0px" y="0px"
		 viewBox="0 0 512 512" style="enable-background:new 0 0 512 512;" xml:space="preserve">
		<style type="text/css">
			
		</style>
		<path class="mountain1" d="M256.5,165.7c-3.7-7.4-14.2-7.4-17.9,0l-35.4,70.8c-4.3,8.6-16.6,8.6-20.9,0c-3.7-7.4-14.2-7.4-17.9,0
			L99.3,364.5l55,110H203l104.4-208.9L256.5,165.7z"/>
		<g>
			<path class="mountain2" d="M203.9,236.4c4.3,8.6,16.6,8.6,20.9,0l33.5-67.1l-1.9-3.7c-3.7-7.4-14.2-7.4-17.9,0l-35,70.1
				C203.7,236,203.8,236.2,203.9,236.4z"/>
			<path class="mountain2" d="M122.2,362.1l62.3-122.6c-0.8-0.9-1.6-1.9-2.2-3c-3.7-7.4-14.2-7.4-17.9,0L99.3,364.5l55,110h21.7L122.2,367
				C121.4,365.4,121.4,363.6,122.2,362.1z"/>
		</g>
		<path class="mountain3" d="M295,461.6c0.1-8.9,5.9-13.2,13.2-12.4c1.8,0.2,3.4-1,3.7-2.7c3.8-20,30.7-24.5,40.8-6.7
			c2.7,4.7,6.3-1,15.3,1.9c1.2,0.4,2.5,0.2,3.5-0.5c4.4-3.1,9.8-4.1,14.8-3.1c1.7,0.3,3.3-0.7,3.5-2.4c2-15.3,15.2-27.2,31.1-27.2
			c11.7,0,21.9,6.5,27.3,16c1.2,2.2,3.8,3.3,6.1,2.5c11-3.5,22.7,0.8,29,10.4L363.1,194.6c-4.3-8.7-16.8-8.7-21.1,0L202,474.5h104.6
			C299,474.5,294.9,469.3,295,461.6z"/>
		<path class="mountain2" d="M363.1,194.6c-4.3-8.7-16.8-8.7-21.1,0L202,474.5h21.7l139.7-279.3L363.1,194.6z"/>
		<path class="mountain3" d="M155.3,474.5H19l63.3-126.7l0,0c2-3.9,7.6-3.9,9.5,0L155.3,474.5z"/>
		<path class="mountain1" d="M91.9,347.8c-2-3.9-7.6-3.9-9.5,0L19,474.5h20.8l57.7-115.4L91.9,347.8z"/>
		<path class="mountain4" d="M303.7,297.5c4,3.7,10.2,3.2,13.6-1l8.7-10.8c3.3-4.1,9.4-4.6,13.4-1.2l16.3,14c3.7,3.2,9.4,3,12.8-0.5
			l30.6-31.3l-36.1-72.1c-4.3-8.7-16.8-8.7-21.1,0l-47.3,94.6L303.7,297.5z"/>
		<path class="mountain3" d="M363.1,194.6c-0.3-0.6-0.7-1.2-1.1-1.8c-5.1-6.8-16-6.3-20,1.8L301.7,275l-7.1,14.1l9,8.3
			c2,1.9,4.7,2.7,7.3,2.4l52.4-104.8L363.1,194.6z"/>
		<path class="mountain4" d="M50.4,411.6l1.8,1.7c3.1,2.8,7.9,2.5,10.5-0.8l6.7-8.3c2.6-3.1,7.2-3.6,10.3-0.9l12.5,10.7
			c2.9,2.5,7.2,2.3,9.8-0.4l15.1-15.4l-25.2-50.5c-2-3.9-7.6-3.9-9.5,0L50.4,411.6z"/>
		<path class="mountain3" d="M82.4,347.8l-15.9,31.8l-16,32l1.8,1.7c3.1,2.8,7.9,2.5,10.5-0.8l6.7-8.3c1.7-2.1,4.3-3,6.8-2.6l21.4-42.7
			l-5.6-11.3c-0.6-1.2-1.6-2.1-2.7-2.5c-0.7-0.3-1.4-0.4-2.1-0.4C85.2,344.9,83.3,345.8,82.4,347.8z"/>
		<circle class="mountain5" cx="139.9" cy="111.3" r="37.9"/>
		<path class="mountain6" d="M122.2,111.3c0-17.4,11.8-32.1,27.8-36.5c-3.2-0.9-6.6-1.4-10.1-1.4c-20.9,0-37.9,17-37.9,37.9
			s17,37.9,37.9,37.9c3.5,0,6.9-0.5,10.1-1.4C134,143.4,122.2,128.8,122.2,111.3z"/>
		<g>
			<path class="mountain5" d="M139.9,59.6c-4.2,0-7.6-3.4-7.6-7.6V37.5c0-4.2,3.4-7.6,7.6-7.6s7.6,3.4,7.6,7.6V52
				C147.5,56.2,144.1,59.6,139.9,59.6z"/>
			<path class="mountain5" d="M139.9,192.8c-4.2,0-7.6-3.4-7.6-7.6v-14.5c0-4.2,3.4-7.6,7.6-7.6s7.6,3.4,7.6,7.6v14.5
				C147.5,189.3,144.1,192.8,139.9,192.8z"/>
			<path class="mountain5" d="M92.5,74.8L82.3,64.5c-3-3-3-7.8,0-10.8c3-3,7.8-3,10.8,0L103.3,64c3,3,3,7.8,0,10.8
				C100.3,77.7,95.5,77.7,92.5,74.8z"/>
			<path class="mountain5" d="M186.7,168.9l-10.2-10.2c-3-3-3-7.8,0-10.8c3-3,7.8-3,10.8,0l10.2,10.2c3,3,3,7.8,0,10.8
				S189.7,171.9,186.7,168.9z"/>
			<path class="mountain5" d="M80.5,118.9H66.1c-4.2,0-7.6-3.4-7.6-7.6s3.4-7.6,7.6-7.6h14.5c4.2,0,7.6,3.4,7.6,7.6S84.8,118.9,80.5,118.9z"
				/>
			<path class="mountain5" d="M213.7,118.9h-14.5c-4.2,0-7.6-3.4-7.6-7.6s3.4-7.6,7.6-7.6h14.5c4.2,0,7.6,3.4,7.6,7.6
				S217.9,118.9,213.7,118.9z"/>
			<path class="mountain5" d="M82.3,168.9c-3-3-3-7.8,0-10.8l10.2-10.2c3-3,7.8-3,10.8,0s3,7.8,0,10.8l-10.2,10.2
				C90.1,171.9,85.3,171.9,82.3,168.9z"/>
			<path class="mountain5" d="M176.5,74.8c-3-3-3-7.8,0-10.8l10.2-10.2c3-3,7.8-3,10.8,0c3,3,3,7.8,0,10.8l-10.2,10.2
				C184.2,77.7,179.4,77.7,176.5,74.8z"/>
		</g>
		<path class="mountain7" d="M495.5,441.2c-1.7,0-3.3,0.2-4.9,0.7c-2,0.6-4.2-0.4-5-2.4c-4.9-11.9-18.3-18.7-31.2-14.6
			c-2.4,0.8-4.9-0.3-6.1-2.5c-5.4-9.5-15.6-16-27.3-16c-15.9,0-29,11.8-31.1,27.2c-0.2,1.7-1.8,2.7-3.5,2.4c-5-1-10.4,0-14.8,3.1
			c-1,0.7-2.3,0.9-3.5,0.5c-9-2.9-12.6,2.8-15.3-1.9c-10.1-17.8-37-13.3-40.8,6.7c-0.3,1.8-2,2.9-3.7,2.7c-8.1-0.9-15.1,5.6-15.2,13.4
			c-0.1,7.7,6.1,13.9,13.7,13.9c18.3,0,165.8,0,188.7,0c9.4,0,17-7.8,16.6-17.3C511.6,448.4,504.3,441.3,495.5,441.2z"/>
		<g>
			<path class="mountain8" d="M313.2,460.6c0.1-7.9,7.1-14.4,15.2-13.4c1.8,0.2,3.4-1,3.7-2.7c1.3-6.7,5.6-12.4,11.5-15.4
				c-13-6.8-29.1,0.9-31.8,15.4c-0.3,1.8-2,2.9-3.7,2.7c-8.1-0.9-15.1,5.6-15.2,13.4c-0.1,7.7,6.1,13.9,13.7,13.9c3.2,0,10.5,0,20.3,0
				C319.3,474.5,313.1,468.2,313.2,460.6z"/>
			<path class="mountain8" d="M477.2,474.5c0,4.2-3.4,7.6-7.6,7.6H7.6c-4.2,0-7.6-3.4-7.6-7.6s3.4-7.6,7.6-7.6h462
				C473.8,466.9,477.2,470.3,477.2,474.5z"/>
		</g>
	</symbol>

	<symbol version="1.1" id="vinyl" xmlns="http://www.w3.org/2000/svg" xmlns:xlink="http://www.w3.org/1999/xlink" x="0px" y="0px"
		 viewBox="0 0 512 512" style="enable-background:new 0 0 512 512;" xml:space="preserve">
		<style type="text/css">
			
		</style>
		<g>
			<g>
				<polyline class="vinyl1" points="346.3,108.1 504.5,108.1 504.5,477.3 7.5,477.3 7.5,108.1 62.1,108.1 		"/>
			</g>
			<g>
				<polyline class="vinyl2" points="346.3,108.1 504.5,108.1 504.5,296.4 7.5,296.4 7.5,108.1 62.1,108.1 		"/>
			</g>
			<g>
				<circle class="vinyl3" cx="444.2" cy="221.1" r="22.6"/>
			</g>
			<g>
				<rect x="45.1" y="401.8" class="vinyl2" width="90.4" height="37.7"/>
			</g>
			<g>
				<circle class="vinyl4" cx="203.3" cy="206" r="171.3"/>
			</g>
			<g>
				<ellipse class="vinyl5" cx="203.3" cy="206" rx="137.4" ry="133.7"/>
			</g>
			<g>
				<circle class="vinyl3" cx="203.3" cy="206" r="60.2"/>
			</g>
			<g>
				<circle class="vinyl6" cx="203.3" cy="206" r="15.1"/>
			</g>
			<g>
				<path d="M75.3,206H60.2C60.2,127.1,124.4,63,203.3,63V78C132.7,78,75.3,135.4,75.3,206z"/>
			</g>
			<g>
				<path d="M203.3,349.1V334c70.6,0,128-57.4,128-128h15.1C346.3,284.9,282.2,349.1,203.3,349.1z"/>
			</g>
			<g>
				<path d="M203.3,311.4v-15.1c49.8,0,90.4-40.5,90.4-90.4h15.1C308.7,264.2,261.4,311.4,203.3,311.4z"/>
			</g>
			<g>
				<path d="M112.9,206H97.8c0-58.1,47.3-105.4,105.4-105.4v15.1C153.4,115.7,112.9,156.2,112.9,206z"/>
			</g>
			<g>
				<path d="M203.3,273.8c-37.4,0-67.8-30.4-67.8-67.8s30.4-67.8,67.8-67.8S271,168.7,271,206S240.6,273.8,203.3,273.8z M203.3,153.3
					c-29.1,0-52.7,23.6-52.7,52.7s23.6,52.7,52.7,52.7S256,235.1,256,206S232.3,153.3,203.3,153.3z"/>
			</g>
			<g>
				<path d="M203.3,228.6c-12.5,0-22.6-10.1-22.6-22.6c0-12.5,10.1-22.6,22.6-22.6s22.6,10.1,22.6,22.6
					C225.9,218.5,215.7,228.6,203.3,228.6z M203.3,198.5c-4.2,0-7.5,3.4-7.5,7.5c0,4.2,3.4,7.5,7.5,7.5s7.5-3.4,7.5-7.5
					C210.8,201.9,207.4,198.5,203.3,198.5z"/>
			</g>
			<g>
				<polygon points="394.6,428.2 173.1,428.2 173.1,413.1 388.4,413.1 436.7,364.8 436.7,319 451.8,319 451.8,371 		"/>
			</g>
			<g>
				<rect x="436.7" y="288.9" width="15.1" height="15.1"/>
			</g>
			<g>
				<rect x="459.3" y="431.9" width="15.1" height="15.1"/>
			</g>
			<g>
				<path d="M444.2,251.2c-16.6,0-30.1-13.5-30.1-30.1s13.5-30.1,30.1-30.1c16.6,0,30.1,13.5,30.1,30.1S460.8,251.2,444.2,251.2z
					 M444.2,206c-8.3,0-15.1,6.8-15.1,15.1c0,8.3,6.8,15.1,15.1,15.1c8.3,0,15.1-6.8,15.1-15.1C459.3,212.8,452.5,206,444.2,206z"/>
			</g>
			<g>
				<rect x="436.7" y="160.8" width="15.1" height="15.1"/>
			</g>
			<g>
				<rect x="399.4" y="176.3" transform="matrix(0.7071 -0.7071 0.7071 0.7071 -10.7883 341.5868)" width="15.1" height="15.1"/>
			</g>
			<g>
				<rect x="399.4" y="176.3" transform="matrix(0.7071 -0.7071 0.7071 0.7071 -10.7883 341.5868)" width="15.1" height="15.1"/>
			</g>
			<g>
				<path d="M347.6,100.6c-32.6-44.5-85.1-73.4-144.4-73.4S91.5,56.1,58.9,100.6H0v384.2h512V100.6H347.6z M203.3,42.2
					C293.6,42.2,367,115.7,367,206s-73.5,163.8-163.8,163.8S39.5,296.3,39.5,206S113,42.2,203.3,42.2z M496.9,469.8H15.1V115.7H49
					c-15.6,26.5-24.6,57.4-24.6,90.4c0,98.6,80.2,178.8,178.8,178.8S382.1,304.6,382.1,206c0-32.9-9-63.8-24.6-90.4h34v15.1h15.1
					v-15.1h15.1v15.1h15.1v-15.1h15.1v15.1h15.1v-15.1h30.1L496.9,469.8L496.9,469.8z"/>
				<path d="M143,394.3H37.6V447H143v-18.8h15.1v-15.1H143V394.3z M128,431.9H52.7v-22.6H128V431.9z"/>
			</g>
		</g>
	</symbol>

</svg>