<svg xmlns="http://www.w3.org/2000/svg">

	<symbol version="1.1" id="sunglasses" xmlns="http://www.w3.org/2000/svg" xmlns:xlink="http://www.w3.org/1999/xlink" x="0px" y="0px"
		 viewBox="0 0 60 60" style="enable-background:new 0 0 60 60;" xml:space="preserve">
		<g>
			<g>
				<g>
					<path d="M54.3,46.8c0,0-3.7-1.8-2.3-6.5c0,0,2.3-1.8-0.9-4c0,0-0.6-0.9,0.5-1.9c0,0,3.9-3.3-2.7-10.5l-0.3-6.6
						c0,0-1.8-9.9-13.8-14.6c0,0-8.6-1.6-9.4,1.4c0,0-10.6,0.5-11.9,13.2c0,0-0.1,3.4-2.4,4.8c0,0-3.5,2.3-1.8,8.4
						c0,0,0.8,3.8-2.5,5.9c0,0-2.8,2.4-1,5.8c0,0,1.1,1.1-0.9,3.2c0,0-1.8,3.2,1.3,7.5c0,0-0.4-3.2,0.4-3.9c0,0,2.7,3.2,2,5.3
						c0,0,4.3-2.4,10.5-2.9c0,0,7.5-1.4,6.7-10.9c0,0-7-5.4-6.7-10.3l0.9-7.1c0,0,2.9-3.5,3.2-4.9c0,0,0.1,0.1,0.1,0.3
						c0-0.1,0.1-0.1,0.1-0.2c0.3-1,1-1.8,2.1-2.1l0,0c0,0,1-2.3,1.6-2.1c0,0,2.2,5.6,8.5,5.9c0,0,1,6.3,4.9,7c0,0,0.1,9.5-5.4,13.4
						c0,0-1.3,11.1,9.9,11.6c0,0-2,5.1,2.4,6.1c0,0-0.8-4.9,2.9-4.9l1.6,2C52.2,55.2,56.1,50.2,54.3,46.8z"/>
				</g>
			</g>
			<path class="vag1" d="M35.1,40.4c5.6-3.9,5.4-13.4,5.4-13.4c-3.9-0.6-4.9-7-4.9-7c-6.3-0.4-8.5-5.9-8.5-5.9
				c-0.6-0.1-1.6,2.1-1.6,2.1l0,0c-1.1,0.3-1.8,1.1-2.1,2.1c0,0.1-0.1,0.1-0.1,0.2c-0.1-0.2-0.1-0.3-0.1-0.3c-0.3,1.4-3.2,4.9-3.2,4.9
				l-1,7.1c-0.3,4.8,6.7,10.3,6.7,10.3c0.3,4.2-0.9,6.8-2.5,8.4c2.2,0.9,4.5,1.3,7,1.3c2.6,0,5-0.5,7.3-1.5
				C34.5,45.3,35.1,40.4,35.1,40.4z"/>
			<path class="vag2" d="M45.3,23.9h-0.5c-0.2-0.9-0.8-1.6-1.9-2.1c-0.8-0.4-1.7-0.6-2.6-0.6h-6.2h-8.6h-6.1c-1,0-1.9,0.2-2.6,0.6
				c-1,0.5-1.6,1.2-1.9,2.1h-0.6c-0.3,0-0.5,0.2-0.5,0.5s0.2,0.5,0.5,0.5h0.5v4.3c0.1,1,0.8,3.2,3.3,4c0.5,0.2,1,0.2,1.5,0.2
				c0.6,0,1.3-0.1,1.9-0.3c2.7-0.9,7.2-3,7.2-6.6c0-0.1,0.1-0.7,0-1.4c0.6-0.4,1.6-0.4,2.1,0c-0.1,0.8,0,1.3,0,1.3
				c0,3.6,4.6,5.7,7.2,6.6c0.6,0.2,1.3,0.3,1.9,0.3c0.5,0,1-0.1,1.5-0.2c2.5-0.8,3.3-2.9,3.3-4v-4.3h0.5c0.3,0,0.5-0.2,0.5-0.5
				C45.8,24.1,45.6,23.9,45.3,23.9z M27.7,26.6c0,3.1-4.6,4.9-6.5,5.6c-0.9,0.3-1.9,0.3-2.7,0.1c-2.4-0.7-2.6-2.9-2.6-3v-4.8
				c0-0.7,0.4-1.2,1.3-1.6c0.7-0.4,1.4-0.5,2.2-0.5h6.1c0.5,0,1,0.2,1.3,0.5C27.9,24,27.7,26.5,27.7,26.6z M31.1,24.1
				c-0.8-0.4-1.7-0.4-2.5,0c-0.1-0.3-0.1-0.5-0.2-0.8h3C31.2,23.6,31.1,23.8,31.1,24.1z M31.6,22.7H28c-0.1-0.1-0.2-0.3-0.3-0.4h4.1
				C31.8,22.4,31.7,22.5,31.6,22.7z M41.2,32.2c-0.8,0.2-1.8,0.2-2.7-0.1c-2-0.7-6.5-2.5-6.5-5.7c0,0-0.2-2.5,0.8-3.7
				c0.3-0.4,0.8-0.5,1.3-0.5h6.1c0.8,0,1.5,0.2,2.1,0.5c0.8,0.4,1.3,0.9,1.3,1.6c0,0.1,0,0.1,0,0.1c0,0.1,0,0.1,0,0.1v4.7
				C43.7,29.3,43.6,31.5,41.2,32.2z"/>
		</g>

	</symbol>

	<symbol version="1.1" id="newyork" xmlns="http://www.w3.org/2000/svg" xmlns:xlink="http://www.w3.org/1999/xlink" x="0px" y="0px"
		 viewBox="0 0 512 512" style="enable-background:new 0 0 512 512;" xml:space="preserve">
		<g>
			<g>
				<path class="newyork1" d="M279.9,218.2c-5.5,0-9.9-3.5-9.9-7.8V143c0-4.3,4.5-7.8,9.9-7.8s9.9,3.5,9.9,7.8v67.4
					C289.9,214.7,285.4,218.2,279.9,218.2z"/>
				<path class="newyork1" d="M315.8,226.1c-1.7,0-3.5-0.4-5.1-1.1c-4.7-2.2-6.2-7-3.4-10.8l37.1-48.6c2.8-3.7,8.9-4.9,13.6-2.7
					s6.2,7,3.4,10.8l-37.1,48.6C322.5,224.7,319.2,226.1,315.8,226.1z"/>
				<path class="newyork1" d="M336.9,241.5c-3.1,0-6.2-1.2-8.1-3.3c-3.2-3.5-2.1-8.4,2.4-10.9l48.7-27.1c4.5-2.5,10.7-1.7,13.9,1.9
					c3.2,3.5,2.1,8.4-2.4,10.9L342.6,240C340.8,241,338.8,241.5,336.9,241.5z"/>
				<path class="newyork1" d="M346.7,257.5c-4.3,0-8.2-2.2-9.5-5.6c-1.6-4.1,1.4-8.5,6.7-9.7l39.4-9.2c5.3-1.2,10.8,1.1,12.4,5.3
					c1.6,4.1-1.4,8.5-6.7,9.7l-39.4,9.2C348.6,257.4,347.7,257.5,346.7,257.5z"/>
				<path class="newyork1" d="M244,226.1c-3.4,0-6.7-1.4-8.5-3.8l-37.1-48.6c-2.8-3.7-1.3-8.5,3.4-10.8c4.7-2.2,10.8-1,13.6,2.7l37.1,48.6
					c2.8,3.7,1.3,8.5-3.4,10.8C247.5,225.7,245.8,226.1,244,226.1z"/>
				<path class="newyork1" d="M223,241.5c-2,0-4-0.5-5.7-1.4l-48.7-27.1c-4.5-2.5-5.6-7.4-2.4-10.9c3.2-3.5,9.4-4.4,13.9-1.9l48.7,27.1
					c4.5,2.5,5.6,7.4,2.4,10.9C229.2,240.3,226.1,241.5,223,241.5z"/>
				<path class="newyork1" d="M213.2,257.5c-0.9,0-1.9-0.1-2.8-0.3l-39.4-9.2c-5.3-1.2-8.3-5.6-6.7-9.7c1.6-4.1,7.1-6.5,12.4-5.3l39.4,9.2
					c5.3,1.2,8.3,5.6,6.7,9.7C221.4,255.3,217.4,257.5,213.2,257.5z"/>
				<polyline class="newyork1" points="210.3,425.6 210.3,265.2 349.5,265.2 349.5,469.4 		"/>
			</g>
			<polygon class="newyork2" points="404.2,453.9 427.1,437.4 363.5,368.4 234.2,368.4 172.6,346.7 103.9,162.3 73.1,162.3 110.9,407.6 
				81.1,437 126.8,481.3 126.8,512 285.9,512 443,512 	"/>
			<g>
				<polyline class="newyork1" points="143.6,375.3 76.5,184.4 110.9,407.6 		"/>
				<polygon class="newyork1" points="172.6,346.7 112.9,467.8 81.1,437 		"/>
				<polygon class="newyork1" points="164.3,324.4 172.6,346.7 110.9,407.6 102.9,355.5 		"/>
				<path class="newyork1" d="M104,92v70.3H69.4c-2.7,0-5.3-0.3-7.8-0.8c-14-2.7-24.3-12.7-24.3-24.5V92H104L104,92z"/>
				<polygon class="newyork1" points="199.7,512 303.1,368.4 363.5,368.4 229.5,512 		"/>
			</g>
			<path class="newyork2" d="M104,130.8v31.5H69.4c-2.7,0-5.3-0.3-7.8-0.8v-16c0-8.1,8.4-14.8,18.7-14.8H104z"/>
			<polyline class="newyork3" points="34.8,80 23.4,15.2 53.6,33.8 75.9,0 90.3,31.7 117.9,15.2 108.3,80 	"/>
			<path class="newyork2" d="M279.9,210.4L279.9,210.4c-38.4,0-69.6,24.6-69.6,54.9v26.6c0,30.3,31.2,54.9,69.6,54.9l0,0l0,0
				c38.4,0,69.6-24.6,69.6-54.9v-26.6C349.5,234.9,318.4,210.4,279.9,210.4z"/>
			<g>
				<path class="newyork1" d="M234.2,291.9v-26.6c0-27.1,24.9-49.6,57.7-54c-3.9-0.5-7.9-0.8-11.9-0.8c-38.4,0-69.6,24.6-69.6,54.9v26.6
					c0,30.3,31.2,54.9,69.6,54.9c4.1,0,8.1-0.3,11.9-0.8C259.1,341.4,234.2,319,234.2,291.9z"/>
				<path class="newyork1" d="M349.5,265.2v26.6l-0.4,0c-1.7-12.9-9-24.4-20-33.1c-12.6-9.9-30-16.1-49.2-16.1c-37.2,0-67.6,23-69.5,52
					c-0.1-1-0.1-1.9-0.1-2.9v-26.6c0-15.2,7.8-28.9,20.4-38.8c12.6-9.9,30-16.1,49.2-16.1C318.4,210.4,349.5,234.9,349.5,265.2z"/>
			</g>
			<rect x="9" y="79.5" class="newyork4" width="123.3" height="25.1"/>
			<g>
				<rect x="9" y="79.5" class="newyork1" width="52.8" height="25.1"/>
				<path class="newyork1" d="M320,277.9l-37.8-7c0,0-0.1,0-0.1,0c-0.3,0-0.5-0.1-0.8-0.1c-0.1,0-0.2,0-0.3,0c-0.4,0-0.7,0-1.1,0
					s-0.7,0-1.1,0c-0.1,0-0.2,0-0.3,0c-0.3,0-0.6,0.1-0.8,0.1c0,0-0.1,0-0.1,0l-37.8,7c-5.3,1-8.7,5.2-7.4,9.4c1.3,4.2,6.6,6.8,12,5.8
					l25.6-4.7v11.7c0,4.3,4.5,7.8,9.9,7.8s9.9-3.5,9.9-7.8v-11.7l25.6,4.7c0.8,0.1,1.5,0.2,2.3,0.2c4.5,0,8.6-2.4,9.7-6.1
					C328.7,283.1,325.4,278.9,320,277.9z"/>
				<polyline class="newyork1" points="404.2,453.9 349.3,493.5 413.4,467.7 		"/>
				<polyline class="newyork1" points="234.2,368.4 195.5,412 210.3,360 		"/>
			</g>
		</g>
	</symbol>

	<symbol version="1.1" id="singapore" xmlns="http://www.w3.org/2000/svg" xmlns:xlink="http://www.w3.org/1999/xlink" x="0px" y="0px"
		 viewBox="0 0 480 480" style="enable-background:new 0 0 480 480;" xml:space="preserve">

		<g>
			<g>
				<path class="singapore1" d="M320,40H184l-0.4,1.2C179.1,54.8,166.3,64,152,64c-8.8,0-16,7.2-16,16v6.6c0,6,2.4,11.8,6.6,16L160,120h36
					c6.6,0,12,5.4,12,12c0,6.6-5.4,12-12,12h-20c-8.8,0-16,7.2-16,16l24,24l-8,80v120c0,35.3,28.7,64,64,64h32.5
					c35.1,0,63.5-28.4,63.5-63.5V80L320,40z M236,376c-11,0-20-9-20-20s9-20,20-20s20,9,20,20S247,376,236,376z"/>
				<path class="singapore1" d="M320,40H184l-0.4,1.2C179.1,54.8,166.3,64,152,64c-8.8,0-16,7.2-16,16v6.6c0,6,2.4,11.8,6.6,16L160,120h36
					c6.6,0,12,5.4,12,12c0,6.6-5.4,12-12,12h-20c-8.8,0-16,7.2-16,16l24,24l-8,80v120c0,35.3,28.7,64,64,64h32.5
					c35.1,0,63.5-28.4,63.5-63.5V80L320,40z M236,376c-11,0-20-9-20-20s9-20,20-20s20,9,20,20S247,376,236,376z"/>
				<path class="singapore2" d="M336,278.7V188l-8-36h8V88l-0.8-3.4c-4.5-17.8-15-33.6-29.7-44.6l-113.2-8c-12.4,10.2-5.1,6.5-11.8,16h28
					c21.9,0,39.6,17.7,39.6,39.6c0,10.5,3.8,28.6-3.6,36l-10.6,9.5c-26.8,24-45.6,55.7-53.8,90.8l-4,40.1v16l81.5-27.2v-26.2
					l10.5-17.2l20,6.6v41.3L336,278.7z"/>
				<path class="singapore3" d="M184,40h32.4c21.9,0,39.6,17.7,39.6,39.6c0,10.5-4.2,20.6-11.6,28l-10.6,9.5c-41.4,37-62.8,91.5-57.8,146.9
					l72-24v-32l16-8l24,8v40l72,32l-32-144h24l-16.8-67.4C326.3,33,294.3,8,257.5,8H248C222.8,8,199.1,19.9,184,40z"/>
				<g>
					<path class="singapore4" d="M208,80c-1,0-2.1-0.2-3-0.6c-1-0.4-1.9-1-2.6-1.7c-1.5-1.5-2.3-3.6-2.3-5.7c0-0.5,0.1-1,0.2-1.5
						c0.1-0.5,0.2-1,0.5-1.5c0.2-0.5,0.4-1,0.7-1.4s0.6-0.8,1-1.2c2.3-2.2,5.7-2.9,8.7-1.7c1,0.4,1.9,1,2.6,1.7c0.3,0.4,0.7,0.8,1,1.2
						c0.3,0.4,0.5,0.9,0.7,1.4s0.4,1,0.5,1.5s0.1,1,0.2,1.5c0,2.1-0.8,4.2-2.3,5.7c-0.8,0.7-1.7,1.3-2.6,1.7C210.1,79.8,209,80,208,80
						z"/>
					<path class="singapore5" d="M232,336l56-16l-1-1.8c-7.7-13.4-20.9-22.8-36.2-25.6c-15.2-2.8-30.9,1.4-42.8,11.3l-11.4-19
						c-16.8-27.9-47-45-79.6-45l58.9,88H190c11,0,21,6.2,25.9,16L232,336z"/>
					<path class="singapore5" d="M288,368c-4.4,0-8-3.6-8-8v-8c0-4.4,3.6-8,8-8s8,3.6,8,8v8C296,364.4,292.4,368,288,368z"/>
					<path class="singapore5" d="M304,400c-4.4,0-8-3.6-8-8v-8c0-4.4,3.6-8,8-8s8,3.6,8,8v8C312,396.4,308.4,400,304,400z"/>
					<path class="singapore5" d="M272,408c-4.4,0-8-3.6-8-8v-8c0-4.4,3.6-8,8-8s8,3.6,8,8v8C280,404.4,276.4,408,272,408z"/>
				</g>
				<path class="singapore6" d="M472,472l-77-35.9c-27.9-13-59.3-16.6-89.4-10.1l-30.1,6.4c-23.3,5-47.5,4-70.3-2.8
					c-29.4-8.8-60.8-7.8-89.5,2.8L8,472H472z"/>
				<path class="singapore7" d="M305.6,449.9l-30.1,6.4c-23.3,5-47.5,4-70.3-2.8c-29.4-8.8-60.8-7.8-89.5,2.8L73.1,472h347.4L395,460.1
					C367.1,447.1,335.7,443.5,305.6,449.9z"/>
				<path class="singapore8" d="M256,16l-8-8c25.1,40.1,29.2,90,11,133.7c-7.2,17.4-11,36-11,54.9V224l16-24l24,8V86.2
					c0-14.4-4.5-28.5-12.9-40.2L256,16z"/>
				<path class="singapore9" d="M257.5,8c24.9,36.2,30.5,80,33.3,123.7L288,168v80l40,16l-5.9-130.8c-1.3-29.4-11.8-57.7-29.9-80.8L257.5,8z"
					/>
				<path class="singapore8" d="M257.5,8H248l6.8,5.1c36.9,27.6,62.2,67.8,71.2,113l2,9.9h24l-16.8-67.4C326.3,33,294.3,8,257.5,8z"/>
				<path d="M288,368c4.4,0,8-3.6,8-8v-8c0-4.4-3.6-8-8-8s-8,3.6-8,8v8C280,364.4,283.6,368,288,368z"/>
				<path d="M296,392c0,4.4,3.6,8,8,8s8-3.6,8-8v-8c0-4.4-3.6-8-8-8s-8,3.6-8,8V392z"/>
				<path d="M272,408c4.4,0,8-3.6,8-8v-8c0-4.4-3.6-8-8-8s-8,3.6-8,8v8C264,404.4,267.6,408,272,408z"/>
				<path d="M8,480h464c3.8,0,7-2.6,7.8-6.3s-1-7.4-4.4-9l-77-36c-19.2-8.9-40.1-13.6-61.3-13.9c4.5-9.5,6.9-19.9,6.8-30.4V281.6
					l12.8,5.7c2.8,1.2,6,0.8,8.3-1.1s3.4-5,2.7-7.9L338,144h14c2.5,0,4.8-1.1,6.3-3.1c1.5-1.9,2.1-4.5,1.5-6.9L343,66.6
					C333.2,27.5,297.9,0,257.5,0H248c-27.4,0.1-53.3,12.9-70,34.7l-0.1,0.1c-0.1,0.1-0.2,0.2-0.3,0.4c-0.5,0.7-0.9,1.4-1.1,2.2
					c0,0,0,0.1-0.1,0.1l-0.4,1.2C172.6,49,162.9,56,152,56c-13.2,0.1-23.9,10.8-24,24v6.6c0,8.1,3.3,15.9,9,21.7l17.4,17.4
					c1.5,1.5,3.5,2.3,5.7,2.3h36c2.2,0,4,1.8,4,4s-1.8,4-4,4h-20c-13.3,0-24,10.7-24,24c0,2.1,0.8,4.2,2.3,5.7l22.8,22.8
					c-6.3,18.4-9.6,37.7-9.8,57.1c-15.3-8.9-32.6-13.5-50.3-13.6c-3,0-5.7,1.6-7.1,4.2c-1.4,2.6-1.2,5.8,0.4,8.2l57.6,85.9V384
					c0,11.2,2.6,22.2,7.6,32.2c-21.3-1.6-42.7,1.3-62.7,8.6L5.2,464.5c-3.6,1.3-5.8,5.1-5.1,8.9C0.8,477.2,4.1,480,8,480z
					 M348.8,266.2l-12.9-5.7l-3-65.8L348.8,266.2z M327.4,70.5l14.4,57.5h-12.1c-2.2-29.4-13.1-57.4-31.2-80.6l-22.7-29.1
					C301.2,25,321,45,327.4,70.5z M236,384c11.1,0,21.1-6.5,25.6-16.6s2.5-22-5-30.1l33.5-9.6c2.4-0.7,4.3-2.4,5.2-4.7
					c0.9-2.3,0.8-4.9-0.5-7l-1-1.8c-8.1-14.1-21.5-24.4-37.2-28.5s-32.4-1.7-46.3,6.7l-6.9-11.6c-3.1-5-6.6-9.8-10.5-14.2l57.6-19.2
					c3.3-1.1,5.5-4.1,5.5-7.6v-27.1l8.6-4.3l15.4,5.1V248c0,0.8,0.1,1.6,0.4,2.3c0.1,0.3,0.2,0.5,0.3,0.7c0.2,0.5,0.4,0.9,0.6,1.3
					c0.2,0.3,0.4,0.5,0.6,0.7c0.3,0.4,0.6,0.7,0.9,1c0.3,0.2,0.6,0.4,0.9,0.5c0.3,0.2,0.7,0.5,1,0.6l43.2,19.2v109.9
					c0,11.2-3.5,22.2-10,31.4c-4.7,0.5-9.4,1.2-14.1,2.3l-30.1,6.4c-22,4.7-44.8,3.8-66.3-2.7c-3.7-1.1-7.4-2-11.1-2.8
					c-8-9.9-12.4-22.3-12.4-35v-48h6.1c7.9,0,15.2,4.5,18.7,11.6c0.1,0.2,0.3,0.4,0.4,0.6c-0.8,2.5-1.2,5.2-1.3,7.8
					C208,371.5,220.5,384,236,384z M224,356c0-3.6,1.7-7.1,4.5-9.3l4.5-2.3c0.9-0.3,1.9-0.4,2.9-0.4c6.6,0,12,5.4,12,12s-5.4,12-12,12
					C229.4,368,224,362.6,224,356z M296,207.9v-39.3l2.8-36.3c1.7-21.8-0.3-43.7-5.6-64.8c12.7,19.8,19.9,42.6,20.9,66l5.4,118.4
					l-23.5-9.4L296,207.9L296,207.9z M277.5,71.3c5,19.5,6.8,39.7,5.3,59.8L280,168v28.9l-13.5-4.5c-2-0.7-4.2-0.5-6.1,0.4L256,195
					c0.2-17.3,3.6-34.3,10.3-50.3C276,121.5,279.8,96.3,277.5,71.3z M243.5,16.2c7.9,13.6,13.4,28.5,16.3,44
					C252.2,43.1,235.2,32,216.4,32h-13.6C214.4,22.7,228.6,17.1,243.5,16.2z M196,112h-32.7l-15-15c-2.7-2.8-4.3-6.5-4.3-10.3V80
					c0-2.2,0.9-4.2,2.4-5.7s3.5-2.3,5.6-2.3c16.1,0,30.7-9.4,37.4-24h27c17.4,0,31.6,14.2,31.6,31.6c0.1,8.2-3.2,16.2-8.9,22
					l-10.6,9.5c-4.9,4.4-9.5,9-13.9,13.8C211.7,117.2,204.3,112,196,112z M239.2,123l10.9-9.8c5.5-5.5,9.5-12.2,11.8-19.6
					c-0.9,15.4-4.4,30.6-10.3,44.9c-7.7,18.3-11.6,38-11.6,57.9v37.7L183.4,253C181.8,203.6,202.2,156,239.2,123z M168.5,157.2
					c1.2-3.1,4.1-5.2,7.5-5.2h18.3c-4,6.5-7.6,13.3-10.7,20.3L168.5,157.2z M133.1,249.5c23.6,4.6,44.2,19,56.7,39.6l11.4,19
					c1.2,2,3.2,3.4,5.5,3.8s4.7-0.3,6.5-1.7c18.6-15.5,46.3-13.2,62.1,5.2l-45.4,13c-0.5,0.1-0.9,0.3-1.4,0.5l-1.8,0.9
					c-2.3,0.8-4.5,1.9-6.6,3.3l-1.3,0.6c-7-8.7-17.6-13.7-28.7-13.6h-9.8L133.1,249.5z M118.5,439.8c27.1-9.9,56.8-10.9,84.5-2.6
					c24.1,7.2,49.6,8.2,74.2,3l30.1-6.4c28.4-6,58-2.7,84.4,9.6L436,464H52.8L118.5,439.8z"/>
			</g>
			<circle class="singapore10" cx="235.8" cy="356" r="12.3"/>
		</g>
	</symbol>


	<symbol version="1.1" id="awktitle" xmlns="http://www.w3.org/2000/svg" xmlns:xlink="http://www.w3.org/1999/xlink" x="0px" y="0px"
		 viewBox="0 0 1366 768" style="enable-background:new 0 0 1366 768;" xml:space="preserve">

		<path class="awktitle" d="M132.6,153.6c-7.3-104-7.3-104-7.3-104c-9.1-5.5-18.1-5.5-18.1-5.5l-12.9,1.8l-10.9,3.6L65.1,67.8l-5.5,10.9
			l-42,162.4L14,255.7v23.7l5.5,14.6l9.1,3.6l9.1-3.6l5.5-12.8l5.5-1.8l16.4-1.8l12.8-18.2l7.3-20.1v-20.1l7.3-23.7l3.6,83.9l3.6,10.9
			l3.6,14.6l3.6,18.2l3.6,7.3l10.9,5.5h3.6l5.5-5.5v-23.7v-14.6l10.9-16.4l-3.6-63.9L132.6,153.6z M97.9,164.5L76,160.9l3.6-32.8
			l12.8-27.4l5.5,31V164.5z"/>
		<polygon class="awktitle" points="302.3,69.6 271.2,133.5 265.8,137.1 263.9,108 256.6,76.9 232.9,75.1 222,87.9 207.4,140.8 
			198.3,115.2 192.8,86.1 181.8,56.9 161.8,60.5 147.2,73.3 147.2,86.1 165.4,126.2 169.1,144.4 172.7,160.9 192.8,213.8 192.8,239.3 
			196.4,248.4 203.7,248.4 225.6,230.2 245.7,190 258.5,226.5 274.9,237.5 291.3,235.7 302.3,211.9 333.3,100.7 336.9,66 320.5,62.3 
			"/>
		<polygon class="awktitle" points="501.1,171.8 455.5,122.5 455.5,115.2 497.5,73.3 501.1,62.3 482.9,16.7 475.6,16.7 450,38.6 
			409.9,80.6 417.2,42.3 415.4,20.4 402.6,16.7 362.5,25.9 357,33.2 351.5,71.5 351.5,111.6 351.5,153.6 346,208.3 346,221.1 
			351.5,233.8 362.5,239.3 373.4,243 377.1,266.7 384.3,277.6 391.6,281.3 404.4,266.7 409.9,246.6 417.2,241.1 426.3,235.7 
			426.3,191.9 426.3,166.3 439.1,182.8 446.4,206.5 457.3,222.9 468.3,233.8 501.1,243 506.6,246.6 506.6,261.2 513.9,272.1 
			519.4,270.3 532.1,252.1 532.1,235.7 515.7,217.4 "/>
		<polygon class="awktitle" points="654.4,58.7 645.2,53.2 639.8,58.7 630.6,82.4 616,108 612.4,89.7 605.1,82.4 592.3,78.8 577.7,82.4 
			577.7,98.8 572.3,111.6 565,95.2 554,71.5 548.5,56.9 539.4,53.2 523,56.9 515.7,69.6 519.4,84.2 533.9,131.7 541.2,164.5 
			554,215.6 565,217.4 574.1,213.8 590.5,182.8 597.8,166.3 597.8,157.2 606.9,159 636.1,241.1 647.1,241.1 656.2,233.8 658,204.6 
			659.8,151.7 665.3,142.6 669,118.9 672.6,91.5 672.6,67.8 663.5,64.2 "/>
		<path class="awktitle" d="M798.5,128l-12.8-65.7l-9.1-29.2h-31h-20.1l-10.9,5.5l-9.1,21.9l-5.5,31v20.1l-3.6,40.1l-3.6,43.8v18.2l7.3,5.5
			l3.6,23.7l5.5,7.3h14.6l7.3-7.3v-18.2l16.4-9.1v-36.5v-18.2v-16.4l5.5,5.5l7.3,38.3v23.7l14.6,21.9l3.6,36.5l7.3,9.1h9.1l7.3-9.1
			l3.6-31l14.6-21.9l-7.3-49.3L798.5,128z M752.9,118.9h-10.9l-7.3-5.5l7.3-36.5l5.5-3.6l5.5,21.9V118.9z"/>
		<polygon class="awktitle" points="842.3,40.5 838.6,40.5 833.1,51.4 836.8,98.8 838.6,131.7 845.9,182.8 845.9,215.6 853.2,230.2 
			858.7,241.1 862.3,255.7 867.8,263 875.1,263 878.8,235.7 897,221.1 897,201 897,151.7 897,148.1 926.2,140.8 929.8,129.8 
			929.8,102.5 913.4,106.1 887.9,111.6 882.4,80.6 929.8,73.3 942.6,66 942.6,33.2 931.7,29.5 "/>
		<polygon class="awktitle" points="1011.9,97 1010.1,78.8 993.7,75.1 971.8,78.8 966.3,89.7 966.3,173.6 966.3,221.1 971.8,241.1 
			990,255.7 993.7,272.1 997.3,283.1 1002.8,286.7 1013.8,277.6 1019.2,232 1015.6,177.3 1019.2,129.8 "/>
		<polygon class="awktitle" points="1168.8,36.8 1157.9,40.5 1150.6,66 1143.3,93.4 1137.8,135.3 1115.9,91.5 1092.2,45.9 1083.1,29.5 
			1075.8,24 1068.5,29.5 1059.4,36.8 1055.7,55 1055.7,113.4 1055.7,155.4 1052.1,204.6 1055.7,221.1 1061.2,228.4 1057.5,237.5 
			1057.5,248.4 1061.2,257.6 1079.4,257.6 1103.2,243 1108.6,204.6 1105,173.6 1117.8,190 1134.2,224.7 1148.8,235.7 1154.2,257.6 
			1157.9,268.5 1172.5,268.5 1185.3,252.1 1196.2,204.6 1196.2,148.1 1196.2,124.4 1203.5,64.2 1203.5,36.8 1192.6,33.2 "/>
		<path class="awktitle" d="M1345.8,159l-5.5-14.6l-3.6-56.6l-10.9-29.2l-10.9-29.2l-7.3-21.9L1289.2,4l-29.2,14.6l-12.8,31l-5.5,43.8
			l-5.5,40.1l-12.8,51.1l-9.1,36.5l-3.6,34.7l3.6,25.5l9.1,12.8h12.8l10.9-14.6l7.3-12.8l14.6-9.1l9.1-45.6v-29.2l5.5-16.4l3.6,36.5
			v31l12.8,21.9l3.6,23.7l9.1,14.6h9.1l9.1-21.9v-16.4l3.6-9.1l14.6-1.8l5.5-23.7L1345.8,159z M1292.9,126.2h-27.4v-9.1l7.3-14.6
			l10.9-34.7h7.3l3.6,34.7l3.6,18.2L1292.9,126.2z"/>
	</symbol>

	<symbol version="1.1" id="SNL" xmlns="http://www.w3.org/2000/svg" xmlns:xlink="http://www.w3.org/1999/xlink" x="0px" y="0px"
		 viewBox="0 0 512 318" style="enable-background:new 0 0 512 318;" xml:space="preserve">
		<g>
			<g>
				<path class="SNL1" d="M0,318h512V0H0V318z"/>
				<path class="SNL2" d="M398.3,20.3c8.1,0,5.3,3,9.4,4.3c3.3,1.1,1.1-0.7,4.9-0.9c1.2-0.1,2.3,0.3,3.5,0.1c3.3-0.3,1.6-0.5,2.8-1.1
					c2.4-1.2,11.1-1,13.2-0.2c2.1,0.8,1.8,1.2,5.1,2c4.3,0.9,9-1,12.8,1.1c2.4,1.4,1.3,1.8,5.1,1.8c3.1,0,6-0.8,8.9,0
					c3.3,0.8,1.2-0.1,5.1-0.8c1.3-0.2,2,0,3.2,0.4c2.8,1,2.2,1.6,5.9,1.4c6.5-0.4,10.5,2.8,16.4,3.7c4.1,0.6,8.2-0.3,7.9,4.8
					c-4.2,0.5-7.6-3.4-11.5-0.9c0.2,3.8,2.3,1.4,4.3,4.5c-0.2,0-0.4,0.1-0.5,0.1c-3.1,0.8-4.5,1.7-6.7,4.8c-3.1,0-5.3-0.7-8.5,1
					c-0.6,5.3,6,3.9,5.2,11.7c-0.1,1.4-0.1,3.8-0.3,5.9c-2.8-0.3-9.4-7.6-10.7-9.8c-2.3-4,4.4-12.8,0.4-12.6c-1.4,0.1-0.5,1-2,2.5
					c-3.9-0.2-2.1-3.3-6.9-1.4c-1.1,4.4,1.6,3.9-0.5,5.1c-2.2,1.2-3.8-0.5-5.4-0.8c-0.3-0.1-10.8,0.5-11.3,0.7c-1.2,1.5-3.3,7-3.8,8.4
					c3.4,2.1,5.8,1.6,7,1.7c1.7,0,2.2,1.1,3.6,1.4c3.9,1,0.1-1.3,3.3,0c2.4,2.7,4.8,5.4,7.2,8.1c-0.4,1-0.8,2-1.2,3
					c-2.6-2-2.9-6.2-6.1-7.4c-0.5,4.3,3.7,2.3,1.4,12.5c-2,8.9-3.5,5.5-7.1,6.5c-0.8,0.5-3.1,6.5-3.3,7.5c2.7,2.6,5.9,3.9,5.8,9.3
					c-1.6,0.8-2.6,1.6-4.7,1c-2.2-9.1-1.5-4.6-4.2-7.3c-2.8-2.9,0.7-5.6-7-2.4c-1.2-1.8-0.4-1.6-1.1-3.5c-1.9,0.3-4.6,2.9-5.2,4.9
					c1.7,0.9,3,2.1,3.8,2.2c1.6,0.2,2.4-1,4.6,0.4c-1.2,2.5-2.1,2-3.1,4.6c1.8,3,4.8,5.2,5.9,9.2c0.1,0.1,0.1,0.3,0.2,0.5
					c0.6,2.1,1.1,0.5,1.2,3.4c0.1,2.1-0.9,3.3-1.7,5.4c-3.6,9.8-8.9,8.5-16,12.1c0.1,2.7,2.4,7.1-2.8,6.1c-0.4-4.4,1.8-2.1,1.4-6.3
					c-3.4-1.2-5.3,0.4-6.8,4.2c1.3,6.5,8.9,7,6.9,17c-2.3,2-4.7,4-6.9,6c-2.1-1.4,0.2-0.4-1.8-2.9c-2.1-2.6-4.6-4.5-6.9-6.7
					c-0.2,0.4-0.3,0.7-0.5,1.1c-0.8,2.1-1.8,4.5-1.3,6.7c0.2,1.1,2,5.1,2.9,5.9c1.7,1.7,3.4,2,3.9,4.7c0.2,0.9,1.1,7.7,1.1,8.1
					c-6.9-2.6-4.8-7.4-7.3-12c-1.1-2.1-1.3-1.6-2.7-3.6c-0.1-3.7,0.9-6.7,0.1-10.6c-0.6-2.3-1.6-5.6-2.2-7.9c-2.5,0.5-4.7,4.2-5.3,0.6
					c-0.1-0.6-0.2-1.2-0.3-1.8c-1.4-6.5-3.5-4.8-5.6-11c-3.4,1.1-3.5,1.2-7.5,1.9l-0.1,0.1l0,0.2c-1.6,2.3,0.1,1.3-2.7,3.7
					c-3.3,2.9-5.5,6.7-9.2,9.1c-0.4,4,0.3,4.9-0.7,9.7c-0.4,1.8-2.3,6.5-4.6,6.2c-0.7-0.1-3.8-7.8-4.5-10c-1.2-3.6-2.6-6.3-3.5-10.5
					c-0.5-2.2-0.8-6.5-1.3-8c-2.4,0.4-2.3,1.9-4.5,0.3c-1.6-1.2-0.9-1.9-1.8-3.7c-1.9-1.8-3.8-3.6-5.8-5.4c-1.5-0.5-7.3,0.4-9.7,0.1
					c-4.4-0.4-4.8-0.1-7.4-3.7c-4.6,0.2-4.2,2-8.7-2c-2.9-2.5-2.4-6.6-6.7-4.3c-0.2,3.7,1.6,4.5,3.2,6.3c1.2,1.3,2.6,2.2,3.2,4
					c0.1,0,0.3,1.7,0.4,1.9c4.2,0.3,5.2-1.8,7.4-3.5c2.2,2.1,0.1,2.5,3.3,4.2c2.6,1.3,2.1,0.5,3.7,2.7c0.8,2.9-5.7,10.6-7.9,12
					c-1.7,1.1-2.6,0.4-4,1.7c-2.2,1.9,0.3,1.6-3.6,3.1c-4.2,1.5-8.3,4.8-12.6,5.1c-0.9-2.6-1.9-5.3-2.8-8c-2.8-9.1-2.7-5.6-5.5-10.3
					c-1.3-2-0.8-3.4-1.7-5.2c-0.6-1.4-1.6-1.9-2.4-3.6c-1.3-2.6-2.8-6.6-5.7-6.2l-1.4-7.4c0.4,0,0.8,0,1.4-0.1
					c0.6-1.3,5.1-12.8-0.7-11.3c-1.7,0.4-0.6,1.1-3,0.4c-2.6-0.7-0.1-1.2-2.9-0.8c-2.8,0.4-6.1,2.9-8.3-5.7c-0.8-3.1-2.3-5.8-5.8-1.1
					c0.9,1.6,1.5,1.7,2.5,3.3c-0.3,0.4-1.2,1.6-1.6,1.9c-1.9,1.9,0.8,1-2.3,1.4c-1.7-1.3-1.3-2.9-2.9-5.2c-2.8-4.2-1-2.3-2.4-6.3
					c-1.1-1-3-1.8-4.6-2.8v0l-0.1-0.1c-0.4-0.3-0.8-0.5-1.1-0.9c-2.4-2.2-2.9-4.2-5.7-3.7c-0.1,2.1,0.2,2.2,1.2,3.5
					c3.8,4.8,2.6,3.2,5.5,4.9l0.1,0.1v0c0.7,0.4,1.5,1,2.6,1.8c-3.8,3.4-0.3,3.7-2.6,4.9v0l0,0l-0.1,0c-0.2,0.1-0.4,0.2-0.6,0.3
					c-0.8-2,0.9-1-1.1-3.9c-1.1-1.5-2.2-1.9-3.9-2.8c-4.3-2.1-3.8-3.7-6.4-6.4c-3,0.1-2.3,1-4.4,2.1c-2.5,1.3-2.2-0.2-5.2,0
					c-2.4,4.4,1.1,0.7-3.4,4.4c-5.3,4.2-0.9,8.6-9.5,9.9c-0.6,0.1-0.8,0-1.4,0.2c-1.6,0.6-0.7,0.1-1.5,1l-1.4,0.1l0,0
					c-0.2-1.9-2.2-2.2-4.3-2.2c-1.2-4-1.2-3-0.3-6.7c0.5-2.1,0.1-3.1,0.5-5.2c1.1-5.2,9.8,0,12.3-2.2c1.2-2.2,1.3-4.4,0-6.5
					c-1.4-2.1-3.2-1.9-4.2-3.9c2.1-1.4,0.6-0.2,2.4-0.6c2.2-0.5,1.9-1.1,4.4-1.6c2.3-0.5,3.7-2.6,5.9-4c3.2-2.1,1.7-3.9,5.5-4.6
					c6.2-1.1,2.2-0.9,2.8-6.8c0.9-0.4,1.8-0.8,2.7-1.2c1.9,2.6-0.5,1.5,1.8,3.3c0.6-0.4,1.3-0.7,2-1.1c-0.3-2.8-1.6-2.3-2.4-5.7
					c-3.1,0.5-4.2,3.1-6.6,2.2c-2.4-0.9-2.5-4.4-2.4-7.3c0.9-2.2,5.3-3.3,7-3.9c2.8-1,2.4-2.9,4.9-5.4c3.3-3.4,0.9,0,2.5-4.3
					c3.7-0.1,1.9-0.3,4.1-1.4l0.1,0l0,0l0.2-0.1c1.3-0.6,2.9-0.7,4.6-1.3c6.1-2.1,8.6-1,13,0.8c3.4,1.4,13.8,1.5,14.6,5.9
					c-2.5,2.7-4.9,0.7-8.5,1c0.7,3.4,0.9,3.4,4,4.4c0.5-1.6-0.2-1,0.6-2c1,0.2,2,0.4,3,0.6c1-3.5,2.2-3,5.5-3.4
					c-0.6-2.4-1.2-1.7,0.1-3.6c3.5,0.4,0.7,0,2.4,2.9c2.4-0.3,4.8-3.1,8.2-3.4c2.1-0.2,2,0.6,5,0.3c2.4-0.3,2.3-1.2,4.8-0.1
					c0.9-1.7,0-1.6,2.2-2c3.3-0.6,6.2,1.5,9.4,2c-2.4-3-4.7-2.4-1.7-7.4c3.7-0.8,4.1-0.2,5.7,2.6c1.1-0.6,1.4-1.3,2.1-1.4
					c1.7-0.4,2.2,1,5.8-1.1c2.3-1.3-1.4-0.5,2.7-1.6c1.6-0.4,1.6,0.3,3.1-0.9c3.3-1.2,6.5-2.5,9.8-3.8c3.5,0,1.7,1,5.7-0.5
					c5.4-2,7,0.1,11.1,0.3c9.6,0.4,6.2,6,21.2,6c2.4,0,2.2-1,5.6-1C397.9,20.3,398.1,20.3,398.3,20.3L398.3,20.3z M457,102.6
					L457,102.6c0.3,2.2,1.3,3.8,3.2,4.7c1.9-3.1-0.4-3.3,6.4-5.5c0.4-0.1,0.9-0.3,1.3-0.5c5.9-3.4,1.8-1,6.3-2.8
					c0.1-2.8-0.6-4.7-0.8-7.7c-0.1-3.4-1.2-4.7-4.2-5.3c-0.3,6.3,3.9,4.3-2.9,10.8C462.7,99.9,460.3,95.8,457,102.6L457,102.6
					L457,102.6z M418.3,188.3L418.3,188.3c0.4-1.9,0.7-4.3,1.5-5.7c2.6,0,0.2,2.2,4.2,1.7c0.7-1.6,0.7-2.4,0.4-4
					c-1.8-0.4-2.3,0-3.6,1.1c-0.4-0.4-0.8-0.9-1.2-1.4c-1.8-1.4-1.6,1.8-3.3-1.8c-1.8-3.7,0.2-3.7-3.8-6.2c-2.4-1.5-3.3-2.4-5.3-4.5
					c-3.4-3.8-0.4-2.1-6.1-3.9c-0.1,4.1,0.8,1.7,3.8,6.5c1.3,2.3,2.5,4.5,3.8,6.8C410.6,180,412.5,188.5,418.3,188.3z M427.2,182.3
					L427.2,182.3c4.9,0.8,8.5,2.6,9.9,1.6c1.5-1.8,1-2.9,2.5-5.5c2-3.3,0.6-2.3,3.2-5.3c-1.4-5.4-2.1-3,0.7-8.5
					c-0.4-1.7-1.7-3.7-3.1-4.8c-1.6,1-0.2-0.1-1.3,1.4c-1.9,2.2-3.9,4.4-5.8,6.7c-1.7,1.7-1,0.4-3.6,2.5c-0.7,0.4-1.4,0.8-2.2,1.2
					c-1.2,0.4-2-1-2.3,2.8C424.9,176.2,426.7,180,427.2,182.3L427.2,182.3L427.2,182.3z M308.9,76.9L308.9,76.9
					c0.4,5.5,3.6,7.7,5.9,10.2c-0.3,2.6-0.9,1.9-0.8,5.6c2.7,2,4.7,3.2,8.3,2.2c0.5-4.4-0.9-4.2-2.2-7.2c0.2-0.4,0.8-0.8,0.9-0.9
					c1-1.4,0.5,0.5,1-1.8c-2.6-0.9-6.8-3.6-7.2-7.2c1.3-1,0.9-0.4,1.8-1c2.1-1.4,0.5,0.7,1.7-1.6c-1.1-2.1-2.2-2.4-4.8-1.4
					C312.4,74.3,309.5,76.4,308.9,76.9L308.9,76.9z M286.2,78.4L286.2,78.4c-1.7-2.4-1.6-3.7-4.9-3.8c-1.3,1.5-2.9,3.6-3.6,5.8
					c-1.1,3.4-0.3,1-0.2,4.7c-0.1,0.1,0,0.3,0,0.5c-0.1,2.2-0.6-0.4-0.2,1.6c2.6-0.5,0.6-0.5,2.6-1.1c1.8-0.6,7.4-2.3,9-1.9
					c3.8,0.9,7,4,11.4,0.9c-0.2-3.9-4.9-5.4-8.1-7.2c0.2-3.6,1.1-0.8,0.9-4.3c-1.1,0-1.8-0.2-2.8,0.2c-2.5,1.1-1.1,1.5-1.1,1.9
					c0.1,1.9,2.5-0.4-0.1,2C288.2,78.3,287.1,78.3,286.2,78.4L286.2,78.4L286.2,78.4z M221.4,50.9L221.4,50.9
					c-0.1,6.3,2.1,4.2,4.1,7.3c-0.9,2.7-1.1,0.6-2.2,3.3c-0.9,2.3,0.2,0.2-0.4,4.3c1.6,0.1,4-0.5,6.1-0.7c3-0.3,2.9-0.5,4-3.7
					c-1.7-2.1-3.3-4.2-5-6.2c-2.2-3.4,0-1-0.7-3.9c-0.5-1-0.9-2-1.4-3C223.1,49.4,223.4,49.1,221.4,50.9L221.4,50.9L221.4,50.9z"/>
				<path class="SNL2" d="M474.5,194c2.4,0.8,1.7-0.3,3.5,0.1c4.1,0.8,2.8,5.6,8.2-1.2c7.2,0-0.1,5.2,10.3,6.3
					c-0.1-2.4-3.3-5.8-4.6-7.1c0.8-1.9,0.8-0.9,1.1-3.1c-0.7-0.4-1.7-0.9-2.3-1.6c-4.2-4.9,1.5-1.1-7.6-5.4c-1.1-0.5-5.2-2.4-5.8-2.5
					c-3.4-0.6-3.2,2.5-6.1,2.9c-1.8-2.3-0.6-6.4-3.9-6c-4.2,0.5,0.1,7.2,0.1,7.2c1.7,1.9,2.1-0.3,6.7,3.4
					C479,190.7,475.3,191.1,474.5,194L474.5,194z M468.6,208.5L468.6,208.5c0.8,1.5,2.6,2.8,4,4.2c5.7,5.5,5.4-5.8,8-10.7
					c1.3-2.6-0.2-1,2-2c0.7,2.3,0.7,3.3,0.6,6.5c2.5,2.3,1.7-0.4,1.9,4c0.4,11.8,0.9,5.7,2.9,10c1,2.9,2.2,5.8,3.3,8.7
					c2.1,4.4-1.4,10.6-3.6,14c-2.2,3.5-3.6,4.1-6.2,6.9c-9.4,10.3-3.9,6.9-10.4,9.1c-2.5,0.9-1.6,1.7-3.9,1.6c-2.3,0-6.2-0.4-8.3-2
					c0-3.6,0.3-6.4-1.1-8.9c-2.1,1.4-1,1.5-3.3,1.9c-0.8-4.3-1.3-6.8-5.9-6.7c-0.5,0-9.5,2.4-9.9,2.5c-1.7,0.9-2.4,2.2-3.9,2.5
					c-1.8,0.5-3.7-0.2-5.6,0.4c-3.2,1-5.4,4.7-8,0.6c1-4,2.3-0.9,2.7-8.5c0.4-6.2-0.7-5.8,0.4-9.9c0.6-2.3,0.5-5.5,2.2-7.7
					c0.8-0.9,5-3.6,6.2-3.9c14.3-4.1,7.9-5.6,12-8.5c1.6-1.1,1.5,0.1,3.3-2.1c1.4-1.8,0.1-1.1,2.2-2.8c3.2-2.6,4-0.3,6.1,0.6
					c2.4-1.5,2-3.3,3.8-4.7c1.6-1.4,1.2-0.4,2.8-1.3c1.9-1.1,0.7-1.1,2.4-1.7c2.1,2.5,3.2,1.5,5.9,1.5c-0.2,1.7-0.2,2-1,3.5
					c-0.7,1.5-0.2,0.3-1.1,1.5C469.1,207.6,469,207.4,468.6,208.5L468.6,208.5z"/>
				<path class="SNL2" d="M289.6,114.9c-0.6,2,2.7,8.9,3.5,10.6c0.8,1.7,2.2,2.4,2.6,4.8c0.6,3.3-0.1,2.9,1.7,5.1
					c3.7,4.6-0.2,3.8,5.6,8.2c4.3,3.4,3.2,4.4,5.1,8.8c2.8,0.8,11.3-3,12.7-1.9c1.7,3.1-2,8.1-2.9,10.8c-3.1,9.1-8.5,9-12.7,15.9
					c-2.3,3.8-3.3,4.3-5.4,8.8c-2.4,5.1,4.8,19.3,0.5,25.2c-0.9,1.4-4,2.2-7.8,6.3c-4,4.5,0.1,3.7-1.4,11.2c-1.2,1.7-2.7,1.8-4.2,3
					c-0.6,1.8-0.1,3.2-1.1,5.3c-1,2.6-1.2,1.2-2.6,3.4c-1.1,1.7-0.9,2.4-2.2,3.9c-1,1.4-1.6,1.8-2.6,2.7c-4.8,4.5-15.2,4.7-16.1,4
					c-2.4-2.1-0.8-2.7-1.4-5.7c-0.6-2.6-2-4.8-3.1-6.9v-0.1l-0.1-0.2c-0.6-1-1.1-2-1.3-2.9c-2-6.4-1.3-11.3-4.8-17.8
					c-4.4-8.4,2.4-12.8,2.2-17.6c-0.1-1.3-0.6-2-0.7-3c-0.8-5.3-1.3-10-4.8-14.1c-3.8-4.5-3.3-2.9-2.1-10.3c1.5-8.5-2-6.3-7-6.5
					c-2.4-7.7-7.2-3.9-12-1.7c-3,1.4-4.1-0.4-7.5,0.1c-7.6,1-1.6,4.4-11.7-3.8c-4.2-3.4-1.4-1.7-3.9-5.9c-0.8-1.5-3.4-3.6-4.6-5.1
					c-3.8-4.9,0.7-9.8,0.1-15.4c-1.2-10.4-2.8-1.4,2.9-13.9c3-6.7,7.5-6.7,8.7-9.7c1-2.7,0.3-4.6,2.2-7c1.7-2,4-1.6,5-4.7
					c0.3-0.9,0.4-1.6,0.3-2.2l0,0l1.4-0.1l-0.1,0.1c0.7,1.7-0.3,1.4,2.6,1.9c5.3,0.7,5.9-2.6,9.8-3.4c1.9-0.4,13.7-0.9,14.5-0.7
					c2.5,2.9,0.4,4.9,0.4,7.4c2.8,1.5,6.7,1.9,8.3,3.4c1.8,1.8,0.9,1.5,1.8,1.8l0.1,0v0c0.3,0.1,0.8,0.3,1.6,0.6
					c2.2,0.8,2.1,1.2,4.5,1.4c2.2-7.4-0.1-6.6,10.4-3.2c10.9,3.6,6,0.3,10.6,0.8c1.8,0.2,1.8,0.7,3.4,0.7L289.6,114.9L289.6,114.9
					L289.6,114.9z M316.9,203.3L316.9,203.3c-2.4,1.3-2.8,4.2-4.6,5.8c-2,1.9-4.7,1-5.4,4.4c-1,4.3,1.7,3-1.3,8.6
					c-1.1,2.1-1.1,7.3,0.5,8.8c4.8,4.8,7.4-7.2,8.5-11c0.8-2.7,1.6-5.7,2.5-8.2C318,209.1,319.3,206.7,316.9,203.3L316.9,203.3
					L316.9,203.3z"/>
				<path class="SNL2" d="M124.3,216.1c-1.5-2.5-5.2-3.7-8.1-5.7c-0.2,0-0.3-0.1-0.3-0.2c-4-2.9-7.9-14.3-11.1-18.5
					c-1.5-2-2.4-1.1-3.1-4.3c-0.7-2.9,0.4-2.4,1.3-4.9c-4.9-9.2,6.4-9.1,4-20.2c-0.5-2-1.9-4.9-3.2-5.8c-2.3,1-1.2,1.6-2.4,3.6
					c-1.9-1.1-3.8-2.2-5.6-3.3c-5.7-5.6-2.7-1.5-4.3-5.2c-3.4-7.7-6.7-3.4-10.8-7.2c-1.8-1.6-2.2-4.1-5.2-3.6
					c-4.6,0.6-2.1,1.4-6.8-0.9c-4.1-1.9-8.3-4.2-11.1-6.8c-0.1-4.1,1.3-4.3-1.2-8.1c-1.2-2-2.9-3.5-3.9-5.1c-1.8-2.9,0.8-0.3-3.6-6.1
					c-2.9-3.8,0.5-4.2-2.8-6.9c-4.4,2.1,2.5,8.1,4.7,17.9c-1.9-0.3-3.2-1.8-3.9-4c-1.1-3.6,0.1-2.7-3.4-4.2c0.2-6.2,1.3-0.7-1.1-6.8
					c-0.8-2.3-0.3-3.3-1.2-5.6c-0.7-2,0.3-0.2-0.8-1.3c-0.4-1.4,0.3-0.1-0.7-1.1c-1-1.1-0.1-0.1-0.9-0.8c-2.2-1.6-2.7-3.6-3.1-6.7
					c-1.1-10.3,2.2-11.2,6-18.6c2.9-5.3,2.4-4.5,0.1-8.9c0.6-2.2,1.3-2.2,1.1-5.2c-0.2-3.5-0.4-1.9,0.4-4.6c-0.1-0.1-0.3-0.2-0.4-0.3
					c-0.1,0-0.3-0.1-0.4-0.2c-0.1,0-0.3-0.1-0.4-0.2c-0.6-0.2-1.2-0.4-1.8-0.6c0.3-5.5,1.1-8.8-5-9.4c-2.7-0.3-4.4-1.4-5.3-1.4
					c-0.5,0-3.1,1.3-5,1.8c-3.4,1-1.6,0.9-4.8,0.3c-1.7-0.3-6.5,0.2-10.6-1l0.6-6c2.3-0.3,4.7-0.5,6.4-2c-1.6-1.4-3.3-0.4-5.7-1.3
					c0.4-4.4,7-2.9,9.9-2.9c0.4-3.3-1.3-3.2,0.2-4.5c0.9-0.7,18.1-5.3,22.4-4.4c6.4,1.2,12.9,2.4,19.3,3.6c3.9,0.4,10.2-2.4,14.3-2.2
					c3.1,0.2,0.3,0.8,4,1.1c2.6,0.2,2.7-0.6,5.6,0.3c2.7,0.8,1.4,1,4.6,1c0.5-1.8,1-3.6,1.6-5.4c-2.8,0.5-4.4,1.5-7.2,0.9
					c0.1-2.7,3.4-3.8,5.2-4.7c6-3.2,10.2,2,16.8,2.5c2.4,0.2,4.2-1.6,7-1.7c-0.9,1.9-1.6,1.5-2.9,3.9c1.2,3.4-0.5-1.1,0.9,1.9
					c0.2,0.4,0.4,0.4,0.6,1.3c-4.6,1.1-1.7,1.7-8,1.2c0.8,1.1-0.7,0.5,1.8,1.7c2.1,1,5,0.4,7.2,0.4c0.7-1.4,1.2-2.5,2.4-3
					c0.5-0.2,1.1-0.2,1.9-0.2c0.1,0.7,0.3,1.4,0.4,2c0,0,0.1,0.5,0.1,0.4c0.1-0.1,0.1,0.3,0.2,0.4c3.5-2.1,0.6-2.1,2.4-5.9
					c-2.9-0.6-2.5-0.2-4.4-2.1c1.8-2,5.2-2.7,7.8-2.5c-0.2,1.8-1,1.8-0.3,3.3c2-1.3,3.4-4.7,6.6-4c0.6,0.4,1.3,0.9,2,1.3
					c-1.7,1.6-4.2,1.7-6.3,2.6c-0.9,9.8,3.1,1.6,1.7,8.3c2.4-0.2,4.7-1.9,5.6-3.8c-0.9-1.2-2.2-1.2-2.9-2.6c0.6-1.8,1.8-3.2,3.4-4
					c1.1-0.6,2.5-0.8,4.1-0.8c17.6,0.1,9.3,0.9,14.7,3.5c1.2,0.5,3.4,0.8,4.1,1.9c1.1,1.7,0.1,3.3,1.8,4.7c1.6,1.2,1.8,0,3.8,2.6
					c-0.4,1.5-1.5,3-3.7,3.1c-3,0-1.2-2-4.4-1.7c0.1,3.1,3.1,4.3,0.3,5.9c-2.4,1.5-0.9-0.5-2.7,0.5c-0.1,0-0.2,0.1-0.3,0.2
					c-0.1,0.1-0.2,0.2-0.3,0.3c-0.3,0.4-0.6,0.7-0.9,1c-4.4-1.2-3.6-0.7-6.3-3.7c-1-1.1-1.2-1.4-2.9-1.3c-1.1,0-2.5,0.5-3.6-0.5
					c2.2-2.8,3.2-0.1,6.4-1.7c0.6-0.3,4-3,4.6-3.7c-0.9-2.2-0.1-0.4-1.5-1.8c-3.1-3.2-4-2.4-8.2-2.4c-2,2.3-3.5,5.2-5.6,6.4v0
					c-1.3,0.8-2.8,0.9-4.9,0c0.9,3.9,3.4,0.9,3.6,5.6c-1.6-0.3-2.4-1.1-4.1-0.5c-3.6,1.4-0.4,1.2-0.1,1.9c0,0,1.7,0.2,0,0.9
					c-1.8,0.7-0.3-0.4-3.8-2.5c0.5-0.9,1-1.9,1.5-2.8c-2.9,0.9-6.5,2.4-9.9,4c-3.8,1.9-7.4,4.2-9.6,6.2c-0.1,3.4,0.6,1.1,0.9,5.2
					c5.2,0.3,3.5,1.9,8.7,3.4c1,0.3,2.3,0.5,3.8,0.8c0,2.5-2.2,4.4-0.7,7.1c3.6,2.6,3.7-2.4,4.6-5.7c12.2-2.6,6.3-6.3,9.5-13.1v0
					c0.5-1,1.1-2.1,2.1-3.3c0.9,0,4.8,0.5,5.6,0.6c2.8,0.5,1.3,1.2,4.3,2.5c-0.1,2.4-1.3,5.6,2.3,5c2.7-0.5,2.1-2.7,5.4-3.2
					c1.5,3.6,1.1,5.1,1.8,9.4c8,3.2,4.4,5.8,2.9,11.7c1,0.5,2.1,1,3.1,1.4c-0.1,1.7-0.1,3.4-0.2,5.1c-0.2,0-8.5-1.9-9.1-2
					c1.3-3.7,3.6-3.8,5.1-7.6c-3,0.5-2.8,1.5-4.9,2.2c-1.9,0.6-3.4,0.2-5.5,0.5c-0.7,2.4-0.1-2.1,0.2,1c0.1,1.2,0.7,0-0.1,1.3
					c-2.8-1.3-1.8-4.4-7-1.5c1.2,0.5,2.3,1,3.5,1.5c-0.2,3.5-0.4,0.9-1.2,3.2c-1.8,5.9,4.8,2.3,6.5,2c-0.4,3.1-2.3,3.1-5,4
					c-2.9,0.9-3.8,2.1-6.2,2.7c0-3.7-0.6-0.6,1.1-3.2c-2.3,0.2-4.1,1.3-6.3,2.3l-0.2,0.1l0,0c-2.9,1.2-3.3,1.4-3.6,5.1
					c-2.4,0.8-5.3,1.6-7,3.4c-1.7,1.7-3.4,3.3-5.1,5c-0.2,0.1-0.3,0.3-0.4,0.4c0.6,4.7,0,4.8-2.8,6.6c-2.3,1.5-3.1,1.5-5.3,3.4
					c-6.9,6.3-3.6,3.4-3.2,14.3c-1.4-0.5-2.8-1-4.2-1.5c-1.1-7.2,0.4-4.8-5.3-6.5c-6.2-1.8-5.3,1.3-7.9,1.8c-2.8,0.6-4.2-2.6-8.3,0.1
					c-2.3,1.6-4.4,2.6-5,5.4c-0.7,3.4-2.2,5.9-1.9,9.6c0.4,10.2,9.5,10.8,11.8,6c1.6-3.2,1.2-4.9,6.2-4.1c0.5,2.7-0.3,4.7-0.9,6.8
					c-0.4,1.2-1.7,3.4-1.1,5.1c3.6,1.5,3.7-1.3,8.5,1.6c0.3,4.8-2.2,10.3,1.5,13.1c2.8,2.1,3,0.2,5.5-0.2c2.8-0.5,2.3,1.3,4.8,1.7
					c1.4-1.8,0.8-0.7,1.8-2.9c1.7-3.8,2.1-2,6.1-4.4c0.4-0.2,0.7-0.4,1.1-0.7c0.4,1,0.9,1.9,1.4,2.8c2.9-3.5,3.2-0.1,6.5,0.9
					c1.4,0.4,2.5,0.5,3.2,0.6l0,0c2.4,0,2.7-1.2,6,0c0.4,0.2,0.9,0.3,1.3,0.5c0.1,0,0.2,0.1,0.2,0.2c0.1,0,0.2,0.2,0.3,0.2
					c0.5,0.6,0.6,1.3,1.1,2c2.3,2.2,4.6,4.4,6.8,6.6c4.4,1.8,4.4-1.5,9.4,3.4c2.1,2,1.2,2,2.3,4.6c0.2,0.4,0.5,0.8,0.7,1.3
					c0.4,1.2,0.9,2.4,1.4,3.6c2.3,3,5.4,1.1,8.5,4.3c1.8,1.8,0.4,1.3,4.5,2c6.3,1,3.8,0.5,8.6,4.1c1.8,1.4,2.3,0.6,4,1.8
					c2.4,3.4,1.8,7.1-0.2,10.1c-6.2,9.1-4,7.7-4.3,14.9c-0.2,4.2-1.4,12.8-5.2,13.8c-13.9,4-5.8,6.7-9.5,13.8c-1.1,2-1.8,2.5-2.5,4.1
					c-2.8,6.6-0.8,8.8-9,7.3c0.8,1.4,0.3,0.4,1.1,1.7c2.4,3.9,2.8,6.8-2.2,7.7c-4.2,0.8-2.4,0-2.8,4.7c-1.6,0.7-2.3,0-3.4,1.1
					c1.4,2.7,0.1,0.5,2.6,2c-0.4,1.5-0.8,2.9-1.2,4.4c-0.9,3.5-1.2,0.3-1.6,4.4c1.4,0.7,2.4,0.5,3.7,2.3c-0.2,1.4-1.5,5.1-1.9,7.2
					c2.1,3.1,3.7,6.5,8.1,6.8c-0.1,2.6,0.6,2.3-1.7,2.9c-1.9,0.5-5.9-1.4-7.6-2.3c-2.9-1.6-5.5-3.7-7.5-6.7c-1.1-1.7-0.7-0.9-1.8-2.4
					c-2.1-2.8-1.3-4-1.9-5.9c-0.3-1.1-2.1-2.3-1.3-5.8c0.2-1,1.7-5.7-0.2-4.9c-1.9,0.8,1.4,0.4-1.2,1.7c-0.6-1.7-1.1-4.3-1.4-6.4
					c-0.7-3.6-1.5-3.7-1.9-5.9c-0.8-5,1.3-5.6-1.1-13.9c-1.5-5.5-0.9-18.7-2.5-25.4C125,217.8,124.8,216.9,124.3,216.1L124.3,216.1z"
					/>
			</g>
			<path class="SNL3" d="M450.4,270H61.6C31.9,270,6.8,290.6,0,318.3h512C505.2,290.6,480.1,270,450.4,270z"/>
			<path class="SNL4" d="M501,302H11c-1.1,0-2-0.9-2-2l0,0c0-1.1,0.9-2,2-2h490c1.1,0,2,0.9,2,2l0,0C503,301.1,502.1,302,501,302z"/>
		</g>
	</symbol>

	<symbol version="1.1" id="dumbfoundead" xmlns="http://www.w3.org/2000/svg" xmlns:xlink="http://www.w3.org/1999/xlink" x="0px" y="0px"
		 viewBox="0 0 512 512" style="enable-background:new 0 0 512 512;" xml:space="preserve">
		<g>
			<path d="M256,29.5c-58.6,0-108.1,39.7-126.7,92H91v60h330v-60h-38.3C364.1,69.2,314.6,29.5,256,29.5z"/>
			<path class="dumbfoundead1" d="M179.7,392c-0.5,3.2-0.8,6.8-0.8,10.8c0,43.8,34.4,79.3,76.8,79.3c42.4,0,76.8-35.5,76.8-79.3
				c0-4-0.3-7.5-0.9-10.8H179.7z"/>
			<path class="dumbfoundead2" d="M211,405.3v1.7c0,24.9,20.1,45,45,45s45-20.1,45-45v-1.9c-22.4,12.6-38.3,17-45,19.9
				C248,421.5,233.3,418,211,405.3z"/>
			<path d="M121,393.5c-50.7,7.4-91,50.7-91,103.5v15h91V393.5z"/>
			<path class="dumbfoundead3" d="M121,512h270V392h-60v15c0,41.4-33.6,75-75,75s-75-33.6-75-75v-15h-60V512z"/>
			<path d="M391,393.5V512h91v-15C482,444.2,441.8,400.9,391,393.5z"/>
			<path class="dumbfoundead4" d="M390.5,203.8c0,12.9-1.3,25.7-3.4,38.2h18.4c16.6,0,30-13.4,30-30s-13.4-30-30-30h-15V203.8z"/>
			<path class="dumbfoundead4" d="M106.5,182c-16.6,0-30,13.4-30,30s13.4,30,30,30h18.4c-2.1-12.5-3.4-25.2-3.4-38.2V182H106.5z"/>
			<path class="dumbfoundead4" d="M391,203.8V182H121v21.8c0,146.5,132,186.7,135,189.2C259,390.7,391,348.8,391,203.8z"/>
			<path d="M271,378.6c-2.1,2-5.6,3.2-9.3,3.4l-0.6,0.1l-1.5-2.9h-7.2l-1.4,2.9h-0.1c-4.2,0.1-8.2-1.3-10.5-3.5l-6.4-6.3
				c-3.1-0.2-5.8-0.4-6.9-0.5l4.8,9.4c2.3,4.9,8.4,8.8,16.2,10.3l7.9,1.5l7.9-1.5c7.8-1.5,13.9-5.4,16.2-10.3l4.8-9.4
				c-1.1,0.1-3.8,0.3-7,0.5L271,378.6z"/>
			<path d="M280,331.9c0,0-2.9-1.6-6.2-3.2c-6.8-3.3-8.9-3.7-9.5-3.8c-2.2-0.4-4.6-0.3-6.8,0.2c-1.3,0.3-2.5,0.9-3.3,1.5
				c-0.8-0.6-2-1.1-3.3-1.5c-2.1-0.6-4.5-0.6-6.8-0.2c-0.7,0.1-2.7,0.5-9.5,3.8c-3.3,1.6-6.1,3.1-6.2,3.2l-2.3,1.3l3.3,0.2
				c0,0,4.1,0.3,8.5,0.5c3.2,0.1,5.6,0.2,7.3,0.2c3.2,0,4.2-0.2,4.7-0.3c1.8-0.3,3.3-0.9,4.3-1.7c1.1,0.8,2.6,1.4,4.3,1.7
				c0.4,0.1,1.4,0.3,4.7,0.3c1.7,0,4.1-0.1,7.3-0.2c4.4-0.2,8.5-0.5,8.5-0.5l3.3-0.2L280,331.9z"/>
		</g>
	</symbol>

		
	<symbol version="1.1" id="sandwich" xmlns="http://www.w3.org/2000/svg" xmlns:xlink="http://www.w3.org/1999/xlink" x="0px" y="0px"
		 viewBox="0 0 57.5 57.5" style="enable-background:new 0 0 57.5 57.5;" xml:space="preserve">
		<g>
			<g>
				<path class="sandwich1" d="M52.5,43c-0.6,0.1-1.3,0.1-2,0.1c-1.8,0-3.5-0.4-4.7-0.9c-1.2,0.6-2.9,0.9-4.8,0.9c-2.2,0-4.2-0.5-5.5-1.3
					c-1.3,0.8-3.3,1.3-5.5,1.3c-2.6,0-4.8-0.7-6-1.7c-1.2,1-3.4,1.7-6,1.7c-2.2,0-4.2-0.5-5.5-1.3c-1.3,0.8-3.3,1.3-5.5,1.3
					c-0.9,0-1.7-0.1-2.5-0.2c0,0.3,0,0.7,0,0.7c0,4.1,3.4,7.5,7.5,7.5h33c4.1,0,7.5-3.4,7.5-7.5c0-0.1,0-0.2,0-0.3
					C52.5,43.3,52.5,43.2,52.5,43z"/>
			</g>
			<path class="sandwich2" d="M52.5,36.3c-0.1,1-0.9,1.9-2,1.9h-3.2c0.4,0.5,0.7,1,0.7,1.5c0,1-0.9,1.9-2.2,2.6c1.2,0.6,2.9,0.9,4.7,0.9
				c3.9,0,7-1.6,7-3.5C57.5,38.1,55.4,36.8,52.5,36.3z"/>
			<path class="sandwich3" d="M36.3,38.2c0.4,0.5,0.7,1,0.7,1.5c0,0.8-0.6,1.6-1.5,2.2c1.3,0.8,3.3,1.3,5.5,1.3c3.9,0,7-1.6,7-3.5
				c0-0.5-0.3-1-0.7-1.5H36.3z"/>
			<path class="sandwich1" d="M52.5,31.7c0-4.1-3.4-7.5-7.5-7.5c-2.2,0-4.1,0.9-5.5,2.4c-1.4-1.5-3.3-2.4-5.5-2.4s-4.1,0.9-5.5,2.4
				c-1.4-1.5-3.3-2.4-5.5-2.4s-4.1,0.9-5.5,2.4c-1.4-1.5-3.3-2.4-5.5-2.4c-4.1,0-7.5,3.4-7.5,7.5c0,0.1,0,0.2,0,0.3c0,0.1,0,0.1,0,0.2
				v4c0,1.1,0.9,2,2,2h44c1.1,0,2-0.9,2-2v-4c0-0.1,0-0.1,0-0.2C52.5,31.9,52.5,31.8,52.5,31.7z"/>
			<path class="sandwich2" d="M6.5,38.2c-1,0-1.9-0.8-2-1.8C1.9,36.9,0,38.2,0,39.7c0,1.9,3.1,3.5,7,3.5s7-1.6,7-3.5c0-0.5-0.3-1-0.7-1.5
				H6.5z"/>
			<path class="sandwich3" d="M13.3,38.2c0.4,0.5,0.7,1,0.7,1.5c0,0.8-0.6,1.6-1.5,2.2c1.3,0.8,3.3,1.3,5.5,1.3c3.9,0,7-1.6,7-3.5
				c0-0.5-0.3-1-0.7-1.5H13.3z"/>
			<path class="sandwich2" d="M24.3,38.2c0.4,0.5,0.7,1,0.7,1.5c0,0.7-0.4,1.3-1,1.8c1.2,1,3.4,1.7,6,1.7c3.9,0,7-1.6,7-3.5
				c0-0.5-0.3-1-0.7-1.5H24.3z"/>
			<path class="sandwich4" d="M15.9,33.6c-0.6,0-1-0.4-1-1c0-4.7,3.8-8.5,8.5-8.5c0.6,0,1,0.4,1,1s-0.4,1-1,1c-3.6,0-6.5,2.9-6.5,6.5
				C16.9,33.1,16.5,33.6,15.9,33.6z"/>
			<path class="sandwich4" d="M26.5,33.7c-0.6,0-1-0.4-1-1c0-4.7,3.8-8.5,8.5-8.5c0.6,0,1,0.4,1,1s-0.4,1-1,1c-3.6,0-6.5,2.9-6.5,6.5
				C27.5,33.2,27.1,33.7,26.5,33.7z"/>
			<g>
				<path class="sandwich1" d="M37.5,32.7c0-4.1,3.4-7.5,7.5-7.5"/>
				<path class="sandwich4" d="M37.5,33.7c-0.6,0-1-0.4-1-1c0-4.7,3.8-8.5,8.5-8.5c0.6,0,1,0.4,1,1s-0.4,1-1,1c-3.6,0-6.5,2.9-6.5,6.5
					C38.5,33.2,38.1,33.7,37.5,33.7z"/>
			</g>
			<path class="sandwich5" d="M14.5,36.2c-0.2,0-0.4,0-0.6,0c-0.2-0.6-0.8-1-1.4-1c-0.2,0-0.4,0-0.6,0.1c-0.2-0.6-0.8-1.1-1.4-1.1
				c-0.7,0-1.2,0.5-1.4,1.1c-0.2,0-0.4-0.1-0.6-0.1c-0.5,0-1,0.2-1.4,0.5c-0.4-0.3-1-0.5-1.6-0.5c-1.4,0-2.5,0.9-2.5,2
				c0,1.1,1.1,2,2.5,2c0.3,0,0.6-0.1,0.9-0.1c0.4,0.7,1.2,1.1,2.1,1.1c0.5,0,0.9-0.1,1.3-0.4c0.3,0.2,0.7,0.4,1.2,0.4
				c0.9,0,1.6-0.6,1.9-1.4c0.4,0.2,1,0.4,1.6,0.4c1.4,0,2.5-0.7,2.5-1.5S15.9,36.2,14.5,36.2z"/>
			<path class="sandwich5" d="M26.5,36.2c-0.2,0-0.4,0-0.6,0c-0.2-0.6-0.8-1-1.4-1c-0.2,0-0.4,0-0.6,0.1c-0.2-0.6-0.8-1.1-1.4-1.1
				c-0.7,0-1.2,0.5-1.4,1.1c-0.2,0-0.4-0.1-0.6-0.1c-0.5,0-1,0.2-1.4,0.5c-0.4-0.3-1-0.5-1.6-0.5c-1.4,0-2.5,0.9-2.5,2
				c0,1.1,1.1,2,2.5,2c0.3,0,0.6-0.1,0.9-0.1c0.4,0.7,1.2,1.1,2.1,1.1c0.5,0,0.9-0.1,1.3-0.4c0.3,0.2,0.7,0.4,1.2,0.4
				c0.9,0,1.6-0.6,1.9-1.4c0.4,0.2,1,0.4,1.6,0.4c1.4,0,2.5-0.7,2.5-1.5S27.9,36.2,26.5,36.2z"/>
			<path class="sandwich5" d="M39.5,36.2c-0.2,0-0.4,0-0.6,0c-0.2-0.6-0.8-1-1.4-1c-0.2,0-0.4,0-0.6,0.1c-0.2-0.6-0.8-1.1-1.4-1.1
				c-0.7,0-1.2,0.5-1.4,1.1c-0.2,0-0.4-0.1-0.6-0.1c-0.5,0-1,0.2-1.4,0.5c-0.4-0.3-1-0.5-1.6-0.5c-1.4,0-2.5,0.9-2.5,2
				c0,1.1,1.1,2,2.5,2c0.3,0,0.6-0.1,0.9-0.1c0.4,0.7,1.2,1.1,2.1,1.1c0.5,0,0.9-0.1,1.3-0.4c0.3,0.2,0.7,0.4,1.2,0.4
				c0.9,0,1.6-0.6,1.9-1.4c0.4,0.2,1,0.4,1.6,0.4c1.4,0,2.5-0.7,2.5-1.5S40.9,36.2,39.5,36.2z"/>
			<path class="sandwich5" d="M52.5,36.2c-0.2,0-0.4,0-0.6,0c-0.2-0.6-0.8-1-1.4-1c-0.2,0-0.4,0-0.6,0.1c-0.2-0.6-0.8-1.1-1.4-1.1
				c-0.7,0-1.2,0.5-1.4,1.1c-0.2,0-0.4-0.1-0.6-0.1c-0.5,0-1,0.2-1.4,0.5c-0.4-0.3-1-0.5-1.6-0.5c-1.4,0-2.5,0.9-2.5,2
				c0,1.1,1.1,2,2.5,2c0.3,0,0.6-0.1,0.9-0.1c0.4,0.7,1.2,1.1,2.1,1.1c0.5,0,0.9-0.1,1.3-0.4c0.3,0.2,0.7,0.4,1.2,0.4
				c0.9,0,1.6-0.6,1.9-1.4c0.4,0.2,1,0.4,1.6,0.4c1.4,0,2.5-0.7,2.5-1.5S53.9,36.2,52.5,36.2z"/>
			<g>
				<path class="sandwich6" d="M28.7,8.6c4.6,0,9,0.9,12.2,2.6c3.2,1.6,5.1,3.9,5.1,6.2v4.5H11.4v-4.5C11.4,12.5,19.2,8.6,28.7,8.6z"/>
				<path class="sandwich7" d="M28.7,8.6c8.8,0,15.9,3.6,15.9,8v5.2H12.8v-5.2C12.8,12.2,19.9,8.6,28.7,8.6z"/>
				<path class="sandwich6" d="M28.7,8.6c-6.5,0-11.7,3.9-11.7,8.7v4.5h23.5v-4.5C40.4,12.5,35.2,8.6,28.7,8.6z"/>
				<path class="sandwich7" d="M28.7,8.6c-3.4,0-6.2,3.9-6.2,8.7v4.5h12.4v-4.5C34.9,12.5,32.1,8.6,28.7,8.6z"/>
				<path class="sandwich6" d="M28.7,22.2c-0.4,0-0.7-0.2-0.7-0.3V11c0-0.2,0.3-0.3,0.7-0.3c0.4,0,0.7,0.2,0.7,0.3v10.8
					C29.4,22.1,29.1,22.2,28.7,22.2z"/>
				<path class="sandwich8" d="M11.4,21.9H46c1.5,0,2.8,0.6,2.8,1.4v4.2c0,0.8-1.2,1.4-2.8,1.4H11.4c-1.5,0-2.8-0.6-2.8-1.4v-4.2
					C8.7,22.5,9.9,21.9,11.4,21.9z"/>
				<path class="sandwich9" d="M47.3,23.3v4.2c0.1,0.7-1.1,1.4-2.6,1.4H12.6c-1.5,0-2.6-0.7-2.6-1.4v-4.2c-0.1-0.7,1.1-1.4,2.6-1.4h32.2
					C46.2,21.9,47.4,22.5,47.3,23.3z"/>
			</g>
		</g>
	</symbol>


</svg>