<svg xmlns="http://www.w3.org/2000/svg">
	
	<symbol version="1.1" id="sunglasses" xmlns="http://www.w3.org/2000/svg" xmlns:xlink="http://www.w3.org/1999/xlink" x="0px" y="0px" viewBox="0 0 60 60" style="enable-background:new 0 0 60 60;" xml:space="preserve">
		<g>
			<text id="This_will_give_info_on_Awkwafina_x2019_s__music_video__x201C_My_Vag_x201D_" transform="matrix(-1 0 0 1 52.707 24.2265)" class="st0"><tspan x="0" y="0" class="st1 st2">This will give info</tspan><tspan x="0" y="6.1" class="st1 st2">on Awkwafina’s </tspan><tspan x="0" y="12.1" class="st1 st2">music video “My Vag</tspan><tspan x="43.7" y="12.1" class="st3 st1 st2">”</tspan><tspan x="0" y="22.5" class="st1 st4"> </tspan></text>
			<path class="st5" d="M58.3,22.9h-1c-0.3-1.6-1.5-2.9-3.4-3.8c-1.4-0.7-3.1-1.1-4.8-1.1H37.8c0,0,0,0,0,0v0H22.2H11
				c-1.8,0-3.4,0.4-4.8,1.1c-1.9,0.9-3,2.2-3.4,3.8H1.7c-0.5,0-1,0.4-1,1c0,0.5,0.4,1,1,1h1l0,7.9c0.1,1.9,1.5,5.9,6.1,7.3
				c0.9,0.3,1.8,0.4,2.7,0.4c1.1,0,2.3-0.2,3.4-0.6C19.8,38.2,28,34.4,28,27.9c0-0.1,0.1-1.2,0-2.6c1.1-0.8,2.9-0.8,3.9,0
				c-0.1,1.4,0,2.4,0,2.4c0,6.6,8.3,10.4,13.2,12c1.1,0.4,2.3,0.6,3.4,0.6c0.9,0,1.8-0.1,2.7-0.4c4.6-1.4,6-5.3,6.1-7.3v-7.8h0.9
				c0.5,0,1-0.4,1-1S58.8,22.9,58.3,22.9z M26.1,27.8c0,5.6-8.3,9-11.9,10.2c-1.7,0.6-3.4,0.6-4.9,0.2c-4.4-1.3-4.7-5.3-4.7-5.4v-8.8
				c0-1.2,0.8-2.2,2.4-3C8.2,20.3,9.5,20,11,20h11.2c1,0,1.8,0.3,2.4,1C26.5,23.1,26.1,27.6,26.1,27.8z M32.3,23.3
				c-1.4-0.7-3.1-0.7-4.5,0c-0.1-0.5-0.2-0.9-0.4-1.4h5.4C32.5,22.3,32.4,22.8,32.3,23.3z M33.3,20.7h-6.5c-0.1-0.2-0.3-0.5-0.5-0.7
				h7.4C33.6,20.2,33.4,20.4,33.3,20.7z M50.7,38.1c-1.5,0.4-3.2,0.4-4.9-0.2c-3.6-1.2-11.9-4.6-11.9-10.3c0,0-0.4-4.6,1.5-6.7
				c0.6-0.7,1.4-1,2.4-1h11.2c1.5,0,2.8,0.3,3.9,0.9c1.5,0.8,2.3,1.7,2.4,2.9c0,0.1,0,0.1,0,0.2c0,0.1,0,0.1,0,0.2l0,8.5
				C55.4,32.8,55.1,36.8,50.7,38.1z"/>
		</g>
	</symbol>

</svg>