<svg xmlns="http://www.w3.org/2000/svg">

	<symbol version="1.1" id="sunglasses" xmlns="http://www.w3.org/2000/svg" xmlns:xlink="http://www.w3.org/1999/xlink" x="0px" y="0px"
		 viewBox="0 0 60 60" style="enable-background:new 0 0 60 60;" xml:space="preserve">

		<g>
			<g>
				<g>
					<path d="M54.3,46.8c0,0-3.7-1.8-2.3-6.5c0,0,2.3-1.8-0.9-4c0,0-0.6-0.9,0.5-1.9c0,0,3.9-3.3-2.7-10.5l-0.3-6.6
						c0,0-1.8-9.9-13.8-14.6c0,0-8.6-1.6-9.4,1.4c0,0-10.6,0.5-11.9,13.2c0,0-0.1,3.4-2.4,4.8c0,0-3.5,2.3-1.8,8.4
						c0,0,0.8,3.8-2.5,5.9c0,0-2.8,2.4-1,5.8c0,0,1.1,1.1-0.9,3.2c0,0-1.8,3.2,1.3,7.5c0,0-0.4-3.2,0.4-3.9c0,0,2.7,3.2,2,5.3
						c0,0,4.3-2.4,10.5-2.9c0,0,7.5-1.4,6.7-10.9c0,0-7-5.4-6.7-10.3l0.9-7.1c0,0,2.9-3.5,3.2-4.9c0,0,0.1,0.1,0.1,0.3
						c0-0.1,0.1-0.1,0.1-0.2c0.3-1,1-1.8,2.1-2.1l0,0c0,0,1-2.3,1.6-2.1c0,0,2.2,5.6,8.5,5.9c0,0,1,6.3,4.9,7c0,0,0.1,9.5-5.4,13.4
						c0,0-1.3,11.1,9.9,11.6c0,0-2,5.1,2.4,6.1c0,0-0.8-4.9,2.9-4.9l1.6,2C52.2,55.2,56.1,50.2,54.3,46.8z"/>
				</g>
			</g>
			<path class="vag1" d="M35.1,40.4c5.6-3.9,5.4-13.4,5.4-13.4c-3.9-0.6-4.9-7-4.9-7c-6.3-0.4-8.5-5.9-8.5-5.9
				c-0.6-0.1-1.6,2.1-1.6,2.1l0,0c-1.1,0.3-1.8,1.1-2.1,2.1c0,0.1-0.1,0.1-0.1,0.2c-0.1-0.2-0.1-0.3-0.1-0.3c-0.3,1.4-3.2,4.9-3.2,4.9
				l-1,7.1c-0.3,4.8,6.7,10.3,6.7,10.3c0.3,4.2-0.9,6.8-2.5,8.4c2.2,0.9,4.5,1.3,7,1.3c2.6,0,5-0.5,7.3-1.5
				C34.5,45.3,35.1,40.4,35.1,40.4z"/>
			<path class="vag2" d="M45.3,23.9h-0.5c-0.2-0.9-0.8-1.6-1.9-2.1c-0.8-0.4-1.7-0.6-2.6-0.6h-6.2h-8.6h-6.1c-1,0-1.9,0.2-2.6,0.6
				c-1,0.5-1.6,1.2-1.9,2.1h-0.6c-0.3,0-0.5,0.2-0.5,0.5s0.2,0.5,0.5,0.5h0.5v4.3c0.1,1,0.8,3.2,3.3,4c0.5,0.2,1,0.2,1.5,0.2
				c0.6,0,1.3-0.1,1.9-0.3c2.7-0.9,7.2-3,7.2-6.6c0-0.1,0.1-0.7,0-1.4c0.6-0.4,1.6-0.4,2.1,0c-0.1,0.8,0,1.3,0,1.3
				c0,3.6,4.6,5.7,7.2,6.6c0.6,0.2,1.3,0.3,1.9,0.3c0.5,0,1-0.1,1.5-0.2c2.5-0.8,3.3-2.9,3.3-4v-4.3h0.5c0.3,0,0.5-0.2,0.5-0.5
				C45.8,24.1,45.6,23.9,45.3,23.9z M27.7,26.6c0,3.1-4.6,4.9-6.5,5.6c-0.9,0.3-1.9,0.3-2.7,0.1c-2.4-0.7-2.6-2.9-2.6-3v-4.8
				c0-0.7,0.4-1.2,1.3-1.6c0.7-0.4,1.4-0.5,2.2-0.5h6.1c0.5,0,1,0.2,1.3,0.5C27.9,24,27.7,26.5,27.7,26.6z M31.1,24.1
				c-0.8-0.4-1.7-0.4-2.5,0c-0.1-0.3-0.1-0.5-0.2-0.8h3C31.2,23.6,31.1,23.8,31.1,24.1z M31.6,22.7H28c-0.1-0.1-0.2-0.3-0.3-0.4h4.1
				C31.8,22.4,31.7,22.5,31.6,22.7z M41.2,32.2c-0.8,0.2-1.8,0.2-2.7-0.1c-2-0.7-6.5-2.5-6.5-5.7c0,0-0.2-2.5,0.8-3.7
				c0.3-0.4,0.8-0.5,1.3-0.5h6.1c0.8,0,1.5,0.2,2.1,0.5c0.8,0.4,1.3,0.9,1.3,1.6c0,0.1,0,0.1,0,0.1c0,0.1,0,0.1,0,0.1v4.7
				C43.7,29.3,43.6,31.5,41.2,32.2z"/>
		</g>

	</symbol>

	<symbol version="1.1" id="newyork" xmlns="http://www.w3.org/2000/svg" xmlns:xlink="http://www.w3.org/1999/xlink" x="0px" y="0px"
		 viewBox="0 0 512 512" style="enable-background:new 0 0 512 512;" xml:space="preserve">
		<g>
			<g>
				<path class="newyork1" d="M279.9,218.2c-5.5,0-9.9-3.5-9.9-7.8V143c0-4.3,4.5-7.8,9.9-7.8s9.9,3.5,9.9,7.8v67.4
					C289.9,214.7,285.4,218.2,279.9,218.2z"/>
				<path class="newyork1" d="M315.8,226.1c-1.7,0-3.5-0.4-5.1-1.1c-4.7-2.2-6.2-7-3.4-10.8l37.1-48.6c2.8-3.7,8.9-4.9,13.6-2.7
					s6.2,7,3.4,10.8l-37.1,48.6C322.5,224.7,319.2,226.1,315.8,226.1z"/>
				<path class="newyork1" d="M336.9,241.5c-3.1,0-6.2-1.2-8.1-3.3c-3.2-3.5-2.1-8.4,2.4-10.9l48.7-27.1c4.5-2.5,10.7-1.7,13.9,1.9
					c3.2,3.5,2.1,8.4-2.4,10.9L342.6,240C340.8,241,338.8,241.5,336.9,241.5z"/>
				<path class="newyork1" d="M346.7,257.5c-4.3,0-8.2-2.2-9.5-5.6c-1.6-4.1,1.4-8.5,6.7-9.7l39.4-9.2c5.3-1.2,10.8,1.1,12.4,5.3
					c1.6,4.1-1.4,8.5-6.7,9.7l-39.4,9.2C348.6,257.4,347.7,257.5,346.7,257.5z"/>
				<path class="newyork1" d="M244,226.1c-3.4,0-6.7-1.4-8.5-3.8l-37.1-48.6c-2.8-3.7-1.3-8.5,3.4-10.8c4.7-2.2,10.8-1,13.6,2.7l37.1,48.6
					c2.8,3.7,1.3,8.5-3.4,10.8C247.5,225.7,245.8,226.1,244,226.1z"/>
				<path class="newyork1" d="M223,241.5c-2,0-4-0.5-5.7-1.4l-48.7-27.1c-4.5-2.5-5.6-7.4-2.4-10.9c3.2-3.5,9.4-4.4,13.9-1.9l48.7,27.1
					c4.5,2.5,5.6,7.4,2.4,10.9C229.2,240.3,226.1,241.5,223,241.5z"/>
				<path class="newyork1" d="M213.2,257.5c-0.9,0-1.9-0.1-2.8-0.3l-39.4-9.2c-5.3-1.2-8.3-5.6-6.7-9.7c1.6-4.1,7.1-6.5,12.4-5.3l39.4,9.2
					c5.3,1.2,8.3,5.6,6.7,9.7C221.4,255.3,217.4,257.5,213.2,257.5z"/>
				<polyline class="newyork1" points="210.3,425.6 210.3,265.2 349.5,265.2 349.5,469.4 		"/>
			</g>
			<polygon class="newyork2" points="404.2,453.9 427.1,437.4 363.5,368.4 234.2,368.4 172.6,346.7 103.9,162.3 73.1,162.3 110.9,407.6 
				81.1,437 126.8,481.3 126.8,512 285.9,512 443,512 	"/>
			<g>
				<polyline class="newyork1" points="143.6,375.3 76.5,184.4 110.9,407.6 		"/>
				<polygon class="newyork1" points="172.6,346.7 112.9,467.8 81.1,437 		"/>
				<polygon class="newyork1" points="164.3,324.4 172.6,346.7 110.9,407.6 102.9,355.5 		"/>
				<path class="newyork1" d="M104,92v70.3H69.4c-2.7,0-5.3-0.3-7.8-0.8c-14-2.7-24.3-12.7-24.3-24.5V92H104L104,92z"/>
				<polygon class="newyork1" points="199.7,512 303.1,368.4 363.5,368.4 229.5,512 		"/>
			</g>
			<path class="newyork2" d="M104,130.8v31.5H69.4c-2.7,0-5.3-0.3-7.8-0.8v-16c0-8.1,8.4-14.8,18.7-14.8H104z"/>
			<polyline class="newyork3" points="34.8,80 23.4,15.2 53.6,33.8 75.9,0 90.3,31.7 117.9,15.2 108.3,80 	"/>
			<path class="newyork2" d="M279.9,210.4L279.9,210.4c-38.4,0-69.6,24.6-69.6,54.9v26.6c0,30.3,31.2,54.9,69.6,54.9l0,0l0,0
				c38.4,0,69.6-24.6,69.6-54.9v-26.6C349.5,234.9,318.4,210.4,279.9,210.4z"/>
			<g>
				<path class="newyork1" d="M234.2,291.9v-26.6c0-27.1,24.9-49.6,57.7-54c-3.9-0.5-7.9-0.8-11.9-0.8c-38.4,0-69.6,24.6-69.6,54.9v26.6
					c0,30.3,31.2,54.9,69.6,54.9c4.1,0,8.1-0.3,11.9-0.8C259.1,341.4,234.2,319,234.2,291.9z"/>
				<path class="newyork1" d="M349.5,265.2v26.6l-0.4,0c-1.7-12.9-9-24.4-20-33.1c-12.6-9.9-30-16.1-49.2-16.1c-37.2,0-67.6,23-69.5,52
					c-0.1-1-0.1-1.9-0.1-2.9v-26.6c0-15.2,7.8-28.9,20.4-38.8c12.6-9.9,30-16.1,49.2-16.1C318.4,210.4,349.5,234.9,349.5,265.2z"/>
			</g>
			<rect x="9" y="79.5" class="newyork4" width="123.3" height="25.1"/>
			<g>
				<rect x="9" y="79.5" class="newyork1" width="52.8" height="25.1"/>
				<path class="newyork1" d="M320,277.9l-37.8-7c0,0-0.1,0-0.1,0c-0.3,0-0.5-0.1-0.8-0.1c-0.1,0-0.2,0-0.3,0c-0.4,0-0.7,0-1.1,0
					s-0.7,0-1.1,0c-0.1,0-0.2,0-0.3,0c-0.3,0-0.6,0.1-0.8,0.1c0,0-0.1,0-0.1,0l-37.8,7c-5.3,1-8.7,5.2-7.4,9.4c1.3,4.2,6.6,6.8,12,5.8
					l25.6-4.7v11.7c0,4.3,4.5,7.8,9.9,7.8s9.9-3.5,9.9-7.8v-11.7l25.6,4.7c0.8,0.1,1.5,0.2,2.3,0.2c4.5,0,8.6-2.4,9.7-6.1
					C328.7,283.1,325.4,278.9,320,277.9z"/>
				<polyline class="newyork1" points="404.2,453.9 349.3,493.5 413.4,467.7 		"/>
				<polyline class="newyork1" points="234.2,368.4 195.5,412 210.3,360 		"/>
			</g>
		</g>
	</symbol>

	<symbol version="1.1" id="singapore" xmlns="http://www.w3.org/2000/svg" xmlns:xlink="http://www.w3.org/1999/xlink" x="0px" y="0px"
		 viewBox="0 0 480 480" style="enable-background:new 0 0 480 480;" xml:space="preserve">
		<g>
			<path class="singapore1" d="M320,40H184l-0.4,1.2C179.1,54.8,166.3,64,152,64c-8.8,0-16,7.2-16,16v6.6c0,6,2.4,11.8,6.6,16L160,120h36
				c6.6,0,12,5.4,12,12s-5.4,12-12,12h-20c-8.8,0-16,7.2-16,16l24,24l-8,80v120c0,35.3,28.7,64,64,64h32.5c35.1,0,63.5-28.4,63.5-63.5
				V80L320,40z M236,376c-11,0-20-9-20-20s9-20,20-20c11,0,20,9,20,20S247,376,236,376z"/>
			<path class="singapore1" d="M320,40H184l-0.4,1.2C179.1,54.8,166.3,64,152,64c-8.8,0-16,7.2-16,16v6.6c0,6,2.4,11.8,6.6,16L160,120h36
				c6.6,0,12,5.4,12,12s-5.4,12-12,12h-20c-8.8,0-16,7.2-16,16l24,24l-8,80v120c0,35.3,28.7,64,64,64h32.5c35.1,0,63.5-28.4,63.5-63.5
				V80L320,40z M236,376c-11,0-20-9-20-20s9-20,20-20c11,0,20,9,20,20S247,376,236,376z"/>
			<path class="singapore2" d="M336,278.7V188l-8-36h8V88l-0.8-3.4c-4.5-17.8-15-33.6-29.7-44.6l-113.2-8c-12.4,10.2-5.1,6.5-11.8,16h28
				c21.9,0,39.6,17.7,39.6,39.6c0,10.5,3.8,28.6-3.6,36l-10.6,9.5c-26.8,24-45.6,55.7-53.8,90.8l-4,40.1v16l81.5-27.2v-26.2l10.5-17.2
				l20,6.6v41.3L336,278.7z"/>
			<path class="singapore3" d="M184,40h32.4c21.9,0,39.6,17.7,39.6,39.6c0,10.5-4.2,20.6-11.6,28l-10.6,9.5C192.4,154.1,171,208.6,176,264
				l72-24v-32l16-8l24,8v40l72,32l-32-144h24l-16.8-67.4C326.3,33,294.3,8,257.5,8H248C222.8,8,199.1,19.9,184,40z"/>
			<g>
				<path class="singapore4" d="M208,80c-1,0-2.1-0.2-3-0.6c-1-0.4-1.9-1-2.6-1.7c-1.5-1.5-2.3-3.6-2.3-5.7c0-0.5,0.1-1,0.2-1.5
					c0.1-0.5,0.2-1,0.5-1.5c0.2-0.5,0.4-1,0.7-1.4c0.3-0.4,0.6-0.8,1-1.2c2.3-2.2,5.7-2.9,8.7-1.7c1,0.4,1.9,1,2.6,1.7
					c0.3,0.4,0.7,0.8,1,1.2c0.3,0.4,0.5,0.9,0.7,1.4c0.2,0.5,0.4,1,0.5,1.5c0.1,0.5,0.1,1,0.2,1.5c0,2.1-0.8,4.2-2.3,5.7
					c-0.8,0.7-1.7,1.3-2.6,1.7C210.1,79.8,209,80,208,80z"/>
				<path class="singapore5" d="M232,336l56-16l-1-1.8c-7.7-13.4-20.9-22.8-36.2-25.6c-15.2-2.8-30.9,1.4-42.8,11.3l-11.4-19
					c-16.8-27.9-47-45-79.6-45l58.9,88h14.1c11,0,21,6.2,25.9,16L232,336z"/>
				<path class="singapore5" d="M288,368c-4.4,0-8-3.6-8-8v-8c0-4.4,3.6-8,8-8s8,3.6,8,8v8C296,364.4,292.4,368,288,368z"/>
				<path class="singapore5" d="M304,400c-4.4,0-8-3.6-8-8v-8c0-4.4,3.6-8,8-8s8,3.6,8,8v8C312,396.4,308.4,400,304,400z"/>
				<path class="singapore5" d="M272,408c-4.4,0-8-3.6-8-8v-8c0-4.4,3.6-8,8-8s8,3.6,8,8v8C280,404.4,276.4,408,272,408z"/>
			</g>
			<path class="singapore6" d="M472,472l-77-35.9c-27.9-13-59.3-16.6-89.4-10.1l-30.1,6.4c-23.3,5-47.5,4-70.3-2.8
				c-29.4-8.8-60.8-7.8-89.5,2.8L8,472H472z"/>
			<path class="singapore7" d="M305.6,449.9l-30.1,6.4c-23.3,5-47.5,4-70.3-2.8c-29.4-8.8-60.8-7.8-89.5,2.8L73.1,472h347.4L395,460.1
				C367.1,447.1,335.7,443.5,305.6,449.9z"/>
			<path class="singapore8" d="M256,16l-8-8c25.1,40.1,29.2,90,11,133.7c-7.2,17.4-11,36-11,54.9V224l16-24l24,8V86.2
				c0-14.4-4.5-28.5-12.9-40.2L256,16z"/>
			<path class="singapore9" d="M257.5,8c24.9,36.2,30.5,80,33.3,123.7L288,168v80l40,16l-5.9-130.8c-1.3-29.4-11.8-57.7-29.9-80.8L257.5,8z"
				/>
			<path class="singapore8" d="M257.5,8H248l6.8,5.1C291.7,40.7,317,80.9,326,126.1l2,9.9h24l-16.8-67.4C326.3,33,294.3,8,257.5,8z"/>
			<path d="M288,368c4.4,0,8-3.6,8-8v-8c0-4.4-3.6-8-8-8s-8,3.6-8,8v8C280,364.4,283.6,368,288,368z"/>
			<path d="M296,392c0,4.4,3.6,8,8,8s8-3.6,8-8v-8c0-4.4-3.6-8-8-8s-8,3.6-8,8V392z"/>
			<path d="M272,408c4.4,0,8-3.6,8-8v-8c0-4.4-3.6-8-8-8s-8,3.6-8,8v8C264,404.4,267.6,408,272,408z"/>
			<path d="M8,480h464c3.8,0,7-2.6,7.8-6.3s-1-7.4-4.4-9l-77-36c-19.2-8.9-40.1-13.6-61.3-13.9c4.5-9.5,6.9-19.9,6.8-30.4V281.6
				l12.8,5.7c2.8,1.2,6,0.8,8.3-1.1s3.4-5,2.7-7.9L338,144h14c2.5,0,4.8-1.1,6.3-3.1c1.5-1.9,2.1-4.5,1.5-6.9l-16.8-67.4
				C333.2,27.5,297.9,0,257.5,0H248c-27.4,0.1-53.3,12.9-70,34.7l-0.1,0.1c-0.1,0.1-0.2,0.2-0.3,0.4c-0.5,0.7-0.9,1.4-1.1,2.2
				c0,0,0,0.1-0.1,0.1l-0.4,1.2C172.6,49,162.9,56,152,56c-13.2,0.1-23.9,10.8-24,24v6.6c0,8.1,3.3,15.9,9,21.7l17.4,17.4
				c1.5,1.5,3.5,2.3,5.7,2.3h36c2.2,0,4,1.8,4,4s-1.8,4-4,4h-20c-13.3,0-24,10.7-24,24c0,2.1,0.8,4.2,2.3,5.7l22.8,22.8
				c-6.3,18.4-9.6,37.7-9.8,57.1c-15.3-8.9-32.6-13.5-50.3-13.6c-3,0-5.7,1.6-7.1,4.2c-1.4,2.6-1.2,5.8,0.4,8.2l57.6,85.9V384
				c0,11.2,2.6,22.2,7.6,32.2c-21.3-1.6-42.7,1.3-62.7,8.6L5.2,464.5c-3.6,1.3-5.8,5.1-5.1,8.9C0.8,477.2,4.1,480,8,480z M348.8,266.2
				l-12.9-5.7l-3-65.8L348.8,266.2z M327.4,70.5l14.4,57.5h-12.1c-2.2-29.4-13.1-57.4-31.2-80.6l-22.7-29.1
				C301.2,25,321,45,327.4,70.5z M236,384c11.1,0,21.1-6.5,25.6-16.6c4.5-10.1,2.5-22-5-30.1l33.5-9.6c2.4-0.7,4.3-2.4,5.2-4.7
				c0.9-2.3,0.8-4.9-0.5-7l-1-1.8c-8.1-14.1-21.5-24.4-37.2-28.5c-15.7-4.1-32.4-1.7-46.3,6.7l-6.9-11.6c-3.1-5-6.6-9.8-10.5-14.2
				l57.6-19.2c3.3-1.1,5.5-4.1,5.5-7.6v-27.1l8.6-4.3l15.4,5.1V248c0,0.8,0.1,1.6,0.4,2.3c0.1,0.3,0.2,0.5,0.3,0.7
				c0.2,0.5,0.4,0.9,0.6,1.3c0.2,0.3,0.4,0.5,0.6,0.7c0.3,0.4,0.6,0.7,0.9,1c0.3,0.2,0.6,0.4,0.9,0.5c0.3,0.2,0.7,0.5,1,0.6l43.2,19.2
				v109.9c0,11.2-3.5,22.2-10,31.4c-4.7,0.5-9.4,1.2-14.1,2.3l-30.1,6.4c-22,4.7-44.8,3.8-66.3-2.7c-3.7-1.1-7.4-2-11.1-2.8
				c-8-9.9-12.4-22.3-12.4-35v-48h6.1c7.9,0,15.2,4.5,18.7,11.6c0.1,0.2,0.3,0.4,0.4,0.6c-0.8,2.5-1.2,5.2-1.3,7.8
				C208,371.5,220.5,384,236,384z M224,356c0-3.6,1.7-7.1,4.5-9.3l4.5-2.3c0.9-0.3,1.9-0.4,2.9-0.4c6.6,0,12,5.4,12,12s-5.4,12-12,12
				C229.4,368,224,362.6,224,356z M296,207.9v-39.3l2.8-36.3c1.7-21.8-0.3-43.7-5.6-64.8c12.7,19.8,19.9,42.6,20.9,66l5.4,118.4
				l-23.5-9.4V207.9z M277.5,71.3c5,19.5,6.8,39.7,5.3,59.8L280,168v28.9l-13.5-4.5c-2-0.7-4.2-0.5-6.1,0.4l-4.4,2.2
				c0.2-17.3,3.6-34.3,10.3-50.3C276,121.5,279.8,96.3,277.5,71.3z M243.5,16.2c7.9,13.6,13.4,28.5,16.3,44
				C252.2,43.1,235.2,32,216.4,32h-13.6C214.4,22.7,228.6,17.1,243.5,16.2z M196,112h-32.7l-15-15c-2.7-2.8-4.3-6.5-4.3-10.3V80
				c0-2.2,0.9-4.2,2.4-5.7c1.5-1.5,3.5-2.3,5.6-2.3c16.1,0,30.7-9.4,37.4-24h27c17.4,0,31.6,14.2,31.6,31.6c0.1,8.2-3.2,16.2-8.9,22
				l-10.6,9.5c-4.9,4.4-9.5,9-13.9,13.8C211.7,117.2,204.3,112,196,112z M239.2,123l10.9-9.8c5.5-5.5,9.5-12.2,11.8-19.6
				c-0.9,15.4-4.4,30.6-10.3,44.9c-7.7,18.3-11.6,38-11.6,57.9v37.7l-56.6,18.9C181.8,203.6,202.2,156,239.2,123z M168.5,157.2
				c1.2-3.1,4.1-5.2,7.5-5.2h18.3c-4,6.5-7.6,13.3-10.7,20.3L168.5,157.2z M133.1,249.5c23.6,4.6,44.2,19,56.7,39.6l11.4,19
				c1.2,2,3.2,3.4,5.5,3.8c2.3,0.4,4.7-0.3,6.5-1.7c18.6-15.5,46.3-13.2,62.1,5.2l-45.4,13c-0.5,0.1-0.9,0.3-1.4,0.5l-1.8,0.9
				c-2.3,0.8-4.5,1.9-6.6,3.3l-1.3,0.6c-7-8.7-17.6-13.7-28.7-13.6h-9.8L133.1,249.5z M118.5,439.8c27.1-9.9,56.8-10.9,84.5-2.6
				c24.1,7.2,49.6,8.2,74.2,3l30.1-6.4c28.4-6,58-2.7,84.4,9.6l44.3,20.6H52.8L118.5,439.8z"/>
		</g>
	</symbol>





</svg>