<svg xmlns="http://www.w3.org/2000/svg">

	<symbol version="1.1" id="sunglasses" xmlns="http://www.w3.org/2000/svg" xmlns:xlink="http://www.w3.org/1999/xlink" x="0px" y="0px"
		 viewBox="0 0 60 60" style="enable-background:new 0 0 60 60;" xml:space="preserve">

		<g>
			<g>
				<g>
					<path d="M54.3,46.8c0,0-3.7-1.8-2.3-6.5c0,0,2.3-1.8-0.9-4c0,0-0.6-0.9,0.5-1.9c0,0,3.9-3.3-2.7-10.5l-0.3-6.6
						c0,0-1.8-9.9-13.8-14.6c0,0-8.6-1.6-9.4,1.4c0,0-10.6,0.5-11.9,13.2c0,0-0.1,3.4-2.4,4.8c0,0-3.5,2.3-1.8,8.4
						c0,0,0.8,3.8-2.5,5.9c0,0-2.8,2.4-1,5.8c0,0,1.1,1.1-0.9,3.2c0,0-1.8,3.2,1.3,7.5c0,0-0.4-3.2,0.4-3.9c0,0,2.7,3.2,2,5.3
						c0,0,4.3-2.4,10.5-2.9c0,0,7.5-1.4,6.7-10.9c0,0-7-5.4-6.7-10.3l0.9-7.1c0,0,2.9-3.5,3.2-4.9c0,0,0.1,0.1,0.1,0.3
						c0-0.1,0.1-0.1,0.1-0.2c0.3-1,1-1.8,2.1-2.1l0,0c0,0,1-2.3,1.6-2.1c0,0,2.2,5.6,8.5,5.9c0,0,1,6.3,4.9,7c0,0,0.1,9.5-5.4,13.4
						c0,0-1.3,11.1,9.9,11.6c0,0-2,5.1,2.4,6.1c0,0-0.8-4.9,2.9-4.9l1.6,2C52.2,55.2,56.1,50.2,54.3,46.8z"/>
				</g>
			</g>
			<path class="vag1" d="M35.1,40.4c5.6-3.9,5.4-13.4,5.4-13.4c-3.9-0.6-4.9-7-4.9-7c-6.3-0.4-8.5-5.9-8.5-5.9
				c-0.6-0.1-1.6,2.1-1.6,2.1l0,0c-1.1,0.3-1.8,1.1-2.1,2.1c0,0.1-0.1,0.1-0.1,0.2c-0.1-0.2-0.1-0.3-0.1-0.3c-0.3,1.4-3.2,4.9-3.2,4.9
				l-1,7.1c-0.3,4.8,6.7,10.3,6.7,10.3c0.3,4.2-0.9,6.8-2.5,8.4c2.2,0.9,4.5,1.3,7,1.3c2.6,0,5-0.5,7.3-1.5
				C34.5,45.3,35.1,40.4,35.1,40.4z"/>
			<path class="vag2" d="M45.3,23.9h-0.5c-0.2-0.9-0.8-1.6-1.9-2.1c-0.8-0.4-1.7-0.6-2.6-0.6h-6.2h-8.6h-6.1c-1,0-1.9,0.2-2.6,0.6
				c-1,0.5-1.6,1.2-1.9,2.1h-0.6c-0.3,0-0.5,0.2-0.5,0.5s0.2,0.5,0.5,0.5h0.5v4.3c0.1,1,0.8,3.2,3.3,4c0.5,0.2,1,0.2,1.5,0.2
				c0.6,0,1.3-0.1,1.9-0.3c2.7-0.9,7.2-3,7.2-6.6c0-0.1,0.1-0.7,0-1.4c0.6-0.4,1.6-0.4,2.1,0c-0.1,0.8,0,1.3,0,1.3
				c0,3.6,4.6,5.7,7.2,6.6c0.6,0.2,1.3,0.3,1.9,0.3c0.5,0,1-0.1,1.5-0.2c2.5-0.8,3.3-2.9,3.3-4v-4.3h0.5c0.3,0,0.5-0.2,0.5-0.5
				C45.8,24.1,45.6,23.9,45.3,23.9z M27.7,26.6c0,3.1-4.6,4.9-6.5,5.6c-0.9,0.3-1.9,0.3-2.7,0.1c-2.4-0.7-2.6-2.9-2.6-3v-4.8
				c0-0.7,0.4-1.2,1.3-1.6c0.7-0.4,1.4-0.5,2.2-0.5h6.1c0.5,0,1,0.2,1.3,0.5C27.9,24,27.7,26.5,27.7,26.6z M31.1,24.1
				c-0.8-0.4-1.7-0.4-2.5,0c-0.1-0.3-0.1-0.5-0.2-0.8h3C31.2,23.6,31.1,23.8,31.1,24.1z M31.6,22.7H28c-0.1-0.1-0.2-0.3-0.3-0.4h4.1
				C31.8,22.4,31.7,22.5,31.6,22.7z M41.2,32.2c-0.8,0.2-1.8,0.2-2.7-0.1c-2-0.7-6.5-2.5-6.5-5.7c0,0-0.2-2.5,0.8-3.7
				c0.3-0.4,0.8-0.5,1.3-0.5h6.1c0.8,0,1.5,0.2,2.1,0.5c0.8,0.4,1.3,0.9,1.3,1.6c0,0.1,0,0.1,0,0.1c0,0.1,0,0.1,0,0.1v4.7
				C43.7,29.3,43.6,31.5,41.2,32.2z"/>
		</g>
		
	</symbol>

	<symbol version="1.1" id="newyork" xmlns="http://www.w3.org/2000/svg" xmlns:xlink="http://www.w3.org/1999/xlink" x="0px" y="0px"
		 viewBox="0 0 512 512" style="enable-background:new 0 0 512 512;" xml:space="preserve">
		<g>
			<g>
				<path class="newyork1" d="M279.9,218.2c-5.5,0-9.9-3.5-9.9-7.8V143c0-4.3,4.5-7.8,9.9-7.8s9.9,3.5,9.9,7.8v67.4
					C289.9,214.7,285.4,218.2,279.9,218.2z"/>
				<path class="newyork1" d="M315.8,226.1c-1.7,0-3.5-0.4-5.1-1.1c-4.7-2.2-6.2-7-3.4-10.8l37.1-48.6c2.8-3.7,8.9-4.9,13.6-2.7
					s6.2,7,3.4,10.8l-37.1,48.6C322.5,224.7,319.2,226.1,315.8,226.1z"/>
				<path class="newyork1" d="M336.9,241.5c-3.1,0-6.2-1.2-8.1-3.3c-3.2-3.5-2.1-8.4,2.4-10.9l48.7-27.1c4.5-2.5,10.7-1.7,13.9,1.9
					c3.2,3.5,2.1,8.4-2.4,10.9L342.6,240C340.8,241,338.8,241.5,336.9,241.5z"/>
				<path class="newyork1" d="M346.7,257.5c-4.3,0-8.2-2.2-9.5-5.6c-1.6-4.1,1.4-8.5,6.7-9.7l39.4-9.2c5.3-1.2,10.8,1.1,12.4,5.3
					c1.6,4.1-1.4,8.5-6.7,9.7l-39.4,9.2C348.6,257.4,347.7,257.5,346.7,257.5z"/>
				<path class="newyork1" d="M244,226.1c-3.4,0-6.7-1.4-8.5-3.8l-37.1-48.6c-2.8-3.7-1.3-8.5,3.4-10.8c4.7-2.2,10.8-1,13.6,2.7l37.1,48.6
					c2.8,3.7,1.3,8.5-3.4,10.8C247.5,225.7,245.8,226.1,244,226.1z"/>
				<path class="newyork1" d="M223,241.5c-2,0-4-0.5-5.7-1.4l-48.7-27.1c-4.5-2.5-5.6-7.4-2.4-10.9c3.2-3.5,9.4-4.4,13.9-1.9l48.7,27.1
					c4.5,2.5,5.6,7.4,2.4,10.9C229.2,240.3,226.1,241.5,223,241.5z"/>
				<path class="newyork1" d="M213.2,257.5c-0.9,0-1.9-0.1-2.8-0.3l-39.4-9.2c-5.3-1.2-8.3-5.6-6.7-9.7c1.6-4.1,7.1-6.5,12.4-5.3l39.4,9.2
					c5.3,1.2,8.3,5.6,6.7,9.7C221.4,255.3,217.4,257.5,213.2,257.5z"/>
				<polyline class="newyork1" points="210.3,425.6 210.3,265.2 349.5,265.2 349.5,469.4 		"/>
			</g>
			<polygon class="newyork2" points="404.2,453.9 427.1,437.4 363.5,368.4 234.2,368.4 172.6,346.7 103.9,162.3 73.1,162.3 110.9,407.6 
				81.1,437 126.8,481.3 126.8,512 285.9,512 443,512 	"/>
			<g>
				<polyline class="newyork1" points="143.6,375.3 76.5,184.4 110.9,407.6 		"/>
				<polygon class="newyork1" points="172.6,346.7 112.9,467.8 81.1,437 		"/>
				<polygon class="newyork1" points="164.3,324.4 172.6,346.7 110.9,407.6 102.9,355.5 		"/>
				<path class="newyork1" d="M104,92v70.3H69.4c-2.7,0-5.3-0.3-7.8-0.8c-14-2.7-24.3-12.7-24.3-24.5V92H104L104,92z"/>
				<polygon class="newyork1" points="199.7,512 303.1,368.4 363.5,368.4 229.5,512 		"/>
			</g>
			<path class="newyork2" d="M104,130.8v31.5H69.4c-2.7,0-5.3-0.3-7.8-0.8v-16c0-8.1,8.4-14.8,18.7-14.8H104z"/>
			<polyline class="newyork3" points="34.8,80 23.4,15.2 53.6,33.8 75.9,0 90.3,31.7 117.9,15.2 108.3,80 	"/>
			<path class="newyork2" d="M279.9,210.4L279.9,210.4c-38.4,0-69.6,24.6-69.6,54.9v26.6c0,30.3,31.2,54.9,69.6,54.9l0,0l0,0
				c38.4,0,69.6-24.6,69.6-54.9v-26.6C349.5,234.9,318.4,210.4,279.9,210.4z"/>
			<g>
				<path class="newyork1" d="M234.2,291.9v-26.6c0-27.1,24.9-49.6,57.7-54c-3.9-0.5-7.9-0.8-11.9-0.8c-38.4,0-69.6,24.6-69.6,54.9v26.6
					c0,30.3,31.2,54.9,69.6,54.9c4.1,0,8.1-0.3,11.9-0.8C259.1,341.4,234.2,319,234.2,291.9z"/>
				<path class="newyork1" d="M349.5,265.2v26.6l-0.4,0c-1.7-12.9-9-24.4-20-33.1c-12.6-9.9-30-16.1-49.2-16.1c-37.2,0-67.6,23-69.5,52
					c-0.1-1-0.1-1.9-0.1-2.9v-26.6c0-15.2,7.8-28.9,20.4-38.8c12.6-9.9,30-16.1,49.2-16.1C318.4,210.4,349.5,234.9,349.5,265.2z"/>
			</g>
			<rect x="9" y="79.5" class="newyork4" width="123.3" height="25.1"/>
			<g>
				<rect x="9" y="79.5" class="newyork1" width="52.8" height="25.1"/>
				<path class="newyork1" d="M320,277.9l-37.8-7c0,0-0.1,0-0.1,0c-0.3,0-0.5-0.1-0.8-0.1c-0.1,0-0.2,0-0.3,0c-0.4,0-0.7,0-1.1,0
					s-0.7,0-1.1,0c-0.1,0-0.2,0-0.3,0c-0.3,0-0.6,0.1-0.8,0.1c0,0-0.1,0-0.1,0l-37.8,7c-5.3,1-8.7,5.2-7.4,9.4c1.3,4.2,6.6,6.8,12,5.8
					l25.6-4.7v11.7c0,4.3,4.5,7.8,9.9,7.8s9.9-3.5,9.9-7.8v-11.7l25.6,4.7c0.8,0.1,1.5,0.2,2.3,0.2c4.5,0,8.6-2.4,9.7-6.1
					C328.7,283.1,325.4,278.9,320,277.9z"/>
				<polyline class="newyork1" points="404.2,453.9 349.3,493.5 413.4,467.7 		"/>
				<polyline class="newyork1" points="234.2,368.4 195.5,412 210.3,360 		"/>
			</g>
		</g>
	</symbol>





</svg>