<svg xmlns="http://www.w3.org/2000/svg">

	<symbol version="1.1" id="CLtitle" xmlns="http://www.w3.org/2000/svg" xmlns:xlink="http://www.w3.org/1999/xlink" x="0px" y="0px"
		 viewBox="0 0 1366 768" style="enable-background:new 0 0 1366 768;" xml:space="preserve">
		<image style="display:none;overflow:visible;" width="400" height="400" xlink:href="765FC875.jpg"  transform="matrix(3.415 0 0 3.415 0 -282)">
		</image>
		<g>
			<path class="CLtitle1" d="M604,499h-9v-17l-16,17l-16-17h-27l-22,9h-21h-19l-16,8v-8h-12l-10,8l6-17l-16,3l-29,11l17-18l-14,3l-29,16
				l8-13l-31-1l-28,19l3-17l-43-1l-38-16l-33-31l-2-9l31,22c0,0,35,6,36,6s52-16,52-16l-1-8l-40,10l-36,2l-32-16l-27-16l-3-22l30,27
				l44,14l35-5c0,0-49-15-51-15s-41-21-41-21l-28-23l55,25c0,0-63-56-64-56s9-2,8-2s26,22,26,22l4-9l21-1l-28-20l6-4l29,14l10,1
				l-18-20l22,10l30,13l-29-27l60,27l-34-31l72,28l-53-36l74,30l-45-40l59,34c0,0,21,1,17,1s-32-27-32-27l37,21l16,1l-23-22l36,21
				l10,2l-21-27l33,27l9,2l-5-37l12,41l14,4l3-36v39l8,3l6-32l4,36l9,8l-2-43l11,48l13,10l5-37l5,45l25,37l25,38l6,20l-13-5h-5l5,9
				c0,0,13,7,13,9s6,9,6,9L604,499z"/>
			<path class="CLtitle1" d="M598.5,431.5l-68-83l-68.7-33.1l-67.3-8.9l-70,4l31-12h66l38.9,6.1l91.1,46.9l-79-49l-40-10l-72-2l-70,11
				l-65,25l51-29l55-13h56l-84-7l-56,6l28-17l23-3l43,2l62,13l53,8l47,24l27,17l24,18l44,36l7,13c0,0-7,2-8,3s17,22,17,22l-7,4l11,15
				l-15-10L598.5,431.5z"/>
			<path class="CLtitle2" d="M454.5,383.5l-17,6c0,0-7,7-6,11s0,18,0,18l11,11h16l12-5c0,0,4-15,4-16s-4-14-4-14l-10-11H454.5z"/>
			<path class="CLtitle2" d="M338.5,422.5v-14l20-14l17-11l16-3l32,14l18-14l14-3l17,6h20l2-15l31,9l28,52c0,0,25,37,23,39s-14,6-14,6h-94
				l41-36l4-40l-15-25l-3,10l-6,5l-15-2l-17-5l-13,2l-13,7l-6,7l-32-11l-6,24l2,23l11,15l14,11l9,6l-9,3l-51-19l-27-27"/>
			<polygon class="CLtitle1" points="1151,234 1124,208 1066,202 1017,218 973.5,248.5 935.5,311.5 913.5,400.5 901.5,453.5 901.5,462.5 
				918.5,484.5 943.5,505.5 969.5,394.5 988.5,315.5 1015.5,254.5 1030.5,226.5 1053.5,212.5 1093.5,212.5 1138.5,245.5 1148.5,249.5 
				1154.5,243.5 	"/>
			<polygon class="CLtitle1" points="1062.5,290.5 1074.5,353.5 1068.5,356.5 1062.5,326.5 1044.5,302.5 1020.5,290.5 1008.5,290.5 
				1008.5,281.5 1059.5,290.5 	"/>
			<polygon class="CLtitle1" points="935.5,286.5 875.5,319.5 837.5,371.5 828.5,433.5 849.5,481.5 881.5,513.5 924.5,536.5 970.5,544.5 
				1015.5,536.5 1057.5,517.5 1078.5,486.5 1041.5,514.5 1012.5,521.5 964.5,519.5 933.5,510.5 888.5,471.5 879.5,429.5 880.5,377.5 
				898.5,336.5 932.5,306.5 	"/>
			<polygon class="CLtitle1" points="881.5,526.5 871.5,557.5 849.5,583.5 817.5,589.5 790.5,596.5 1172.5,599.5 1195.5,579.5 
				1195.5,554.5 1176.5,549.5 1158.5,570.5 1138.5,592.5 1110.5,592.5 1074.5,581.5 1021.5,569.5 992.5,569.5 962.5,578.5 
				940.5,576.5 935.5,571.5 932.5,547.5 907.5,537.5 	"/>
		</g>
	</symbol>

	<symbol version="1.1" id="korea" xmlns="http://www.w3.org/2000/svg" xmlns:xlink="http://www.w3.org/1999/xlink" x="0px" y="0px"
		 viewBox="0 0 800 800" style="enable-background:new 0 0 800 800;" xml:space="preserve">
		<style type="text/css">
		</style>
		<g>
			<path class="korea1" d="M116.1,645.2h658.1V154.8H25.8v490.3h38.7c7.1,0,12.9,5.8,12.9,12.9h25.8C103.2,650.9,109,645.2,116.1,645.2z
				 M229.2,568.6c-2,1.2-4.3,1.7-6.4,1.7c-4.5,0-8.8-2.3-11.2-6.5l-15.3-26.4c-3.6-6.2-1.4-14.1,4.7-17.6c6.2-3.6,14.1-1.5,17.6,4.7
				l15.3,26.4C237.5,557.2,235.4,565.1,229.2,568.6z M190.3,514.1c-4.5,0-8.8-2.3-11.2-6.5l-15.3-26.4c-3.6-6.2-1.4-14.1,4.7-17.6
				c6.2-3.6,14.1-1.5,17.6,4.7l15.3,26.4c3.6,6.2,1.4,14.1-4.7,17.6C194.7,513.6,192.5,514.1,190.3,514.1z M259,551.4
				c-2,1.2-4.3,1.7-6.4,1.7c-4.5,0-8.8-2.3-11.2-6.5L193.6,464c-3.6-6.2-1.4-14.1,4.7-17.6c6.2-3.6,14.1-1.5,17.6,4.7l47.7,82.7
				C267.3,540,265.2,547.9,259,551.4z M547.5,553.2c-2.2,0-4.4-0.6-6.4-1.7c-6.2-3.6-8.3-11.5-4.7-17.6l15.3-26.4
				c3.6-6.2,11.5-8.3,17.6-4.7c6.2,3.6,8.3,11.5,4.7,17.6l-15.3,26.4C556.3,550.9,551.9,553.2,547.5,553.2z M568.8,477.6l15.3-26.4
				c3.6-6.2,11.5-8.3,17.6-4.7c6.2,3.6,8.3,11.5,4.7,17.6l-15.3,26.4c-2.4,4.1-6.7,6.5-11.2,6.5c-2.2,0-4.4-0.6-6.4-1.7
				C567.3,491.6,565.2,483.7,568.8,477.6z M573.5,304.8c6.2-3.6,14.1-1.4,17.6,4.7l15.3,26.4c3.6,6.2,1.4,14.1-4.7,17.6
				c-2,1.2-4.3,1.7-6.4,1.7c-4.5,0-8.8-2.3-11.2-6.5l-15.3-26.4C565.2,316.3,567.3,308.4,573.5,304.8z M613.8,468.3
				c3.6-6.2,11.4-8.3,17.6-4.7c6.2,3.6,8.3,11.5,4.7,17.6l-15.3,26.4c-2.4,4.1-6.7,6.5-11.2,6.5c-2.2,0-4.4-0.6-6.4-1.7
				c-6.2-3.6-8.3-11.5-4.7-17.6L613.8,468.3z M577.3,570.4c-2.2,0-4.4-0.6-6.4-1.7c-6.2-3.6-8.3-11.5-4.7-17.6l15.3-26.4
				c3.6-6.2,11.4-8.3,17.6-4.7c6.2,3.6,8.3,11.5,4.7,17.6l-15.3,26.4C586.1,568.1,581.7,570.4,577.3,570.4z M633.5,554.7l-15.3,26.4
				c-2.4,4.1-6.7,6.5-11.2,6.5c-2.2,0-4.4-0.6-6.4-1.7c-6.2-3.6-8.3-11.5-4.7-17.6l15.3-26.4c3.6-6.2,11.4-8.3,17.6-4.7
				C635,540.6,637.1,548.5,633.5,554.7z M666,498.4l-15.3,26.4c-2.4,4.1-6.7,6.5-11.2,6.5c-2.2,0-4.4-0.6-6.4-1.7
				c-6.2-3.6-8.3-11.5-4.7-17.6l15.3-26.4c3.6-6.2,11.4-8.3,17.6-4.7C667.4,484.4,669.5,492.3,666,498.4z M650.7,275.1l15.3,26.4
				c3.6,6.2,1.4,14.1-4.7,17.6c-2,1.2-4.3,1.7-6.4,1.7c-4.5,0-8.8-2.3-11.2-6.5L628.4,288c-3.6-6.2-1.4-14.1,4.7-17.6
				C639.3,266.8,647.2,268.9,650.7,275.1z M600.6,214.1c6.2-3.6,14.1-1.4,17.6,4.7l15.3,26.4c3.6,6.2,1.4,14.1-4.7,17.6
				c-2,1.2-4.3,1.7-6.4,1.7c-4.5,0-8.8-2.3-11.2-6.5l-15.3-26.4C592.3,225.6,594.4,217.7,600.6,214.1z M570.8,231.4
				c6.2-3.6,14.1-1.4,17.6,4.7l47.7,82.7c3.6,6.2,1.4,14.1-4.7,17.6c-2,1.2-4.3,1.7-6.4,1.7c-4.5,0-8.8-2.3-11.2-6.5L566.1,249
				C562.5,242.8,564.6,234.9,570.8,231.4z M541,248.6c6.2-3.6,14.1-1.4,17.6,4.7l15.3,26.4c3.6,6.2,1.4,14.1-4.7,17.6
				c-2,1.2-4.3,1.7-6.4,1.7c-4.5,0-8.8-2.3-11.2-6.5l-15.3-26.4C532.7,260,534.8,252.1,541,248.6z M400,258.1
				c78.3,0,141.9,63.7,141.9,141.9S478.3,541.9,400,541.9S258.1,478.3,258.1,400C258.1,321.7,321.7,258.1,400,258.1z M259,248.6
				c6.2,3.6,8.3,11.5,4.7,17.6L216,348.9c-2.4,4.1-6.7,6.5-11.2,6.5c-2.2,0-4.4-0.6-6.4-1.7c-6.2-3.6-8.3-11.5-4.7-17.6l47.7-82.7
				C244.9,247.1,252.8,245,259,248.6z M229.2,231.4c6.2,3.6,8.3,11.5,4.7,17.6l-47.7,82.7c-2.4,4.1-6.7,6.5-11.2,6.5
				c-2.2,0-4.4-0.6-6.4-1.7c-6.2-3.6-8.3-11.5-4.7-17.6l47.7-82.7C215.1,229.9,223,227.8,229.2,231.4z M134,301.6l47.7-82.7
				c3.6-6.2,11.5-8.3,17.6-4.7c6.2,3.6,8.3,11.5,4.7,17.6l-47.7,82.7c-2.4,4.1-6.7,6.5-11.2,6.5c-2.2,0-4.4-0.6-6.4-1.7
				C132.6,315.6,130.4,307.7,134,301.6z M138.7,480.8c6.2-3.6,14.1-1.5,17.6,4.7l47.7,82.7c3.6,6.2,1.4,14.1-4.7,17.6
				c-2,1.2-4.3,1.7-6.4,1.7c-4.5,0-8.8-2.3-11.2-6.5L134,498.4C130.4,492.3,132.6,484.4,138.7,480.8z"/>
			<path d="M787.1,129H12.9C5.8,129,0,134.8,0,141.9v516.1c0,7.1,5.8,12.9,12.9,12.9h51.6c7.1,0,12.9-5.8,12.9-12.9
				s-5.8-12.9-12.9-12.9H25.8V154.8h748.4v490.3H116.1c-7.1,0-12.9,5.8-12.9,12.9S109,671,116.1,671h671c7.1,0,12.9-5.8,12.9-12.9
				V141.9C800,134.8,794.2,129,787.1,129z"/>
			<path class="korea2" d="M400,517.1c-64.6,0-117.1-52.5-117.1-117.1v-1h234.3v1C517.1,464.6,464.6,517.1,400,517.1z"/>
			<path class="korea2" d="M400,516.1c64,0,116.1-52.1,116.1-116.1H283.9C283.9,464,336,516.1,400,516.1z"/>
			<path class="korea3" d="M282.9,401v-1c0-64.6,52.5-117.1,117.1-117.1S517.1,335.4,517.1,400v1H282.9z"/>
			<path class="korea3" d="M516.1,400c0-64-52.1-116.1-116.1-116.1S283.9,336,283.9,400H516.1z"/>
			<path d="M400,541.9c78.3,0,141.9-63.7,141.9-141.9c0-78.3-63.7-141.9-141.9-141.9S258.1,321.7,258.1,400
				C258.1,478.3,321.7,541.9,400,541.9z M400,283.9c64,0,116.1,52.1,116.1,116.1S464,516.1,400,516.1S283.9,464,283.9,400
				S336,283.9,400,283.9z"/>
			<path d="M138.7,319.2c2,1.2,4.3,1.7,6.4,1.7c4.5,0,8.8-2.3,11.2-6.5l47.7-82.7c3.6-6.2,1.4-14.1-4.7-17.6
				c-6.2-3.6-14.1-1.4-17.6,4.7L134,301.6C130.4,307.7,132.6,315.6,138.7,319.2z"/>
			<path d="M198.3,353.6c2,1.2,4.3,1.7,6.4,1.7c4.5,0,8.8-2.3,11.2-6.5l47.7-82.7c3.6-6.2,1.4-14.1-4.7-17.6
				c-6.2-3.6-14.1-1.4-17.6,4.7L193.6,336C190,342.1,192.2,350,198.3,353.6z"/>
			<path d="M168.5,336.4c2,1.2,4.3,1.7,6.4,1.7c4.5,0,8.8-2.3,11.2-6.5l47.7-82.7c3.6-6.2,1.4-14.1-4.7-17.6
				c-6.2-3.6-14.1-1.5-17.6,4.7l-47.7,82.7C160.3,324.9,162.4,332.8,168.5,336.4z"/>
			<path d="M628.8,537.1c-6.2-3.6-14.1-1.5-17.6,4.7l-15.3,26.4c-3.6,6.2-1.4,14.1,4.7,17.6c2,1.2,4.3,1.7,6.4,1.7
				c4.5,0,8.8-2.3,11.2-6.5l15.3-26.4C637.1,548.5,635,540.6,628.8,537.1z"/>
			<path d="M661.3,480.8c-6.2-3.6-14.1-1.5-17.6,4.7L628.4,512c-3.6,6.2-1.4,14.1,4.7,17.6c2,1.2,4.3,1.7,6.4,1.7
				c4.5,0,8.8-2.3,11.2-6.5l15.3-26.4C669.5,492.3,667.4,484.4,661.3,480.8z"/>
			<path d="M569.2,502.6c-6.2-3.6-14.1-1.5-17.6,4.7l-15.3,26.4c-3.6,6.2-1.4,14.1,4.7,17.6c2,1.2,4.3,1.7,6.4,1.7
				c4.5,0,8.8-2.3,11.2-6.5l15.3-26.4C577.5,514.1,575.4,506.2,569.2,502.6z"/>
			<path d="M573.5,495.2c2,1.2,4.3,1.7,6.4,1.7c4.5,0,8.8-2.3,11.2-6.5l15.3-26.4c3.6-6.2,1.4-14.1-4.7-17.6
				c-6.2-3.6-14.1-1.5-17.6,4.7l-15.3,26.4C565.2,483.7,567.3,491.6,573.5,495.2z"/>
			<path d="M599,519.9c-6.2-3.6-14.1-1.5-17.6,4.7L566.1,551c-3.6,6.2-1.4,14.1,4.7,17.6c2,1.2,4.3,1.7,6.4,1.7
				c4.5,0,8.8-2.3,11.2-6.5l15.3-26.4C607.3,531.3,605.2,523.4,599,519.9z"/>
			<path d="M603.3,512.4c2,1.2,4.3,1.7,6.4,1.7c4.5,0,8.8-2.3,11.2-6.5l15.3-26.4c3.6-6.2,1.4-14.1-4.7-17.6
				c-6.2-3.6-14.1-1.5-17.6,4.7l-15.3,26.4C595,500.9,597.1,508.8,603.3,512.4z"/>
			<path d="M611.2,258.2c2.4,4.1,6.7,6.5,11.2,6.5c2.2,0,4.4-0.6,6.4-1.7c6.2-3.6,8.3-11.5,4.7-17.6l-15.3-26.4
				c-3.6-6.2-11.5-8.3-17.6-4.7c-6.2,3.6-8.3,11.5-4.7,17.6L611.2,258.2z"/>
			<path d="M628.4,288l15.3,26.4c2.4,4.1,6.7,6.5,11.2,6.5c2.2,0,4.4-0.6,6.4-1.7c6.2-3.6,8.3-11.5,4.7-17.6l-15.3-26.4
				c-3.6-6.2-11.5-8.3-17.6-4.7C626.9,274,624.8,281.8,628.4,288z"/>
			<path d="M551.6,292.6c2.4,4.1,6.7,6.5,11.2,6.5c2.2,0,4.4-0.6,6.4-1.7c6.2-3.6,8.3-11.5,4.7-17.6l-15.3-26.4
				c-3.6-6.2-11.5-8.3-17.6-4.7c-6.2,3.6-8.3,11.5-4.7,17.6L551.6,292.6z"/>
			<path d="M584,348.9c2.4,4.1,6.7,6.5,11.2,6.5c2.2,0,4.4-0.6,6.4-1.7c6.2-3.6,8.3-11.5,4.7-17.6l-15.3-26.4
				c-3.6-6.2-11.5-8.3-17.6-4.7c-6.2,3.6-8.3,11.5-4.7,17.6L584,348.9z"/>
			<path d="M613.8,331.7c2.4,4.1,6.7,6.5,11.2,6.5c2.2,0,4.4-0.6,6.4-1.7c6.2-3.6,8.3-11.5,4.7-17.6l-47.7-82.7
				c-3.6-6.2-11.5-8.3-17.6-4.7c-6.2,3.6-8.3,11.5-4.7,17.6L613.8,331.7z"/>
			<path d="M181.8,581.1c2.4,4.1,6.7,6.5,11.2,6.5c2.2,0,4.4-0.6,6.4-1.7c6.2-3.6,8.3-11.5,4.7-17.6l-47.7-82.7
				c-3.6-6.2-11.5-8.3-17.6-4.7c-6.2,3.6-8.3,11.5-4.7,17.6L181.8,581.1z"/>
			<path d="M216,451.1c-3.6-6.2-11.5-8.3-17.6-4.7c-6.2,3.6-8.3,11.5-4.7,17.6l47.7,82.7c2.4,4.1,6.7,6.5,11.2,6.5
				c2.2,0,4.4-0.6,6.4-1.7c6.2-3.6,8.3-11.5,4.7-17.6L216,451.1z"/>
			<path d="M218.6,524.6c-3.6-6.2-11.5-8.3-17.6-4.7c-6.2,3.6-8.3,11.5-4.7,17.6l15.3,26.4c2.4,4.1,6.7,6.5,11.2,6.5
				c2.2,0,4.4-0.6,6.4-1.7c6.2-3.6,8.3-11.5,4.7-17.6L218.6,524.6z"/>
			<path d="M201.4,494.8l-15.3-26.4c-3.6-6.2-11.5-8.3-17.6-4.7c-6.2,3.6-8.3,11.5-4.7,17.6l15.3,26.4c2.4,4.1,6.7,6.5,11.2,6.5
				c2.2,0,4.4-0.6,6.4-1.7C202.9,508.8,205,500.9,201.4,494.8z"/>
		</g>
	</symbol>

	<symbol version="1.1" id="eye" xmlns="http://www.w3.org/2000/svg" xmlns:xlink="http://www.w3.org/1999/xlink" x="0px" y="0px"
		 viewBox="0 0 466.7 466.7" style="enable-background:new 0 0 466.7 466.7;" xml:space="preserve">
		<path class="eye1" d="M442,348h-9v-17l-16,17l-16-17h-27l-22,9h-21h-19l-16,8v-8h-12l-10,8l6-17l-16,3l-29,11l17-18l-14,3l-29,16
			l8-13l-31-1l-28,19l3-17l-43-1l-38-16l-33-31l-2-9l31,22c0,0,35,6,36,6s52-16,52-16l-1-8l-40,10l-36,2l-32-16l-27-16l-3-22l30,27
			l44,14l35-5c0,0-49-15-51-15s-41-21-41-21l-28-23l55,25c0,0-63-56-64-56s9-2,8-2s26,22,26,22l4-9l21-1l-28-20l6-4l29,14l10,1l-18-20
			l22,10l30,13l-29-27l60,27l-34-31l72,28l-53-36l74,30l-45-40l59,34c0,0,21,1,17,1s-32-27-32-27l37,21l16,1l-23-22l36,21l10,2l-21-27
			l33,27l9,2l-5-37l12,41l14,4l3-36v39l8,3l6-32l4,36l9,8l-2-43l11,48l13,10l5-37l5,45l25,37l25,38l6,20l-13-5h-5l5,9c0,0,13,7,13,9
			s6,9,6,9L442,348z"/>
		<path class="eye1" d="M436.5,280.5l-68-83l-68.7-33.1l-67.3-8.9l-70,4l31-12h66l38.9,6.1l91.1,46.9l-79-49l-40-10l-72-2l-70,11
			l-65,25l51-29l55-13h56l-84-7l-56,6l28-17l23-3l43,2l62,13l53,8l47,24l27,17l24,18l44,36l7,13c0,0-7,2-8,3s17,22,17,22l-7,4l11,15
			l-15-10L436.5,280.5z"/>
		<path class="eye2" d="M292.5,232.5l-17,6c0,0-7,7-6,11s0,18,0,18l11,11h16l12-5c0,0,4-15,4-16s-4-14-4-14l-10-11H292.5z"/>
		<path class="eye2" d="M176.5,271.5v-14l20-14l17-11l16-3l32,14l18-14l14-3l17,6h20l2-15l31,9l28,52c0,0,25,37,23,39s-14,6-14,6h-94
			l41-36l4-40l-15-25l-3,10l-6,5l-15-2l-17-5l-13,2l-13,7l-6,7l-32-11l-6,24l2,23l11,15l14,11l9,6l-9,3l-51-19l-27-27"/>
	</symbol>

	<symbol version="1.1" id="soda" xmlns="http://www.w3.org/2000/svg" xmlns:xlink="http://www.w3.org/1999/xlink" x="0px" y="0px"
		 viewBox="0 0 512 512" style="enable-background:new 0 0 512 512;" xml:space="preserve">
		<g>
			<path class="soda1" d="M205.4,50V17.7c0-5.6,5.8-10.1,12.9-10.1h64.5c7.1,0,12.9,4.5,12.9,10.1V50H205.4z"/>
			<path class="soda2" d="M205.4,50c-0.9,51.6,7.3,63.6-40,131.3c-19.8,28.3-26.8,48.6-27.1,74.7c-0.2,21.2,5.2,39.9,9,57.6
				c16,74.8,22.7,110.4-5,150.8c-2.7,3.9-4,8.3-4,12.8c0,15.1,15.6,27.3,34.9,27.3h154.8c19.2,0,34.8-12.2,34.8-27.3
				c0-4.4-1.4-8.8-4-12.8c-27.7-40.5-21-76.1-5-150.8c3.8-17.7,9.2-36.4,9-57.6c-0.3-26.2-7.3-46.4-27.1-74.7
				c-47.3-67.7-39.1-79.7-40-131.3H205.4z"/>
			<path class="soda3" d="M282.8,7.6h-11.6v18.2c0,5.6-5.8,10.1-12.9,10.1h-52.9V50h90.3V17.7C295.7,12.1,289.9,7.6,282.8,7.6z"/>
			<path class="soda4" d="M353.8,313.6c3.8-17.7,9.2-36.4,9-57.6c-0.3-26.2-7.3-46.4-27.1-74.7c-47.3-67.7-39.1-79.7-40-131.3h-24.5
				c0.9,51.6-7.3,63.6,40,131.3c19.8,28.3,26.8,48.6,27.1,74.7c0.2,21.2-5.2,39.9-9,57.6c-16,74.8-22.7,110.4,5,150.8
				c2.7,3.9,4,8.3,4,12.8c0,15.1-15.6,27.3-34.8,27.3h24.5c19.2,0,34.8-12.2,34.8-27.3c0-4.4-1.4-8.8-4-12.8
				C331.1,423.9,337.7,388.3,353.8,313.6z"/>
			<path class="soda1" d="M138.3,256c-0.2,20.8,5,39.2,8.8,56.6H354c3.8-17.4,9-35.7,8.8-56.6c-0.2-19.5-4.2-35.8-14.4-54.5H152.7
				C142.5,220.2,138.5,236.5,138.3,256z"/>
			<path class="soda3" d="M348.4,201.5h-24.5c10.2,18.8,14.2,35,14.4,54.5c0.2,20.8-5,39.2-8.8,56.6H354c3.8-17.4,9-35.7,8.8-56.6
				C362.6,236.5,358.6,220.2,348.4,201.5z"/>
			<path class="soda5" d="M281.4,235.4c-20.9-11.3-48.9-24.9-83.6-33.9h-45.2c-9.3,17-13.4,32-14.2,49.2c32.4,3.7,59.1,16,81.3,28
				c13,7,43,23.2,84.2,33.9h50c3.3-15.3,7.8-31.4,8.7-49.2C329.8,259.5,302.4,246.8,281.4,235.4z"/>
			<path class="soda6" d="M354.9,308.5c3.4-15,7-29.9,7.8-45.1c-8.5-1-16.6-2.6-24.4-4.6c-0.2,19.7-5.2,37.2-8.8,53.8H354
				C354.3,311.2,354.6,309.8,354.9,308.5C355.1,307.7,354.8,308.8,354.9,308.5z"/>
			<path d="M363.3,314.8c0.7-3.3,1.5-6.6,2.2-10c3-13,6-26.4,6.8-41.1c0,0,0,0,0,0c0.1-2.5,0.2-5.1,0.2-7.7c-0.3-28-8-49.2-28.3-78.3
				c-27.3-39-34.6-57.9-37.3-74.4c-0.7-4.1-5.5-7.1-10.8-6.6c-5.3,0.5-9,4.3-8.4,8.5c3.5,21.8,14.6,44.1,39.5,79.7
				c2.2,3.1,4.2,6.1,6,9H312c-5.3,0-9.7,3.4-9.7,7.6s4.3,7.6,9.7,7.6h29.8c7.5,15.1,10.8,28.9,11.2,45.1c-26.6-5-49.1-15.8-66.1-25
				c-10.8-5.8-25-13.1-42.1-20.1h21.8c5.3,0,9.7-3.4,9.7-7.6s-4.3-7.6-9.7-7.6h-98.7c1.9-2.9,3.8-5.9,6-9
				c41.7-59.6,41.5-78,41.2-114.7c0-3.9-0.1-8.1-0.1-12.6h71.1c0,3.9,0,7.8-0.1,11.8c0,4.2,4.3,7.6,9.6,7.6h0.1c5.3,0,9.6-3.4,9.7-7.5
				c0-5.1,0-51.8,0-51.8c0-9.7-10.1-17.7-22.6-17.7h-64.5c-12.5,0-22.6,7.9-22.6,17.7c0,0-0.1,46.6,0,52.6
				c0.3,35.2,0.5,51.2-38.8,107.4c-20.3,29.1-28,50.3-28.3,78.3c-0.2,17.9,3.4,33.7,6.9,48.9c0.8,3.4,1.5,6.7,2.2,10
				c4.3,19.9,8,37.6,10.4,52.9c0.7,4.1,5.6,7.1,10.8,6.6c5.2-0.5,9.1-4.4,8.4-8.5c-2.2-13.5-5.3-28.8-8.9-45.7h184
				c-14.4,67.2-21.2,105.7,7.7,147.9c1.9,2.8,2.9,5.9,2.9,9.2c0,10.9-11.3,19.7-25.2,19.7H173.1c-13.9,0-25.2-8.8-25.2-19.7
				c0-3.2,1-6.4,2.9-9.2c14-20.4,20.2-40.7,20-65.6c0-4.2-4.3-7.5-9.7-7.5c0,0,0,0,0,0c-5.3,0-9.7,3.4-9.6,7.6
				c0.1,22.6-5.2,40-17.8,58.4c-3.4,5-5.2,10.6-5.2,16.3c0,19.2,20,34.9,44.5,34.9h154.8c24.6,0,44.5-15.6,44.5-34.9
				c0-5.7-1.8-11.4-5.2-16.3C341.5,423.1,347,390.8,363.3,314.8C364,311.5,347,390.8,363.3,314.8z M218.3,15.1h64.5
				c1.8,0,3.2,1.1,3.2,2.5v24.7h-71V17.7C215.1,16.3,216.5,15.1,218.3,15.1z M196.2,209c34.4,9.2,61.9,23,79.7,32.6
				c19.4,10.5,45.2,22.8,76.6,28c-1.1,11.4-3.6,22.1-6,32.6c-0.2,0.9-0.4,1.9-0.6,2.8h-40.3c-39.3-10.4-68-25.9-80.3-32.6
				c-20.7-11.2-45.8-23-76.6-28c1.3-12.2,4.6-23.4,10.6-35.3L196.2,209L196.2,209z M154.6,302.2c-3.1-13.5-6.3-27.3-6.6-42.4
				c26.1,4.8,48,15.2,66.3,25.1c8,4.3,22.5,12.2,42.2,20.1H155.2C155,304,154.8,303.1,154.6,302.2z"/>
		</g>
	</symbol>

	<symbol version="1.1" id="hello" xmlns="http://www.w3.org/2000/svg" xmlns:xlink="http://www.w3.org/1999/xlink" x="0px" y="0px"
		 viewBox="0 0 512 512" style="enable-background:new 0 0 512 512;" xml:space="preserve">
		<style type="text/css">
			
		</style>
		<g>
			<polygon class="hello1" points="50.5,495.4 50.5,471.7 44.2,495.4 	"/>
			<path class="hello1" d="M511.4,502.3c-0.2,3.5-3,6.3-6.6,6.3h-67.6c-3.5,0-6.4-2.7-6.6-6.2c-0.1-1.1-4.8-89.1-15.8-153.4
				c-5,31.3-12,77.1-14.7,106.5c-0.3,2.9-2.4,5.3-5.2,5.8c-0.7,0.1-67,13.4-138.6,13.5c0,0,0,0,0,0c-0.1,0-0.2,0-0.3,0
				c-0.1,0-0.2,0-0.3,0c0,0,0,0,0,0c-71.6-0.1-137.9-13.3-138.6-13.5c-2.8-0.6-5-2.9-5.2-5.8c-2.7-29.4-9.6-75.1-14.7-106.5
				c-11,64.3-15.8,152.3-15.8,153.4c-0.2,3.5-3.1,6.2-6.6,6.2H7.1c-3.5,0-6.4-2.8-6.6-6.3c-4.4-96.7,17.7-195.6,17.9-196.6
				c34.6-160.5,81.8-226.5,83.8-229.3l0,0c0.7-1,1.7-1.7,2.8-2.2l71.5-29.6l1.1-4.9c0.3-1.4,1.1-2.6,2.1-3.5L216.4,5l0,0
				c1.1-1,2.6-1.6,4.2-1.6h70.7c1.6,0,3.1,0.6,4.2,1.6l0,0l36.5,31.1c1.1,0.9,1.8,2.2,2.1,3.5l1.1,4.9l71.5,29.7
				c1.1,0.5,2.1,1.2,2.8,2.2l0,0c2,2.7,49.3,68.8,83.9,229.3C493.7,306.7,515.9,405.5,511.4,502.3z"/>
			<path class="hello1" d="M196,129.1c0.4,3.3,1,7.6,1.7,12.8l11.5-13.4L196,129.1z"/>
			<path class="hello1" d="M118.6,110.8c-3.1-9.7-6.9-16.1-9.9-20C96.2,111.1,59.3,179,31.4,308.5c-0.2,1-21.1,94-17.9,186.9h17.1
				l20.2-75.2c0.9-3.2,3.9-5.2,7.2-4.8c3.3,0.4,5.7,3.2,5.7,6.5v73.5h4.9c1.6-26.5,8.4-128.7,23-183.7c0,0,0,0,0,0l24-90.6
				C129,163.8,124.6,129.5,118.6,110.8z"/>
			<path class="hello1" d="M189.5,178.8l-8.6-7c-1.4-1.1-2.2-2.7-2.4-4.5c-0.2-1.8,0.4-3.5,1.6-4.9l6.2-7.3c-1.5-11.3-2.7-20.1-3.5-25.5
				l-17.1,0.8c-2,0.1-4-0.8-5.3-2.3c-1.3-1.6-1.8-3.7-1.4-5.7l14-62.2L119,82.7c11.4,15.1,29.7,54.5,9.3,141.4
				c0,0.1-23.7,89.5-23.7,89.5c1.1,6.3,5.6,32.8,10.2,63l36.7-106.2c1.2-3.4,4.9-5.2,8.4-4.1c3.4,1.2,5.2,4.9,4.1,8.3l-45,130.2
				c0.7,5.1,1.4,10.1,2.1,15.1c12.8,1.9,50.7,7.1,101.1,9C214.5,365.2,199.4,251.8,189.5,178.8z"/>
			<path class="hello1" d="M122.7,433.5c0.7,5.5,1.3,10.8,1.8,15.8c13.5,2.5,53.9,9.2,101.1,11.5c-0.5-5.1-1.2-11.4-2-18.6
				C175.7,440.5,138.7,435.8,122.7,433.5z"/>
			<path class="hello1" d="M227,209.3l-22.6-18.4c2.1,15.8,4.5,33.1,6.8,51C215.5,233.3,221,222.1,227,209.3z"/>
			<path class="hello1" d="M227.2,239.3l90.3-73.4l-34.7-40.3c-1.7-2-2.1-4.8-0.9-7.2c1.1-2.4,3.6-3.8,6.2-3.7l50.1,2.3l-16.3-72.2
				l-18.6-15.9c0,20.1-8.3,55.9-36.1,122.5C265.6,155.4,231.2,231,227.2,239.3z"/>
			<path class="hello1" d="M230.1,118.3c1.1,2.4,0.8,5.2-0.9,7.2l-34.7,40.3l38.3,31.1c5.2-11.3,10.7-23.4,16.1-35.9
				C217.7,88.3,208.6,50,208.6,28.9l-18.5,15.8l-16.3,72.2l50.1-2.3C226.5,114.5,228.9,116,230.1,118.3z"/>
			<path class="hello1" d="M288,16.6h-64c-3.9,7.6-6.7,34.5,32,127.7C294.7,51,291.8,24.1,288,16.6z"/>
			<path class="hello1" d="M403.4,90.9c-9,12.1-26.2,47.8-6.9,130.2l24,90.6c0,0,0,0,0,0c14.5,55,21.4,157.2,23,183.7h4.9v-73.5
				c0-3.3,2.4-6.1,5.7-6.5c3.3-0.4,6.3,1.6,7.2,4.8l20.2,75.2h17.1c3.2-92.9-17.7-185.9-17.9-186.8
				C452.8,179.1,415.9,111.2,403.4,90.9z"/>
			<polygon class="hello1" points="461.5,495.4 467.8,495.4 461.5,471.7 	"/>
			<path class="hello1" d="M236.8,442.6c0.8,7.3,1.5,13.6,2,18.7c5.7,0.2,11.4,0.3,17.2,0.3c59.5,0,115.3-9.3,131.6-12.3
				c0.5-4.9,1.1-10.2,1.7-15.7c-44.6,6.9-88.8,9.3-128.4,9.3C252.7,442.9,244.6,442.8,236.8,442.6z"/>
			<path class="hello1" d="M393,82.7l-54.2-22.5l14,62.2c0.5,2-0.1,4.1-1.4,5.7c-1.3,1.6-3.3,2.5-5.3,2.3l-43.5-2l29.2,33.9
				c1.2,1.3,1.7,3.1,1.6,4.9c-0.2,1.8-1,3.4-2.4,4.5l-116.5,94.7c7.8,59.1,15.9,121.7,20.8,163c45.9,1.2,100.6-0.5,155.8-9.4
				c0.7-4.9,1.3-10,2.1-15.1l-45-130.2c-1.2-3.4,0.6-7.2,4.1-8.3c3.4-1.2,7.2,0.6,8.4,4.1l36.7,106.3c4.6-30.2,9.1-56.7,10.2-63
				c0,0-23.7-89.5-23.7-89.5C363.3,137.3,381.6,97.8,393,82.7z M339.1,380.1c0,2.6-1.6,5-4,6l-27.7,11.8c-0.8,0.4-1.7,0.5-2.6,0.5
				c-0.9,0-1.8-0.2-2.6-0.5l0,0l-27.7-11.8c-2.4-1-4-3.4-4-6v-20.3c0-3.6,2.9-6.6,6.6-6.6h55.5c3.6,0,6.6,2.9,6.6,6.6V380.1z
				 M368.9,176.6l-66.9,62.7c-1.3,1.2-2.9,1.8-4.5,1.8c-1.8,0-3.5-0.7-4.8-2.1c-2.5-2.6-2.3-6.8,0.3-9.3l66.9-62.7
				c2.6-2.5,6.8-2.3,9.3,0.3C371.7,170,371.5,174.1,368.9,176.6z"/>
			<polygon class="hello1" points="283.7,375.8 304.8,384.7 326,375.8 326,375.8 326,366.4 283.7,366.4 	"/>
		</g>
	</symbol>

	<symbol version="1.1" id="cloud" xmlns="http://www.w3.org/2000/svg" xmlns:xlink="http://www.w3.org/1999/xlink" x="0px" y="0px"
		 viewBox="0 0 512 512" style="enable-background:new 0 0 512 512;" xml:space="preserve">
		<g>
			<path class="cloud1" d="M457,106.6h-20.8c1.2-3.4,1.8-7,1.8-10.8c0-18.7-15.6-33.8-34.9-33.8c-14.9,0-27.5,9-32.6,21.7
				c-9.4-4-20.8-2.3-28.5,5.2c-5,4.9-7.5,11.3-7.5,17.7h-3.5c-11.1,0-20.1,8.7-20.1,19.5s9,19.5,20.1,19.5c0,0,73.2,0,125.9,0.1
				c11.1,0,20.2-8.8,20.2-19.6C477.2,115.4,468.2,106.6,457,106.6z"/>
			<path class="cloud2" d="M477.2,126.2c0,10.8-9,19.6-20.2,19.6c-2.2,0-4.4,0-6.6,0c0.3-1.2,0.4-2.5,0.4-3.8c0-5.4-2.3-10.3-5.9-13.8
				c-3.7-3.5-8.7-5.7-14.3-5.7h-20.8c1.2-3.4,1.8-7,1.8-10.8c0-18.7-15.6-33.8-34.9-33.8c-1.1,0-2.1,0.1-3.2,0.1
				c6.1-9.6,17.1-15.9,29.6-15.9c19.3,0,34.9,15.1,34.9,33.8c0,3.8-0.6,7.4-1.8,10.8H457c5.6,0,10.6,2.2,14.3,5.7
				C474.9,115.9,477.2,120.8,477.2,126.2z"/>
			<path class="cloud3" d="M41.4,144c2.5-40.6,37.3-72.7,79.7-72.7c34.3,0,63.5,20.9,74.8,50.3c27.9,0.3,50.7,21.2,53.1,47.8h44.4
				c-1.7-14.7,6.1-29.5,20.5-36.4c17.4-8.4,38.3-2.4,48.3,13.4c5.9-3.8,13-6.1,20.7-6.1c18.1,0,33.2,12.5,36.6,29.1H436
				c16.1,0,29.2,12.7,29.2,28.3c0,15.6-13.1,28.3-29.2,28.3c0,0-380.2,0.3-393.1,0.3c-23.4,0-42.4-18.4-42.4-41.1
				C0.5,162.8,18.7,144.7,41.4,144z"/>
			<path class="cloud4" d="M0.5,185.1c0,22.7,19,41.1,42.4,41.1c1.8,0,10.5,0,24.3,0c0-0.6-0.1-1.2-0.1-1.9c0-22.2,18.2-40.3,40.9-41.1
				c2.5-40.6,37.3-72.7,79.7-72.7c0.9,0,1.9,0,2.8,0c-13.7-23.5-39.7-39.3-69.5-39.3c-42.5,0-77.2,32.2-79.7,72.7
				C18.7,144.7,0.5,162.8,0.5,185.1z"/>
			<path class="cloud3" d="M84.4,148.4c-0.2,0-0.3,0-0.5,0c-4.3-0.3-7.5-3.9-7.2-8.2c1.3-21.2,19.5-37.9,41.3-37.9c4.3,0,7.7,3.5,7.7,7.7
				c0,4.3-3.5,7.7-7.7,7.7c-13.7,0-25.1,10.3-25.9,23.4C91.9,145.3,88.5,148.4,84.4,148.4z"/>
			<path class="cloud5" d="M469.9,201.6c-2.3-36.9-33.8-66.1-72.4-66.1c-31.1,0-57.7,19-68,45.7c-25.4,0.3-46.1,19.3-48.2,43.4H241
				c1.5-13.3-5.5-26.8-18.6-33.1c-15.8-7.6-34.8-2.1-43.9,12.2c-5.4-3.5-11.8-5.5-18.8-5.5c-16.4,0-30.1,11.4-33.2,26.4h-14.9
				c-14.6,0-26.5,11.5-26.5,25.7s11.9,25.7,26.5,25.7c0,0,345.5,0.2,357.1,0.2c21.3,0,38.5-16.7,38.5-37.4
				C507.1,218.7,490.6,202.3,469.9,201.6z"/>
			<path class="cloud6" d="M507.1,238.9c0,20.6-17.3,37.4-38.5,37.4c-1.6,0-9.6,0-22.1,0c0-0.6,0.1-1.1,0.1-1.7
				c0-20.2-16.5-36.7-37.2-37.3c-2.3-36.9-33.9-66.1-72.4-66.1c-0.9,0-1.7,0-2.6,0c12.5-21.3,36.1-35.7,63.1-35.7
				c38.6,0,70.1,29.2,72.4,66.1C490.6,202.3,507.1,218.7,507.1,238.9z"/>
			<path class="cloud5" d="M430.9,206.3c-4.1,0-7.4-3.1-7.7-7.2c-0.7-11.5-10.8-20.6-22.8-20.6c-4.3,0-7.7-3.5-7.7-7.7s3.5-7.7,7.7-7.7
				c20.2,0,37,15.4,38.3,35.1c0.3,4.3-3,7.9-7.2,8.2C431.2,206.3,431,206.3,430.9,206.3z"/>
			<path class="cloud2" d="M166.4,267.6c-1.6-17.8-16.8-31.8-35.5-32c-7.6-19.7-27.2-33.7-50.1-33.7c-28.4,0-51.7,21.5-53.4,48.7
				C12.2,251.1,0,263.2,0,278.1c0,15.2,12.7,27.5,28.4,27.5c8.6,0,464.1-0.2,464.1-0.2c10.8,0,19.5-8.5,19.5-18.9s-8.7-18.9-19.5-18.9
				h-30.3c0.1-1.3,0.2-2.6,0.2-3.9c0-22.7-19-41.1-42.4-41.1c-19.1,0-35.2,12.2-40.5,29c-3.8-2.3-8.2-3.5-13-3.5
				c-12.1,0-22.2,8.4-24.5,19.5H166.4z"/>
			<path class="cloud3" d="M512,286.5c0,10.5-8.7,18.9-19.5,18.9c0,0-2.4,0-6.7,0v-0.1c0-5.2-2.2-10-5.7-13.4c-3.5-3.4-8.4-5.5-13.8-5.5
				h-30.3c0.1-1.3,0.2-2.6,0.2-3.9c0-22.7-19-41.1-42.4-41.1c-3.5,0-6.9,0.4-10.1,1.2c7.4-12,20.9-20.1,36.4-20.1
				c23.4,0,42.4,18.4,42.4,41.1c0,1.3-0.1,2.6-0.2,3.8h30.3c5.4,0,10.3,2.1,13.8,5.5C509.8,276.5,512,281.3,512,286.5z"/>
			<path class="cloud5" d="M149.1,287.2c10.1,0,19.2,4.2,25.7,10.8c6.5-15.5,21.5-26.5,39.2-27.2c2.6-43.6,38.8-78.1,83-78.1
				c35.7,0,66.1,22.5,77.9,54c26.4,0.3,48.5,18.9,54.1,43.7c4.6-2.1,9.7-3.3,15-3.3c19.9,0,36,16.1,36,36s-16.1,36-36,36
				c-12.6,0-281.8,0-295,0c-19.9,0-36-16.1-36-36S129.3,287.2,149.1,287.2z"/>
			<path class="cloud6" d="M480.1,323.2c0,18.7-14.3,34.1-32.5,35.8c1.6-4.1,2.5-8.6,2.5-13.2c0-19.9-16.1-36-36-36
				c-5.4,0-10.4,1.2-15,3.3c-5.6-24.8-27.7-43.4-54.1-43.7c-11.8-31.5-42.2-54-77.9-54c-12,0-23.4,2.5-33.8,7.1
				c15.3-18.2,38.2-29.7,63.7-29.7c35.7,0,66.1,22.4,77.9,54c26.4,0.3,48.5,18.9,54.1,43.7c4.6-2.1,9.7-3.3,15-3.3
				C464,287.2,480.1,303.3,480.1,323.2z"/>
			<path class="cloud3" d="M492.5,355.6h-23.2c-2.5-10.9-12.4-19-24.4-19c-2.2,0-4.3,0.3-6.3,0.8c-6-15.6-21.5-26.8-39.7-26.8
				c-20,0-36.7,13.4-41.2,31.4c-2.5-1.5-5.5-2.4-8.7-2.4c-9.1,0-16.5,7.1-16.6,15.9h-64.1c-4-8.2-12.6-13.8-22.6-13.8
				c-6.3,0-12.1,2.3-16.5,6.1c-2-16.4-16.4-29.2-33.9-29.2c-15.6,0-28.7,10.1-32.8,24c-5.9-11.2-17.9-18.9-31.7-19.1
				C123.2,304,103.7,290,80.8,290c-28.4,0-51.7,21.5-53.4,48.7C12.2,339.2,0,351.3,0,366.2c0,15.2,12.7,27.5,28.4,27.5
				c8.6,0,464.1-0.2,464.1-0.2c10.8,0,19.5-8.5,19.5-18.9C512,364.1,503.3,355.6,492.5,355.6z"/>
			<path class="cloud4" d="M512,374.6c0,10.5-8.7,18.9-19.5,18.9c0,0-5.8,0-16.2,0c0-0.1,0-0.2,0-0.3c0-5.2-2.2-10-5.7-13.4
				c-3.5-3.4-8.4-5.5-13.8-5.5h-23.2c-2.5-10.9-12.5-19-24.4-19c-2.2,0-4.3,0.3-6.3,0.8c-6-15.6-21.4-26.7-39.5-26.8
				c7.6-11.2,20.6-18.7,35.5-18.7c18.2,0,33.7,11.1,39.7,26.8c2-0.5,4.1-0.8,6.3-0.8c11.9,0,21.9,8.1,24.4,19h23.2
				c5.4,0,10.3,2.1,13.8,5.5C509.8,364.6,512,369.4,512,374.6z"/>
		</g>
	</symbol>

	<symbol version="1.1" id="time" xmlns="http://www.w3.org/2000/svg" xmlns:xlink="http://www.w3.org/1999/xlink" x="0px" y="0px"
		 viewBox="0 0 512 512" style="enable-background:new 0 0 512 512;" xml:space="preserve">
		<g>
			<g>
				<path class="time1" d="M70.7,10h383.8c11.1,0,20.2,9.1,20.2,20.2v411c0,11.1-9.1,20.2-20.2,20.2h-13.2V70.8
					c0-11.1-9.1-20.2-20.2-20.2H37.3L70.7,10z"/>
				<path class="time2" d="M37.3,50.6h383.8c11.1,0,20.2,9.1,20.2,20.2v411c0,11.1-9.1,20.2-20.2,20.2H37.3V50.6z"/>
				<g>
					<path d="M391.6,502H102.1c0-41.1,33.6-114.5,74.6-114.5h140.2C358,387.5,391.6,460.9,391.6,502z"/>
					<path d="M246.8,387.5c39.4,0,71.5-32.1,71.5-71.5c0-39.4-32.1-71.5-71.5-71.5s-71.5,32.1-71.5,71.5
						C175.3,355.4,207.5,387.5,246.8,387.5z"/>
				</g>
				<polygon class="time1" points="87,322.8 150,354.2 150,354.2 87,385.7 		"/>
			</g>
			<path class="time3" d="M454.5,0H413c-5.5,0-10,4.5-10,10c0,5.5,4.5,10,10,10h41.4c5.6,0,10.2,4.6,10.2,10.2v411
				c0,5.6-4.6,10.2-10.2,10.2h-3.2V70.8c0-16.7-13.5-30.2-30.2-30.2H58.5L75.4,20h258.6c5.5,0,10-4.5,10-10c0-5.5-4.5-10-10-10H70.7
				c0,0,0,0,0,0c-0.3,0-0.7,0-1,0c-0.2,0-0.4,0.1-0.5,0.1c-0.1,0-0.3,0-0.4,0.1c-0.2,0-0.4,0.1-0.6,0.1c-0.1,0-0.3,0.1-0.4,0.1
				c-0.2,0.1-0.4,0.1-0.5,0.2c-0.1,0-0.3,0.1-0.4,0.1c-0.2,0.1-0.3,0.1-0.4,0.2C66.3,1,66.2,1.1,66,1.2c-0.1,0.1-0.2,0.1-0.4,0.2
				c-0.2,0.1-0.3,0.2-0.5,0.3c-0.1,0.1-0.2,0.1-0.3,0.2c-0.2,0.1-0.3,0.2-0.5,0.4c-0.1,0.1-0.2,0.2-0.3,0.3c-0.1,0.1-0.3,0.2-0.4,0.4
				c-0.2,0.2-0.5,0.5-0.7,0.7l0,0L29.6,44.2l0,0l0,0c0,0,0,0,0,0c-0.2,0.2-0.4,0.5-0.6,0.8c-0.1,0.1-0.1,0.2-0.2,0.3
				c-0.1,0.2-0.2,0.3-0.3,0.5c-0.1,0.1-0.1,0.3-0.2,0.4c-0.1,0.2-0.2,0.3-0.2,0.5C28,46.9,28,47,27.9,47.2c-0.1,0.2-0.1,0.3-0.2,0.5
				c-0.1,0.2-0.1,0.3-0.1,0.5c0,0.1-0.1,0.3-0.1,0.4c0,0.2-0.1,0.4-0.1,0.6c0,0.1,0,0.2,0,0.3c0,0.3-0.1,0.7,0,1V502
				c0,5.5,4.5,10,10,10l106.2,0c0,0,0,0,0,0l0,0c5.5,0,10-4.5,10-10c0-5.5-4.5-10-10-10h-30.8c4.6-38.8,34-94.5,64-94.5h140.2
				c30,0,59.4,55.6,64,94.5H222.5c-5.5,0-10,4.5-10,10s4.5,10,10,10l198.6,0c0,0,0,0,0,0l0,0c16.7,0,30.2-13.5,30.2-30.2v-10.4h3.2
				c16.7,0,30.2-13.5,30.2-30.2V30.2C484.7,13.5,471.1,0,454.5,0z M185.3,316c0-33.9,27.6-61.5,61.5-61.5s61.5,27.6,61.5,61.5
				c0,33.9-27.6,61.5-61.5,61.5S185.3,350,185.3,316z M431.3,481.8c0,5.6-4.6,10.2-10.2,10.2H401c-2.1-21.1-10.6-46.5-22.7-67.6
				c-17.4-30.2-39.2-46.8-61.4-46.8h-16.7c17.2-15,28.1-37,28.1-61.5c0-44.9-36.6-81.5-81.5-81.5c-44.9,0-81.5,36.6-81.5,81.5
				c0,24.5,10.9,46.6,28.1,61.5h-16.7c-22.2,0-44,16.6-61.4,46.8c-12.1,21.1-20.6,46.5-22.7,67.6H47.3V60.6h373.8
				c5.6,0,10.2,4.6,10.2,10.2V481.8z"/>
			<path class="time4" d="M363.2,20h0.5c5.5,0,10-4.5,10-10c0-5.5-4.5-10-10-10h-0.5c-5.5,0-10,4.5-10,10C353.2,15.5,357.6,20,363.2,20z
				"/>
			<path class="time4" d="M173.1,492h-0.5c-5.5,0-10,4.5-10,10s4.5,10,10,10h0.5c5.5,0,10-4.5,10-10C183.1,496.5,178.6,492,173.1,492z"
				/>
			<text transform="matrix(1 0 0 1 96 157)" class="time3 time5 time6">T I M E</text>
		</g>
	</symbol>

</svg>