<?xml version="1.0" encoding="utf-8"?>
<!-- Generator: Adobe Illustrator 23.0.2, SVG Export Plug-In . SVG Version: 6.00 Build 0)  -->
<svg version="1.1" id="Layer_1" xmlns="http://www.w3.org/2000/svg" xmlns:xlink="http://www.w3.org/1999/xlink" x="0px" y="0px"
	 viewBox="0 0 1366 768" style="enable-background:new 0 0 1366 768;" xml:space="preserve">
<style type="text/css">
	.st0{stroke:#000000;stroke-width:3;stroke-miterlimit:10;}
	.st1{fill:#FFFFFF;stroke:#FFFFFF;stroke-width:3;stroke-miterlimit:10;}
</style>
<image style="display:none;overflow:visible;" width="400" height="400" xlink:href="19D3CFB9.jpg"  transform="matrix(3.415 0 0 3.415 0 -282)">
</image>
<g>
	<path class="st0" d="M604,499h-9v-17l-16,17l-16-17h-27l-22,9h-21h-19l-16,8v-8h-12l-10,8l6-17l-16,3l-29,11l17-18l-14,3l-29,16
		l8-13l-31-1l-28,19l3-17l-43-1l-38-16l-33-31l-2-9l31,22c0,0,35,6,36,6s52-16,52-16l-1-8l-40,10l-36,2l-32-16l-27-16l-3-22l30,27
		l44,14l35-5c0,0-49-15-51-15s-41-21-41-21l-28-23l55,25c0,0-63-56-64-56s9-2,8-2s26,22,26,22l4-9l21-1l-28-20l6-4l29,14l10,1
		l-18-20l22,10l30,13l-29-27l60,27l-34-31l72,28l-53-36l74,30l-45-40l59,34c0,0,21,1,17,1s-32-27-32-27l37,21l16,1l-23-22l36,21
		l10,2l-21-27l33,27l9,2l-5-37l12,41l14,4l3-36v39l8,3l6-32l4,36l9,8l-2-43l11,48l13,10l5-37l5,45l25,37l25,38l6,20l-13-5h-5l5,9
		c0,0,13,7,13,9s6,9,6,9L604,499z"/>
	<path class="st0" d="M598.5,431.5l-68-83l-68.7-33.1l-67.3-8.9l-70,4l31-12h66l38.9,6.1l91.1,46.9l-79-49l-40-10l-72-2l-70,11
		l-65,25l51-29l55-13h56l-84-7l-56,6l28-17l23-3l43,2l62,13l53,8l47,24l27,17l24,18l44,36l7,13c0,0-7,2-8,3s17,22,17,22l-7,4l11,15
		l-15-10L598.5,431.5z"/>
	<path class="st1" d="M454.5,383.5l-17,6c0,0-7,7-6,11s0,18,0,18l11,11h16l12-5c0,0,4-15,4-16s-4-14-4-14l-10-11H454.5z"/>
	<path class="st1" d="M338.5,422.5v-14l20-14l17-11l16-3l32,14l18-14l14-3l17,6h20l2-15l31,9l28,52c0,0,25,37,23,39s-14,6-14,6h-94
		l41-36l4-40l-15-25l-3,10l-6,5l-15-2l-17-5l-13,2l-13,7l-6,7l-32-11l-6,24l2,23l11,15l14,11l9,6l-9,3l-51-19l-27-27"/>
	<polygon class="st0" points="1151,234 1124,208 1066,202 1017,218 973.5,248.5 935.5,311.5 913.5,400.5 901.5,453.5 901.5,462.5 
		918.5,484.5 943.5,505.5 969.5,394.5 988.5,315.5 1015.5,254.5 1030.5,226.5 1053.5,212.5 1093.5,212.5 1138.5,245.5 1148.5,249.5 
		1154.5,243.5 	"/>
	<polygon class="st0" points="1062.5,290.5 1074.5,353.5 1068.5,356.5 1062.5,326.5 1044.5,302.5 1020.5,290.5 1008.5,290.5 
		1008.5,281.5 1059.5,290.5 	"/>
	<polygon class="st0" points="935.5,286.5 875.5,319.5 837.5,371.5 828.5,433.5 849.5,481.5 881.5,513.5 924.5,536.5 970.5,544.5 
		1015.5,536.5 1057.5,517.5 1078.5,486.5 1041.5,514.5 1012.5,521.5 964.5,519.5 933.5,510.5 888.5,471.5 879.5,429.5 880.5,377.5 
		898.5,336.5 932.5,306.5 	"/>
	<polygon class="st0" points="881.5,526.5 871.5,557.5 849.5,583.5 817.5,589.5 790.5,596.5 1172.5,599.5 1195.5,579.5 
		1195.5,554.5 1176.5,549.5 1158.5,570.5 1138.5,592.5 1110.5,592.5 1074.5,581.5 1021.5,569.5 992.5,569.5 962.5,578.5 
		940.5,576.5 935.5,571.5 932.5,547.5 907.5,537.5 	"/>
</g>
</svg>
