<?xml version="1.0" encoding="utf-8"?>
<!-- Generator: Adobe Illustrator 23.0.2, SVG Export Plug-In . SVG Version: 6.00 Build 0)  -->
<svg version="1.1" id="Capa_1" xmlns="http://www.w3.org/2000/svg" xmlns:xlink="http://www.w3.org/1999/xlink" x="0px" y="0px"
	 viewBox="0 0 512 512" style="enable-background:new 0 0 512 512;" xml:space="preserve">
<style type="text/css">
	.st0{fill:#39C89F;}
	.st1{fill:#72EFA7;}
	.st2{fill:#38821F;}
	.st3{fill:#E6E6E6;}
	.st4{fill:#4ED6AD;}
</style>
<g>
	<g>
		<path class="st0" d="M99.3,282.1V61.8c0-14.2,8.7-27,21.9-32.3l0,0c11-4.4,19.9-17.6,19.9-29.4V0l0,0H256h114.9l0,0v0.1
			c0,11.8,9,25,19.9,29.4l0,0c13.2,5.3,21.9,18.1,21.9,32.3v220.3v-52.2v220.3c0,14.2-8.7,27-21.9,32.3l0,0
			c-11,4.4-19.9,17.6-19.9,29.4v0.1l0,0H256H141.1l0,0v-0.1c0-11.8-9-25-19.9-29.4l0,0c-13.2-5.3-21.9-18.1-21.9-32.3V229.9"/>
		<path class="st1" d="M193.3,73.1h-52.2c-5.8,0-10.4-4.7-10.4-10.4s4.7-10.4,10.4-10.4h52.2c5.8,0,10.4,4.7,10.4,10.4
			S199.1,73.1,193.3,73.1z"/>
		<path class="st1" d="M370.9,73.1H235.1c-5.8,0-10.4-4.7-10.4-10.4s4.7-10.4,10.4-10.4h135.8c5.8,0,10.4,4.7,10.4,10.4
			S376.7,73.1,370.9,73.1z"/>
		<path class="st2" d="M193.3,470.2h-52.2c-5.8,0-10.4-4.7-10.4-10.4s4.7-10.4,10.4-10.4h52.2c5.8,0,10.4,4.7,10.4,10.4
			S199.1,470.2,193.3,470.2z"/>
		<path class="st2" d="M370.9,470.2H235.1c-5.8,0-10.4-4.7-10.4-10.4s4.7-10.4,10.4-10.4h135.8c5.8,0,10.4,4.7,10.4,10.4
			S376.7,470.2,370.9,470.2z"/>
		<polygon class="st3" points="412.7,334.4 99.3,438.9 99.3,209 412.7,104.5 		"/>
		<polygon class="st4" points="412.7,292.6 99.3,397.1 99.3,250.8 412.7,146.3 		"/>
	</g>
</g>
</svg>
