<?xml version="1.0" encoding="utf-8"?>
<!-- Generator: Adobe Illustrator 23.0.2, SVG Export Plug-In . SVG Version: 6.00 Build 0)  -->
<svg version="1.1" id="Layer_1" xmlns="http://www.w3.org/2000/svg" xmlns:xlink="http://www.w3.org/1999/xlink" x="0px" y="0px"
	 viewBox="0 0 512 512" style="enable-background:new 0 0 512 512;" xml:space="preserve">
<style type="text/css">
	.st0{fill:#FF9F00;}
	.st1{fill:#FF7816;}
	.st2{fill:#FF4B00;}
	.st3{fill:#CC1E0D;}
	.st4{fill:#FDBF00;}
</style>
<path class="st0" d="M91,361v90h330v-90H91z"/>
<path class="st1" d="M256,361h165v90H256V361z"/>
<path class="st2" d="M422.5,230.2l-24.3,47.4H113.8l-24.3-47.4C125.2,180.7,187.3,151,256,151S386.8,180.7,422.5,230.2z"/>
<path class="st3" d="M422.5,230.2l-24.3,47.4H256V151C324.7,151,386.8,180.7,422.5,230.2z"/>
<path class="st4" d="M477.1,200.2L421,391H91L34.9,200.2l37.8-14.4c17.1,32.7,49.8,51.9,76.5,55.2h15.6
	c34.5-5.4,60.3-58.2,70.8-108.6h40.8c10.5,50.4,36.3,103.2,70.8,108.6h15.6c26.7-3.3,59.4-22.5,76.5-55.2L477.1,200.2z"/>
<path class="st0" d="M477.1,200.2L421,391H256V132.4h20.4c10.5,50.4,36.3,103.2,70.8,108.6h15.6c26.7-3.3,59.4-22.5,76.5-55.2
	L477.1,200.2z"/>
<path class="st0" d="M46,211c-24.8,0-46-20.2-46-45s21.2-45,46-45s45,20.2,45,45S70.8,211,46,211z"/>
<path class="st1" d="M466,211c-24.8,0-45-20.2-45-45s20.2-45,45-45s46,20.2,46,45S490.8,211,466,211z"/>
<path class="st0" d="M256,61c-24.9,0-45,20.1-45,45c0,24.9,20.1,45,45,45s45-20.1,45-45C301,81.1,280.9,61,256,61z"/>
<path class="st2" d="M256,234.7L204.7,286l51.3,51.3l51.3-51.3L256,234.7z"/>
<path class="st3" d="M346,294.8l21.2,21.2L346,337.2L324.8,316L346,294.8z"/>
<path class="st2" d="M166,294.8l21.2,21.2L166,337.2L144.8,316L166,294.8z"/>
<path class="st1" d="M256,151V61c24.9,0,45,20.1,45,45C301,130.9,280.9,151,256,151z"/>
<path class="st3" d="M307.3,286L256,337.3V234.7L307.3,286z"/>
</svg>
