<?xml version="1.0" encoding="utf-8"?>
<!-- Generator: Adobe Illustrator 23.0.2, SVG Export Plug-In . SVG Version: 6.00 Build 0)  -->
<svg version="1.1" id="Layer_1" xmlns="http://www.w3.org/2000/svg" xmlns:xlink="http://www.w3.org/1999/xlink" x="0px" y="0px"
	 viewBox="0 0 385 385" style="enable-background:new 0 0 385 385;" xml:space="preserve">
<style type="text/css">
	.st0{fill:#3A484A;}
	.st1{fill:#59636D;}
	.st2{fill:#2C363E;}
	.st3{fill:#F9B347;}
	.st4{fill:#F9EF8B;}
	.st5{fill:#F9DB5F;}
	.st6{fill:#57D0E6;}
	.st7{fill:#94E4FB;}
	.st8{fill:#47A7D5;}
	.st9{fill:#16131B;}
</style>
<g>
	<path class="st0" d="M303.9,74.9v23.5c-5.7-2-11.7-3.2-17.8-3.6l-5.3-0.4c-29.6-2-59.1-3.1-88.7-3.1c-31.3,0-62.7,1.2-94,3.5
		c-38.6,2.8-68.7,36.6-68.9,77.5V132c0-68.5,55.5-124,124-124H237c32.9,0,60.9,23.8,66.1,56.3C303.6,67.8,303.9,71.3,303.9,74.9z"/>
	<path class="st1" d="M303.1,64.3C297.8,31.8,269.8,8,237,8h-31.8C238,8,266,31.8,271.2,64.3c0.6,3.5,0.8,7,0.8,10.6v19
		c2.9,0.2,5.8,0.3,8.8,0.5l5.3,0.4c6.1,0.4,12,1.7,17.8,3.6V74.9C303.9,71.3,303.6,67.8,303.1,64.3z"/>
	<path class="st2" d="M200.1,8h-46.9c-68.5,0-124,55.5-124,124v40.3c-0.3-33.1,20.4-62.8,51.5-74C95.8,44.9,144.6,8,200.1,8z"/>
	<path class="st0" d="M355,102.8v69.9c0.5-33.1-20-62.9-51.1-74.3V74.9c0-3.5-0.3-7.1-0.8-10.6h13.5C337.8,64.3,355,81.5,355,102.8z
		"/>
	<path class="st1" d="M316.5,64.3h-13.5c0.1,0.4,0.1,0.9,0.2,1.3c16.9,4.5,28.6,19.7,28.6,37.2V116c14.9,15.1,23.3,35.5,23.2,56.7
		v-69.9C355,81.5,337.8,64.3,316.5,64.3z"/>
	<path class="st3" d="M62,236.2V269h-3.3c-16.3,0-29.5-13.2-29.5-29.5v-28.2c0-4,1.7-7.8,4.8-10.4c4.9,14.5,14.6,26.8,27.5,35
		C61.7,236,61.9,236.1,62,236.2z"/>
	<path class="st4" d="M355.5,211.3v28.2c0,16.3-13.2,29.5-29.5,29.5h-3.3v-33.1c13-8.3,22.7-20.7,27.7-35.3
		C353.6,203.2,355.5,207.1,355.5,211.3z"/>
	<path class="st5" d="M322.7,235.9v22.7c0,65.4-53,118.4-118.4,118.4H180c-65.4,0-118.4-53-118.4-118.4v-22.7
		c11.3,7,24.6,10.2,37.8,9.2c38.9-2.9,68.8-21.8,92.7-21.8s53.8,18.9,92.7,21.8C298.1,246.1,311.4,242.9,322.7,235.9z"/>
	<path class="st4" d="M290.3,245.2v13.3c0,63.8-50.6,116.2-114.4,118.3c1.3,0,2.7,0.1,4,0.1h24.3c65.4,0,118.4-53,118.4-118.4v-22.7
		C313,241.9,301.8,245.2,290.3,245.2z"/>
	<path class="st3" d="M93.1,258.6v-13.4C82,245,71,241.8,61.6,235.9v22.7C61.6,324,114.6,377,180,377h24.3c1.2,0,2.4-0.1,3.6-0.1
		C143.9,374.9,93.1,322.5,93.1,258.6z"/>
	<path class="st6" d="M355,172.7c0,2.6-0.1,5.3-0.4,7.8c-0.6,6.9-2,13.6-4.3,20.1c-4.9,14.6-14.7,27-27.7,35.3
		c-11.3,7-24.6,10.2-37.8,9.2c-38.9-2.9-68.8-21.8-92.7-21.8s-53.8,18.9-92.7,21.8c-13.1,1.1-26.1-2-37.3-8.9
		c-0.2-0.1-0.3-0.2-0.5-0.3c-12.9-8.2-22.6-20.5-27.5-35c-3.2-9.1-4.9-18.6-4.8-28.3v-0.4c0.2-40.9,30.3-74.7,68.9-77.5
		c31.3-2.3,62.6-3.4,94-3.5c29.6,0,59.2,1.1,88.7,3.1l5.3,0.4c6.1,0.4,12,1.7,17.8,3.6C335,109.7,355.5,139.5,355,172.7z"/>
	<path class="st7" d="M303.9,98.4c-5.7-2-11.7-3.2-17.8-3.6l-5.3-0.4c-29.6-2-59.1-3.1-88.7-3.1c-6.8,0-13.6,0.1-20.5,0.2
		c22.5,0.4,44.9,1.4,67.4,2.9l5.3,0.4c6.1,0.4,12,1.7,17.8,3.6c31.1,11.3,51.6,41.2,51.1,74.3c0,2.6-0.1,5.3-0.4,7.8
		c-0.6,6.9-2,13.6-4.3,20.1c-4.9,14.6-14.7,27-27.7,35.3c-4.5,2.8-9.4,5-14.4,6.6c6.1,1.2,12.2,2.1,18.4,2.6
		c13.3,1.1,26.5-2.1,37.8-9.2c13-8.3,22.7-20.7,27.7-35.3c2.3-6.5,3.8-13.3,4.3-20.1c0.2-2.5,0.4-5.2,0.4-7.8
		C355.5,139.5,335,109.7,303.9,98.4z"/>
	<path class="st8" d="M103.8,236.2c-0.2-0.1-0.3-0.2-0.5-0.3c-12.9-8.2-22.6-20.5-27.5-35c-3.2-9.1-4.9-18.6-4.8-28.3v-0.4
		c0.2-40.9,30.3-74.7,68.9-77.5c24.5-1.8,49-2.9,73.6-3.3c-7.1-0.1-14.2-0.2-21.3-0.2c-31.3,0-62.7,1.2-94,3.5
		c-38.6,2.8-68.7,36.6-68.9,77.5v0.4c-0.1,9.6,1.5,19.2,4.8,28.3c4.9,14.5,14.6,26.8,27.5,35c0.2,0.1,0.3,0.2,0.5,0.3
		c11.2,6.8,24.3,9.9,37.3,8.9c6.2-0.5,12.3-1.4,18.4-2.6C112.9,240.9,108.2,238.8,103.8,236.2z"/>
	<path class="st9" d="M362.3,183.7c0.4-1,0.7-2.1,0.7-3.2v-77.7c0-11.1-4-21.8-11.1-30.2c-2.9-3.4-7.9-3.8-11.3-0.9
		c-3.4,2.9-3.8,7.9-0.9,11.3c4.7,5.5,7.3,12.6,7.3,19.8v18.7c-1.1-1.6-2.3-3.1-3.5-4.6c-0.2-0.3-0.4-0.5-0.7-0.8
		c-1.1-1.3-2.2-2.6-3.4-3.8c-0.5-0.6-1.1-1.1-1.6-1.6c-0.9-0.9-1.8-1.8-2.7-2.7c-0.6-0.6-1.3-1.2-2-1.7c-0.9-0.8-1.8-1.5-2.7-2.3
		c-0.7-0.6-1.4-1.1-2.2-1.6c-0.9-0.7-1.9-1.4-2.8-2c-0.7-0.5-1.5-1-2.3-1.5c-1-0.6-2-1.2-3.1-1.8c-0.8-0.4-1.5-0.9-2.3-1.3
		c-1.2-0.6-2.4-1.2-3.5-1.7c-0.7-0.3-1.4-0.7-2.1-1c-0.1-0.1-0.3-0.1-0.4-0.2v-18c0-0.9,0-1.7,0-2.6h4.7c4.4,0,8-3.6,8-8s-3.6-8-8-8
		h-7C301.2,23.1,271.2-0.2,237,0h-83.8c-10.1,0-20.1,1.1-29.9,3.4c-4.3,1-7,5.3-6,9.6c1,4.3,5.3,7,9.6,6c8.6-2,17.4-3,26.3-3H237
		c15.6,0,30.6,6.2,41.7,17.2c11.1,11,17.3,26,17.3,41.7V88c-0.9-0.2-1.8-0.3-2.7-0.4c-0.6-0.1-1.1-0.2-1.7-0.3
		c-1.6-0.2-3.2-0.4-4.8-0.5l-5.3-0.4c-29.6-2-59.6-3.1-89.3-3.1c-31.4,0-63.2,1.2-94.6,3.5c-2.4,0.2-4.8,0.5-7.2,0.9
		c-0.4,0.1-0.7,0.1-1.1,0.2c-2.2,0.4-4.5,0.9-6.6,1.5c-0.4,0.1-0.8,0.2-1.2,0.3c-2.2,0.6-4.3,1.3-6.4,2.2c-0.3,0.1-0.6,0.2-0.9,0.4
		c-2.1,0.9-4.2,1.8-6.3,2.8l-0.2,0.1c-2.1,1.1-4.1,2.2-6,3.5c-0.3,0.2-0.6,0.4-0.9,0.6c-1.9,1.2-3.7,2.5-5.5,3.8
		c-0.3,0.2-0.6,0.5-1,0.8c-1.8,1.4-3.5,2.8-5.1,4.4c-0.2,0.2-0.4,0.4-0.6,0.6c-1.7,1.6-3.3,3.2-4.8,4.9c-0.1,0.1-0.2,0.2-0.3,0.3
		c-1.5,1.7-3,3.5-4.4,5.4c-0.2,0.3-0.5,0.6-0.7,0.9c-0.2,0.3-0.4,0.5-0.6,0.8c2.3-25,12.8-48.6,29.7-67.2c3-3.3,2.8-8.3-0.5-11.3
		c-3.3-3-8.3-2.8-11.3,0.5c-22.2,24.3-34.5,56-34.4,88.9v40.7c0,8.9,1.3,17.8,3.8,26.4c-2.5,3.6-3.8,7.9-3.8,12.2v28.2
		c0,19.2,14.6,35.3,33.7,37.3c7.3,50.3,44.1,91.4,93.3,104.2c2.8,0.8,5.8,0,7.9-2c2.1-2.1,2.8-5.1,2-7.9c-0.8-2.8-3.1-4.9-5.9-5.6
		c-45.1-11.7-78-50.5-82.1-96.9v-19.7h0.1c2.1,0.8,4.2,1.4,6.3,2c0.4,0.1,0.8,0.2,1.3,0.3c2.1,0.5,4.3,1,6.5,1.3l0.3,0.1
		c2.3,0.3,4.7,0.5,7,0.6l1.2,0c0.6,0,1.2,0.1,1.7,0.1c1.8,0,3.7-0.1,5.5-0.2c19.3-2,38.3-6.5,56.5-13.3c13.8-4.6,25.6-8.5,35.6-8.5
		c10,0,21.9,4,35.6,8.5c18.2,6.8,37.2,11.3,56.5,13.2c2.4,0.2,4.7,0.2,7,0.2c0.6,0,1.3,0,1.9-0.1c1.9-0.1,3.7-0.2,5.5-0.5
		c0.5-0.1,1-0.1,1.6-0.2c2.3-0.3,4.5-0.8,6.8-1.3c0.4-0.1,0.8-0.2,1.2-0.4c1.8-0.5,3.7-1.1,5.4-1.7c0.3-0.1,0.7-0.2,1-0.3v9.9
		c-0.1,61-49.4,110.4-110.4,110.5H180c-4.4,0-8,3.6-8,8c0,4.4,3.6,8,8,8h24.3c62.7-0.1,115.9-46.1,125.1-108.2
		c19.3-1.7,34.1-17.9,34.2-37.3v-28.2c0-4.6-1.4-9-4.1-12.7C360.8,193.7,361.8,188.7,362.3,183.7z M37.2,239.5v-15.6
		c0.3,0.4,0.6,0.7,0.9,1.1c0.6,0.8,1.2,1.5,1.8,2.2c0.7,0.9,1.4,1.7,2.2,2.5c0.6,0.7,1.3,1.4,1.9,2.1c0.8,0.8,1.5,1.5,2.3,2.3
		c0.7,0.6,1.4,1.3,2.1,1.9c0.8,0.7,1.7,1.4,2.5,2.1c0.7,0.6,1.5,1.2,2.2,1.7c0.2,0.1,0.3,0.2,0.4,0.3v18.4c0,0.6,0,1.2,0,1.8
		C44,258,37.2,249.4,37.2,239.5z M232.8,224.6c-15.1-5-28.1-9.4-40.7-9.4c-12.6,0-25.6,4.3-40.7,9.4c-1.9,0.6-3.9,1.3-5.9,2
		c-15.1,5.4-30.8,9-46.8,10.5h-0.2c-4.3,0.3-8.6,0.1-12.8-0.5c-0.2,0-0.4-0.1-0.6-0.1c-1.2-0.2-2.4-0.4-3.6-0.7
		c-0.5-0.1-1.1-0.3-1.6-0.4c-0.8-0.2-1.6-0.4-2.4-0.7c-0.8-0.3-1.6-0.6-2.3-0.9c-0.5-0.2-1.1-0.4-1.6-0.6c-0.9-0.4-1.9-0.8-2.8-1.3
		c-0.3-0.2-0.7-0.3-1-0.5c-1-0.5-2-1.1-3-1.7c-0.3-0.2-0.6-0.3-1-0.5l-0.2-0.1c-1.4-0.9-2.7-1.8-4-2.8c-9.3-7.2-16.3-17-20.1-28.1
		c-2.9-8.3-4.4-17.1-4.3-25.9c0.2-36.5,27.2-67.1,61.5-69.6c31-2.3,62.4-3.4,93.4-3.5c29.3,0,58.9,1.1,88.2,3.1l5.3,0.4
		c1.5,0.1,2.9,0.3,4.4,0.5c3.9,0.5,7.7,1.5,11.3,2.7c27.9,10.2,46.3,37,45.7,66.7c0,2.4-0.1,4.8-0.3,7.1c-0.5,6.2-1.8,12.3-3.9,18.2
		c-4.3,12.8-12.9,23.8-24.3,31.2c-9.9,6.1-21.4,8.9-33,8C267.4,235.1,249.7,230.9,232.8,224.6z M347.5,239.5c0,10.1-7,18.8-16.8,21
		v-20.3c0.2-0.2,0.5-0.4,0.7-0.6c0.7-0.5,1.4-1.1,2.2-1.7c0.9-0.7,1.7-1.4,2.6-2.1c0.7-0.6,1.4-1.3,2.1-1.9c0.8-0.8,1.6-1.5,2.3-2.3
		c0.7-0.7,1.3-1.4,2-2.2c0.7-0.8,1.4-1.6,2.1-2.4c0.7-0.8,1.2-1.6,1.9-2.4c0.3-0.4,0.7-0.9,1-1.3L347.5,239.5z"/>
	<path class="st9" d="M211.8,314.6c4.4,0,8-3.6,8-8c0-4.4-3.6-8-8-8h-39.3c-4.4,0-8,3.6-8,8c0,4.4,3.6,8,8,8H211.8z"/>
	<path class="st9" d="M95.6,13.2c-5.5,2.7-10.9,5.8-16,9.2c-3.7,2.5-4.6,7.4-2.2,11.1c2.5,3.7,7.4,4.6,11.1,2.2
		c4.5-3,9.2-5.7,14.1-8.1c4-1.9,5.6-6.7,3.7-10.7C104.3,12.9,99.6,11.3,95.6,13.2L95.6,13.2z"/>
</g>
</svg>
