<svg height="385pt" viewBox="-21 0 385 385.24078" width="385pt" xmlns="http://www.w3.org/2000/svg"><path d="m282.960938 74.921875v23.519531c-5.734376-1.988281-11.707032-3.214844-17.761719-3.640625l-5.320313-.359375c-29.570312-2.039062-59.160156-3.082031-88.757812-3.121094-31.359375.039063-62.71875 1.199219-94.082032 3.480469-38.636718 2.839844-68.71875 36.601563-68.917968 77.558594v-40.300781c0-68.515625 55.542968-124.058594 124.054687-124.058594h83.824219c32.882812-.015625 60.90625 23.855469 66.121094 56.320312.5625 3.503907.84375 7.050782.839844 10.601563zm0 0" fill="#3a484a"/><path d="m282.121094 64.320312c-5.214844-32.464843-33.238282-56.335937-66.121094-56.320312h-31.84375c32.882812-.015625 60.90625 23.855469 66.121094 56.320312.566406 3.503907.847656 7.050782.84375 10.601563v18.988281c2.917968.179688 5.84375.328125 8.761718.53125l5.320313.359375c6.054687.425781 12.027344 1.652344 17.761719 3.640625v-23.519531c.003906-3.550781-.277344-7.097656-.84375-10.601563zm0 0" fill="#59636d"/><path d="m179.085938 8h-46.910157c-68.511719 0-124.054687 55.542969-124.054687 124.058594v40.300781c-.34375-33.136719 20.363281-62.847656 51.570312-74 15.09375-53.441406 63.859375-90.351563 119.394532-90.359375zm0 0" fill="#2c363e"/><path d="m334.121094 102.839844v69.921875c.507812-33.140625-20.023438-62.964844-51.160156-74.320313v-23.519531c.003906-3.550781-.277344-7.097656-.839844-10.601563h13.480468c21.273438-.003906 38.523438 17.246094 38.519532 38.519532zm0 0" fill="#3a484a"/><path d="m295.601562 64.320312h-13.480468c.070312.433594.09375.882813.160156 1.320313 16.886719 4.460937 28.652344 19.734375 28.660156 37.199219v13.199218c14.953125 15.078126 23.300782 35.484376 23.199219 56.71875v-69.917968c.003906-21.28125-17.257813-38.535156-38.539063-38.519532zm0 0" fill="#59636d"/><path d="m40.960938 236.320312v32.839844h-3.320313c-16.300781 0-29.519531-13.21875-29.519531-29.519531v-28.238281c-.019532-3.996094 1.738281-7.792969 4.800781-10.363282 4.929687 14.464844 14.652344 26.8125 27.558594 35 .160156.082032.320312.203126.480469.28125zm0 0" fill="#f9b347"/><path d="m334.601562 211.402344v28.238281c-.003906 16.300781-13.21875 29.519531-29.519531 29.519531h-3.320312v-33.121094c12.988281-8.265624 22.757812-20.730468 27.679687-35.316406 3.269532 2.574219 5.171875 6.515625 5.160156 10.679688zm0 0" fill="#f9ef8b"/><path d="m301.761719 236.039062v22.683594c.003906 65.441406-53.039063 118.503906-118.480469 118.519532h-24.320312c-65.445313-.015626-118.488282-53.078126-118.480469-118.519532v-22.683594c11.308593 7.023438 24.570312 10.234376 37.839843 9.160157 38.921876-2.917969 68.839844-21.839844 92.800782-21.839844 23.960937 0 53.878906 18.921875 92.800781 21.839844 13.265625 1.074219 26.53125-2.136719 37.839844-9.160157zm0 0" fill="#f9db5f"/><path d="m269.402344 245.371094v13.351562c-.011719 63.863282-50.636719 116.226563-114.460938 118.398438 1.335938.042968 2.671875.101562 4.019532.101562h24.320312c65.433594-.015625 118.476562-53.066406 118.480469-118.5v-22.683594c-9.71875 6.042969-20.917969 9.273438-32.359375 9.332032zm0 0" fill="#f9ef8b"/><path d="m72.0625 258.722656v-13.386718c-11.175781-.1875-22.089844-3.398438-31.582031-9.296876v22.683594c-.007813 65.441406 53.035156 118.503906 118.480469 118.519532h24.320312c1.199219 0 2.417969-.058594 3.628906-.09375-63.992187-1.964844-114.847656-54.40625-114.847656-118.425782zm0 0" fill="#f9b347"/><path d="m334.121094 172.761719c0 2.640625-.121094 5.277343-.359375 7.800781-.554688 6.878906-2.007813 13.65625-4.320313 20.160156-4.921875 14.585938-14.691406 27.050782-27.679687 35.316406-11.308594 7.023438-24.574219 10.234376-37.839844 9.160157-38.921875-2.917969-68.839844-21.839844-92.800781-21.839844-23.960938 0-53.878906 18.921875-92.800782 21.839844-13.078124 1.0625-26.15625-2.046875-37.359374-8.878907-.160157-.078124-.320313-.199218-.480469-.28125-12.90625-8.1875-22.628907-20.535156-27.558594-35-3.25-9.070312-4.875-18.644531-4.800781-28.277343v-.402344c.199218-40.957031 30.28125-74.71875 68.917968-77.558594 31.320313-2.28125 62.679688-3.441406 94.082032-3.480469 29.597656.039063 59.1875 1.082032 88.757812 3.121094l5.320313.359375c6.054687.425781 12.027343 1.652344 17.761719 3.640625 31.136718 11.355469 51.667968 41.179688 51.160156 74.320313zm0 0" fill="#57d0e6"/><path d="m282.960938 98.441406c-5.734376-1.988281-11.707032-3.214844-17.761719-3.640625l-5.320313-.359375c-29.570312-2.039062-59.160156-3.082031-88.757812-3.121094-6.828125 0-13.65625.09375-20.488282.207032 22.488282.394531 44.964844 1.367187 67.433594 2.914062l5.316406.359375c6.054688.425781 12.027344 1.652344 17.761719 3.640625 31.144531 11.351563 51.679688 41.175782 51.175781 74.320313 0 2.640625-.121093 5.277343-.359374 7.800781-.554688 6.878906-2.007813 13.65625-4.320313 20.160156-4.921875 14.585938-14.691406 27.050782-27.679687 35.316406-4.515626 2.800782-9.375 5.003907-14.457032 6.554688 6.085938 1.246094 12.242188 2.117188 18.433594 2.605469 13.269531 1.074219 26.53125-2.136719 37.839844-9.160157 12.988281-8.265624 22.757812-20.730468 27.679687-35.316406 2.3125-6.503906 3.765625-13.28125 4.320313-20.160156.238281-2.523438.359375-5.160156.359375-7.800781.503906-33.144531-20.035157-62.96875-51.175781-74.320313zm0 0" fill="#94e4fb"/><path d="m82.777344 236.320312c-.160156-.078124-.320313-.199218-.480469-.28125-12.90625-8.1875-22.628906-20.535156-27.558594-35-3.25-9.070312-4.875-18.644531-4.800781-28.277343v-.402344c.199219-40.957031 30.277344-74.71875 68.917969-77.558594 24.503906-1.785156 49.035156-2.875 73.601562-3.273437-7.113281-.125-14.226562-.191406-21.335937-.207032-31.359375.039063-62.71875 1.199219-94.082032 3.480469-38.636718 2.839844-68.71875 36.601563-68.917968 77.558594v.402344c-.074219 9.632812 1.550781 19.207031 4.800781 28.277343 4.929687 14.464844 14.652344 26.8125 27.558594 35 .160156.082032.320312.203126.480469.28125 11.203124 6.832032 24.28125 9.941407 37.359374 8.878907 6.1875-.488281 12.34375-1.355469 18.425782-2.601563-4.898438-1.503906-9.59375-3.613281-13.96875-6.277344zm0 0" fill="#47a7d5"/><g fill="#16131b"><path d="m341.441406 183.765625c.445313-1.007813.675782-2.097656.679688-3.199219v-77.726562c0-11.078125-3.953125-21.796875-11.148438-30.222656-2.871094-3.359376-7.921875-3.753907-11.28125-.882813s-3.753906 7.921875-.882812 11.28125c4.71875 5.527344 7.3125 12.558594 7.3125 19.824219v18.722656c-1.101563-1.570312-2.253906-3.097656-3.460938-4.585938-.210937-.265624-.449218-.503906-.664062-.765624-1.089844-1.3125-2.207032-2.605469-3.375-3.851563-.527344-.5625-1.09375-1.09375-1.636719-1.648437-.890625-.898438-1.785156-1.792969-2.714844-2.652344-.644531-.59375-1.308593-1.15625-1.972656-1.730469-.886719-.765625-1.785156-1.523437-2.703125-2.253906-.710938-.566407-1.433594-1.105469-2.160156-1.644531-.929688-.691407-1.878906-1.359376-2.839844-2-.75-.503907-1.496094-1.003907-2.265625-1.484376-1.011719-.636718-2.042969-1.238281-3.082031-1.828124-.757813-.429688-1.5-.863282-2.273438-1.269532-1.160156-.609375-2.351562-1.171875-3.542968-1.726562-.6875-.320313-1.355469-.660156-2.058594-.960938-.140625-.058594-.273438-.136718-.417969-.195312v-18c0-.867188-.015625-1.730469-.042969-2.597656h4.691406c4.417969 0 8-3.582032 8-8 0-4.417969-3.582031-8-8-8h-6.964843c-8.363281-33.261719-38.339844-56.523438-72.636719-56.367188h-83.824219c-10.066406-.00390625-20.101562 1.140625-29.910156 3.40625-4.308594.992188-6.996094 5.289062-6 9.597656.992187 4.308594 5.292969 6.996094 9.597656 6 8.625-1.988281 17.449219-2.992187 26.300781-2.988281h83.835938c15.636719-.023437 30.636719 6.175781 41.699219 17.222656 11.058593 11.050781 17.269531 26.046875 17.261719 41.683594v13.109375c-.878907-.167969-1.769532-.289062-2.65625-.429688-.566407-.089843-1.132813-.199218-1.703126-.277343-1.601562-.214844-3.226562-.398438-4.851562-.503907l-5.316406-.363281c-29.601563-2.042969-59.648438-3.097656-89.324219-3.136719-31.445313.039063-63.289063 1.199219-94.652344 3.503907-2.433593.179687-4.824219.5-7.199219.902343-.355468.058594-.714843.105469-1.066406.171876-2.246094.398437-4.453125.921874-6.632812 1.523437-.402344.109375-.820313.226563-1.230469.347656-2.171875.636719-4.3125 1.347657-6.398437 2.164063-.304688.113281-.601563.246094-.902344.371094-2.128906.859374-4.230469 1.792968-6.273438 2.828124l-.207031.097657c-2.066406 1.054687-4.070313 2.222656-6.039063 3.453125-.308593.191406-.621093.378906-.921874.578125-1.867188 1.203125-3.691407 2.488281-5.46875 3.847656-.324219.246094-.644532.5-.96875.753906-1.773438 1.398438-3.496094 2.851563-5.152344 4.402344-.203125.191406-.398438.398437-.601563.582031-1.65625 1.570313-3.257812 3.199219-4.800781 4.902344-.089844.09375-.179688.1875-.269531.285156-1.539063 1.734375-3 3.542969-4.398438 5.402344-.230469.304688-.464843.601562-.6875.910156-.226562.308594-.402343.539063-.617187.800782 2.339844-25.054688 12.789062-48.667969 29.753906-67.25 2.984375-3.265626 2.753906-8.328126-.507812-11.3125-3.265626-2.980469-8.328126-2.753907-11.308594.511718-22.191406 24.308594-34.4765628 56.046875-34.4375 88.960938v40.703125c-.0234378 8.9375 1.269531 17.835937 3.832031 26.398437-2.496094 3.597656-3.832031 7.867188-3.832031 12.246094v28.234375c.023437 19.234375 14.566406 35.347656 33.699218 37.328125 7.300782 50.363281 44.082032 91.4375 93.335938 104.234375 2.800781.820313 5.824219.046875 7.890625-2.015625 2.066406-2.058594 2.84375-5.078125 2.035156-7.882812-.808593-2.800782-3.078125-4.941407-5.925781-5.582032-45.113281-11.738281-78-50.535156-82.195312-96.960937v-19.734375h.054687c2.066406.765625 4.164063 1.429687 6.292969 2 .398437.109375.839844.207031 1.261718.304687 2.136719.523438 4.296876.964844 6.488282 1.285157l.347656.058593c2.320312.328125 4.664062.511719 7.023438.609375l1.199218.039063c.578125 0 1.15625.0625 1.734375.0625 1.835938 0 3.679688-.074219 5.539063-.214844 19.34375-2 38.351562-6.460937 56.566406-13.269531 13.777344-4.585938 25.652344-8.542969 35.652344-8.542969s21.875 3.957031 35.636718 8.546875c18.214844 6.804688 37.226563 11.257812 56.570313 13.253906 2.355469.179688 4.699219.203125 7.03125.15625.648437 0 1.292969-.046875 1.9375-.078125 1.851563-.089843 3.6875-.25 5.511719-.476562.519531-.066407 1.039062-.109375 1.554687-.1875 2.285157-.339844 4.539063-.789063 6.769531-1.34375.398438-.105469.800782-.238281 1.199219-.351563 1.839844-.496094 3.652344-1.070312 5.445313-1.71875.320312-.117187.65625-.1875.972656-.308594v9.871094c-.058594 60.996094-49.480469 110.4375-110.480469 110.519532h-24.308593c-4.417969 0-8 3.582031-8 8 0 4.417968 3.582031 8 8 8h24.320312c62.773438-.09375 116.011719-46.144532 125.144531-108.25 19.332031-1.746094 34.148438-17.9375 34.175781-37.351563v-28.238281c.003907-4.558594-1.4375-8.996094-4.121093-12.675782 1.417969-4.894531 2.410156-9.898437 2.960937-14.960937zm-325.320312 55.875v-15.574219c.28125.398438.589844.726563.878906 1.101563.574219.753906 1.160156 1.480469 1.757812 2.203125.703126.855468 1.421876 1.691406 2.160157 2.515625.632812.703125 1.28125 1.398437 1.941406 2.074219.765625.800781 1.546875 1.542968 2.335937 2.292968.6875.648438 1.382813 1.28125 2.09375 1.898438.824219.714844 1.664063 1.402344 2.515626 2.074218.734374.582032 1.476562 1.164063 2.230468 1.714844.152344.105469.292969.230469.445313.339844v18.441406c0 .597656.027343 1.199219.035156 1.789063-9.613281-2.363281-16.375-10.972657-16.394531-20.871094zm195.691406-14.914063c-15.09375-5.027343-28.105469-9.367187-40.691406-9.367187-12.589844 0-25.601563 4.339844-40.691406 9.367187-1.941407.644532-3.914063 1.296876-5.921876 1.957032-15.109374 5.417968-30.828124 8.957031-46.800781 10.542968h-.230469c-4.273437.308594-8.566406.128907-12.800781-.539062-.195312-.03125-.398437-.082031-.585937-.113281-1.203125-.207031-2.402344-.433594-3.558594-.714844-.542969-.128906-1.070312-.300781-1.597656-.445313-.800782-.222656-1.628906-.433593-2.433594-.691406-.804688-.261718-1.5625-.566406-2.339844-.859375-.53125-.199219-1.070312-.375-1.597656-.59375-.941406-.402343-1.867188-.832031-2.800781-1.277343-.34375-.167969-.695313-.3125-1.035157-.484376-1.027343-.523437-2.03125-1.09375-3.027343-1.6875-.316407-.1875-.640625-.347656-.953125-.542968l-.167969-.101563c-1.390625-.863281-2.734375-1.785156-4.035156-2.765625-9.34375-7.179687-16.355469-16.96875-20.140625-28.128906-2.945313-8.304688-4.394532-17.070312-4.28125-25.878906.175781-36.515625 27.199218-67.097656 61.503906-69.601563 30.980469-2.257812 62.441406-3.421875 93.484375-3.460937 29.296875.039062 58.976563 1.085937 88.222656 3.097656l5.300781.363281c1.46875.105469 2.933594.273438 4.398438.480469 3.863281.546875 7.664062 1.46875 11.351562 2.742188 27.9375 10.191406 46.316407 37.003906 45.738282 66.738281 0 2.398437-.109375 4.773437-.332032 7.132812-.5 6.203125-1.8125 12.3125-3.902343 18.179688-4.34375 12.855469-12.933594 23.847656-24.359375 31.175781-9.871094 6.109375-21.4375 8.90625-33.011719 7.976562-18.023437-1.941406-35.730469-6.140624-52.703125-12.5zm114.800781 14.914063c-.015625 10.078125-7.007812 18.800781-16.839843 21.007813v-20.339844c.242187-.175782.46875-.375.707031-.550782.734375-.546874 1.445312-1.121093 2.160156-1.691406.875-.703125 1.746094-1.402344 2.59375-2.144531.707031-.621094 1.386719-1.273437 2.070313-1.921875.800781-.753906 1.601562-1.515625 2.34375-2.308594.675781-.703125 1.328124-1.425781 1.980468-2.160156.710938-.796875 1.414063-1.597656 2.097656-2.445312.679688-.847657 1.246094-1.574219 1.851563-2.378907.335937-.445312.699219-.863281 1.027344-1.316406zm0 0"/><path d="m190.800781 314.816406c4.417969 0 8-3.582031 8-8 0-4.417968-3.582031-8-8-8h-39.359375c-4.417968 0-8 3.582032-8 8 0 4.417969 3.582032 8 8 8zm0 0"/><path d="m74.511719 13.226562c-5.539063 2.691407-10.882813 5.765626-16 9.199219-3.667969 2.464844-4.640625 7.4375-2.175781 11.101563 2.464843 3.667968 7.4375 4.644531 11.105468 2.175781 4.5-3.019531 9.203125-5.722656 14.078125-8.089844 3.976563-1.929687 5.636719-6.71875 3.707031-10.695312-1.933593-3.976563-6.722656-5.636719-10.699218-3.707031zm0 0"/><path d="m135.980469 175.5c-7.277344 8.246094-17.871094 12.785156-28.859375 12.371094-10.988282.4375-21.585938-4.101563-28.851563-12.355469-1.785156-2.265625-4.65625-3.394531-7.507812-2.957031-2.851563.441406-5.246094 2.386718-6.265625 5.085937-1.015625 2.703125-.5 5.742188 1.351562 7.957031 10.359375 11.921876 25.484375 18.617188 41.273438 18.269532 15.777344.328125 30.886718-6.355469 41.253906-18.25 2.796875-3.425782 2.285156-8.464844-1.140625-11.257813s-8.464844-2.28125-11.257813 1.140625zm0 0"/><path d="m276.378906 185.617188c2.796875-3.425782 2.285156-8.464844-1.140625-11.257813-3.421875-2.792969-8.464843-2.28125-11.257812 1.140625-7.523438 7.894531-17.949219 12.363281-28.855469 12.363281s-21.335938-4.46875-28.855469-12.363281c-1.785156-2.265625-4.65625-3.398438-7.507812-2.957031-2.851563.441406-5.246094 2.386719-6.265625 5.085937-1.015625 2.703125-.5 5.742188 1.351562 7.957032 10.570313 11.628906 25.554688 18.261718 41.265625 18.261718 15.714844 0 30.699219-6.632812 41.265625-18.261718zm0 0"/></g></svg>