<?xml version="1.0" encoding="utf-8"?>
<!-- Generator: Adobe Illustrator 23.0.2, SVG Export Plug-In . SVG Version: 6.00 Build 0)  -->
<svg version="1.1" id="Layer_1" xmlns="http://www.w3.org/2000/svg" xmlns:xlink="http://www.w3.org/1999/xlink" x="0px" y="0px"
	 viewBox="0 0 1366 768" style="enable-background:new 0 0 1366 768;" xml:space="preserve">
<style type="text/css">
	.st0{fill:#999999;stroke:#000000;stroke-width:3;stroke-miterlimit:10;}
</style>
<image style="display:none;overflow:visible;" width="640" height="640" xlink:href="945BF6E8.jpg"  transform="matrix(1.5391 0 0 1.5391 150 39)">
</image>
<g>
	<polygon class="st0" points="54.1,176.5 24.8,197.5 73.7,277.1 49.9,298.1 198.1,323.3 126.8,249.2 212.1,292.5 255.4,266 
		207.9,194.7 290.4,267.4 273.6,292.5 388.3,337.3 381.3,288.3 321.2,232.4 221.9,154.1 213.5,147.1 214.9,123.4 114.2,117.8 
		129.6,168.1 135.2,184.9 146.4,214.2 	"/>
	<path class="st0" d="M493.1,260.4l-14-61.5l-26.6-36.3l-71.3-44.7l-82.5-7l-18.2,30.8l8.4,54.5l79.7,67.1l81.1,35h55.9l14-9.8
		L493.1,260.4z M475.6,261.1l-75.5-28l-69.9-55.9v-19.6l64.3,25.2l86.7,71.3L475.6,261.1z"/>
	<polygon class="st0" points="460.3,145 460.3,164.6 475.6,177.2 500.8,261.1 534.4,290.4 581.9,290.4 581.9,329.6 637.8,314.2 
		625.2,214.9 637.8,189.8 562.3,166 581.9,276.4 549.7,261.1 527.4,110.1 	"/>
	<polygon class="st0" points="646.2,146.4 656,219.1 651.8,275.1 656,336.6 609.9,329.6 581.9,336.6 569.3,319.8 511.9,298.1 
		400.1,318.4 460.3,364.5 481.2,349.1 560.9,342.2 650.4,364.5 696.5,393.9 717.5,365.9 693.7,358.9 707.7,346.4 703.5,269.5 
		760.8,322.6 805.6,310 790.2,227.5 814,146.4 744.1,146.4 758,255.5 737.1,261.1 686.7,227.5 714.7,203.8 679.8,128.3 	"/>
	<polygon class="st0" points="814,171.6 973.3,104.5 1002.7,97.5 1011.1,110.1 941.2,203.8 920.2,203.8 913.2,184.2 855.9,203.8 
		846.1,237.3 844.7,315.6 862.9,329.6 867.1,342.2 804.2,329.6 804.2,219.1 	"/>
	<polygon class="st0" points="699.3,227.5 739.9,203.8 748.3,241.5 746.3,258.6 	"/>
	<polygon class="st0" points="1011.1,280.6 1051.6,196.8 1135.5,171.6 1135.5,187 1118.7,196.8 1092.2,231.7 1065.6,258.3 
		1074,286.2 1046,342.2 1022.3,342.2 	"/>
	<polygon class="st0" points="1037.7,143.6 1129.9,110.1 1129.9,143.6 1037.7,171.6 1029.3,157.6 	"/>
	<polygon class="st0" points="1086.6,256.9 1156.5,231.7 1201.2,256.9 1215.2,203.8 1202.6,150.6 1287.9,163.2 1278.1,209.3 
		1304.7,342.2 1213.8,342.2 1135.5,261.1 1129.9,297.4 1153.7,360.3 1062.8,365.9 1055.8,349.1 1074,329.6 1074,286.2 1073.3,256.9 
			"/>
	<path class="st0" d="M298.1,393.9h-61.5l51.7-51.7h-75.5l-78.3-5.6H61.8v22.4l44.7,14l29.4,83.9l-68.5,48.9l1.4,18.2L217,487.6
		l15.4,8.4l22.4-9.8V475l85.3-44.7l8.4-25.2L298.1,393.9z M175.1,365.9l30.8-8.4l18.2,14v22.4l-29.4,8.4L175.1,365.9z M254.7,430.2
		l-36.3,7l-12.6-16.8l48.9-12.6l25.2,5.6L254.7,430.2z"/>
	<polygon class="st0" points="289.7,350.5 348.4,329.6 348.4,350.5 465.9,371.5 465.9,385.5 412.7,421.8 488.2,421.8 475.6,484.8 
		500.8,491.7 507.8,512.7 437.9,557.5 379.2,557.5 387.6,523.9 405.7,512.3 418.3,504.3 405.7,491.7 423.9,442.8 382,442.8 
		398.7,504.3 163.9,549.1 32.5,582.6 4.5,571.4 24.1,508.5 38.1,486.2 11.5,484.8 71.6,393.9 98.2,470.8 52,497.3 61.8,529.5 
		206.5,493.2 232.4,495.9 323.3,476.4 323.3,451.2 358.2,413.5 348.4,393.9 313.5,385.5 313.5,379.9 279.9,365.9 	"/>
	<path class="st0" d="M597.3,393.9l-47.5-37.7l-50.2-8.6l-23.9,18.4l-9.8,19.6l15.4,30.8l16.8-8.4v22.4l33.6,40.5l50.3,15.4
		l25.2-30.8L597.3,393.9z M560.9,448.4l-11.2-11.2l-30.8-7l-26.6-50.3H519h30.8l32.2,50.3L560.9,448.4z"/>
	<polyline class="st0" points="581.9,523.9 597.3,498.7 600.1,480.6 618.2,442.8 597.3,393.9 665.8,402.3 672.8,386.9 748.3,455.4 
		646.2,437.2 646.2,547.7 581.9,523.9 581.9,523.9 581.9,523.9 	"/>
	<path class="st0" d="M581.9,523.9"/>
	<polygon class="st0" points="730.1,372.9 795.8,402.3 767.8,407.9 763.6,466.6 804.2,547.7 748.3,547.7 748.3,530.9 704.9,523.9 
		739.9,595.2 693.7,607.8 686.7,599.4 595.9,563 555.3,556.1 537.2,571.4 559.5,582.6 598.7,582.6 567.9,607.8 498,620.4 
		453.3,582.6 465.9,547.7 507.8,523.9 559.5,523.9 629.4,547.7 657.4,547.7 653.2,448.4 699.3,455.4 686.7,466.6 693.7,495.9 
		730.1,486.2 724.5,455.4 753.9,466.6 730.1,416.3 730.1,379.9 	"/>
	<path class="st0" d="M823.8,372.9"/>
	<polygon class="st0" points="814,372.9 804.2,421.8 814,448.4 809.8,455.4 804.2,466.6 791.6,495.9 871.3,547.7 917.4,593.8 
		990.1,571.4 883.9,473.6 854.5,472.2 883.9,523.9 839.1,495.9 841.9,466.6 860.1,455.4 843.3,430.2 851.7,402.3 869.9,413.5 
		861.5,437.2 883.9,448.4 927.2,430.2 858.4,386.9 846.1,386.9 830.7,365.9 	"/>
	<path class="st0" d="M1109,602.2l-14-116l-76.9-19.6l29.4-18.2l-1.4-18.2l-72.7-36.3l-46.1,19.6v100l83.9,23l-33.6-57.3l64.3,7v116
		H1109z M990.1,448.4l-21,7l-5.6-25.2l26.6,7V448.4z"/>
	<polygon class="st0" points="1102,386.9 1079.6,416.3 1195.6,455.4 1265.5,536.5 1195.6,508.5 1197,472.2 1157.9,454 1109,497.3 
		1297.7,565.8 1362,582.6 1352.2,536.5 1255.7,461 1220.8,448.4 1152.3,421.8 1180.3,379.9 1197,430.2 1243.2,421.8 1286.5,357.5 
		1192.8,357.5 1188.6,365.9 1097.8,372.9 	"/>
	<path class="st0" d="M1027.9,353.3l-23.8-47.5l-1.4-61.5l25.2-25.2l-53.1-37.7l-11.2,22.4l-75.5,32.2l5.6,25.2L862.9,317l4.2,25.2
		l-124.4-23.8l-55.9,40.5l144,7l21,21h36.3l9.8-19.6l167.8,46.1l15.4-8.4L1027.9,353.3z M897.8,336.6l47.5-79.7l12.6,90.9
		L897.8,336.6z"/>
</g>
</svg>
