<?xml version="1.0" encoding="iso-8859-1"?>
<!-- Generator: Adobe Illustrator 19.0.0, SVG Export Plug-In . SVG Version: 6.00 Build 0)  -->
<svg xmlns="http://www.w3.org/2000/svg" xmlns:xlink="http://www.w3.org/1999/xlink" version="1.1" id="Capa_1" x="0px" y="0px" viewBox="0 0 509.959 509.959" style="enable-background:new 0 0 509.959 509.959;" xml:space="preserve" width="512" height="512">
<g>
	<g>
		<polyline style="fill:#FF9C43;" points="344.959,107.703 502.459,107.703 502.459,475.381 7.5,475.381 7.5,107.703     61.834,107.703   "/>
	</g>
	<g>
		<polyline style="fill:#FEF0BD;" points="344.959,107.703 502.459,107.703 502.459,295.203 7.5,295.203 7.5,107.703     61.834,107.703   "/>
	</g>
	<g>
		<circle style="fill:#FE3934;" cx="442.459" cy="220.203" r="22.5"/>
	</g>
	<g>
		<rect x="44.959" y="400.203" style="fill:#FEF0BD;" width="90" height="37.5"/>
	</g>
	<g>
		<circle style="fill:#B8BFC5;" cx="202.459" cy="205.203" r="170.625"/>
	</g>
	<g>
		<ellipse style="fill:#5A5A5A;" cx="202.459" cy="205.203" rx="136.875" ry="133.125"/>
	</g>
	<g>
		<circle style="fill:#FE3934;" cx="202.459" cy="205.203" r="60"/>
	</g>
	<g>
		<circle style="fill:#E5ECEC;" cx="202.459" cy="205.203" r="15"/>
	</g>
	<g>
		<path d="M74.959,205.203h-15c0-78.575,63.925-142.5,142.5-142.5v15C132.155,77.703,74.959,134.899,74.959,205.203z"/>
	</g>
	<g>
		<path d="M202.459,347.703v-15c70.304,0,127.5-57.196,127.5-127.5h15C344.959,283.778,281.034,347.703,202.459,347.703z"/>
	</g>
	<g>
		<path d="M202.459,310.203v-15c49.626,0,90-40.374,90-90h15C307.459,263.1,260.356,310.203,202.459,310.203z"/>
	</g>
	<g>
		<path d="M112.459,205.203h-15c0-57.897,47.103-105,105-105v15C152.833,115.203,112.459,155.577,112.459,205.203z"/>
	</g>
	<g>
		<path d="M202.459,272.703c-37.22,0-67.5-30.28-67.5-67.5s30.28-67.5,67.5-67.5s67.5,30.28,67.5,67.5    S239.679,272.703,202.459,272.703z M202.459,152.703c-28.948,0-52.5,23.551-52.5,52.5s23.552,52.5,52.5,52.5    s52.5-23.551,52.5-52.5S231.407,152.703,202.459,152.703z"/>
	</g>
	<g>
		<path d="M202.459,227.703c-12.406,0-22.5-10.093-22.5-22.5s10.094-22.5,22.5-22.5s22.5,10.093,22.5,22.5    S214.865,227.703,202.459,227.703z M202.459,197.703c-4.136,0-7.5,3.364-7.5,7.5s3.364,7.5,7.5,7.5s7.5-3.364,7.5-7.5    S206.595,197.703,202.459,197.703z"/>
	</g>
	<g>
		<polygon points="393.065,426.453 172.459,426.453 172.459,411.453 386.853,411.453 434.959,363.347 434.959,317.703     449.959,317.703 449.959,369.56   "/>
	</g>
	<g>
		<rect x="434.959" y="287.703" width="15" height="15"/>
	</g>
	<g>
		<rect x="457.459" y="430.203" width="15" height="15"/>
	</g>
	<g>
		<path d="M442.459,250.203c-16.542,0-30-13.458-30-30s13.458-30,30-30s30,13.458,30,30S459.001,250.203,442.459,250.203z     M442.459,205.203c-8.271,0-15,6.729-15,15s6.729,15,15,15s15-6.729,15-15S450.73,205.203,442.459,205.203z"/>
	</g>
	<g>
		<rect x="434.959" y="160.203" width="15" height="15"/>
	</g>
	<g>
		<rect x="397.836" y="175.58" transform="matrix(0.7071 0.7071 -0.7071 0.7071 248.1582 -232.9856)" width="15" height="15"/>
	</g>
	<g>
		<rect x="397.836" y="175.58" transform="matrix(0.7071 0.7071 -0.7071 0.7071 248.1582 -232.9856)" width="15" height="15"/>
	</g>
	<g>
		<path d="M346.251,100.203c-32.435-44.298-84.806-73.125-143.792-73.125S91.102,55.905,58.667,100.203H0v382.678h509.959V100.203    H346.251z M202.459,42.078c89.947,0,163.125,73.178,163.125,163.125s-73.178,163.125-163.125,163.125    S39.334,295.15,39.334,205.203S112.512,42.078,202.459,42.078z M494.959,467.881H15V115.203h33.8    c-15.539,26.428-24.466,57.189-24.466,90c0,98.218,79.906,178.125,178.125,178.125s178.125-79.907,178.125-178.125    c0-32.811-8.928-63.572-24.466-90h33.841v15h15v-15h15v15h15v-15h15v15h15v-15h30V467.881z"/>
		<path d="M142.459,392.703h-105v52.5h105v-18.75h15v-15h-15V392.703z M127.459,430.203h-75v-22.5h75V430.203z"/>
	</g>
</g>















</svg>
