<?xml version="1.0" encoding="utf-8"?>
<!-- Generator: Adobe Illustrator 23.0.2, SVG Export Plug-In . SVG Version: 6.00 Build 0)  -->
<svg version="1.1" id="Layer_1" xmlns="http://www.w3.org/2000/svg" xmlns:xlink="http://www.w3.org/1999/xlink" x="0px" y="0px"
	 viewBox="0 0 512 512" style="enable-background:new 0 0 512 512;" xml:space="preserve">
<style type="text/css">
	.st0{fill:#F0F5F7;}
	.st1{fill:#DDE9ED;}
	.st2{fill:#C4E1E8;}
	.st3{fill:#A4D5DD;}
	.st4{fill:#A0ECFF;}
	.st5{fill:#F6AEE3;}
</style>
<g>
	<path class="st0" d="M457,106.6h-20.8c1.2-3.4,1.8-7,1.8-10.8c0-18.7-15.6-33.8-34.9-33.8c-14.9,0-27.5,9-32.6,21.7
		c-9.4-4-20.8-2.3-28.5,5.2c-5,4.9-7.5,11.3-7.5,17.7h-3.5c-11.1,0-20.1,8.7-20.1,19.5s9,19.5,20.1,19.5c0,0,73.2,0,125.9,0.1
		c11.1,0,20.2-8.8,20.2-19.6C477.2,115.4,468.2,106.6,457,106.6z"/>
	<path class="st1" d="M477.2,126.2c0,10.8-9,19.6-20.2,19.6c-2.2,0-4.4,0-6.6,0c0.3-1.2,0.4-2.5,0.4-3.8c0-5.4-2.3-10.3-5.9-13.8
		c-3.7-3.5-8.7-5.7-14.3-5.7h-20.8c1.2-3.4,1.8-7,1.8-10.8c0-18.7-15.6-33.8-34.9-33.8c-1.1,0-2.1,0.1-3.2,0.1
		c6.1-9.6,17.1-15.9,29.6-15.9c19.3,0,34.9,15.1,34.9,33.8c0,3.8-0.6,7.4-1.8,10.8H457c5.6,0,10.6,2.2,14.3,5.7
		C474.9,115.9,477.2,120.8,477.2,126.2z"/>
	<path class="st2" d="M41.4,144c2.5-40.6,37.3-72.7,79.7-72.7c34.3,0,63.5,20.9,74.8,50.3c27.9,0.3,50.7,21.2,53.1,47.8h44.4
		c-1.7-14.7,6.1-29.5,20.5-36.4c17.4-8.4,38.3-2.4,48.3,13.4c5.9-3.8,13-6.1,20.7-6.1c18.1,0,33.2,12.5,36.6,29.1H436
		c16.1,0,29.2,12.7,29.2,28.3c0,15.6-13.1,28.3-29.2,28.3c0,0-380.2,0.3-393.1,0.3c-23.4,0-42.4-18.4-42.4-41.1
		C0.5,162.8,18.7,144.7,41.4,144z"/>
	<path class="st3" d="M0.5,185.1c0,22.7,19,41.1,42.4,41.1c1.8,0,10.5,0,24.3,0c0-0.6-0.1-1.2-0.1-1.9c0-22.2,18.2-40.3,40.9-41.1
		c2.5-40.6,37.3-72.7,79.7-72.7c0.9,0,1.9,0,2.8,0c-13.7-23.5-39.7-39.3-69.5-39.3c-42.5,0-77.2,32.2-79.7,72.7
		C18.7,144.7,0.5,162.8,0.5,185.1z"/>
	<path class="st2" d="M84.4,148.4c-0.2,0-0.3,0-0.5,0c-4.3-0.3-7.5-3.9-7.2-8.2c1.3-21.2,19.5-37.9,41.3-37.9c4.3,0,7.7,3.5,7.7,7.7
		c0,4.3-3.5,7.7-7.7,7.7c-13.7,0-25.1,10.3-25.9,23.4C91.9,145.3,88.5,148.4,84.4,148.4z"/>
	<path class="st4" d="M469.9,201.6c-2.3-36.9-33.8-66.1-72.4-66.1c-31.1,0-57.7,19-68,45.7c-25.4,0.3-46.1,19.3-48.2,43.4H241
		c1.5-13.3-5.5-26.8-18.6-33.1c-15.8-7.6-34.8-2.1-43.9,12.2c-5.4-3.5-11.8-5.5-18.8-5.5c-16.4,0-30.1,11.4-33.2,26.4h-14.9
		c-14.6,0-26.5,11.5-26.5,25.7s11.9,25.7,26.5,25.7c0,0,345.5,0.2,357.1,0.2c21.3,0,38.5-16.7,38.5-37.4
		C507.1,218.7,490.6,202.3,469.9,201.6z"/>
	<path class="st5" d="M507.1,238.9c0,20.6-17.3,37.4-38.5,37.4c-1.6,0-9.6,0-22.1,0c0-0.6,0.1-1.1,0.1-1.7
		c0-20.2-16.5-36.7-37.2-37.3c-2.3-36.9-33.9-66.1-72.4-66.1c-0.9,0-1.7,0-2.6,0c12.5-21.3,36.1-35.7,63.1-35.7
		c38.6,0,70.1,29.2,72.4,66.1C490.6,202.3,507.1,218.7,507.1,238.9z"/>
	<path class="st4" d="M430.9,206.3c-4.1,0-7.4-3.1-7.7-7.2c-0.7-11.5-10.8-20.6-22.8-20.6c-4.3,0-7.7-3.5-7.7-7.7s3.5-7.7,7.7-7.7
		c20.2,0,37,15.4,38.3,35.1c0.3,4.3-3,7.9-7.2,8.2C431.2,206.3,431,206.3,430.9,206.3z"/>
	<path class="st1" d="M166.4,267.6c-1.6-17.8-16.8-31.8-35.5-32c-7.6-19.7-27.2-33.7-50.1-33.7c-28.4,0-51.7,21.5-53.4,48.7
		C12.2,251.1,0,263.2,0,278.1c0,15.2,12.7,27.5,28.4,27.5c8.6,0,464.1-0.2,464.1-0.2c10.8,0,19.5-8.5,19.5-18.9s-8.7-18.9-19.5-18.9
		h-30.3c0.1-1.3,0.2-2.6,0.2-3.9c0-22.7-19-41.1-42.4-41.1c-19.1,0-35.2,12.2-40.5,29c-3.8-2.3-8.2-3.5-13-3.5
		c-12.1,0-22.2,8.4-24.5,19.5H166.4z"/>
	<path class="st2" d="M512,286.5c0,10.5-8.7,18.9-19.5,18.9c0,0-2.4,0-6.7,0v-0.1c0-5.2-2.2-10-5.7-13.4c-3.5-3.4-8.4-5.5-13.8-5.5
		h-30.3c0.1-1.3,0.2-2.6,0.2-3.9c0-22.7-19-41.1-42.4-41.1c-3.5,0-6.9,0.4-10.1,1.2c7.4-12,20.9-20.1,36.4-20.1
		c23.4,0,42.4,18.4,42.4,41.1c0,1.3-0.1,2.6-0.2,3.8h30.3c5.4,0,10.3,2.1,13.8,5.5C509.8,276.5,512,281.3,512,286.5z"/>
	<path class="st4" d="M149.1,287.2c10.1,0,19.2,4.2,25.7,10.8c6.5-15.5,21.5-26.5,39.2-27.2c2.6-43.6,38.8-78.1,83-78.1
		c35.7,0,66.1,22.5,77.9,54c26.4,0.3,48.5,18.9,54.1,43.7c4.6-2.1,9.7-3.3,15-3.3c19.9,0,36,16.1,36,36s-16.1,36-36,36
		c-12.6,0-281.8,0-295,0c-19.9,0-36-16.1-36-36S129.3,287.2,149.1,287.2z"/>
	<path class="st5" d="M480.1,323.2c0,18.7-14.3,34.1-32.5,35.8c1.6-4.1,2.5-8.6,2.5-13.2c0-19.9-16.1-36-36-36
		c-5.4,0-10.4,1.2-15,3.3c-5.6-24.8-27.7-43.4-54.1-43.7c-11.8-31.5-42.2-54-77.9-54c-12,0-23.4,2.5-33.8,7.1
		c15.3-18.2,38.2-29.7,63.7-29.7c35.7,0,66.1,22.4,77.9,54c26.4,0.3,48.5,18.9,54.1,43.7c4.6-2.1,9.7-3.3,15-3.3
		C464,287.2,480.1,303.3,480.1,323.2z"/>
	<path class="st2" d="M492.5,355.6h-23.2c-2.5-10.9-12.4-19-24.4-19c-2.2,0-4.3,0.3-6.3,0.8c-6-15.6-21.5-26.8-39.7-26.8
		c-20,0-36.7,13.4-41.2,31.4c-2.5-1.5-5.5-2.4-8.7-2.4c-9.1,0-16.5,7.1-16.6,15.9h-64.1c-4-8.2-12.6-13.8-22.6-13.8
		c-6.3,0-12.1,2.3-16.5,6.1c-2-16.4-16.4-29.2-33.9-29.2c-15.6,0-28.7,10.1-32.8,24c-5.9-11.2-17.9-18.9-31.7-19.1
		C123.2,304,103.7,290,80.8,290c-28.4,0-51.7,21.5-53.4,48.7C12.2,339.2,0,351.3,0,366.2c0,15.2,12.7,27.5,28.4,27.5
		c8.6,0,464.1-0.2,464.1-0.2c10.8,0,19.5-8.5,19.5-18.9C512,364.1,503.3,355.6,492.5,355.6z"/>
	<path class="st3" d="M512,374.6c0,10.5-8.7,18.9-19.5,18.9c0,0-5.8,0-16.2,0c0-0.1,0-0.2,0-0.3c0-5.2-2.2-10-5.7-13.4
		c-3.5-3.4-8.4-5.5-13.8-5.5h-23.2c-2.5-10.9-12.5-19-24.4-19c-2.2,0-4.3,0.3-6.3,0.8c-6-15.6-21.4-26.7-39.5-26.8
		c7.6-11.2,20.6-18.7,35.5-18.7c18.2,0,33.7,11.1,39.7,26.8c2-0.5,4.1-0.8,6.3-0.8c11.9,0,21.9,8.1,24.4,19h23.2
		c5.4,0,10.3,2.1,13.8,5.5C509.8,364.6,512,369.4,512,374.6z"/>
</g>
</svg>
