<?xml version="1.0" encoding="utf-8"?>
<!-- Generator: Adobe Illustrator 23.0.2, SVG Export Plug-In . SVG Version: 6.00 Build 0)  -->
<svg version="1.1" id="Capa_1" xmlns="http://www.w3.org/2000/svg" xmlns:xlink="http://www.w3.org/1999/xlink" x="0px" y="0px"
	 viewBox="0 0 466.7 466.7" style="enable-background:new 0 0 466.7 466.7;" xml:space="preserve">
<style type="text/css">
	.st0{fill:#DF9000;}
	.st1{fill:#FFFFFF;stroke:#FFFFFF;stroke-width:3;stroke-miterlimit:10;}
</style>
<path class="st0" d="M442,348h-9v-17l-16,17l-16-17h-27l-22,9h-21h-19l-16,8v-8h-12l-10,8l6-17l-16,3l-29,11l17-18l-14,3l-29,16
	l8-13l-31-1l-28,19l3-17l-43-1l-38-16l-33-31l-2-9l31,22c0,0,35,6,36,6s52-16,52-16l-1-8l-40,10l-36,2l-32-16l-27-16l-3-22l30,27
	l44,14l35-5c0,0-49-15-51-15s-41-21-41-21l-28-23l55,25c0,0-63-56-64-56s9-2,8-2s26,22,26,22l4-9l21-1l-28-20l6-4l29,14l10,1l-18-20
	l22,10l30,13l-29-27l60,27l-34-31l72,28l-53-36l74,30l-45-40l59,34c0,0,21,1,17,1s-32-27-32-27l37,21l16,1l-23-22l36,21l10,2l-21-27
	l33,27l9,2l-5-37l12,41l14,4l3-36v39l8,3l6-32l4,36l9,8l-2-43l11,48l13,10l5-37l5,45l25,37l25,38l6,20l-13-5h-5l5,9c0,0,13,7,13,9
	s6,9,6,9L442,348z"/>
<path class="st0" d="M436.5,280.5l-68-83l-68.7-33.1l-67.3-8.9l-70,4l31-12h66l38.9,6.1l91.1,46.9l-79-49l-40-10l-72-2l-70,11
	l-65,25l51-29l55-13h56l-84-7l-56,6l28-17l23-3l43,2l62,13l53,8l47,24l27,17l24,18l44,36l7,13c0,0-7,2-8,3s17,22,17,22l-7,4l11,15
	l-15-10L436.5,280.5z"/>
<path class="st1" d="M292.5,232.5l-17,6c0,0-7,7-6,11s0,18,0,18l11,11h16l12-5c0,0,4-15,4-16s-4-14-4-14l-10-11H292.5z"/>
<path class="st1" d="M176.5,271.5v-14l20-14l17-11l16-3l32,14l18-14l14-3l17,6h20l2-15l31,9l28,52c0,0,25,37,23,39s-14,6-14,6h-94
	l41-36l4-40l-15-25l-3,10l-6,5l-15-2l-17-5l-13,2l-13,7l-6,7l-32-11l-6,24l2,23l11,15l14,11l9,6l-9,3l-51-19l-27-27"/>
</svg>
