<?xml version="1.0" encoding="utf-8"?>
<!-- Generator: Adobe Illustrator 23.0.2, SVG Export Plug-In . SVG Version: 6.00 Build 0)  -->
<svg version="1.1" id="Capa_1" xmlns="http://www.w3.org/2000/svg" xmlns:xlink="http://www.w3.org/1999/xlink" x="0px" y="0px"
	 viewBox="0 0 512 512" style="enable-background:new 0 0 512 512;" xml:space="preserve">
<style type="text/css">
	.st0{fill:#111111;stroke:#FFFFFF;stroke-miterlimit:10;}
</style>
<g>
	<polygon class="st0" points="50.5,495.4 50.5,471.7 44.2,495.4 	"/>
	<path class="st0" d="M511.4,502.3c-0.2,3.5-3,6.3-6.6,6.3h-67.6c-3.5,0-6.4-2.7-6.6-6.2c-0.1-1.1-4.8-89.1-15.8-153.4
		c-5,31.3-12,77.1-14.7,106.5c-0.3,2.9-2.4,5.3-5.2,5.8c-0.7,0.1-67,13.4-138.6,13.5c0,0,0,0,0,0c-0.1,0-0.2,0-0.3,0
		c-0.1,0-0.2,0-0.3,0c0,0,0,0,0,0c-71.6-0.1-137.9-13.3-138.6-13.5c-2.8-0.6-5-2.9-5.2-5.8c-2.7-29.4-9.6-75.1-14.7-106.5
		c-11,64.3-15.8,152.3-15.8,153.4c-0.2,3.5-3.1,6.2-6.6,6.2H7.1c-3.5,0-6.4-2.8-6.6-6.3c-4.4-96.7,17.7-195.6,17.9-196.6
		c34.6-160.5,81.8-226.5,83.8-229.3l0,0c0.7-1,1.7-1.7,2.8-2.2l71.5-29.6l1.1-4.9c0.3-1.4,1.1-2.6,2.1-3.5L216.4,5l0,0
		c1.1-1,2.6-1.6,4.2-1.6h70.7c1.6,0,3.1,0.6,4.2,1.6l0,0l36.5,31.1c1.1,0.9,1.8,2.2,2.1,3.5l1.1,4.9l71.5,29.7
		c1.1,0.5,2.1,1.2,2.8,2.2l0,0c2,2.7,49.3,68.8,83.9,229.3C493.7,306.7,515.9,405.5,511.4,502.3z"/>
	<path class="st0" d="M196,129.1c0.4,3.3,1,7.6,1.7,12.8l11.5-13.4L196,129.1z"/>
	<path class="st0" d="M118.6,110.8c-3.1-9.7-6.9-16.1-9.9-20C96.2,111.1,59.3,179,31.4,308.5c-0.2,1-21.1,94-17.9,186.9h17.1
		l20.2-75.2c0.9-3.2,3.9-5.2,7.2-4.8c3.3,0.4,5.7,3.2,5.7,6.5v73.5h4.9c1.6-26.5,8.4-128.7,23-183.7c0,0,0,0,0,0l24-90.6
		C129,163.8,124.6,129.5,118.6,110.8z"/>
	<path class="st0" d="M189.5,178.8l-8.6-7c-1.4-1.1-2.2-2.7-2.4-4.5c-0.2-1.8,0.4-3.5,1.6-4.9l6.2-7.3c-1.5-11.3-2.7-20.1-3.5-25.5
		l-17.1,0.8c-2,0.1-4-0.8-5.3-2.3c-1.3-1.6-1.8-3.7-1.4-5.7l14-62.2L119,82.7c11.4,15.1,29.7,54.5,9.3,141.4
		c0,0.1-23.7,89.5-23.7,89.5c1.1,6.3,5.6,32.8,10.2,63l36.7-106.2c1.2-3.4,4.9-5.2,8.4-4.1c3.4,1.2,5.2,4.9,4.1,8.3l-45,130.2
		c0.7,5.1,1.4,10.1,2.1,15.1c12.8,1.9,50.7,7.1,101.1,9C214.5,365.2,199.4,251.8,189.5,178.8z"/>
	<path class="st0" d="M122.7,433.5c0.7,5.5,1.3,10.8,1.8,15.8c13.5,2.5,53.9,9.2,101.1,11.5c-0.5-5.1-1.2-11.4-2-18.6
		C175.7,440.5,138.7,435.8,122.7,433.5z"/>
	<path class="st0" d="M227,209.3l-22.6-18.4c2.1,15.8,4.5,33.1,6.8,51C215.5,233.3,221,222.1,227,209.3z"/>
	<path class="st0" d="M227.2,239.3l90.3-73.4l-34.7-40.3c-1.7-2-2.1-4.8-0.9-7.2c1.1-2.4,3.6-3.8,6.2-3.7l50.1,2.3l-16.3-72.2
		l-18.6-15.9c0,20.1-8.3,55.9-36.1,122.5C265.6,155.4,231.2,231,227.2,239.3z"/>
	<path class="st0" d="M230.1,118.3c1.1,2.4,0.8,5.2-0.9,7.2l-34.7,40.3l38.3,31.1c5.2-11.3,10.7-23.4,16.1-35.9
		C217.7,88.3,208.6,50,208.6,28.9l-18.5,15.8l-16.3,72.2l50.1-2.3C226.5,114.5,228.9,116,230.1,118.3z"/>
	<path class="st0" d="M288,16.6h-64c-3.9,7.6-6.7,34.5,32,127.7C294.7,51,291.8,24.1,288,16.6z"/>
	<path class="st0" d="M403.4,90.9c-9,12.1-26.2,47.8-6.9,130.2l24,90.6c0,0,0,0,0,0c14.5,55,21.4,157.2,23,183.7h4.9v-73.5
		c0-3.3,2.4-6.1,5.7-6.5c3.3-0.4,6.3,1.6,7.2,4.8l20.2,75.2h17.1c3.2-92.9-17.7-185.9-17.9-186.8
		C452.8,179.1,415.9,111.2,403.4,90.9z"/>
	<polygon class="st0" points="461.5,495.4 467.8,495.4 461.5,471.7 	"/>
	<path class="st0" d="M236.8,442.6c0.8,7.3,1.5,13.6,2,18.7c5.7,0.2,11.4,0.3,17.2,0.3c59.5,0,115.3-9.3,131.6-12.3
		c0.5-4.9,1.1-10.2,1.7-15.7c-44.6,6.9-88.8,9.3-128.4,9.3C252.7,442.9,244.6,442.8,236.8,442.6z"/>
	<path class="st0" d="M393,82.7l-54.2-22.5l14,62.2c0.5,2-0.1,4.1-1.4,5.7c-1.3,1.6-3.3,2.5-5.3,2.3l-43.5-2l29.2,33.9
		c1.2,1.3,1.7,3.1,1.6,4.9c-0.2,1.8-1,3.4-2.4,4.5l-116.5,94.7c7.8,59.1,15.9,121.7,20.8,163c45.9,1.2,100.6-0.5,155.8-9.4
		c0.7-4.9,1.3-10,2.1-15.1l-45-130.2c-1.2-3.4,0.6-7.2,4.1-8.3c3.4-1.2,7.2,0.6,8.4,4.1l36.7,106.3c4.6-30.2,9.1-56.7,10.2-63
		c0,0-23.7-89.5-23.7-89.5C363.3,137.3,381.6,97.8,393,82.7z M339.1,380.1c0,2.6-1.6,5-4,6l-27.7,11.8c-0.8,0.4-1.7,0.5-2.6,0.5
		c-0.9,0-1.8-0.2-2.6-0.5l0,0l-27.7-11.8c-2.4-1-4-3.4-4-6v-20.3c0-3.6,2.9-6.6,6.6-6.6h55.5c3.6,0,6.6,2.9,6.6,6.6V380.1z
		 M368.9,176.6l-66.9,62.7c-1.3,1.2-2.9,1.8-4.5,1.8c-1.8,0-3.5-0.7-4.8-2.1c-2.5-2.6-2.3-6.8,0.3-9.3l66.9-62.7
		c2.6-2.5,6.8-2.3,9.3,0.3C371.7,170,371.5,174.1,368.9,176.6z"/>
	<polygon class="st0" points="283.7,375.8 304.8,384.7 326,375.8 326,375.8 326,366.4 283.7,366.4 	"/>
</g>
</svg>
