<?xml version="1.0"?>
<svg xmlns="http://www.w3.org/2000/svg" xmlns:xlink="http://www.w3.org/1999/xlink" version="1.1" id="Capa_1" x="0px" y="0px" viewBox="0 0 512.001 512.001" style="enable-background:new 0 0 512.001 512.001;" xml:space="preserve" width="512px" height="512px" class=""><g><g>
	<path style="fill:#F4EFEF" d="M70.722,10H454.48c11.109,0,20.198,9.089,20.198,20.198v411.049   c0,11.109-9.089,20.198-20.198,20.198h-13.2V70.753c0-11.109-9.089-20.198-20.198-20.198H37.325L70.722,10z" data-original="#F0F0FB" class="" data-old_color="#EBE0E0"/>
	<path style="fill:#FCFAF8" d="M37.325,50.555h383.758c11.109,0,20.198,9.089,20.198,20.198v411.049   c0,11.109-9.089,20.198-20.198,20.198H37.325V50.555z" data-original="#FF8346" class="" data-old_color="#FF8346"/>
	<g>
		<path style="fill:#000000" d="M391.568,502H102.12c0-41.051,33.586-114.452,74.637-114.452h140.174    C357.982,387.548,391.568,460.949,391.568,502z" data-original="#5381D3" class="" data-old_color="#F2F2F2"/>
		<path style="fill:#000000" d="M246.844,387.548c39.387,0,71.512-32.124,71.512-71.512c0-39.387-32.125-71.511-71.512-71.511    s-71.512,32.124-71.512,71.511C175.331,355.424,207.456,387.548,246.844,387.548z" data-original="#5381D3" class="" data-old_color="#F2F2F2"/>
	</g>
	<polygon style="fill:#F4EFEF" points="87.036,322.777 149.982,354.249 149.982,354.249 87.036,385.722  " data-original="#F0F0FB" class="" data-old_color="#EBE0E0"/>
</g><path d="M454.48,0h-41.438c-5.523,0-10,4.478-10,10c0,5.523,4.477,10,10,10h41.438c5.623,0,10.198,4.575,10.198,10.198v411.049  c0,5.623-4.575,10.198-10.198,10.198h-3.2V70.753c0-16.651-13.547-30.198-30.198-30.198H58.515L75.442,20h258.633  c5.523,0,10-4.477,10-10c0-5.522-4.477-10-10-10H70.722c-0.001,0-0.002,0-0.002,0c-0.328,0-0.655,0.017-0.981,0.049  c-0.179,0.017-0.353,0.05-0.529,0.077c-0.144,0.022-0.289,0.038-0.433,0.066c-0.194,0.038-0.383,0.091-0.573,0.14  c-0.125,0.032-0.25,0.059-0.374,0.096c-0.179,0.054-0.351,0.12-0.525,0.183c-0.133,0.049-0.268,0.092-0.4,0.146  c-0.15,0.062-0.294,0.134-0.44,0.203c-0.151,0.071-0.304,0.139-0.452,0.218c-0.121,0.065-0.235,0.138-0.353,0.207  c-0.165,0.097-0.33,0.191-0.49,0.298c-0.102,0.068-0.198,0.145-0.298,0.217c-0.163,0.118-0.328,0.234-0.485,0.362  c-0.109,0.089-0.209,0.188-0.314,0.282c-0.137,0.122-0.276,0.239-0.407,0.37c-0.232,0.231-0.453,0.473-0.661,0.725L63.004,3.64  L29.608,44.194l0,0l-0.003,0.003c-0.011,0.014-0.02,0.028-0.031,0.042c-0.198,0.243-0.385,0.494-0.56,0.755  c-0.071,0.105-0.13,0.215-0.196,0.322c-0.106,0.171-0.214,0.341-0.309,0.519c-0.074,0.138-0.135,0.279-0.202,0.419  c-0.074,0.154-0.151,0.306-0.217,0.465c-0.065,0.155-0.116,0.314-0.173,0.471c-0.053,0.15-0.112,0.297-0.158,0.45  c-0.053,0.173-0.092,0.348-0.135,0.523c-0.035,0.142-0.075,0.281-0.104,0.426c-0.042,0.21-0.068,0.422-0.097,0.633  c-0.015,0.113-0.037,0.223-0.049,0.337c-0.033,0.335-0.051,0.67-0.05,1.005V502c0,5.522,4.477,10,10,10l106.233,0.001  c0.007,0-0.007,0,0,0l0,0c5.523,0,10-4.477,10-10c0-5.522-4.477-10-10-10h-30.801c4.636-38.81,33.997-94.453,63.999-94.453h140.176  c30.002,0,59.364,55.644,64,94.453H222.525c-5.523,0-10,4.478-10,10s4.477,10,10,10L421.082,512c0.007,0-0.007,0,0,0l0,0  c16.651,0,30.198-13.547,30.198-30.198v-10.356h3.2c16.651,0,30.198-13.547,30.198-30.198V30.198C484.678,13.547,471.131,0,454.48,0  z M185.333,316.036c0-33.917,27.594-61.511,61.511-61.511s61.512,27.594,61.512,61.511c0,33.918-27.594,61.512-61.512,61.512  S185.333,349.954,185.333,316.036z M431.28,481.802c0,5.623-4.575,10.198-10.198,10.198h-20.065  c-2.139-21.098-10.569-46.54-22.709-67.612c-17.401-30.205-39.199-46.84-61.377-46.84h-16.695  c17.208-14.956,28.119-36.977,28.119-61.512c0-44.945-36.566-81.511-81.512-81.511c-44.945,0-81.511,36.566-81.511,81.511  c0,24.535,10.912,46.556,28.119,61.512h-16.695c-22.178,0-43.976,16.635-61.377,46.84c-12.14,21.072-20.57,46.514-22.709,67.612  H47.325V60.555h373.757c5.623,0,10.198,4.575,10.198,10.198V481.802z" data-original="#000000" class="active-path" style="fill:#C50100" data-old_color="#C00100"/><path d="M246.51,181.196c-0.007-0.022-0.014-0.043-0.021-0.065l-18.288-55.955c-1.344-4.112-5.18-6.893-9.505-6.893  c-4.326,0-8.162,2.781-9.505,6.893l-18.288,55.958c-0.006,0.02-0.014,0.041-0.02,0.061l-3.978,12.172  c-1.716,5.25,1.149,10.896,6.399,12.611c5.249,1.716,10.896-1.15,12.612-6.399l1.776-5.434h22.01l1.776,5.434  c1.378,4.218,5.294,6.896,9.503,6.896c1.03,0,2.077-0.16,3.108-0.498c5.249-1.715,8.115-7.362,6.399-12.611L246.51,181.196z   M214.227,174.146l4.469-13.674l4.469,13.674H214.227z" data-original="#000000" class="active-path" style="fill:#C50100" data-old_color="#C00100"/><path d="M178.885,128.32v-0.038c0-0.051-0.007-0.101-0.008-0.152c-0.004-0.271-0.015-0.541-0.041-0.809  c-0.013-0.14-0.038-0.277-0.057-0.415c-0.025-0.179-0.047-0.358-0.082-0.535c-0.035-0.178-0.081-0.351-0.124-0.526  c-0.034-0.136-0.065-0.273-0.105-0.407c-0.054-0.183-0.119-0.36-0.183-0.539c-0.045-0.126-0.088-0.253-0.138-0.378  c-0.067-0.165-0.143-0.326-0.219-0.486c-0.064-0.136-0.126-0.273-0.195-0.406c-0.072-0.137-0.151-0.268-0.229-0.401  c-0.089-0.152-0.176-0.303-0.273-0.45c-0.071-0.107-0.147-0.209-0.222-0.313c-0.116-0.162-0.233-0.324-0.359-0.48  c-0.07-0.086-0.145-0.168-0.218-0.252c-0.139-0.16-0.278-0.319-0.428-0.471c-0.082-0.083-0.169-0.16-0.254-0.24  c-0.147-0.139-0.294-0.279-0.451-0.41c-0.119-0.099-0.245-0.19-0.368-0.284c-0.131-0.099-0.259-0.202-0.396-0.296  c-0.199-0.137-0.408-0.261-0.617-0.384c-0.065-0.038-0.124-0.082-0.191-0.118c-0.007-0.004-0.015-0.007-0.022-0.011  c-0.695-0.383-1.443-0.678-2.227-0.888c-0.851-0.229-1.715-0.35-2.575-0.351c-0.007,0-0.013-0.001-0.02-0.001  c-0.06,0-0.118,0.008-0.177,0.009c-0.261,0.005-0.521,0.014-0.78,0.039c-0.149,0.014-0.294,0.04-0.441,0.061  c-0.17,0.024-0.34,0.045-0.508,0.078c-0.187,0.036-0.37,0.084-0.553,0.131c-0.126,0.032-0.253,0.06-0.378,0.097  c-0.192,0.057-0.38,0.125-0.567,0.193c-0.117,0.042-0.234,0.081-0.349,0.128c-0.175,0.071-0.344,0.151-0.514,0.232  c-0.126,0.06-0.253,0.117-0.377,0.182c-0.146,0.077-0.287,0.161-0.429,0.245s-0.284,0.166-0.421,0.256  c-0.117,0.077-0.229,0.161-0.343,0.243c-0.152,0.109-0.303,0.218-0.449,0.336c-0.098,0.079-0.19,0.164-0.284,0.246  c-0.149,0.13-0.298,0.26-0.44,0.399c-0.094,0.093-0.181,0.191-0.271,0.287c-0.128,0.137-0.258,0.272-0.379,0.417  c-0.112,0.133-0.213,0.274-0.318,0.412c-0.088,0.117-0.179,0.229-0.262,0.351c-0.151,0.22-0.29,0.449-0.423,0.681  c-0.026,0.046-0.057,0.087-0.083,0.133l-0.019,0.034c-0.014,0.025-0.028,0.049-0.041,0.074l-28.874,52.166l-28.877-52.173  c-0.011-0.02-0.022-0.039-0.032-0.059l-0.024-0.043c-0.032-0.058-0.071-0.111-0.104-0.168c-0.127-0.219-0.257-0.435-0.4-0.643  c-0.088-0.129-0.185-0.249-0.279-0.373c-0.099-0.131-0.195-0.265-0.301-0.391c-0.126-0.151-0.26-0.291-0.394-0.433  c-0.085-0.09-0.168-0.184-0.256-0.271c-0.147-0.144-0.3-0.279-0.454-0.413c-0.089-0.078-0.176-0.158-0.269-0.233  c-0.151-0.123-0.308-0.235-0.466-0.348c-0.108-0.078-0.215-0.158-0.326-0.231c-0.143-0.094-0.291-0.18-0.439-0.267  c-0.136-0.08-0.271-0.161-0.411-0.235c-0.13-0.068-0.264-0.129-0.397-0.191c-0.163-0.077-0.326-0.155-0.494-0.223  c-0.122-0.049-0.247-0.091-0.371-0.136c-0.18-0.065-0.36-0.131-0.545-0.185c-0.133-0.039-0.268-0.069-0.402-0.103  c-0.176-0.044-0.351-0.091-0.53-0.125c-0.176-0.034-0.355-0.056-0.533-0.081c-0.139-0.019-0.277-0.044-0.418-0.057  c-0.267-0.026-0.535-0.036-0.804-0.041c-0.053-0.001-0.104-0.008-0.156-0.008c-0.006,0-0.011,0.001-0.017,0.001  c-0.854,0.001-1.712,0.12-2.556,0.346c-0.792,0.211-1.548,0.507-2.25,0.895c-0.006,0.004-0.013,0.006-0.019,0.01  c-0.059,0.032-0.111,0.071-0.169,0.105c-0.218,0.127-0.435,0.256-0.642,0.399c-0.131,0.089-0.252,0.187-0.377,0.282  c-0.13,0.098-0.262,0.194-0.386,0.298c-0.152,0.127-0.293,0.262-0.436,0.396c-0.09,0.085-0.183,0.166-0.269,0.255  c-0.145,0.147-0.28,0.301-0.414,0.456c-0.078,0.089-0.158,0.176-0.232,0.268c-0.122,0.151-0.234,0.307-0.347,0.463  c-0.079,0.11-0.159,0.217-0.234,0.33c-0.093,0.141-0.177,0.286-0.262,0.431c-0.082,0.139-0.165,0.277-0.24,0.42  c-0.066,0.127-0.125,0.256-0.185,0.385c-0.079,0.168-0.159,0.335-0.229,0.507c-0.047,0.117-0.087,0.235-0.129,0.353  c-0.068,0.186-0.135,0.372-0.191,0.563c-0.037,0.125-0.065,0.252-0.097,0.378c-0.047,0.184-0.095,0.367-0.131,0.555  c-0.032,0.165-0.052,0.331-0.076,0.498c-0.021,0.151-0.048,0.3-0.062,0.453c-0.024,0.251-0.033,0.503-0.038,0.755  c-0.001,0.067-0.01,0.132-0.01,0.2v0.05c0,0.021,0,0.043,0,0.065v68.077c0,5.522,4.477,10,10,10s10-4.478,10-10v-29.475  l18.934,34.207c0.027,0.048,0.061,0.09,0.089,0.137c0.178,0.31,0.371,0.61,0.583,0.9c0.044,0.06,0.084,0.124,0.129,0.183  c0.246,0.322,0.511,0.631,0.797,0.924c0.065,0.066,0.134,0.125,0.201,0.189c0.219,0.212,0.448,0.415,0.689,0.608  c0.108,0.087,0.217,0.171,0.328,0.253c0.223,0.164,0.455,0.317,0.695,0.464c0.107,0.066,0.21,0.137,0.319,0.198  c0.026,0.015,0.05,0.033,0.077,0.048c0.164,0.09,0.334,0.156,0.5,0.237c0.197,0.095,0.389,0.198,0.591,0.279  c0.267,0.108,0.538,0.19,0.809,0.274c0.133,0.041,0.263,0.093,0.398,0.129c0.354,0.094,0.71,0.159,1.068,0.213  c0.064,0.009,0.125,0.027,0.189,0.036c0.426,0.055,0.853,0.085,1.279,0.085c0.003,0,0.006-0.001,0.009-0.001  s0.006,0.001,0.009,0.001c0.426,0,0.853-0.03,1.279-0.086c0.062-0.008,0.122-0.025,0.183-0.035c0.36-0.054,0.719-0.12,1.075-0.214  c0.13-0.034,0.254-0.085,0.382-0.124c0.277-0.085,0.553-0.169,0.825-0.28c0.195-0.079,0.381-0.179,0.572-0.27  c0.172-0.083,0.348-0.151,0.517-0.245c0.028-0.015,0.052-0.034,0.079-0.049c0.105-0.059,0.205-0.128,0.308-0.191  c0.243-0.149,0.48-0.305,0.706-0.472c0.109-0.08,0.216-0.163,0.321-0.248c0.244-0.196,0.476-0.401,0.698-0.616  c0.064-0.062,0.131-0.119,0.194-0.183c0.287-0.294,0.553-0.603,0.799-0.926c0.045-0.059,0.085-0.122,0.129-0.181  c0.211-0.291,0.405-0.592,0.583-0.901c0.027-0.048,0.062-0.089,0.089-0.137L158.885,167v29.474c0,5.522,4.477,10,10,10  s10-4.478,10-10v-68.068C178.885,128.377,178.885,128.349,178.885,128.32z" data-original="#000000" class="active-path" style="fill:#C50100" data-old_color="#C00100"/><path d="M295.293,138.461h17.434c5.523,0,10-4.478,10-10s-4.477-10-10-10h-17.434c-24.216,0-43.917,19.701-43.917,43.917  s19.701,43.917,43.917,43.917h17.434c5.523,0,10-4.478,10-10v-35.967c0-5.523-4.477-10-10-10h-10.187c-5.523,0-10,4.477-10,10  c0,5.522,4.477,10,10,10h0.187v15.967h-7.434c-13.188,0-23.918-10.729-23.918-23.917S282.105,138.461,295.293,138.461z" data-original="#000000" class="active-path" style="fill:#C50100" data-old_color="#C00100"/><path d="M336.53,205.524c0.391,0.175,0.792,0.328,1.207,0.452c0.078,0.023,0.157,0.039,0.235,0.061  c0.332,0.09,0.669,0.163,1.013,0.219c0.122,0.02,0.244,0.041,0.366,0.056c0.386,0.048,0.777,0.08,1.176,0.083  c0.024,0,0.047,0.005,0.071,0.005c0.005,0,0.011-0.001,0.016-0.001h44.468c5.523,0,10-4.478,10-10c0-5.523-4.477-10-10-10h-25.992  l34.363-52.572c0.058-0.089,0.104-0.183,0.159-0.273c0.107-0.175,0.215-0.35,0.311-0.532c0.067-0.127,0.124-0.257,0.186-0.385  c0.079-0.166,0.159-0.331,0.229-0.502c0.062-0.152,0.114-0.306,0.168-0.46c0.053-0.152,0.109-0.302,0.155-0.457  c0.053-0.179,0.096-0.358,0.139-0.539c0.032-0.135,0.068-0.268,0.094-0.405c0.04-0.207,0.068-0.414,0.095-0.622  c0.015-0.116,0.034-0.231,0.046-0.349c0.022-0.235,0.03-0.47,0.036-0.705c0.002-0.081,0.012-0.161,0.012-0.242  c0-0.017-0.003-0.034-0.003-0.051c-0.001-0.233-0.018-0.465-0.035-0.697c-0.008-0.104-0.009-0.21-0.02-0.314  c-0.019-0.177-0.052-0.351-0.08-0.527c-0.025-0.153-0.042-0.309-0.074-0.46c-0.004-0.02-0.011-0.04-0.015-0.06  c-0.174-0.81-0.452-1.58-0.81-2.305c-0.057-0.116-0.107-0.235-0.168-0.349c-0.024-0.044-0.053-0.085-0.078-0.129  c-0.527-0.941-1.217-1.802-2.051-2.548c-0.111-0.099-0.217-0.203-0.332-0.298c-0.093-0.076-0.194-0.144-0.29-0.217  c-0.173-0.131-0.345-0.263-0.526-0.383c-0.016-0.01-0.03-0.023-0.046-0.033c-0.076-0.05-0.156-0.089-0.233-0.136  c-0.191-0.118-0.382-0.234-0.581-0.339c-0.113-0.06-0.228-0.11-0.342-0.165c-0.18-0.086-0.36-0.173-0.546-0.249  c-0.137-0.056-0.277-0.103-0.416-0.152c-0.166-0.059-0.332-0.12-0.502-0.17c-0.163-0.049-0.327-0.086-0.492-0.126  c-0.15-0.037-0.299-0.076-0.452-0.105c-0.19-0.037-0.38-0.062-0.571-0.087c-0.133-0.018-0.265-0.04-0.4-0.052  c-0.215-0.02-0.429-0.026-0.643-0.033c-0.098-0.003-0.194-0.015-0.294-0.015h-44.475c-5.523,0-10,4.478-10,10  c0,5.523,4.477,10,10,10h25.993l-34.363,52.572c-0.054,0.083-0.096,0.169-0.147,0.252c-0.113,0.183-0.225,0.367-0.326,0.558  c-0.063,0.119-0.117,0.241-0.174,0.362c-0.083,0.174-0.167,0.347-0.24,0.526c-0.059,0.144-0.108,0.29-0.159,0.436  c-0.057,0.16-0.115,0.318-0.163,0.481c-0.051,0.17-0.09,0.341-0.132,0.512c-0.035,0.144-0.072,0.286-0.1,0.433  c-0.038,0.197-0.064,0.394-0.09,0.592c-0.017,0.126-0.038,0.251-0.05,0.379c-0.021,0.224-0.028,0.447-0.034,0.671  c-0.002,0.091-0.014,0.179-0.014,0.27c0,0.019,0.003,0.037,0.003,0.056c0.001,0.218,0.017,0.436,0.033,0.653  c0.008,0.119,0.01,0.24,0.022,0.357c0.017,0.153,0.046,0.304,0.07,0.456c0.165,1.074,0.495,2.09,0.973,3.023  c0.036,0.07,0.065,0.143,0.102,0.212c0.048,0.088,0.105,0.17,0.155,0.257c0.51,0.881,1.161,1.689,1.944,2.395  c0.122,0.111,0.241,0.225,0.368,0.33c0.086,0.07,0.18,0.134,0.269,0.202c0.179,0.137,0.359,0.273,0.547,0.398  c0.015,0.01,0.028,0.022,0.043,0.031c0.031,0.02,0.065,0.033,0.096,0.053c0.342,0.219,0.7,0.415,1.069,0.592  C336.379,205.451,336.454,205.49,336.53,205.524z" data-original="#000000" class="active-path" style="fill:#C50100" data-old_color="#C00100"/><path d="M154.454,345.305l-62.945-31.473c-3.101-1.551-6.781-1.384-9.729,0.438s-4.743,5.041-4.743,8.507v62.945  c0,3.466,1.794,6.685,4.743,8.507c1.606,0.992,3.429,1.493,5.258,1.493c1.528,0,3.06-0.35,4.472-1.056l62.945-31.473  c3.388-1.694,5.528-5.156,5.528-8.944C159.982,350.461,157.84,346.999,154.454,345.305z M97.036,369.541v-30.584l30.584,15.292  L97.036,369.541z" data-original="#000000" class="active-path" style="fill:#C50100" data-old_color="#C00100"/><path d="M386.604,336.564h-5.711v-49.242c0-3.631-1.968-6.977-5.142-8.74c-3.173-1.766-7.054-1.67-10.138,0.248l-14.711,9.146  c-4.69,2.915-6.129,9.082-3.213,13.771c2.8,4.504,8.595,6.01,13.204,3.542v31.275h-5.904c-5.523,0-10,4.478-10,10s4.477,10,10,10  h15.904h15.711c5.523,0,10-4.478,10-10C396.604,341.041,392.127,336.564,386.604,336.564z" data-original="#000000" class="active-path" style="fill:#C50100" data-old_color="#C00100"/><path d="M363.159,20h0.475c5.523,0,10-4.477,10-10c0-5.522-4.477-10-10-10h-0.475c-5.523,0-10,4.478-10,10  C353.159,15.523,357.636,20,363.159,20z" data-original="#000000" class="active-path" style="fill:#C50100" data-old_color="#C00100"/><path d="M173.117,492.001h-0.475c-5.523,0-10,4.478-10,10s4.477,10,10,10h0.475c5.523,0,10-4.477,10-10  C183.117,496.479,178.64,492.001,173.117,492.001z" data-original="#000000" class="active-path" style="fill:#C50100" data-old_color="#C00100"/></g> </svg>
