<?xml version="1.0" encoding="utf-8"?>
<!-- Generator: Adobe Illustrator 23.0.2, SVG Export Plug-In . SVG Version: 6.00 Build 0)  -->
<svg version="1.1" id="Capa_1" xmlns="http://www.w3.org/2000/svg" xmlns:xlink="http://www.w3.org/1999/xlink" x="0px" y="0px"
	 viewBox="0 0 512 512" style="enable-background:new 0 0 512 512;" xml:space="preserve">
<style type="text/css">
	.st0{fill:#F4EFEF;}
	.st1{fill:#FCFAF8;}
	.st2{fill:#8E0A0A;}
	.st3{fill:#C50100;}
	.st4{font-family:'BookAntiqua';}
	.st5{font-size:87px;}
</style>
<g>
	<g>
		<path class="st0" d="M70.7,10h383.8c11.1,0,20.2,9.1,20.2,20.2v411c0,11.1-9.1,20.2-20.2,20.2h-13.2V70.8
			c0-11.1-9.1-20.2-20.2-20.2H37.3L70.7,10z"/>
		<path class="st1" d="M37.3,50.6h383.8c11.1,0,20.2,9.1,20.2,20.2v411c0,11.1-9.1,20.2-20.2,20.2H37.3V50.6z"/>
		<g>
			<path d="M391.6,502H102.1c0-41.1,33.6-114.5,74.6-114.5h140.2C358,387.5,391.6,460.9,391.6,502z"/>
			<path d="M246.8,387.5c39.4,0,71.5-32.1,71.5-71.5c0-39.4-32.1-71.5-71.5-71.5s-71.5,32.1-71.5,71.5
				C175.3,355.4,207.5,387.5,246.8,387.5z"/>
		</g>
		<polygon class="st0" points="87,322.8 150,354.2 150,354.2 87,385.7 		"/>
	</g>
	<path class="st2" d="M454.5,0H413c-5.5,0-10,4.5-10,10c0,5.5,4.5,10,10,10h41.4c5.6,0,10.2,4.6,10.2,10.2v411
		c0,5.6-4.6,10.2-10.2,10.2h-3.2V70.8c0-16.7-13.5-30.2-30.2-30.2H58.5L75.4,20h258.6c5.5,0,10-4.5,10-10c0-5.5-4.5-10-10-10H70.7
		c0,0,0,0,0,0c-0.3,0-0.7,0-1,0c-0.2,0-0.4,0.1-0.5,0.1c-0.1,0-0.3,0-0.4,0.1c-0.2,0-0.4,0.1-0.6,0.1c-0.1,0-0.3,0.1-0.4,0.1
		c-0.2,0.1-0.4,0.1-0.5,0.2c-0.1,0-0.3,0.1-0.4,0.1c-0.2,0.1-0.3,0.1-0.4,0.2C66.3,1,66.2,1.1,66,1.2c-0.1,0.1-0.2,0.1-0.4,0.2
		c-0.2,0.1-0.3,0.2-0.5,0.3c-0.1,0.1-0.2,0.1-0.3,0.2c-0.2,0.1-0.3,0.2-0.5,0.4c-0.1,0.1-0.2,0.2-0.3,0.3c-0.1,0.1-0.3,0.2-0.4,0.4
		c-0.2,0.2-0.5,0.5-0.7,0.7l0,0L29.6,44.2l0,0l0,0c0,0,0,0,0,0c-0.2,0.2-0.4,0.5-0.6,0.8c-0.1,0.1-0.1,0.2-0.2,0.3
		c-0.1,0.2-0.2,0.3-0.3,0.5c-0.1,0.1-0.1,0.3-0.2,0.4c-0.1,0.2-0.2,0.3-0.2,0.5C28,46.9,28,47,27.9,47.2c-0.1,0.2-0.1,0.3-0.2,0.5
		c-0.1,0.2-0.1,0.3-0.1,0.5c0,0.1-0.1,0.3-0.1,0.4c0,0.2-0.1,0.4-0.1,0.6c0,0.1,0,0.2,0,0.3c0,0.3-0.1,0.7,0,1V502
		c0,5.5,4.5,10,10,10l106.2,0c0,0,0,0,0,0l0,0c5.5,0,10-4.5,10-10c0-5.5-4.5-10-10-10h-30.8c4.6-38.8,34-94.5,64-94.5h140.2
		c30,0,59.4,55.6,64,94.5H222.5c-5.5,0-10,4.5-10,10s4.5,10,10,10l198.6,0c0,0,0,0,0,0l0,0c16.7,0,30.2-13.5,30.2-30.2v-10.4h3.2
		c16.7,0,30.2-13.5,30.2-30.2V30.2C484.7,13.5,471.1,0,454.5,0z M185.3,316c0-33.9,27.6-61.5,61.5-61.5s61.5,27.6,61.5,61.5
		c0,33.9-27.6,61.5-61.5,61.5S185.3,350,185.3,316z M431.3,481.8c0,5.6-4.6,10.2-10.2,10.2H401c-2.1-21.1-10.6-46.5-22.7-67.6
		c-17.4-30.2-39.2-46.8-61.4-46.8h-16.7c17.2-15,28.1-37,28.1-61.5c0-44.9-36.6-81.5-81.5-81.5c-44.9,0-81.5,36.6-81.5,81.5
		c0,24.5,10.9,46.6,28.1,61.5h-16.7c-22.2,0-44,16.6-61.4,46.8c-12.1,21.1-20.6,46.5-22.7,67.6H47.3V60.6h373.8
		c5.6,0,10.2,4.6,10.2,10.2V481.8z"/>
	<path class="st3" d="M363.2,20h0.5c5.5,0,10-4.5,10-10c0-5.5-4.5-10-10-10h-0.5c-5.5,0-10,4.5-10,10C353.2,15.5,357.6,20,363.2,20z
		"/>
	<path class="st3" d="M173.1,492h-0.5c-5.5,0-10,4.5-10,10s4.5,10,10,10h0.5c5.5,0,10-4.5,10-10C183.1,496.5,178.6,492,173.1,492z"
		/>
	<text transform="matrix(1 0 0 1 96 157)" class="st2 st4 st5">T I M E</text>
</g>
</svg>
