<?xml version="1.0" encoding="utf-8"?>
<!-- Generator: Adobe Illustrator 23.0.2, SVG Export Plug-In . SVG Version: 6.00 Build 0)  -->
<svg version="1.1" id="Layer_1" xmlns="http://www.w3.org/2000/svg" xmlns:xlink="http://www.w3.org/1999/xlink" x="0px" y="0px"
	 viewBox="0 0 512 512" style="enable-background:new 0 0 512 512;" xml:space="preserve">
<style type="text/css">
	.st0{fill:#750E17;}
	.st1{fill:#432D1F;}
	.st2{fill:#600C13;}
	.st3{fill:#2C1D15;}
	.st4{fill:#DDF5FF;}
	.st5{fill:#C1E9F4;}
</style>
<g>
	<path class="st0" d="M205.4,50V17.7c0-5.6,5.8-10.1,12.9-10.1h64.5c7.1,0,12.9,4.5,12.9,10.1V50H205.4z"/>
	<path class="st1" d="M205.4,50c-0.9,51.6,7.3,63.6-40,131.3c-19.8,28.3-26.8,48.6-27.1,74.7c-0.2,21.2,5.2,39.9,9,57.6
		c16,74.8,22.7,110.4-5,150.8c-2.7,3.9-4,8.3-4,12.8c0,15.1,15.6,27.3,34.9,27.3h154.8c19.2,0,34.8-12.2,34.8-27.3
		c0-4.4-1.4-8.8-4-12.8c-27.7-40.5-21-76.1-5-150.8c3.8-17.7,9.2-36.4,9-57.6c-0.3-26.2-7.3-46.4-27.1-74.7
		c-47.3-67.7-39.1-79.7-40-131.3H205.4z"/>
	<path class="st2" d="M282.8,7.6h-11.6v18.2c0,5.6-5.8,10.1-12.9,10.1h-52.9V50h90.3V17.7C295.7,12.1,289.9,7.6,282.8,7.6z"/>
	<path class="st3" d="M353.8,313.6c3.8-17.7,9.2-36.4,9-57.6c-0.3-26.2-7.3-46.4-27.1-74.7c-47.3-67.7-39.1-79.7-40-131.3h-24.5
		c0.9,51.6-7.3,63.6,40,131.3c19.8,28.3,26.8,48.6,27.1,74.7c0.2,21.2-5.2,39.9-9,57.6c-16,74.8-22.7,110.4,5,150.8
		c2.7,3.9,4,8.3,4,12.8c0,15.1-15.6,27.3-34.8,27.3h24.5c19.2,0,34.8-12.2,34.8-27.3c0-4.4-1.4-8.8-4-12.8
		C331.1,423.9,337.7,388.3,353.8,313.6z"/>
	<path class="st0" d="M138.3,256c-0.2,20.8,5,39.2,8.8,56.6H354c3.8-17.4,9-35.7,8.8-56.6c-0.2-19.5-4.2-35.8-14.4-54.5H152.7
		C142.5,220.2,138.5,236.5,138.3,256z"/>
	<path class="st2" d="M348.4,201.5h-24.5c10.2,18.8,14.2,35,14.4,54.5c0.2,20.8-5,39.2-8.8,56.6H354c3.8-17.4,9-35.7,8.8-56.6
		C362.6,236.5,358.6,220.2,348.4,201.5z"/>
	<path class="st4" d="M281.4,235.4c-20.9-11.3-48.9-24.9-83.6-33.9h-45.2c-9.3,17-13.4,32-14.2,49.2c32.4,3.7,59.1,16,81.3,28
		c13,7,43,23.2,84.2,33.9h50c3.3-15.3,7.8-31.4,8.7-49.2C329.8,259.5,302.4,246.8,281.4,235.4z"/>
	<path class="st5" d="M354.9,308.5c3.4-15,7-29.9,7.8-45.1c-8.5-1-16.6-2.6-24.4-4.6c-0.2,19.7-5.2,37.2-8.8,53.8H354
		C354.3,311.2,354.6,309.8,354.9,308.5C355.1,307.7,354.8,308.8,354.9,308.5z"/>
	<path d="M363.3,314.8c0.7-3.3,1.5-6.6,2.2-10c3-13,6-26.4,6.8-41.1c0,0,0,0,0,0c0.1-2.5,0.2-5.1,0.2-7.7c-0.3-28-8-49.2-28.3-78.3
		c-27.3-39-34.6-57.9-37.3-74.4c-0.7-4.1-5.5-7.1-10.8-6.6c-5.3,0.5-9,4.3-8.4,8.5c3.5,21.8,14.6,44.1,39.5,79.7
		c2.2,3.1,4.2,6.1,6,9H312c-5.3,0-9.7,3.4-9.7,7.6s4.3,7.6,9.7,7.6h29.8c7.5,15.1,10.8,28.9,11.2,45.1c-26.6-5-49.1-15.8-66.1-25
		c-10.8-5.8-25-13.1-42.1-20.1h21.8c5.3,0,9.7-3.4,9.7-7.6s-4.3-7.6-9.7-7.6h-98.7c1.9-2.9,3.8-5.9,6-9
		c41.7-59.6,41.5-78,41.2-114.7c0-3.9-0.1-8.1-0.1-12.6h71.1c0,3.9,0,7.8-0.1,11.8c0,4.2,4.3,7.6,9.6,7.6h0.1c5.3,0,9.6-3.4,9.7-7.5
		c0-5.1,0-51.8,0-51.8c0-9.7-10.1-17.7-22.6-17.7h-64.5c-12.5,0-22.6,7.9-22.6,17.7c0,0-0.1,46.6,0,52.6
		c0.3,35.2,0.5,51.2-38.8,107.4c-20.3,29.1-28,50.3-28.3,78.3c-0.2,17.9,3.4,33.7,6.9,48.9c0.8,3.4,1.5,6.7,2.2,10
		c4.3,19.9,8,37.6,10.4,52.9c0.7,4.1,5.6,7.1,10.8,6.6c5.2-0.5,9.1-4.4,8.4-8.5c-2.2-13.5-5.3-28.8-8.9-45.7h184
		c-14.4,67.2-21.2,105.7,7.7,147.9c1.9,2.8,2.9,5.9,2.9,9.2c0,10.9-11.3,19.7-25.2,19.7H173.1c-13.9,0-25.2-8.8-25.2-19.7
		c0-3.2,1-6.4,2.9-9.2c14-20.4,20.2-40.7,20-65.6c0-4.2-4.3-7.5-9.7-7.5c0,0,0,0,0,0c-5.3,0-9.7,3.4-9.6,7.6
		c0.1,22.6-5.2,40-17.8,58.4c-3.4,5-5.2,10.6-5.2,16.3c0,19.2,20,34.9,44.5,34.9h154.8c24.6,0,44.5-15.6,44.5-34.9
		c0-5.7-1.8-11.4-5.2-16.3C341.5,423.1,347,390.8,363.3,314.8C364,311.5,347,390.8,363.3,314.8z M218.3,15.1h64.5
		c1.8,0,3.2,1.1,3.2,2.5v24.7h-71V17.7C215.1,16.3,216.5,15.1,218.3,15.1z M196.2,209c34.4,9.2,61.9,23,79.7,32.6
		c19.4,10.5,45.2,22.8,76.6,28c-1.1,11.4-3.6,22.1-6,32.6c-0.2,0.9-0.4,1.9-0.6,2.8h-40.3c-39.3-10.4-68-25.9-80.3-32.6
		c-20.7-11.2-45.8-23-76.6-28c1.3-12.2,4.6-23.4,10.6-35.3L196.2,209L196.2,209z M154.6,302.2c-3.1-13.5-6.3-27.3-6.6-42.4
		c26.1,4.8,48,15.2,66.3,25.1c8,4.3,22.5,12.2,42.2,20.1H155.2C155,304,154.8,303.1,154.6,302.2z"/>
</g>
</svg>
