<?xml version="1.0"?>
<svg xmlns="http://www.w3.org/2000/svg" height="512px" viewBox="-160 0 511 512" width="512px" class=""><g><path d="m60.589844 49.988281v-32.316406c0-5.574219 4.523437-10.097656 10.101562-10.097656h50.492188c5.578125 0 10.097656 4.519531 10.097656 10.097656v32.316406zm0 0" fill="#da2f3c" data-original="#DA2F3C" class="" style="fill:#750E17" data-old_color="#750F18"/><path d="m60.589844 49.988281c-.714844 51.628907 5.722656 63.621094-31.304688 131.28125-15.492187 28.308594-20.996094 48.578125-21.207031 74.730469-.167969 21.203125 4.101563 39.878906 7.070313 57.5625 12.542968 74.78125 17.777343 110.378906-3.902344 150.839844-2.101563 3.917968-3.167969 8.304687-3.167969 12.75 0 15.0625 12.210937 27.273437 27.277344 27.273437h121.164062c15.0625 0 27.273438-12.210937 27.273438-27.273437 0-4.445313-1.066407-8.832032-3.164063-12.75-21.683594-40.460938-16.449218-76.058594-3.902344-150.839844 2.964844-17.683594 7.238282-36.359375 7.066407-57.5625-.207031-26.152344-5.714844-46.421875-21.207031-74.730469-37.027344-67.660156-30.589844-79.652343-31.304688-131.28125zm0 0" fill="#a77554" data-original="#A77554" class="" style="fill:#432D1F" data-old_color="#A77554"/><path d="m121.183594 7.574219h-9.09375v18.179687c0 5.574219-4.523438 10.097656-10.097656 10.097656h-41.402344v14.136719h70.691406v-32.316406c0-5.578125-4.519531-10.097656-10.097656-10.097656zm0 0" fill="#c62430" data-original="#C62430" class="active-path" style="fill:#600C13" data-old_color="#C62430"/><path d="m176.726562 313.5625c2.964844-17.683594 7.238282-36.359375 7.066407-57.5625-.207031-26.152344-5.714844-46.421875-21.207031-74.730469-37.027344-67.660156-30.589844-79.652343-31.304688-131.28125h-19.191406c.714844 51.628907-5.722656 63.621094 31.304687 131.28125 15.492188 28.308594 20.996094 48.578125 21.207031 74.730469.171876 21.203125-4.101562 39.878906-7.066406 57.5625-12.546875 74.78125-17.78125 110.378906 3.902344 150.839844 2.097656 3.914062 3.164062 8.304687 3.164062 12.75 0 15.0625-12.210937 27.273437-27.273437 27.273437h19.191406c15.0625 0 27.273438-12.210937 27.273438-27.273437 0-4.445313-1.066407-8.832032-3.164063-12.75-21.679687-40.460938-16.449218-76.058594-3.902344-150.839844zm0 0" fill="#915431" data-original="#915431" class="" style="fill:#2C1D15" data-old_color="#36241A"/><path d="m8.078125 256c-.167969 20.804688 3.9375 39.167969 6.894531 56.550781h161.925782c2.957031-17.382812 7.0625-35.746093 6.894531-56.550781-.15625-19.523438-3.265625-35.773438-11.277344-54.53125h-153.15625c-8.011719 18.757812-11.125 35.007812-11.28125 54.53125zm0 0" fill="#da2f3c" data-original="#DA2F3C" class="" style="fill:#750E17" data-old_color="#750F18"/><path d="m172.515625 201.46875h-19.191406c8.011719 18.757812 11.121093 35.003906 11.277343 54.53125.167969 20.804688-3.9375 39.167969-6.894531 56.550781h19.191407c2.957031-17.382812 7.0625-35.746093 6.894531-56.550781-.15625-19.523438-3.265625-35.773438-11.277344-54.53125zm0 0" fill="#c62430" data-original="#C62430" class="active-path" style="fill:#600C13" data-old_color="#C62430"/><path d="m120.109375 235.398438c-16.375-11.3125-38.308594-24.851563-65.410156-33.929688h-35.339844c-7.265625 17.007812-10.492187 31.960938-11.148437 49.152344 25.390624 3.6875 46.21875 15.953125 63.648437 28 10.152344 7.015625 33.632813 23.222656 65.914063 33.933594h39.125c2.601562-15.308594 6.09375-31.378907 6.777343-49.203126-25.738281-3.847656-47.144531-16.601562-63.566406-27.953124zm0 0" fill="#ddf5ff" data-original="#DDF5FF" class=""/><path d="m177.605469 308.484375c2.648437-14.957031 5.488281-29.917969 6.070312-45.132813-6.65625-.996093-13.019531-2.59375-19.085937-4.605468-.191406 19.679687-4.058594 37.191406-6.882813 53.804687h19.191407c.230468-1.355469.46875-2.710937.707031-4.066406.144531-.800781-.054688.308594 0 0zm0 0" fill="#c1e9f4" data-original="#C1E9F4"/><path d="m184.195312 314.816406c.550782-3.285156 1.144532-6.601562 1.75-9.964844 2.332032-12.984374 4.730469-26.355468 5.296876-41.136718 0-.011719 0-.019532 0-.03125.097656-2.539063.144531-5.117188.125-7.746094-.226563-28.003906-6.226563-49.226562-22.136719-78.304688-21.339844-38.996093-27.113281-57.9375-29.214844-74.382812-.53125-4.148438-4.324219-7.078125-8.472656-6.554688-4.148438.53125-7.082031 4.324219-6.550781 8.476563 2.777343 21.757813 11.457031 44.113281 30.949218 79.734375 1.691406 3.089844 3.25 6.074219 4.703125 8.984375h-16.570312c-4.183594 0-7.574219 3.390625-7.574219 7.574219s3.390625 7.574218 7.574219 7.574218h23.335937c5.886719 15.101563 8.464844 28.949219 8.769532 45.140626-20.820313-4.960938-38.390626-15.769532-51.765626-25.011719-8.4375-5.832031-19.554687-13.121094-32.941406-20.128907h17.023438c4.183594 0 7.574218-3.390624 7.574218-7.574218s-3.390624-7.574219-7.574218-7.574219h-77.269532c1.453126-2.910156 3.011719-5.894531 4.703126-8.984375 32.605468-59.582031 32.476562-78.015625 32.21875-114.738281-.023438-3.878907-.054688-8.089844-.042969-12.605469h55.664062c.007813 3.949219-.011719 7.769531-.042969 11.808594-.027343 4.179687 3.339844 7.597656 7.523438 7.625h.054688c4.15625 0 7.542968-3.355469 7.570312-7.519532.035156-5.066406-.019531-51.804687-.019531-51.804687 0-9.742187-7.929688-17.671875-17.671875-17.671875h-50.492188c-9.746094 0-17.675781 7.929688-17.675781 17.671875 0 0-.054687 46.601563-.011719 52.605469.246094 35.171875.355469 51.222656-30.363281 107.359375-15.910156 29.074219-21.910156 50.296875-22.136719 78.304687-.144531 17.941406 2.6875 33.6875 5.421875 48.914063.605469 3.363281 1.203125 6.675781 1.753907 9.960937 3.335937 19.890625 6.253906 37.601563 8.171874 52.90625.515626 4.09375 4.363282 7.089844 8.457032 6.574219 4.097656-.515625 7.085937-4.363281 6.574218-8.460937-1.699218-13.535157-4.144531-28.796876-6.960937-45.707032h144.023437c-11.238281 67.238282-16.59375 105.671875 6.007813 147.851563 1.484375 2.765625 2.265625 5.941406 2.265625 9.171875 0 10.863281-8.835938 19.699218-19.699219 19.699218h-121.164062c-10.863281 0-19.703125-8.835937-19.703125-19.699218 0-3.230469.785156-6.402344 2.269531-9.171875 10.949219-20.4375 15.789063-40.664063 15.683594-65.582031-.015625-4.171876-3.402344-7.542969-7.570313-7.542969-.011718 0-.023437 0-.03125 0-4.183594.015625-7.5625 3.421875-7.542968 7.605469.089843 22.566406-4.0625 40.019531-13.894532 58.363281-2.65625 4.964843-4.0625 10.609375-4.0625 16.324219 0 19.21875 15.632813 34.851562 34.847656 34.851562h121.164063c19.21875 0 34.851563-15.632812 34.851563-34.851562 0-5.714844-1.40625-11.363282-4.0625-16.324219-20.214844-37.726563-15.851563-70.054688-3.109376-146.007813.550782-3.285156-12.742187 75.953125 0 0zm-113.507812-299.667968h50.496094c1.390625 0 2.523437 1.132812 2.523437 2.523437v24.742187h-55.542969v-24.742187c0-1.390625 1.132813-2.523437 2.523438-2.523437zm-17.273438 193.890624c26.933594 9.207032 48.472657 22.976563 62.386719 32.59375 15.148438 10.464844 35.339844 22.777344 59.921875 27.957032-.878906 11.363281-2.804687 22.105468-4.6875 32.585937-.167968.9375-.332031 1.867188-.5 2.804688h-31.511718c-30.722657-10.390625-53.195313-25.914063-62.855469-32.589844-16.195313-11.191406-35.820313-23.039063-59.980469-28.027344 1.027344-12.175781 3.609375-23.355469 8.273438-35.320312h28.953124zm-32.578124 93.136719c-2.417969-13.457031-4.90625-27.339843-5.164063-42.433593 20.441406 4.769531 37.570313 15.21875 51.882813 25.109374 6.253906 4.320313 17.601562 12.160157 32.996093 20.128907h-79.214843c-.164063-.933594-.332032-1.863281-.5-2.804688zm0 0" data-original="#000000"/></g> </svg>
