<?xml version="1.0" encoding="utf-8"?>
<!-- Generator: Adobe Illustrator 23.0.2, SVG Export Plug-In . SVG Version: 6.00 Build 0)  -->
<svg version="1.1" id="Capa_1" xmlns="http://www.w3.org/2000/svg" xmlns:xlink="http://www.w3.org/1999/xlink" x="0px" y="0px"
	 viewBox="0 0 800 800" style="enable-background:new 0 0 800 800;" xml:space="preserve">
<style type="text/css">
	.st0{fill:#FFFFFF;}
	.st1{fill:#103B9B;}
	.st2{fill:#ED1F34;}
</style>
<g>
	<path class="st0" d="M116.1,645.2h658.1V154.8H25.8v490.3h38.7c7.1,0,12.9,5.8,12.9,12.9h25.8C103.2,650.9,109,645.2,116.1,645.2z
		 M229.2,568.6c-2,1.2-4.3,1.7-6.4,1.7c-4.5,0-8.8-2.3-11.2-6.5l-15.3-26.4c-3.6-6.2-1.4-14.1,4.7-17.6c6.2-3.6,14.1-1.5,17.6,4.7
		l15.3,26.4C237.5,557.2,235.4,565.1,229.2,568.6z M190.3,514.1c-4.5,0-8.8-2.3-11.2-6.5l-15.3-26.4c-3.6-6.2-1.4-14.1,4.7-17.6
		c6.2-3.6,14.1-1.5,17.6,4.7l15.3,26.4c3.6,6.2,1.4,14.1-4.7,17.6C194.7,513.6,192.5,514.1,190.3,514.1z M259,551.4
		c-2,1.2-4.3,1.7-6.4,1.7c-4.5,0-8.8-2.3-11.2-6.5L193.6,464c-3.6-6.2-1.4-14.1,4.7-17.6c6.2-3.6,14.1-1.5,17.6,4.7l47.7,82.7
		C267.3,540,265.2,547.9,259,551.4z M547.5,553.2c-2.2,0-4.4-0.6-6.4-1.7c-6.2-3.6-8.3-11.5-4.7-17.6l15.3-26.4
		c3.6-6.2,11.5-8.3,17.6-4.7c6.2,3.6,8.3,11.5,4.7,17.6l-15.3,26.4C556.3,550.9,551.9,553.2,547.5,553.2z M568.8,477.6l15.3-26.4
		c3.6-6.2,11.5-8.3,17.6-4.7c6.2,3.6,8.3,11.5,4.7,17.6l-15.3,26.4c-2.4,4.1-6.7,6.5-11.2,6.5c-2.2,0-4.4-0.6-6.4-1.7
		C567.3,491.6,565.2,483.7,568.8,477.6z M573.5,304.8c6.2-3.6,14.1-1.4,17.6,4.7l15.3,26.4c3.6,6.2,1.4,14.1-4.7,17.6
		c-2,1.2-4.3,1.7-6.4,1.7c-4.5,0-8.8-2.3-11.2-6.5l-15.3-26.4C565.2,316.3,567.3,308.4,573.5,304.8z M613.8,468.3
		c3.6-6.2,11.4-8.3,17.6-4.7c6.2,3.6,8.3,11.5,4.7,17.6l-15.3,26.4c-2.4,4.1-6.7,6.5-11.2,6.5c-2.2,0-4.4-0.6-6.4-1.7
		c-6.2-3.6-8.3-11.5-4.7-17.6L613.8,468.3z M577.3,570.4c-2.2,0-4.4-0.6-6.4-1.7c-6.2-3.6-8.3-11.5-4.7-17.6l15.3-26.4
		c3.6-6.2,11.4-8.3,17.6-4.7c6.2,3.6,8.3,11.5,4.7,17.6l-15.3,26.4C586.1,568.1,581.7,570.4,577.3,570.4z M633.5,554.7l-15.3,26.4
		c-2.4,4.1-6.7,6.5-11.2,6.5c-2.2,0-4.4-0.6-6.4-1.7c-6.2-3.6-8.3-11.5-4.7-17.6l15.3-26.4c3.6-6.2,11.4-8.3,17.6-4.7
		C635,540.6,637.1,548.5,633.5,554.7z M666,498.4l-15.3,26.4c-2.4,4.1-6.7,6.5-11.2,6.5c-2.2,0-4.4-0.6-6.4-1.7
		c-6.2-3.6-8.3-11.5-4.7-17.6l15.3-26.4c3.6-6.2,11.4-8.3,17.6-4.7C667.4,484.4,669.5,492.3,666,498.4z M650.7,275.1l15.3,26.4
		c3.6,6.2,1.4,14.1-4.7,17.6c-2,1.2-4.3,1.7-6.4,1.7c-4.5,0-8.8-2.3-11.2-6.5L628.4,288c-3.6-6.2-1.4-14.1,4.7-17.6
		C639.3,266.8,647.2,268.9,650.7,275.1z M600.6,214.1c6.2-3.6,14.1-1.4,17.6,4.7l15.3,26.4c3.6,6.2,1.4,14.1-4.7,17.6
		c-2,1.2-4.3,1.7-6.4,1.7c-4.5,0-8.8-2.3-11.2-6.5l-15.3-26.4C592.3,225.6,594.4,217.7,600.6,214.1z M570.8,231.4
		c6.2-3.6,14.1-1.4,17.6,4.7l47.7,82.7c3.6,6.2,1.4,14.1-4.7,17.6c-2,1.2-4.3,1.7-6.4,1.7c-4.5,0-8.8-2.3-11.2-6.5L566.1,249
		C562.5,242.8,564.6,234.9,570.8,231.4z M541,248.6c6.2-3.6,14.1-1.4,17.6,4.7l15.3,26.4c3.6,6.2,1.4,14.1-4.7,17.6
		c-2,1.2-4.3,1.7-6.4,1.7c-4.5,0-8.8-2.3-11.2-6.5l-15.3-26.4C532.7,260,534.8,252.1,541,248.6z M400,258.1
		c78.3,0,141.9,63.7,141.9,141.9S478.3,541.9,400,541.9S258.1,478.3,258.1,400C258.1,321.7,321.7,258.1,400,258.1z M259,248.6
		c6.2,3.6,8.3,11.5,4.7,17.6L216,348.9c-2.4,4.1-6.7,6.5-11.2,6.5c-2.2,0-4.4-0.6-6.4-1.7c-6.2-3.6-8.3-11.5-4.7-17.6l47.7-82.7
		C244.9,247.1,252.8,245,259,248.6z M229.2,231.4c6.2,3.6,8.3,11.5,4.7,17.6l-47.7,82.7c-2.4,4.1-6.7,6.5-11.2,6.5
		c-2.2,0-4.4-0.6-6.4-1.7c-6.2-3.6-8.3-11.5-4.7-17.6l47.7-82.7C215.1,229.9,223,227.8,229.2,231.4z M134,301.6l47.7-82.7
		c3.6-6.2,11.5-8.3,17.6-4.7c6.2,3.6,8.3,11.5,4.7,17.6l-47.7,82.7c-2.4,4.1-6.7,6.5-11.2,6.5c-2.2,0-4.4-0.6-6.4-1.7
		C132.6,315.6,130.4,307.7,134,301.6z M138.7,480.8c6.2-3.6,14.1-1.5,17.6,4.7l47.7,82.7c3.6,6.2,1.4,14.1-4.7,17.6
		c-2,1.2-4.3,1.7-6.4,1.7c-4.5,0-8.8-2.3-11.2-6.5L134,498.4C130.4,492.3,132.6,484.4,138.7,480.8z"/>
	<path d="M787.1,129H12.9C5.8,129,0,134.8,0,141.9v516.1c0,7.1,5.8,12.9,12.9,12.9h51.6c7.1,0,12.9-5.8,12.9-12.9
		s-5.8-12.9-12.9-12.9H25.8V154.8h748.4v490.3H116.1c-7.1,0-12.9,5.8-12.9,12.9S109,671,116.1,671h671c7.1,0,12.9-5.8,12.9-12.9
		V141.9C800,134.8,794.2,129,787.1,129z"/>
	<path class="st1" d="M400,517.1c-64.6,0-117.1-52.5-117.1-117.1v-1h234.3v1C517.1,464.6,464.6,517.1,400,517.1z"/>
	<path class="st1" d="M400,516.1c64,0,116.1-52.1,116.1-116.1H283.9C283.9,464,336,516.1,400,516.1z"/>
	<path class="st2" d="M282.9,401v-1c0-64.6,52.5-117.1,117.1-117.1S517.1,335.4,517.1,400v1H282.9z"/>
	<path class="st2" d="M516.1,400c0-64-52.1-116.1-116.1-116.1S283.9,336,283.9,400H516.1z"/>
	<path d="M400,541.9c78.3,0,141.9-63.7,141.9-141.9c0-78.3-63.7-141.9-141.9-141.9S258.1,321.7,258.1,400
		C258.1,478.3,321.7,541.9,400,541.9z M400,283.9c64,0,116.1,52.1,116.1,116.1S464,516.1,400,516.1S283.9,464,283.9,400
		S336,283.9,400,283.9z"/>
	<path d="M138.7,319.2c2,1.2,4.3,1.7,6.4,1.7c4.5,0,8.8-2.3,11.2-6.5l47.7-82.7c3.6-6.2,1.4-14.1-4.7-17.6
		c-6.2-3.6-14.1-1.4-17.6,4.7L134,301.6C130.4,307.7,132.6,315.6,138.7,319.2z"/>
	<path d="M198.3,353.6c2,1.2,4.3,1.7,6.4,1.7c4.5,0,8.8-2.3,11.2-6.5l47.7-82.7c3.6-6.2,1.4-14.1-4.7-17.6
		c-6.2-3.6-14.1-1.4-17.6,4.7L193.6,336C190,342.1,192.2,350,198.3,353.6z"/>
	<path d="M168.5,336.4c2,1.2,4.3,1.7,6.4,1.7c4.5,0,8.8-2.3,11.2-6.5l47.7-82.7c3.6-6.2,1.4-14.1-4.7-17.6
		c-6.2-3.6-14.1-1.5-17.6,4.7l-47.7,82.7C160.3,324.9,162.4,332.8,168.5,336.4z"/>
	<path d="M628.8,537.1c-6.2-3.6-14.1-1.5-17.6,4.7l-15.3,26.4c-3.6,6.2-1.4,14.1,4.7,17.6c2,1.2,4.3,1.7,6.4,1.7
		c4.5,0,8.8-2.3,11.2-6.5l15.3-26.4C637.1,548.5,635,540.6,628.8,537.1z"/>
	<path d="M661.3,480.8c-6.2-3.6-14.1-1.5-17.6,4.7L628.4,512c-3.6,6.2-1.4,14.1,4.7,17.6c2,1.2,4.3,1.7,6.4,1.7
		c4.5,0,8.8-2.3,11.2-6.5l15.3-26.4C669.5,492.3,667.4,484.4,661.3,480.8z"/>
	<path d="M569.2,502.6c-6.2-3.6-14.1-1.5-17.6,4.7l-15.3,26.4c-3.6,6.2-1.4,14.1,4.7,17.6c2,1.2,4.3,1.7,6.4,1.7
		c4.5,0,8.8-2.3,11.2-6.5l15.3-26.4C577.5,514.1,575.4,506.2,569.2,502.6z"/>
	<path d="M573.5,495.2c2,1.2,4.3,1.7,6.4,1.7c4.5,0,8.8-2.3,11.2-6.5l15.3-26.4c3.6-6.2,1.4-14.1-4.7-17.6
		c-6.2-3.6-14.1-1.5-17.6,4.7l-15.3,26.4C565.2,483.7,567.3,491.6,573.5,495.2z"/>
	<path d="M599,519.9c-6.2-3.6-14.1-1.5-17.6,4.7L566.1,551c-3.6,6.2-1.4,14.1,4.7,17.6c2,1.2,4.3,1.7,6.4,1.7
		c4.5,0,8.8-2.3,11.2-6.5l15.3-26.4C607.3,531.3,605.2,523.4,599,519.9z"/>
	<path d="M603.3,512.4c2,1.2,4.3,1.7,6.4,1.7c4.5,0,8.8-2.3,11.2-6.5l15.3-26.4c3.6-6.2,1.4-14.1-4.7-17.6
		c-6.2-3.6-14.1-1.5-17.6,4.7l-15.3,26.4C595,500.9,597.1,508.8,603.3,512.4z"/>
	<path d="M611.2,258.2c2.4,4.1,6.7,6.5,11.2,6.5c2.2,0,4.4-0.6,6.4-1.7c6.2-3.6,8.3-11.5,4.7-17.6l-15.3-26.4
		c-3.6-6.2-11.5-8.3-17.6-4.7c-6.2,3.6-8.3,11.5-4.7,17.6L611.2,258.2z"/>
	<path d="M628.4,288l15.3,26.4c2.4,4.1,6.7,6.5,11.2,6.5c2.2,0,4.4-0.6,6.4-1.7c6.2-3.6,8.3-11.5,4.7-17.6l-15.3-26.4
		c-3.6-6.2-11.5-8.3-17.6-4.7C626.9,274,624.8,281.8,628.4,288z"/>
	<path d="M551.6,292.6c2.4,4.1,6.7,6.5,11.2,6.5c2.2,0,4.4-0.6,6.4-1.7c6.2-3.6,8.3-11.5,4.7-17.6l-15.3-26.4
		c-3.6-6.2-11.5-8.3-17.6-4.7c-6.2,3.6-8.3,11.5-4.7,17.6L551.6,292.6z"/>
	<path d="M584,348.9c2.4,4.1,6.7,6.5,11.2,6.5c2.2,0,4.4-0.6,6.4-1.7c6.2-3.6,8.3-11.5,4.7-17.6l-15.3-26.4
		c-3.6-6.2-11.5-8.3-17.6-4.7c-6.2,3.6-8.3,11.5-4.7,17.6L584,348.9z"/>
	<path d="M613.8,331.7c2.4,4.1,6.7,6.5,11.2,6.5c2.2,0,4.4-0.6,6.4-1.7c6.2-3.6,8.3-11.5,4.7-17.6l-47.7-82.7
		c-3.6-6.2-11.5-8.3-17.6-4.7c-6.2,3.6-8.3,11.5-4.7,17.6L613.8,331.7z"/>
	<path d="M181.8,581.1c2.4,4.1,6.7,6.5,11.2,6.5c2.2,0,4.4-0.6,6.4-1.7c6.2-3.6,8.3-11.5,4.7-17.6l-47.7-82.7
		c-3.6-6.2-11.5-8.3-17.6-4.7c-6.2,3.6-8.3,11.5-4.7,17.6L181.8,581.1z"/>
	<path d="M216,451.1c-3.6-6.2-11.5-8.3-17.6-4.7c-6.2,3.6-8.3,11.5-4.7,17.6l47.7,82.7c2.4,4.1,6.7,6.5,11.2,6.5
		c2.2,0,4.4-0.6,6.4-1.7c6.2-3.6,8.3-11.5,4.7-17.6L216,451.1z"/>
	<path d="M218.6,524.6c-3.6-6.2-11.5-8.3-17.6-4.7c-6.2,3.6-8.3,11.5-4.7,17.6l15.3,26.4c2.4,4.1,6.7,6.5,11.2,6.5
		c2.2,0,4.4-0.6,6.4-1.7c6.2-3.6,8.3-11.5,4.7-17.6L218.6,524.6z"/>
	<path d="M201.4,494.8l-15.3-26.4c-3.6-6.2-11.5-8.3-17.6-4.7c-6.2,3.6-8.3,11.5-4.7,17.6l15.3,26.4c2.4,4.1,6.7,6.5,11.2,6.5
		c2.2,0,4.4-0.6,6.4-1.7C202.9,508.8,205,500.9,201.4,494.8z"/>
</g>
</svg>
